<svg width="60" height="60" viewBox="0 0 60 60" fill="none" xmlns="http://www.w3.org/2000/svg">
<path d="M46.6731 42.1154L54.6693 46.7307" stroke="#365757" stroke-width="2" stroke-linecap="round" stroke-linejoin="round"/>
<path d="M5.33081 15.5769L13.327 20.1923" stroke="#365757" stroke-width="2" stroke-linecap="round" stroke-linejoin="round"/>
<path d="M13.327 42.1154L5.33081 46.7307" stroke="#365757" stroke-width="2" stroke-linecap="round" stroke-linejoin="round"/>
<path d="M54.6693 15.5769L46.6731 20.1923" stroke="#365757" stroke-width="2" stroke-linecap="round" stroke-linejoin="round"/>
<path d="M10.3846 31.1538H1.15381" stroke="#365757" stroke-width="2" stroke-linecap="round" stroke-linejoin="round"/>
<path d="M58.846 31.1538H49.6152" stroke="#365757" stroke-width="2" stroke-linecap="round" stroke-linejoin="round"/>
<path d="M48.8655 36.8308L53.3309 38.0193" stroke="#365757" stroke-width="2" stroke-linecap="round" stroke-linejoin="round"/>
<path d="M6.66919 24.2883L11.1346 25.4768" stroke="#365757" stroke-width="2" stroke-linecap="round" stroke-linejoin="round"/>
<path d="M43.2 46.6615L46.4538 49.9153" stroke="#365757" stroke-width="2" stroke-linecap="round" stroke-linejoin="round"/>
<path d="M16.8 46.6615L13.5461 49.9153" stroke="#365757" stroke-width="2" stroke-linecap="round" stroke-linejoin="round"/>
<path d="M11.1346 36.8308L6.66919 38.0193" stroke="#365757" stroke-width="2" stroke-linecap="round" stroke-linejoin="round"/>
<path d="M53.3309 24.2883L48.8655 25.4768" stroke="#365757" stroke-width="2" stroke-linecap="round" stroke-linejoin="round"/>
<path d="M30 38.0769V58.8461" stroke="#365757" stroke-width="2" stroke-linecap="round" stroke-linejoin="round"/>
<path d="M51.2422 2.98848C50.3422 2.08848 48.8768 2.08848 47.9768 2.98848L29.9999 20.7692L12.0114 2.98848C11.1114 2.08848 9.64604 2.08848 8.74604 2.98848C7.84604 3.88848 7.84604 5.35386 8.74604 6.25386L23.0768 20.7V57.6923C23.0768 58.3269 23.596 58.8462 24.2307 58.8462H35.7691C36.4037 58.8462 36.923 58.3269 36.923 57.6923V20.7L51.2422 6.24232C52.1537 5.34232 52.1537 3.88848 51.2422 2.98848Z" stroke="#365757" stroke-width="2" stroke-linecap="round" stroke-linejoin="round"/>
<path d="M29.9999 12.6923C33.1862 12.6923 35.7692 10.1093 35.7692 6.92304C35.7692 3.73678 33.1862 1.15381 29.9999 1.15381C26.8137 1.15381 24.2307 3.73678 24.2307 6.92304C24.2307 10.1093 26.8137 12.6923 29.9999 12.6923Z" stroke="#365757" stroke-width="2" stroke-linejoin="round"/>
</svg>
