<svg width="60" height="56" viewBox="0 0 60 56" fill="none" xmlns="http://www.w3.org/2000/svg">
<path d="M45 5.76929H54.2307C56.7807 5.76929 58.8461 7.83467 58.8461 10.3847V49.6154C58.8461 52.1654 56.7807 54.2308 54.2307 54.2308H5.76919C3.21919 54.2308 1.15381 52.1654 1.15381 49.6154V10.3847C1.15381 7.83467 3.21919 5.76929 5.76919 5.76929H15" stroke="#365757" stroke-width="2" stroke-linejoin="round"/>
<path d="M19.6154 5.76929H40.3846" stroke="#365757" stroke-width="2" stroke-linejoin="round"/>
<path d="M1.15381 17.3076H54.2307" stroke="#365757" stroke-width="2" stroke-linecap="round" stroke-linejoin="round"/>
<path d="M19.6154 10.3846C19.6154 11.6538 18.5769 12.6923 17.3077 12.6923C16.0385 12.6923 15 11.6538 15 10.3846V3.4615C15 2.19227 16.0385 1.15381 17.3077 1.15381C18.5769 1.15381 19.6154 2.19227 19.6154 3.4615V10.3846Z" stroke="#365757" stroke-width="2" stroke-linecap="round" stroke-linejoin="round"/>
<path d="M44.9999 10.3846C44.9999 11.6538 43.9614 12.6923 42.6922 12.6923C41.423 12.6923 40.3845 11.6538 40.3845 10.3846V3.4615C40.3845 2.19227 41.423 1.15381 42.6922 1.15381C43.9614 1.15381 44.9999 2.19227 44.9999 3.4615V10.3846Z" stroke="#365757" stroke-width="2" stroke-linecap="round" stroke-linejoin="round"/>
<path d="M10.3845 26.5383H14.9999" stroke="#365757" stroke-width="2" stroke-linecap="round" stroke-linejoin="round"/>
<path d="M21.9231 26.5383H26.5385" stroke="#365757" stroke-width="2" stroke-linecap="round" stroke-linejoin="round"/>
<path d="M33.4615 26.5383H38.0769" stroke="#365757" stroke-width="2" stroke-linecap="round" stroke-linejoin="round"/>
<path d="M45 26.5383H49.6154" stroke="#365757" stroke-width="2" stroke-linecap="round" stroke-linejoin="round"/>
<path d="M10.3845 35.7693H14.9999" stroke="#365757" stroke-width="2" stroke-linecap="round" stroke-linejoin="round"/>
<path d="M21.9231 35.7693H26.5385" stroke="#365757" stroke-width="2" stroke-linecap="round" stroke-linejoin="round"/>
<path d="M33.4615 35.7693H38.0769" stroke="#365757" stroke-width="2" stroke-linecap="round" stroke-linejoin="round"/>
<path d="M45 35.7693H49.6154" stroke="#365757" stroke-width="2" stroke-linecap="round" stroke-linejoin="round"/>
<path d="M10.3845 45H14.9999" stroke="#365757" stroke-width="2" stroke-linecap="round" stroke-linejoin="round"/>
<path d="M21.9231 45H26.5385" stroke="#365757" stroke-width="2" stroke-linecap="round" stroke-linejoin="round"/>
<path d="M33.4615 45H38.0769" stroke="#365757" stroke-width="2" stroke-linecap="round" stroke-linejoin="round"/>
</svg>
