<svg width="512" height="512" viewBox="0 0 512 512" fill="none" xmlns="http://www.w3.org/2000/svg">
<g clip-path="url(#clip0)">
<path d="M510.967 196.781C508.407 188.906 501.696 183.538 493.449 182.773L336.914 168.255L305.885 96.201C304.246 92.397 299.836 90.639 296.031 92.279C292.227 93.917 290.471 98.329 292.109 102.132L324.9 178.276C325.986 180.797 328.363 182.524 331.096 182.777L492.065 197.706C495.259 198.002 496.372 200.398 496.703 201.414C497.033 202.43 497.541 205.022 495.131 207.139L373.678 313.835C371.615 315.647 370.708 318.44 371.312 321.119L406.857 478.822C407.562 481.952 405.628 483.751 404.762 484.379C403.898 485.007 401.592 486.294 398.831 484.653L259.828 402.116C257.469 400.716 254.529 400.716 252.171 402.116L113.168 484.653C110.408 486.295 108.102 485.007 107.237 484.379C106.372 483.751 104.437 481.952 105.142 478.823L123.49 397.417C124.401 393.376 121.863 389.362 117.823 388.452C113.776 387.542 109.769 390.079 108.858 394.119L90.51 475.526C88.69 483.604 91.721 491.646 98.42 496.514C105.119 501.38 113.705 501.779 120.824 497.551L255.998 417.286L391.172 497.551C394.452 499.498 398.042 500.464 401.615 500.464C405.8 500.464 409.962 499.139 413.575 496.514C420.275 491.646 423.305 483.605 421.485 475.525L386.92 322.165L505.029 218.41C511.251 212.944 513.525 204.657 510.967 196.781Z" fill="#DD9881"/>
<path d="M292.101 64.1951L274.734 23.8671C271.458 16.2611 264.28 11.5371 255.998 11.5371C247.718 11.5371 240.539 16.2621 237.263 23.8681L175.083 168.256L18.5511 182.773C10.3061 183.538 3.59308 188.905 1.03308 196.781C-1.52592 204.656 0.749082 212.944 6.97108 218.41L125.077 322.165L116.086 362.057C115.175 366.098 117.713 370.112 121.753 371.022C122.309 371.147 122.863 371.208 123.409 371.208C126.839 371.208 129.933 368.841 130.718 365.355L140.688 321.118C141.292 318.439 140.384 315.645 138.322 313.834L16.8701 207.141C14.4601 205.024 14.9681 202.432 15.2991 201.416C15.6291 200.4 16.7411 198.004 19.9361 197.708L180.904 182.779C183.637 182.526 186.014 180.799 187.1 178.278L251.04 29.8011C252.309 26.8551 254.931 26.5361 255.999 26.5361C257.068 26.5361 259.69 26.8541 260.959 29.8001L278.326 70.1271C279.966 73.9311 284.376 75.6881 288.18 74.0491C291.983 72.4111 293.739 67.9991 292.101 64.1951Z" fill="#DD9881"/>
</g>
<defs>
<clipPath id="clip0">
<rect width="512" height="512" fill="white"/>
</clipPath>
</defs>
</svg>
