<svg width="50" height="65" viewBox="0 0 50 65" fill="none" xmlns="http://www.w3.org/2000/svg">
<path d="M15 58.75H20" stroke="#365757" stroke-width="2" stroke-linecap="round" stroke-linejoin="round"/>
<path d="M33.75 11.25V5C33.75 2.925 32.075 1.25 30 1.25H5C2.925 1.25 1.25 2.925 1.25 5V60C1.25 62.075 2.925 63.75 5 63.75H30C32.075 63.75 33.75 62.075 33.75 60V43.75" stroke="#365757" stroke-width="2" stroke-linecap="round" stroke-linejoin="round"/>
<path d="M12.5 11.25C10.425 11.25 8.75 12.925 8.75 15V35C8.75 37.075 10.425 38.75 12.5 38.75H16.25V46.25L23.75 38.75H45C47.075 38.75 48.75 37.075 48.75 35V15C48.75 12.925 47.075 11.25 45 11.25H12.5Z" stroke="#365757" stroke-width="2" stroke-linejoin="round"/>
<path d="M16.25 21.25H41.25" stroke="#365757" stroke-width="2" stroke-linecap="round" stroke-linejoin="round"/>
<path d="M16.25 28.75H36.25" stroke="#365757" stroke-width="2" stroke-linecap="round" stroke-linejoin="round"/>
</svg>
