<svg xmlns="http://www.w3.org/2000/svg" width="600" height="633" fill="none"  xmlns:v="https://vecta.io/nano"><g clip-path="url(#A)"><path d="M2.691 317.65c5.858-31.066 19.802-60.135 34.894-87.671 30.051-54.839 64.04-110.318 111.708-151.709 5.494-4.777 11.176-9.333 17.034-13.657-.122.772-.177 1.589-.287 2.593.132.783.298 1.809.507 2.813.1.474 1.269.772 1.501.364.871-1.533 1.82-3.045 2.482-4.677.474-1.192-.607-2.504-1.909-2.736l3.045-2.195c18.953-18.655 41.734-33.382 66.39-43.653.132.143.43.221.639.32l.541-.585c-.077-.044-.165-.088-.243-.132 13.801-5.67 28.176-9.962 42.793-12.753C294.682 1.51 307.689.23 320.695.021c-.198.177-.408.386-.673.596.563.585.85 1.136 1.291 1.291.607.21 1.125-.165 1.258-.872a1.69 1.69 0 0 0-.155-1.026c46.345-.419 92.546 12.687 133.485 34.364 55.005 29.124 105.939 74.961 129.746 133.562 7.921 19.505 12.234 39.671 13.724 60.036-1.357.055-2.24.937-2.207 2.25.022 1.037.949 2.052 1.964 2.129.176.011.353 0 .541-.033 2.261 42.076-7.27 84.912-21.821 124.572-8.252 22.505-17.927 44.513-28.838 65.915-.176-.563-.948-1.015-1.577-.728-.552.254-.938.849-1.247 1.147.144 1.048.96 1.556 1.688 1.346.11-.033.21-.088.309-.132-13.194 25.671-28.186 50.449-44.712 74.09-.309-.419-.783-.662-1.324-.596-.761.088-1.401.816-1.346 1.522.055.629.441 1.181.971 1.468-6.509 9.222-13.249 18.279-20.21 27.138-11.827 15.058-24.988 30.944-39.528 45.672-.121-.894-.816-1.434-1.787-1.335-1.026.11-1.677.838-1.621 1.809.044.794.628 1.39 1.423 1.523-20.056 19.989-42.705 37.629-68.067 47.767-.176-.805-.706-1.533-1.632-2.085-.762-.452-1.611-.794-2.45-1.092-1.467-.518-2.493-.22-3.166.817-1.059 1.61-1.081 3.497.199 4.479.143.11.309.209.463.32-10.414 3.552-21.269 5.813-32.588 6.442-.43-1.125-1.235-1.5-2.217-1.478-.607.011-1.291.529-1.776.993-.177.165-.111.408.099.64l-1.247.033c-30.999.364-59.197-13.845-84.371-30.669-29.775-19.89-58.359-41.7-87.394-62.65l-8.23-5.902c.143-.022.298-.011.452.044 1.986.784 3.938 1.302 6.134.993.706-.099 1.599.695 2.305 1.203 2.703 1.919 3.762 1.721 6.41-1.556l-6.851-3.585c-2.493.949-5.152.927-7.832.165-.563-.165-1.203-.121-1.81-.099-.816.033-1.467.243-1.985.563l-7.932-5.66c.066-.264.154-.54.242-.816.398-1.213-.562-2.162-1.721-1.831-.529.154-1.07.287-1.599.43l-11.076-7.943c-.122-.452-.331-.872-.872-1.103-.066.121-.121.231-.187.342-16.449-11.87-32.699-23.994-48.154-37.089-23.553-19.957-45.738-43.013-59.44-71.001C.165 378.567-3.023 347.976 2.691 317.65zm592.719-48.121c.265.022.817-.53.795-.784-.023-.342-.486-.65-.894-1.136-.331.474-.783.828-.739 1.125.044.32.529.784.838.795zm-4.126-29.797c1.523.033 2.538-.739 2.527-1.92-.011-1.202-1.037-2.118-2.405-2.129-1.39-.011-2.494.838-2.549 1.986-.077 1.191.905 2.03 2.427 2.063zm-4.236 27.226c.188.033.43-.287.651-.452l-.816-.971-.883.916c.353.176.684.441 1.048.507zm-5.659-38.357c.595-.144.86-.718.562-1.346-.275-.574-.816-.905-1.379-.541-.386.243-.573.794-1.07 1.545.916.176 1.445.452 1.887.342zm-16.427-30.989c-.904.099-1.059.85-1.246 1.556-.177.65.022 1.169.706 1.39.75.253 1.412-.265 1.511-1.159.088-.926-.342-1.765-.971-1.787zm3.409-17.684c-.22.11-.452.221-.673.342.166.199.32.408.497.585.022.022.32-.144.32-.221 0-.243-.089-.474-.144-.706zm1.523 12.234c-.409.144-.684.673-1.28 1.302.838.375 1.313.75 1.776.739.695-.011.894-.607.75-1.235-.154-.607-.651-1.015-1.246-.806zm2.228-9.906c.353-.022.872-.309 1.004-.618.276-.629-.066-1.269-.728-1.335-.453-.044-.949.386-1.28.541-.066 1.037.342 1.445 1.004 1.412zm3.056-7.778c.099-.684-.651-1.301-1.534-1.202-.794.088-1.456.375-1.555 1.313-.088.794.54 1.555 1.258 1.533.981-.033 1.687-.662 1.831-1.644zm-1.346 62.121c-.055-.773-.938-1.446-1.92-1.457-.948-.011-1.776.773-1.71 1.633.067.916.872 1.776 1.666 1.754 1.092-.022 2.03-.938 1.964-1.93zm-5.031 44.491c.111 1.048.872 1.633 1.832 1.423.772-.165 1.301-.938 1.125-1.655-.243-.959-1.026-1.566-1.942-1.467-.684.066-1.114.794-1.015 1.699zm-.242-22.891c.397-.066 1.158-.132 1.875-.353 1.467-.463 2.438-1.942 2.394-3.486-.044-1.611-.993-2.968-2.46-3.453-.574-.188-1.169-.309-1.765-.386-2.67-.331-4.413.838-4.623 3.089-.275 2.868 1.346 4.622 4.579 4.589zm-6.277 39.99c1.169.133 1.842-.529 1.941-1.908.088-1.39-.463-2.284-1.489-2.35-1.324-.099-2.56.794-2.648 1.898-.088 1.147.894 2.217 2.196 2.36zm-2.825-145.079c1.236-.033 2.207-1.071 2.174-2.339-.022-1.159-1.126-1.964-2.549-1.865-1.125.078-1.963.949-1.941 2.019.022 1.236 1.059 2.218 2.316 2.185zm-2.57 33.382c.011-.121.044-.353.033-.364-.21-.055-.43-.066-.64-.088-.011.132-.033.253-.044.386l.651.066zm.397-55.424c.497-.132 1.092-.574 1.28-1.026.342-.838-.64-1.942-1.489-1.688-.464.144-.806.695-1.015.883-.078 1.246.507 2.019 1.224 1.831zm-3.387 257.384l.497-.232-.221-.253c-.11.044-.254.066-.298.154-.055.077.011.221.022.331zm-4.159 27.944c.806.132 1.423-.287 1.788-.982.474-.905.176-1.986-.872-2.637-.408-.254-1.158-.298-1.6-.099-.452.198-.728.805-.915 1.037.022 1.423.728 2.537 1.599 2.681zm-2.394-52.302c.1.452.64.816 1.225 1.5.463-.739.916-1.158.982-1.622.088-.695-.475-1.026-1.147-.971-.651.045-1.192.453-1.06 1.093zm1.567-228.944c.684-.1 1.269-.872 1.236-1.644-.056-1.169-.883-1.964-2.03-1.92-.938.034-1.765.806-1.787 1.666-.011 1.103 1.312 2.074 2.581 1.898zm-10.955 260.219c-.187-.463-.673-.816-.882-1.048-1.081-.022-1.843.761-1.556 1.423.188.441.728.894 1.192 1.004.717.176 1.511-.728 1.246-1.379zm5.605-209.969c-.387-1.357-1.424-1.843-2.758-1.313-.993.397-1.876.883-2.174 2.041-.386 1.478.552 2.758 2.041 2.736 2.184-.044 3.431-1.534 2.891-3.464zm-2.45 89.976l.707.926c.22-.176.639-.386.617-.518-.055-.342-.309-.662-.496-1.004l-.828.596zm3.067-64.415c.089-.045.1-.232.155-.364l-.375-.133c-.044.121-.089.254-.144.375.122.055.276.166.364.122zm-1.059 203.283c.155.034.64-.584.629-.893-.022-.629-.474-1.103-1.147-.96-.32.066-.541.541-1.015 1.07.618.342 1.048.684 1.533.783zm-1.5-14.462c.585.253 1.103-.055 1.324-.684.265-.75-.254-1.578-.993-1.468-.474.067-.905.453-1.677.883.629.607.927 1.081 1.346 1.269zm-3.817 41.49c.927-.011 1.6-.75 1.588-1.732-.011-1.235-.893-2.018-2.338-2.085-1.114-.044-1.931.839-1.854 1.986.1 1.103 1.148 1.843 2.604 1.831zm-1.302-17.496c1.103 0 1.931-.861 1.964-2.041.044-1.699-1.214-3.122-2.648-2.979-.926.089-1.621 1.082-1.666 2.35-.055 1.611.883 2.67 2.35 2.67zM91.134 383.168c-.64.099-1.213.551-1.655.772-.121 1.158.827 2.118 1.666 2.085.684-.022 1.346-.739 1.39-1.489.044-.773-.585-1.501-1.401-1.368zm.044-105.983c-.165-.166-.353-.298-.541-.43-.066.11-.143.22-.21.33l.552.42c.066-.122.21-.298.199-.32zm4.479 21.446c-.011.728.805 1.301 1.875 1.103.099-.32.386-.805.375-1.28-.011-.684-.552-1.004-1.191-.971-.684.033-1.059.497-1.059 1.148zm9.862-136.685c-.265-.066-.651.353-.882.497-.089.86.452 1.544.97 1.323.331-.143.728-.639.706-.959-.011-.309-.463-.784-.794-.861zm7.535 88.354l-.607 1.269c.342.154.684.386 1.037.43.11.011.463-.496.408-.64-.11-.331-.441-.596-.838-1.059zm3.497 15.003c-.43.221-.717.729-1.357 1.402.938.397 1.511.838 2.074.805.298-.011.761-.805.805-1.269.067-.739-.849-1.291-1.522-.938zm1.931 113.717c-.144-.331-.751-.784-.938-.706-.453.209-.783.684-1.015.904.132 1.015.772 1.468 1.335 1.247.662-.276.871-.861.618-1.445zm-.519 46.411c-.32.485-.485 1.07-.805 1.82.651.938 1.235 1.986 2.03 2.835.474.508 1.224.872 1.919 1.048 1.732.441 3.607-.276 4.369-1.533.772-1.291.143-3.597-1.39-4.777-.585-.441-1.28-.794-1.975-1.026-1.864-.596-3.012-.132-4.148 1.633zm1.467 47.812l.75.099c-.022-.243-.011-.496-.077-.728-.011-.055-.353-.11-.375-.066-.132.22-.198.463-.298.695zm4.667-72.248c-.089.033-.122.232-.177.353l.298.265.287-.519c-.144-.044-.298-.143-.408-.099zm.099-15.29c-.188-.574-.75-1.026-1.39-1.853-.496.761-.96 1.158-1.026 1.621-.11.773.265 1.423 1.125 1.578.695.121 1.512-.64 1.291-1.346zm-3.618-45.319c-.695.122-1.446.96-1.203 1.589.232.585.794 1.037 1.456 1.842.651-.816 1.236-1.28 1.423-1.875.265-.817-.794-1.699-1.676-1.556zm2.393-140.347c-1.059.011-1.831.706-1.82 1.622.033 1.5 1.081 2.526 2.604 2.559.959.022 1.765-.739 1.776-1.677.033-1.555-.96-2.526-2.56-2.504zm3.156-75.325c-.331.154-.519.595-.96 1.158.54.353.949.761 1.401.838.254.045.772-.43.871-.75.21-.728-.673-1.544-1.312-1.246zm.099 221.729c-.971-.1-1.743.562-1.743 1.5 0 .971.662 1.71 1.577 1.754.905.044 1.743-.684 1.788-1.544.044-.883-.651-1.622-1.622-1.71zM126.071 439l-4.004.375c-.938.11-1.666.916-1.688 1.787s.541 1.324 1.302 1.589c1.257.441 2.493.937 3.773 1.29.695.199 1.522.342 2.184.144.629-.188 1.379-.761 1.589-1.346.86-2.394-.585-4.115-3.156-3.839zm-2.559 30.646l4.17 1.964c.717.32 1.611-.165 1.765-.849.199-.861-.232-1.545-.904-1.832-1.523-.64-3.111-.948-4.678-.077-.099.066-.121.254-.353.794zm7.491-78.8c-.111-.276-.739-.596-.96-.508-.309.133-.463.64-.673.96.287.298.441.607.662.673.562.155 1.213-.551.971-1.125zm4.28 2.978c-.011 1.148.794 2.008 1.908 2.03.839.022 1.446-.772 1.446-1.875 0-1.081-.552-1.931-1.335-2.052-1.004-.154-2.008.783-2.019 1.897zm4.358-7.468c-.1-.287-.596-.441-.916-.651-.221.32-.43.651-.706 1.07.353.32.64.794.904.783.718-.022.916-.628.718-1.202zm2.791 59.175c-.221.298-.331.651-.497 1.015l.872.331c.11-.364.253-.717.287-1.081.011-.089-.618-.32-.662-.265zm2.327-247.081c-.298-.066-.761.552-1.026.751.144 1.059.64 1.368 1.258 1.202.331-.088.838-.684.772-.816-.198-.464-.584-1.037-1.004-1.137zm5.02 228.04c-.993.629-2.196.915-3.232 1.489-.673.375-1.115 1.114-.729 1.887.232.463.773.948 1.258 1.048.861.165 1.776.044 3.365.044-.111-.011.485.11 1.07.121 1.655.033 2.46-.971 2.151-2.592-.364-1.876-1.864-3.266-3.883-1.997zm1.986-95.812c.617.397.937.739 1.29.795.662.088 1.17-.287 1.159-.982-.011-.673-.486-1.17-1.137-.982-.441.11-.761.651-1.312 1.169zm4.887 53.405c-.386-.099-.883.089-1.291.243-.739.276-1.423.827-1.092 1.633.231.562.982.915 1.555 1.412.695-.386 1.313-.563 1.666-.971.342-.386.684-1.103.541-1.5-.133-.397-.861-.684-1.379-.817zm-.298-134.754c-.717.144-.971.717-.794 1.28.143.452.628.794 1.191 1.445.485-.706.949-1.103 1.037-1.566.143-.728-.684-1.313-1.434-1.159zm-1.931 129.261c.419.761 1.787.937 2.416.452.662-.519.905-1.302.596-2.008-.662-1.5-1.434-2.957-2.251-4.391-.198-.353-.684-.562-1.07-.794-.783-.474-2.007.143-2.085 1.269 0 .066-.099.408.011.651.773 1.621 1.512 3.254 2.383 4.821zm.397-120.612c.022-.022-.143-.209-.231-.32l-.552.464c.077.11.166.22.243.331.187-.144.386-.298.54-.475zm1.412-116.463c-.077-.022-.485.497-.419.64.133.353.453.64.872 1.18.287-.595.673-1.048.562-1.246-.154-.298-.639-.464-1.015-.574zm.078 57.575c-.232.386-.817.938-.883 1.534-.121 1.136.905 1.941 2.03 1.842.728-.066 1.379-.816 1.324-1.544-.077-1.126-.993-1.942-2.471-1.832zm-.21 25.131c-1.092.066-1.975.507-2.614 1.434-1.181 1.71-.684 3.21 1.268 3.685.43.099.872.165 1.17.22 1.886.089 3.133-1.279 3.011-3.155-.077-1.302-1.313-2.261-2.835-2.184zm2.912 157.016c-.033.982.707 1.853 1.545 1.82 1.522-.066 2.615-.959 2.813-2.327.132-.894-.563-1.622-1.633-1.688-1.643-.111-2.68.728-2.725 2.195zm2.207-7.799c-.243.706.518 1.467 1.566 1.456.199-.265.651-.64.817-1.125.242-.706-.497-1.556-1.236-1.379-.452.121-.993.606-1.147 1.048zm13.062-200.67l-.409.607.353.684c.199-.143.596-.353.574-.419-.121-.309-.342-.585-.518-.872zm5.416 268.527c-.585-.221-1.169-.111-1.401.628-.055.717.309 1.148.993 1.192.64.044 1.236-.243 1.214-.949 0-.298-.453-.739-.806-.871zm1.346 12.907c.121-.099.066-.607-.066-.817-.486-.706-1.71-.805-2.35-.187-.176.165-.187.518-.342 1.026.43.243.894.717 1.368.728.463.011.982-.408 1.39-.75zm-1.147 28.252l.96.883c.209-.309.507-.585.606-.927.044-.154-.342-.629-.43-.596-.342.1-.651.342-1.136.64zm2.416-401.934c-.177.188-.519.408-.486.552.044.232.342.419.541.618.198-.221.54-.441.507-.585-.066-.221-.364-.386-.562-.585zm-.066 257.373c-.353-.121-.905.386-1.755.805.673.64.993 1.17 1.435 1.313.606.199 1.268-.209 1.235-.86-.022-.464-.496-1.126-.915-1.258zm14.517 149.669c1.479-1.147 1.909-3.122 1.17-4.843-.596-1.379-2.736-2.063-4.314-1.291-1.809.883-2.57 2.494-2.658 4.391-.022.508.353 1.169.75 1.545.64.606 1.445 1.036 2.471 1.743 1.059-.618 1.875-1.004 2.581-1.545zm-2.151 23.597c.011 1.103.287 2.096 1.291 2.703.838.507 2.35.419 2.979-.21.695-.695.805-1.599.584-2.515-.099-.43-.298-.86-.54-1.224-.618-.96-1.854-1.501-2.692-1.225-.949.309-1.611 1.324-1.622 2.471zm2.637-133.485c-.43-1.181-1.467-1.523-2.99-1.269-1.478.254-2.383.96-2.57 2.096-.099.585-.111 1.192-.133 1.445.089 3.597 2.758 5.119 5.56 3.409.541-.331 1.082-1.224 1.037-1.82-.099-1.313-.452-2.626-.904-3.861zm.265-95.922c-.166.055-.331.121-.552.199.188.066.342.176.419.132s.089-.221.133-.331zm-.122 130.551c-.849-.144-1.699.573-1.82 1.842.21.221.496.772.938.96.761.32 1.82-.375 2.041-1.181.165-.573-.486-1.5-1.159-1.621zm-.937 6.95c-.221-.276-.839-.497-1.126-.375-.452.198-.761.695-1.312 1.235.672.32 1.037.64 1.401.64.849-.011 1.478-.949 1.037-1.5zm-4.17-11.573c.033-.882-.773-1.566-1.777-1.511-1.169.055-1.908.872-1.632 2.085.132.574.761 1.026 1.037 1.368 1.522-.077 2.338-.86 2.372-1.942zm-1.666-315.676c.838.033 1.445-.882 1.346-1.897-.067-.662-.497-1.081-1.17-1.015-.86.088-1.401.916-1.357 2.284.287.165.728.618 1.181.629zm-.795 278.433c-.154.143-.275.32-.408.485l.298.199.408-.508c-.11-.055-.275-.198-.298-.176zm-3.397-31.794c.86-.132 1.257-.761 1.5-1.5.254-.772.132-1.489-.496-2.063-.1-.099-.276-.11-.42-.177-.287.033-.64-.022-.86.111-.828.507-1.236 1.301-1.247 2.272 0 .717.85 1.456 1.523 1.357zm-1.335 20.365c-.033.088.066.232.099.353.121.011.243.011.364.022-.055-.187-.099-.375-.154-.574-.111.067-.276.1-.309.199zm1.754 112.061c-.64.486-1.026 1.313-1.324 1.71.099 1.556 1.092 2.461 2.118 2.328 1.721-.209 2.902-1.798 2.604-3.563-.045-.265-.232-.596-.464-.739-1.037-.684-2.096-.375-2.934.264zm3.596 25.914c-.099-.22-.408-.342-.673-.54-1.246.386-2.394.971-2.813 2.372-.044.143.408.617.452.595 1.026-.496 2.041-1.015 3.012-1.599.144-.089.133-.596.022-.828zm-2.669-3.993l-4.005-2.438c-1.269.187-1.004 1.335-1.313 2.085-.298.706-.32 1.467.342 2.041.64.551 1.39.551 2.074.187.872-.474 1.666-1.07 2.902-1.875zm-4.402-178.418c-.155 1.015.684 1.974 1.798 2.085.872.088 1.82-.773 1.754-1.6-.077-.949-1.048-1.831-2.107-1.908-.607-.045-1.324.662-1.445 1.423zm1.379-67.857c.596 1.599.926 3.111.662 4.81-.077.496.287 1.136.606 1.599.475.673 1.799.96 2.438.64.905-.441 1.446-1.246 1.247-2.173-.21-.982-.783-1.898-1.291-3.056.232-.651.596-1.467.817-2.317.408-1.577-.464-2.702-2.03-2.713-2.03-.023-3.166 1.29-2.449 3.21zm5.207-166.107c-.982.088-1.589.75-1.567 1.754.022 1.114.817 1.975 1.876 2.052 1.048.066 1.864-.882 1.754-2.041-.099-1.18-.916-1.864-2.063-1.765zm2.681 190.962c-.519 1.059-.751 2.25-1.17 3.563.453.927.739 1.986 1.401 2.703.85.926 2.107 1.29 3.332.706 1.213-.585 1.677-1.787 1.577-3.034-.088-1.192-.408-2.383-.75-3.541-.287-.971-1.147-1.401-2.074-1.523-.96-.11-1.897.276-2.316 1.126zm4.181-75.194c-.056-.507-.442-.97-.784-1.643-.562.441-1.015.629-1.158.96-.254.595-.044 1.18.596 1.467.54.253 1.412-.21 1.346-.784zm-.243-103.677c-1.125-.055-2.096 1.081-2.052 2.372.044 1.236 1.004 2.041 2.394 2.03 1.202-.011 2.074-.75 2.096-1.798a2.57 2.57 0 0 0-2.438-2.603zm2.052 371.045c-1.159-.033-2.184 1.004-2.295 2.317-.099 1.18.982 2.25 2.284 2.262 1.202.011 2.261-1.037 2.305-2.306.045-1.192-1.003-2.24-2.294-2.273zm5.163-8.958c-1.71.1-2.902 1.269-2.891 2.847.011 1.18 1.093 2.085 2.483 2.085 1.588-.011 2.769-.971 2.835-2.317.088-1.522-1.004-2.692-2.427-2.615zm3.894-11.373c-.011-1.115-.971-1.986-2.019-1.832-1.357.199-2.096 1.104-2.008 2.438.067.971.817 1.655 1.743 1.589 1.39-.088 2.295-.96 2.284-2.195zm-5.406-105.829c-.474.099-.871.519-1.61.993.64.563.971 1.037 1.401 1.18.573.199 1.114-.088 1.302-.75.209-.706-.387-1.566-1.093-1.423zm.364 13.282c-.992.023-1.665.751-1.566 1.71.088.905.838 1.556 1.798 1.556.971 0 1.611-.717 1.545-1.732-.067-.938-.762-1.556-1.777-1.534zm4.91-75.634c1.456.033 2.394-1.059 2.316-2.692-.055-1.07-.971-1.765-2.228-1.688-1.401.089-2.184.982-2.096 2.383.088 1.236.816 1.975 2.008 1.997zm-1.6-26.013c-.011.199.287.408.452.607.221-.111.442-.232.651-.342l-.607-.839c-.176.199-.485.375-.496.574zm2.262-176.532l.033.221.231-.143-.264-.077zm1.743 16.195c-.1-.596-.651-1.125-.883-1.5-1.225-.166-2.118.574-2.118 1.456 0 .838.474 1.346 1.28 1.5.937.166 1.875-.552 1.721-1.456zm-.342 289.685c-.232.453-.596.85-.585 1.236 0 1.015.088 2.052.309 3.045.066.32.629.728 1.004.772.982.11 1.985.033 2.835.033.938-1.677 1.224-3.122.154-4.457-1.015-1.246-2.394-.882-3.717-.629zm-.022 104.814c.882.618 1.379 1.202 1.952 1.313.982.187 1.82-.673 1.655-1.512-.177-.849-.827-1.279-1.6-1.081-.595.144-1.103.684-2.007 1.28zm5.184-85.916c-.43-.099-.882-.11-1.158-.143-1.368.055-2.339.849-2.306 1.776.045 1.268.96 2.228 2.218 2.283.441.022.893-.022 1.324-.11.915-.188 1.522-.993 1.5-1.92-.033-.926-.64-1.687-1.578-1.886zm.949-35.688l-.364-.132c-.044.121-.154.275-.121.364s.231.099.353.143a14.42 14.42 0 0 1 .132-.375zm-2.085-322.67c-.761.022-1.467.816-1.346 1.5.122.717 1.037 1.456 1.644 1.158.463-.232.938-.761 1.092-1.247.21-.684-.629-1.434-1.39-1.412zm4.733 42.406c-2.383-.309-4.325.993-4.722 3.188-.077.441-.088.905-.11 1.158.077 2.934 1.975 4.512 4.468 3.784.662-.199 1.423-.695 1.743-1.28.485-.894.783-1.964.893-2.99.232-2.118-.75-3.663-2.272-3.861zm-1.28 387.008c-.022 1.015.64 1.776 1.578 1.831.982.067 1.809-.606 1.886-1.533.088-1.147-.761-2.118-1.842-2.107-.916.011-1.6.783-1.622 1.809zm1.037-54.552c.177 1.699 2.229 3.596 3.597 3.331 1.412-.276 2.702-2.162 2.559-3.751-.132-1.533-1.567-2.824-3.001-2.724-1.721.121-3.298 1.698-3.155 3.144zm11.297-37.873c1.368-.739 1.566-2.327.441-3.386-.916-.861-1.975-1.368-3.685-1.424-.54.387-1.467.883-2.151 1.611-.309.32-.353 1.247-.11 1.655 1.114 1.908 3.629 2.559 5.505 1.544zm-.585 40.112c.441.331.761.75 1.037.728.287-.022.739-.485.739-.761 0-.265-.463-.75-.739-.75-.287-.011-.596.419-1.037.783zm-2.041-70.769c-.452.011-.882.419-1.677.838.684.607 1.059 1.203 1.434 1.203.398 0 1.004-.497 1.148-.916.22-.607-.276-1.147-.905-1.125zm-3.42-207.763c-.198.099-.253.474-.364.728l.618.497.508-1.004c-.265-.089-.585-.309-.762-.221zm1.754-91.355c-.187.099-.22.474-.32.728l.695.397.398-.971c-.265-.055-.596-.243-.773-.154zm.508 207.631c-.155 1.048.474 1.93 1.357 1.908.915-.022 1.666-.717 1.787-1.677.121-.937-.552-1.864-1.412-1.941-.839-.055-1.589.684-1.732 1.71zm2.67-30.294c-.056-.143-.1-.298-.177-.496-.066.176-.099.276-.132.375.099.044.198.088.309.121zm-.32 19.869l.308.11-.055-.342-.253.232zm-.464-37.376c-.143-.144-.32-.254-.474-.386l-.199.297.486.365c.066-.089.209-.265.187-.276zm-.816-73.914c.011 1.225.794 1.986 1.986 1.909.893-.055 1.489-.783 1.511-1.887.022-.992-.64-1.61-1.732-1.621-1.059.011-1.776.651-1.765 1.599zm3.596-30.15c-.264-.044-.606.408-.849.574.033.871.419 1.28 1.07 1.114.276-.066.662-.629.607-.882-.066-.331-.497-.751-.828-.806zm3.177 167.563c-.253-.132-.573-.143-.86-.221-1.158.155-1.942.806-2.284 1.898-.331 1.037-.43 2.107.508 2.912.331.276.772.508 1.202.563 1.081.143 2.229-.805 2.604-2.063.386-1.28-.077-2.548-1.17-3.089zm2.825 24.193c-.111-1.368-1.037-2.306-2.24-2.262-1.324.044-2.217 1.214-2.14 2.836.055 1.301.982 2.206 2.273 2.217 1.379.011 2.228-1.125 2.107-2.791zm1.588 69.964c-.596-2.052-2.603-3.652-4.236-3.398-1.853.287-3.596 2.559-3.552 4.644.033 1.898 2.316 4.027 4.214 3.939 2.052-.099 3.949-2.284 3.729-4.303-.033-.297-.067-.595-.155-.882zm6.498-172.748c-.055-.893-.883-1.644-1.798-1.633-1.313.011-2.317.894-2.427 2.141-.088 1.07.827 1.875 2.052 1.798 1.39-.088 2.25-.993 2.173-2.306zm-1.853 174.447l.331.121-.056-.364-.275.243zm3.684-194.779c-1.357.089-2.592 1.633-2.57 3.233.011 1.103 1.28 1.986 2.67 1.864s2.305-1.28 2.305-2.89c0-1.236-1.147-2.284-2.405-2.207zm.541-6.133c-.265-1.048-.806-1.942-1.92-2.295-.948-.309-2.272.276-3.089 1.335-.937 1.225-.772 2.482-.187 3.795.562 1.235 1.577 1.71 2.813 1.864.298-.099.64-.121.838-.298 1.258-1.202 1.986-2.625 1.545-4.401zm-.022 45.274c-1.6-.022-2.902 1.567-2.493 3.586.551 2.78 3.397 4.236 5.835 2.989 1.81-.926 2.262-3.033.938-4.534-1.015-1.147-2.184-2.052-4.28-2.041zm-3.133 134.854l-.574.871c.254.1.552.32.75.254s.287-.419.43-.651a12.78 12.78 0 0 0-.606-.474zm3.331-263.959c-1.169-.75-2.449-1.147-3.861-.916-2.283.364-3.431 2.725-2.383 4.788.927 1.82 2.416 2.593 4.601 2.615 1.301-.022 2.57-.838 2.967-2.052.574-1.688.022-3.563-1.324-4.435zm2.604 14.683c-1.291.088-2.273 1.048-2.35 2.295-.088 1.368.805 2.449 2.052 2.46 1.522.022 2.604-1.026 2.581-2.504-.011-1.302-1.048-2.339-2.283-2.251zm-.982 203.449c-1.456.111-2.306 1.357-2.217 3.685.143.331.286 1.103.739 1.633.684.805 1.643 1.313 2.78 1.015 1.125-.298 1.688-1.137 1.963-2.207.078-.286.111-.584.122-.882.033-2.008-1.423-3.398-3.387-3.244zm6.156 72.976c.088 1.015.86 1.743 1.699 1.6 1.015-.177 1.721-1.236 1.478-2.317-.199-.882-.916-1.07-1.688-1.048-.993.044-1.577.761-1.489 1.765zm-1.236 8.042a3.84 3.84 0 0 0-3.078 2.902c-.364 1.699.133 3.298.982 4.71.309.508 1.258.618 1.313.64 3.122.552 5.273-3.817 4.203-5.88-.816-1.588-2.008-2.57-3.42-2.372zm3.365 33.096c-2.107-.364-4.049-1.17-5.946-2.129-.254-.133-.651-.232-.872-.122-.507.265-1.158.585-1.324 1.037-.154.42.067 1.357.409 1.534 1.676.86 2.978 1.875 3.662 3.773.552 1.511 2.184 1.379 3.552 1.39h.453c1.081-.044 2.151-.144 2.614-1.368.486-1.269-.066-2.692-1.357-3.508-.364-.243-.761-.53-1.191-.607zm-5.185-91.432c.066 1.125 1.015 1.975 2.129 1.699.463-.122 1.059-.684 1.158-1.136.221-1.015-.805-1.964-1.897-1.964-.794 0-1.434.651-1.39 1.401zm3.409-199.103c-.077-.309-.695-.739-.971-.684-.496.111-1.214.464-1.313.861-.364 1.467 0 2.879.883 4.799 1.577-1.821 1.809-3.343 1.401-4.976zm.32 44.293c-.044.121-.155.276-.122.364.044.088.232.099.353.143.045-.121.155-.275.122-.364-.044-.077-.232-.088-.353-.143zm-.033 118.096c-1.082-.11-2.052.772-2.085 2.206.375.265.871.883 1.456.982 1.191.199 2.206-.739 2.052-1.732-.111-.794-.563-1.379-1.423-1.456zm5.56-99.441c-.21-1.225-1.291-2.052-2.549-1.975-1.07.066-1.919 1.037-1.831 2.107.099 1.258 1.158 2.306 2.295 2.251 1.224-.055 2.283-1.258 2.085-2.383zm-1.633 119.1c-.728.64-1.07 1.5-.805 2.438.286 1.059.904 1.919 2.063 2.184.43.099.893.077 1.423.121.518-.132 1.136-.209 1.654-.474a1.79 1.79 0 0 0 .828-.993c.342-1.147-.375-2.945-1.346-3.618-.883-.618-2.879-.475-3.817.342zm7.711-24.094c-.231-.794-.827-1.158-1.655-1.114-.838.044-1.401.607-1.356 1.379s.65 1.368 1.412 1.368c.959.022 1.831-.839 1.599-1.633zm-.463 148.147c.342-.122.761-.574.783-.905.022-.298-.441-.64-.772-1.081-.419.364-.861.563-1.015.894-.232.551.441 1.29 1.004 1.092zm-.75-260.495c-2.14-.077-3.652 1.434-3.641 3.629.011 2.229 1.478 3.961 3.387 4.005 1.997.055 3.475-1.269 3.585-3.199.144-2.593-1.18-4.358-3.331-4.435zm3.298 314.507c-.629-.122-1.357.529-1.478 1.301a1.33 1.33 0 0 0 1.147 1.578c.662.11 1.148-.188 1.368-.805.309-.894-.231-1.931-1.037-2.074zm2.857-439.2c-.11.21-.253.419-.33.64-.023.066.22.287.242.276.21-.121.386-.287.585-.43l-.497-.485zm2.008 39.064c-1.136-.011-1.908.783-1.908 1.975 0 1.092.882 1.887 2.041 1.82.948-.055 1.588-.728 1.643-1.743.078-1.203-.65-2.041-1.776-2.052zm.993 443.248c1.28.044 2.14-.607 2.206-1.666.078-1.081-.728-1.875-1.952-1.941-1.236-.066-2.129.618-2.207 1.677-.077 1.103.718 1.886 1.953 1.93zm-2.361 3.674a2.21 2.21 0 0 0 .1 1.224c.088.232.441.519.673.508.529-.022 1.224-.055 1.533-.375.474-.497.132-1.148-.386-1.512-.331-.231-.794-.275-1.136-.386-.331.21-.74.331-.784.541zm4.865-49.588c.85-.298 1.004-1.126.806-1.777-.221-.717-.828-1.323-1.247-1.952-.518.276-.86.342-.993.551-.651 1.082-.408 2.251.629 3.056.188.144.574.199.805.122zm-3.938-102.508c.088 1.158.872 1.864 2.019 1.842 1.147-.011 1.875-.75 1.919-1.942.045-1.323-.728-2.173-2.096-2.305-1.18-.111-1.952.904-1.842 2.405zm1.313-256.469c.22-.32.474-.617.629-.959.022-.056-.409-.309-.773-.585-.176.375-.408.695-.463 1.048-.022.143.397.331.607.496zm3.287 47.415c-.154-1.114-1.004-1.831-2.118-1.754-1.048.077-1.831 1.026-1.754 2.118.099 1.302 1.158 2.151 2.405 1.953 1.07-.177 1.633-1.07 1.467-2.317zm1.71 287.435c-.11 1.07.695 1.886 1.887 1.92 1.268.044 2.074-.607 2.118-1.699.055-1.137-.706-1.92-1.887-1.953-1.213-.033-2.007.607-2.118 1.732zm3.332 99.739c-.872 0-1.699.982-1.556 1.842.166.949.993 1.666 2.229 1.589.298-.32 1.015-.761 1.191-1.357.276-.949-.871-2.074-1.864-2.074zm.618-30.624c.033-.078-.089-.221-.144-.331l-.342.176c.055.11.099.232.155.342.121-.055.298-.088.331-.187zm.132-516.434c-.154-.044-.408.232-.761.463l.816.739c.144-.21.419-.419.408-.618-.022-.221-.264-.518-.463-.585zm3.607 184.54c-.11-.893-.97-1.577-1.897-1.5-1.401.11-2.504 1.434-2.284 2.758.166 1.004 1.291 1.898 2.24 1.798 1.268-.154 2.129-1.489 1.941-3.056zm2.24 78.779c-1.644-.044-3.166 1.346-3.288 3.011-.088 1.192 1.037 2.372 2.196 2.328 1.864-.077 3.232-1.324 3.276-2.978.033-1.247-.971-2.328-2.184-2.361zm3.497-148.555l-.132.298c.066.077.132.165.198.243l-.066-.541zm3.519-116.088c-.629-.441-1.445-.563-1.997.055-.32.364-.573 1.18-.375 1.522.386.684 1.103 1.169 1.633 1.688.496-.265.816-.342.982-.541.684-.783.585-2.151-.243-2.725zm-2.625 215.683c.066 1.28.761 2.063 1.643 2.141.695.066 1.412-.739 1.302-1.446-.154-.959-.905-1.676-1.831-1.511-.464.099-.85.618-1.114.816zm5.637-2.515c-.563.166-.96.894-1.258 1.181.077 1.721 1.07 2.713 2.295 2.592.827-.077 1.379-.607 1.467-1.423.166-1.379-1.202-2.725-2.504-2.35zm4.942 196.466c-.121 1.137.552 2.196 1.556 2.317.86.11 1.39-.43 1.687-1.147.387-.96-.209-1.986-1.334-2.427-.85-.32-1.81.298-1.909 1.257zm.563 98.735c.066.728.728 1.181 1.643 1.07.618-.077 1.137-.33 1.181-1.059.044-.75-.563-1.312-1.412-1.334-.805-.022-1.478.606-1.412 1.323zm3.607-393.208c.221-.154.64-.331.828-.64.286-.485-.199-1.345-.762-1.312a1.47 1.47 0 0 0-.993.606c-.308.508.144 1.214.927 1.346zm-.529-116.242c-.839.044-1.523.662-1.523 1.357 0 1.114.905 2.03 1.997 2.019.927-.011 1.732-.794 1.754-1.71.022-1.026-.916-1.732-2.228-1.666zm2.25 130.506c-.099-.198-.463-.275-.794-.463-.298.221-.739.397-.949.717-.419.64-.507 1.412.077 1.997.21.21.883.243 1.126.066.805-.573.937-1.434.54-2.317zm5.803 152.538c-1.721-1.39-2.648-3.144-3.354-5.196-1.07.066-2.03-.066-2.835.22-1.831.684-2.273 2.78-.816 3.983.573.474 1.114.993 1.566 1.401v3.971c1.346.067 2.526.287 3.685.166 1.986-.199 3.265-3.321 1.754-4.545zm5.472 49.709c-.111.055-.276.089-.309.177-.033.077.088.209.143.32.11-.055.221-.122.32-.177-.055-.11-.099-.22-.154-.32zm-1.677 46.147c-.033.893 1.004 1.765 1.831 1.379 1.048-.497 2.107-1.093 2.901-1.909.353-.364.265-1.412.056-2.03-.254-.739-1.059-1.037-1.854-.882-1.721.32-2.868 1.699-2.934 3.442zm3.078 6.729l.397.43c.055-.11.165-.22.154-.331 0-.088-.143-.165-.22-.253-.111.055-.221.099-.331.154zm11.539-70.825c.463-1.246.75-2.592.949-3.905.154-1.048-.993-2.14-2.008-1.897-2.482.573-5.009 1.103-6.983 2.89-1.203 1.092-1.423 2.383-.739 4.115.728 1.842 1.621 2.526 3.298 2.537 2.902 0 4.457-.993 5.483-3.74zm-3.486 170.707c.099.033.199.055.298.089l-.199-.431c-.044.111-.066.221-.099.342zm-1.335-197.668c-.099.231.563 1.004 1.026 1.191.662.287 1.578-.463 1.511-1.235-.044-.486-.496-.938-.937-1.732-.739.772-1.357 1.191-1.6 1.776zm.43-6.906l-.695-.298c-.143.187-.419.408-.375.551.055.21.331.354.519.53l.551-.783zm-2.625-19.008c-.055-.772-.706-1.39-1.445-1.368-.784.022-1.324.618-1.324 1.456s.397 1.412 1.202 1.622c.795.209 1.633-.739 1.567-1.71zm-.077 140.027l.65.739c.276-.253.574-.496.784-.794.033-.044-.397-.574-.497-.541-.342.1-.618.364-.937.596zm2.085 61.602c-.177-1.048-1.247-1.809-2.262-1.611-.938.188-1.721 1.048-1.644 1.821.1.959 1.148 1.665 2.328 1.566.949-.088 1.71-.949 1.578-1.776zm-2.549-126.624c.199-.86-.507-1.798-1.423-1.886-1.125-.099-2.074.596-2.261 1.655-.122.684.452 1.412 1.246 1.577 1.181.232 2.195-.32 2.438-1.346zm.309-135.46c-.198-.132-.574-.022-1.269-.022-.474.166-1.323.408-2.14.739-.772.309-1.191.894-1.004 1.743.188.828 1.258 1.512 2.074 1.291.993-.276 2.019-.585 2.891-1.092.386-.232.706-1.048.617-1.5-.088-.464-.706-.85-1.169-1.159zm2.008-47.073c-.177.254-.706.707-.662 1.071.066.441.585 1.081.982 1.147.375.055 1.037-.419 1.235-.828.309-.65-.419-1.379-1.555-1.39zm.209 93.197c-.573-.33-1.787.199-1.809.475 0 .596-.077.916.011 1.169.739 2.096 2.24 3.486 4.214 4.402.221.099.684.044.828-.121.265-.32.618-.828.529-1.148-.551-2.118-1.864-3.695-3.773-4.777zm4.292-114.929c-.221.276-.75.662-.839 1.136-.143.706.475 1.037 1.115 1.037.651 0 1.147-.386 1.158-1.081s-.43-1.059-1.434-1.092zm.728 142.399c-1.346-.077-2.427 1.169-2.361 2.725.055 1.312 1.114 2.305 2.361 2.217 1.191-.077 2.239-1.258 2.184-2.449-.044-1.247-1.081-2.427-2.184-2.493zm.342 175.516c-1.324-.154-2.504.74-2.559 1.942-.067 1.368 1.092 2.593 2.515 2.648 1.18.044 2.405-1.103 2.394-2.24-.022-1.114-1.103-2.206-2.35-2.35zm-1.236 9.83c.607.022 1.225-.221 1.181-.905-.033-.463-.453-.893-.916-1.71-.562.684-1.037 1.015-1.147 1.445-.133.574.165 1.148.882 1.17zm.795 88.619c-.464.32-.894.871-1.037 1.401-.309 1.158-.431 2.361-.574 3.243.254 2.085-.088 4.325 2.074 4.931 1.809.519 2.901-1.257 4.049-2.416a9.89 9.89 0 0 0 1.379-1.787c1.015-1.677.816-3.287-.486-4.523-1.588-1.467-3.949-1.886-5.405-.849zm5.427-275.234a3.03 3.03 0 0 0 1.446 2.67c.496.32 1.081.54 1.643.739 1.203.419 2.372.518 3.343-.53.916-.981.982-2.184.695-3.397-.43-1.788-2.604-3.067-4.633-2.802-1.413.187-2.505 1.643-2.494 3.32zm7.579-105.95c-.772-.529-1.18-1.015-1.644-1.081-.639-.088-1.136.397-1.114 1.092.022.662.475 1.203 1.126 1.115.463-.067.86-.574 1.632-1.126zm-5.207 59.969c-.11-.231-.154-.584-.331-.662-.154-.066-.441.166-.673.265.111.232.166.585.331.651.155.066.442-.154.673-.254zm-1.125-36.537c-.033.143.011.298.011.441.165.243.276.607.507.695.398.166.872.265 1.302.221 1.092-.099 2.03-.927 1.776-1.633-.176-.474-.717-1.015-1.191-1.158-1.169-.32-2.195.364-2.405 1.434zm3.552-160.381c-1.07-.331-1.886.154-2.041 1.059-.132.783.408 1.522 1.159 1.566.893.055 1.853-.651 2.007-1.754-.286-.232-.65-.717-1.125-.872zm7.325-7.535c-1.257-1.478-3.022-1.908-4.909-1.203-.849.32-1.291 1.302-1.015 2.24.486 1.589 1.798 2.383 4.06 2.35.298-.088.75-.166 1.158-.331 1.137-.452 1.501-2.118.706-3.056zm-4.501 78.944l.32.761.927-.551c-.188-.21-.353-.53-.574-.574-.187-.055-.452.221-.673.364zm3.784 141.848c-.132.706.464 1.401 1.302 1.522.794.11 1.412-.397 1.522-1.269.111-.893-.319-1.754-.926-1.831-.795-.099-1.732.684-1.898 1.578zm1.622 18.246c0 1.28.728 2.185 2.118 2.471.574.122 1.236.21 1.754.011.475-.176 1.037-.684 1.158-1.158.508-2.008-.496-3.232-2.493-3.232-1.588 0-2.537.717-2.537 1.908zm.949-213.587c-.177.143-.309.331-.453.507l.651.287c.044-.21.122-.419.122-.629 0-.066-.276-.199-.32-.165zm3.883 34.64c-.177-.066-.75.386-.827.673-.155.607.209 1.147.849 1.158.309.011.64-.386 1.236-.794-.519-.452-.839-.883-1.258-1.037zm15.158 38.368c-.607.552-.96 1.379-1.236 1.799.055 2.405 1.39 3.905 3.254 4.07.839.078 1.843-.617 2.052-1.423.453-1.743-.121-3.375-1.577-4.302-.783-.497-1.732-.828-2.493-.144zm-2.284 149.703c-1.291-.034-2.725 1.345-2.659 2.57.056 1.026 1.17 1.997 2.174 1.875 1.169-.143 2.372-1.257 2.482-2.316.088-.872-1.059-2.107-1.997-2.129zm8.77 69.291c-1.059.154-1.82 1.301-1.599 2.305.165.75 1.235 1.677 2.008 1.456 1.687-.485 3.331-1.147 4.964-1.798.165-.066.309-.573.232-.783-.144-.375-.409-.905-.729-.993-.849-.243-1.743-.287-2.404-.375-.982.066-1.744.077-2.472.188zm2.196-29.235c.077-.938-.695-1.765-1.589-1.699-.904.066-1.611.85-1.611 2.152.342.264.806.871 1.402 1.025.904.232 1.709-.54 1.798-1.478zm-2.218-105.883c.651-1.17.618-2.317-.088-3.431-.783-1.236-1.864-1.942-3.398-1.81-1.169.1-1.897 1.148-1.82 2.681.099 2.162.883 3.277 2.637 3.729 1.125.287 2.107-.143 2.669-1.169zm-.761-90.042c-.198-.464-.64-.883-1.07-1.148-.121-.077-.596.431-.816.596-.011 1.048.673 1.787 1.312 1.511.287-.121.673-.75.574-.959zm-3.938 108.288c-.111-.254-.607-.386-.96-.441-.11-.011-.452.485-.397.607.154.32.474.562.871 1.004.243-.53.585-.949.486-1.17zm3.762-202.412c-.045-.022-.464.496-.409.585.199.309.508.529.806.805.242-.342.54-.717.507-.75-.254-.265-.573-.485-.904-.64zm1.676 41.579c-.695-.243-1.467-.353-2.217-.375-1.732-.044-3.056 1.004-3.298 2.493-.265 1.622.904 3.387 2.537 3.795.441.11.893.11 1.246.143.409-.022.706-.033 1.004-.066 1.545-.221 2.769-1.224 2.968-2.416.232-1.357-.794-3.067-2.24-3.574zm2.692 135.802c-.088.684.43.982 1.048.96.232-.011.662-.331.64-.408-.121-.464-.364-.883-.651-1.545-.529.485-.993.706-1.037.993zm3.552-68.342c-1.544.022-2.735 1.268-2.746 2.868 0 1.478 1.125 2.57 2.526 2.438 1.357-.132 2.162-1.169 2.184-2.835.022-1.434-.816-2.493-1.964-2.471zm1.578 146.117c-.629-.751-1.478-.927-2.416-.74-.971.199-1.555.85-1.754 1.776-.121.574-.276 1.247-.077 1.744.254.617.739 1.367 1.313 1.577 1.412.519 2.89.364 4.302-.176.254-1.721-.397-3.012-1.368-4.181zm2.107-139.697l-.518.486c.198.132.386.297.595.386.056.022.298-.21.287-.243-.088-.221-.232-.419-.364-.629zm1.677 248.945c-.099-.188-.43-.243-.662-.353-.154.198-.32.397-.474.585l.959.452c.067-.232.265-.53.177-.684zm5.019-252.078c-1.048-.011-1.93.883-1.996 2.03-.055 1.048.86 2.063 1.908 2.096 1.037.033 2.019-.96 2.008-2.008-.011-1.092-.938-2.107-1.92-2.118zm4.954 288.384c1.643-.044 2.769-1.335 2.581-2.99-.309-2.78-1.908-4.258-4.357-4.071-1.512.122-2.516 1.103-2.615 2.56-.21 2.669 1.644 4.567 4.391 4.501zm-4.369 27.855c.044 1.291 1.059 2.35 2.207 2.284 1.147-.078 2.239-1.644 2.051-2.968-.121-.871-1.191-1.478-2.46-1.39-1.125.077-1.842.894-1.798 2.074zm1.732-228.249c-.474.099-.882.563-1.147.75-.044 1.081.607 1.776 1.368 1.743.673-.022 1.092-.419 1.136-1.092.055-.75-.651-1.555-1.357-1.401zm2.129-46.742c.309-.044.784-.54.773-.827-.012-.298-.486-.75-.806-.805-.243-.045-.585.441-1.026.816.453.364.795.849 1.059.816zm1.456-56.836c-.154-.452-.695-.783-1.268-1.379-.629.739-1.214 1.192-1.467 1.787-.254.607.706 1.28 1.5 1.148.772-.133 1.467-.872 1.235-1.556zm1.368 61.028c-.154-.463-.673-1.037-1.103-1.114-.331-.055-.794.574-1.401 1.07.519.596.794 1.159 1.236 1.346.629.287 1.511-.596 1.268-1.302zm.331 158.991c-.242-.772-1.246-1.279-2.228-.948-.452.154-.794.684-1.026.904.154 1.379.938 2.085 1.809 1.953.927-.155 1.688-1.147 1.445-1.909zm7.877-275.013c-.088-.331-.706-.849-.86-.783-.453.199-.795.651-1.269 1.092.441.529.64.982.982 1.125.629.276 1.368-.596 1.147-1.434zm.596 28.098c-1.578.43-2.262 1.313-2.107 2.912.154 1.633.838 2.559 2.339 2.879 1.014.221 2.107.453 3.088.265.773-.143 1.589-.794 2.108-1.445.65-.828.099-1.721-.453-2.438-1.246-1.644-2.725-2.78-4.975-2.173zm-1.081 340.984c-1.126-.088-1.887.618-1.986 1.853-.099 1.181.618 2.019 1.743 2.063 1.136.044 1.975-.717 2.019-1.842.055-1.17-.651-1.997-1.776-2.074zm2.327-152.659c.111-.287-.132-.927-.408-1.103-.264-.177-.915-.11-1.158.11-.508.453-.85 1.092-1.291 1.688.375.475.574.861.894 1.092.176.133.684.122.805-.033.452-.54.905-1.114 1.158-1.754zm2.03-59.682c-.11 1.004.905 1.997 1.975 1.919.894-.055 1.655-.86 1.677-1.765.022-.882-.761-1.632-1.732-1.665-.905-.034-1.82.695-1.92 1.511zM418.846 18.3c-.287-.022-.618.419-1.093.794.475.364.817.816 1.104.783.308-.033.573-.508.849-.794-.287-.287-.552-.761-.86-.783zm-.265 88.189c-.905-.066-1.776.607-1.887 1.467-.132 1.07.662 1.975 1.799 2.052a1.82 1.82 0 0 0 1.886-1.478c.176-1.026-.651-1.953-1.798-2.041zm20.442 134.004c.342 1.224 1.07 2.096 2.625 2.725 1.644-.585 3.211-1.059 4.7-1.71.463-.199.96-.839 1.004-1.313.044-.463-.386-1.313-.772-1.412-1.843-.519-3.718-.993-5.616-1.181-1.379-.132-2.327 1.501-1.941 2.891zm2.107 183.415c.022.717.706 1.401 1.445 1.423.728.022 1.401-.661 1.412-1.423.011-.728-.684-1.412-1.423-1.412-.75 0-1.456.695-1.434 1.412zm6.431-239.104c-.937.794-1.246 2.262-.628 3.288.75 1.246 1.831 1.985 3.64 2.029 1.6.067 2.802-1.632 1.953-3.375-.386-.784-.982-1.534-1.633-2.118-.883-.806-2.35-.651-3.332.176zm2.78-57.255c1.104-.088 2.085-.971 2.13-1.92.044-.959-.993-1.941-2.041-1.93-1.115.022-1.821.882-1.732 2.118.077 1.026.805 1.798 1.643 1.732zm-3.276 18.953c-.188-.111-.364-.243-.563-.331-.022-.011-.22.22-.187.286.077.199.231.375.353.563.121-.176.265-.342.397-.518zm4.788 192.748c-1.313-.684-2.648-.706-3.861.154-.431.309-.629.949-.795 1.214.089 1.842 1.677 3.144 3.178 2.78.695-.177 1.39-.585 1.952-1.059.938-.794.629-2.526-.474-3.089zm-2.913 8.219c-1.599-.055-2.835.86-2.857 2.14-.033 1.809 1.489 3.21 3.497 3.221 1.556 0 2.571-.96 2.56-2.427-.022-1.776-1.214-2.868-3.2-2.934zm-1.577-313.647c-.552-.243-1.523-.088-2.03.276-.695.485-1.357 1.258-1.611 2.052-.496 1.567-.75 3.221-1.015 4.843-.132.827.993 1.787 1.821 1.489.805-.298 1.743-.695 2.228-1.346 1.181-1.6 1.732-3.486 1.699-5.847-.265-.364-.541-1.225-1.092-1.467zm3.166 50.592c-1.214.188-2.03 1.225-1.986 2.537.044 1.39 1.324 2.471 2.681 2.295 1.004-.132 1.787-1.158 1.721-2.228-.088-1.566-1.225-2.78-2.416-2.603zm3.265 55.413c-1.897.254-3.353 1.622-3.265 3.067.099 1.622 1.39 2.67 3.067 2.482 1.655-.187 2.791-1.677 2.703-3.53-.078-1.18-1.313-2.173-2.505-2.019zm5.141 27.006c-.629.066-1.29.949-1.235 1.655.066.916.86 1.633 2.173 1.611.276-.331.96-.806 1.081-1.379.188-.993-1.026-1.997-2.019-1.887zm15.346-78.955c-1.148.011-2.108 1.103-2.119 2.427-.011 1.203 1.015 2.173 2.328 2.217 1.147.033 2.019-.772 2.052-1.886.044-1.611-.905-2.769-2.261-2.758zm-.199 140.623c-1.18-.121-2.35.894-2.405 2.063-.044.971.827 1.843 1.975 1.975 1.401.154 2.504-.574 2.636-1.732.122-1.081-.926-2.184-2.206-2.306zm2.118-97.069c-.088-.728-1.092-1.258-2.096-1.125-.993.132-1.677.882-1.578 1.743.089.838.993 1.544 1.865 1.478 1.015-.077 1.919-1.125 1.809-2.096zm1.887 131.764c-.872-.419-1.788-.364-2.582.177-1.324.904-2.03 2.184-2.074 4.225.232.463.497 1.335 1.048 1.986.816.982 2.394.893 3.199-.044 1.015-1.181 1.655-2.527 1.633-4.104-.011-.938-.298-1.798-1.224-2.24zm1.202 76.661l.055.342.254-.232-.309-.11zm3.276-241.079c-.253-.066-.639.364-.871.507.044.872.342 1.412 1.059 1.291.276-.044.673-.64.629-.938-.055-.331-.475-.772-.817-.86zm-.672 267.103l.562.618c.221-.122.596-.221.64-.387.044-.209-.177-.496-.276-.739l-.926.508zm7.821-101.35c.033.298.022.607.121.883.409 1.147 1.402 1.875 2.361 1.677.839-.177 1.258-.806 1.291-1.622.055-1.357-.805-2.394-2.03-2.548-.916-.111-1.787.695-1.743 1.61zm3.001-82.154c-.839-.099-1.478.695-1.423 1.776.055 1.114.64 1.776 1.522 1.743.861-.022 1.611-.871 1.545-1.743-.067-.893-.795-1.677-1.644-1.776zm.695 95.635c-.861-.904-1.854-1.555-3.001-1.566-2.03.077-4.082 1.643-4.192 3.077-.099 1.379 1.225 2.935 3.034 3.509.573.176 1.18.342 1.765.342 1.5 0 2.537-.828 3.254-2.096.53-.916.177-2.185-.86-3.266zm-4.744 62.86c-1.103-.011-2.019 1.103-2.019 2.46 0 1.246.938 2.206 2.229 2.272 1.18.067 2.206-.684 2.261-1.643.088-1.688-1.026-3.078-2.471-3.089zm1.633-46.974c-.011-.243-.099-.474-.166-.717-.242.11-.496.21-.739.32.177.198.331.408.53.563.066.044.386-.111.375-.166zm22.439-8.682c-.309.022-.607.452-1.048.827.43.32.761.74 1.014.706.309-.044.729-.485.751-.783.022-.254-.475-.772-.717-.75zm.308 51.055c-.606-.264-1.334.453-1.379 1.412.177.21.376.64.695.784.607.275 1.346-.408 1.302-1.247-.011-.342-.309-.816-.618-.949zm5.494-229.914c-.706.143-1.456.066-1.721.386-.86 1.026-1.61 2.173-2.283 3.342-.541.938-.111 2.229.783 2.78s2.328.519 2.957-.154c.286-.309.551-.783.551-1.18-.044-1.622-.176-3.255-.287-5.174zm4.987 57.034c-.563-1.732-2.063-2.559-3.652-3.056-1.191-.375-2.482.067-3.298.982-.541.607-.629 1.622-.762 2.019-.011 1.644.508 2.493 1.534 3.034 2.416 1.291 4.722.816 5.869-1.269.265-.485.474-1.213.309-1.71zm-1.71 29.422l.529.519c.1-.221.232-.431.276-.662.022-.077-.221-.309-.232-.298-.198.143-.386.298-.573.441zm.662 11.926c-1.015-.022-1.887.948-1.821 2.018.045.695.773 1.225 1.578 1.148.971-.088 1.611-.783 1.589-1.721-.011-.728-.662-1.423-1.346-1.445zm-.397 67.316c-.861-.033-1.6.838-1.545 1.809.066 1.17.927 2.118 1.887 2.096.849-.022 1.61-.893 1.577-1.831-.033-1.081-.905-2.03-1.919-2.074zm.672 9.951c-1.224.011-2.195 1.048-2.184 2.327.011 1.401 1.081 2.505 2.526 2.593.971.055 1.777-.872 1.81-2.118.044-1.688-.806-2.813-2.152-2.802zm5.605-32.71c-.883 0-1.324.486-1.468 1.346-.066.717.519 1.5 1.17 1.567.827.077 1.71-.739 1.743-1.611.022-.717-.64-1.302-1.445-1.302zm3.133 14.651c-.111-.64-.552-1.004-1.225-1.026-.838-.022-1.412.496-1.467 1.665.232.21.574.74 1.026.861.916.276 1.82-.596 1.666-1.5zm-2.56 56.747c.232.188.519.585.872.651.662.133 1.18-.265 1.081-.96-.044-.319-.496-.761-.827-.838-.662-.143-1.071.254-1.126 1.147zm1.578 72.535c.728-.044 1.401-.883 1.202-1.556-.231-.761-.684-1.301-1.919-1.246-.199.242-.728.606-.85 1.081-.22.849.706 1.765 1.567 1.721zm-4.391-48.64c1.997.188 3.221-.794 3.354-2.725.011-.154.011-.297.022-.452-.055-1.235-.21-2.471-1.556-2.989-1.037-.409-2.184-.353-2.923.529-.552.64-.927 1.545-1.081 2.383-.342 1.886.54 3.089 2.184 3.254zm-1.721-32.323c.276-.287.783-.574.783-.871 0-.309-.463-.629-.849-1.093-.331.464-.772.817-.739 1.104.044.319.518.584.805.86zm-7.468 106.965c.22 2.041 1.423 3.254 3.089 3.133 2.063-.155 3.298-1.556 3.144-3.574-.155-1.997-1.578-3.189-3.663-3.023-1.798.121-2.78 1.456-2.57 3.464zm.739-194.481c.529-.43.96-1.092 1.213-1.732.331-.827-.562-1.809-1.864-1.687-.375.286-1.192.684-1.655 1.334-.419.574-.364 1.435.287 1.997.618.53 1.423.552 2.019.088zm-3.839 177.701c.993-.231 1.489-.937 1.677-1.886.253-1.269-.1-2.394-1.015-2.703-.486-.165-1.357-.132-1.622.188-.64.761-1.026 1.743-1.291 2.228.011 1.523 1.214 2.416 2.251 2.173zm-5.549-96.672c1.39 1.126 3.806.342 4.512-1.346.904-2.14-.453-5.14-2.681-5.869-.276-.088-.585-.099-.872-.143-2.173.033-3.916 2.89-2.901 4.975.43.894 1.158 1.743 1.942 2.383zm-2.747 100.236c.816-.287 1.081-.96 1.037-1.754-.044-.751-.806-1.269-1.578-1.17-.827.111-1.368.739-1.279 1.501.11.959 1.037 1.709 1.82 1.423zm-2.24-169.593c.243.772.728 1.313 1.611 1.324.75 0 1.379-.75 1.291-1.534-.111-.97-.949-1.643-1.876-1.522-.695.088-1.257.982-1.026 1.732zm2.107-127.837c2.516-.816 3.784-3.155 2.946-5.703-.199-.607-.905-1.037-1.192-1.357-3.221-.232-5.593 2.57-4.909 5.317.364 1.412 1.776 2.195 3.155 1.743zm-4.787 332.974c.981.166 2.085-.816 2.063-1.831-.023-1.202-1.026-2.173-2.383-2.03-.585.055-1.126.651-1.501.883-.165 1.688.607 2.78 1.821 2.978zM489.714 504c1.6 1.103 3.376 1.963 5.141 2.824.838.408 1.942-.155 2.25-.971.287-.761.199-1.5-.386-2.085-.309-.32-.684-.629-1.092-.794-1.621-.64-2.791-1.721-3.618-3.244-.408-.739-1.236-1.081-1.92-.684-.573.331-.926 1.081-1.313 1.699-.143.232-.088.585-.154 1.236.254.529.463 1.588 1.092 2.019zm-2.912-13.283c.044.298.11.596.187.883.519 1.787 1.622 2.581 3.299 2.394 1.842-.21 2.89-1.214 2.934-2.825.055-1.853-1.015-3.232-2.78-3.541-.298-.055-.596-.044-.904-.066-2.019-.055-3.023 1.103-2.736 3.155zm-11.749-38.027c.485.309 1.169-.22 1.169-.926 0-.254-.176-.607-.386-.739-.463-.298-1.147.264-1.213.937.143.243.22.596.43.728zm-2.813-9.829c1.621.993 3.133 1.07 4.07-.265 2.174-3.067 5.527-4.059 8.682-5.46.673-.298 1.357-.541 1.942-.773.364-1.721-.563-2.559-1.677-3.033-1.919-.817-2.272-2.152-1.886-4.027.309-1.456.375-2.979.551-4.589-1.599-.839-2.989-1.699-4.49-2.328-1.875-.794-3.795.243-4.103 2.261-.177 1.159 0 2.383.132 3.575.099.893.496 1.754.563 2.647.143 1.876-.276 3.575-1.799 4.91a24.46 24.46 0 0 0-2.835 2.923c-1.268 1.567-.915 3.067.85 4.159zm-1.236-82.375c.055-.231.132-.452.144-.684 0-.044-.298-.187-.354-.154-.198.154-.341.364-.507.562.243.089.474.177.717.276zm-.033-241.233c.232-.044.364-.585.552-.894-.387-.121-.762-.32-1.159-.342-.121-.011-.265.442-.474.828.375.154.761.474 1.081.408zm-.177-41.094c.651.11.993-.463 1.071-1.103.088-.684-.42-1.401-.916-1.203-.474.177-.85.618-1.545 1.158.618.53.971 1.081 1.39 1.147zm-1.599 372.314c.132.011.254.011.386.022l-.165-.607c-.111.067-.298.111-.331.21s.066.254.11.375zm-1.114 63.731l.176-.574c-.143-.022-.309-.088-.408-.044-.077.033-.077.232-.11.364.121.089.231.166.342.254zm.088-81.746c.187 0 .375-.32.563-.507-.188-.177-.387-.497-.574-.497-.188.011-.375.331-.563.508.188.187.386.496.574.496zm-2.78-210.642c-1.864-1.28-4.633-1.026-6.222.585-1.324 1.334-.927 4.092.871 5.052 1.026.552 2.24.783 2.803.971 2.217.055 3.508-.64 3.971-1.787.673-1.71.066-3.795-1.423-4.821zm1.588 40.09c.221-1.17-.695-2.427-1.886-2.593-1.302-.176-2.515.673-2.626 1.831s.883 2.615 1.854 2.736c1.015.133 2.46-.948 2.658-1.974zm-2.956 257.704c.077-.034.099-.221.143-.331-.121-.045-.264-.144-.342-.111-.077.044-.099.221-.143.331.121.044.265.144.342.111zm-2.593-240.627c1.501-.055 2.427-.838 2.45-2.085.033-2.019-1.181-3.332-2.935-3.177-1.522.143-2.427 1.136-2.449 2.692-.011 1.743 1.015 2.647 2.934 2.57zm-3.739 172.02c-2.494-2.814-5.825-2.218-8.043-.353-.871.739-1.092 1.787-.684 2.868.949 2.46 3.343 4.644 6.366 3.497.971-.375 2.019-.552 3.056-.827 1.522-2.328.617-3.696-.695-5.185zm-8.947 55.479c.055.209.154.805.375 1.346.607 1.522 1.82 2.471 2.967 2.349 1.766-.176 3.343-1.886 3.321-3.684-.022-1.434-.518-2.67-1.853-3.365-1.181-.607-2.328-.298-3.42.342-1.026.585-1.467 1.467-1.39 3.012zm-.596-103.391c.177.066.794-.441.883-.772.187-.673-.221-1.225-.927-1.225-.353 0-.695.42-1.335.839.563.507.916.96 1.379 1.158zm-2.25 71.189c.253-.695.452-1.401.551-1.721.111-1.578-.386-2.526-1.346-3.012-.993-.496-2.195-.254-2.813.585-.86 1.147-1.136 2.416-.772 3.806a2.32 2.32 0 0 0 2.306 1.743c.981-.033 1.732-.453 2.074-1.401zm-2.074 32.301c.75-.243 1.39-.783 1.323-1.589-.055-.673-.297-1.522-.761-1.941-1.07-.96-2.383-1.137-3.74-.43-.706.364-1.224.86-1.235 1.698-.011.982.43 1.732 1.346 2.096.54.21 1.147.265 1.61.376.574-.078 1.037-.078 1.457-.21zm-3.045 63.157c.331-.077.761-.529.827-.871.177-.938-.595-1.82-1.522-1.688-.452.066-.85.563-1.136.75.066 1.225.926 1.997 1.831 1.809zm-1.523-264.025c-.044-.209-.055-.441-.132-.64-.022-.044-.32-.066-.353-.011-.099.188-.143.397-.21.607.232.022.464.033.695.044zm-4.71 183.945c.11.75.827 1.302 1.588 1.247.795-.055 1.291-.662 1.247-1.523-.044-.849-.441-1.401-1.324-1.489-.882-.099-1.655.827-1.511 1.765zm1.533-203.504a1.32 1.32 0 0 0 1.357-1.423c-.077-.982-.871-1.865-1.721-1.633-.596.165-1.07.772-1.412 1.048.011 1.313.75 1.997 1.776 2.008zm-1.61-250.787c.408-.772.485-1.71.606-2.173-.077-2.217-.882-3.265-2.515-3.74-1.588-.463-2.967-.165-4.126 1.026-1.257 1.302-1.655 2.813-1.048 4.093.761 1.622 2.074 2.626 3.817 2.791 1.478.154 2.604-.739 3.266-1.997zm-7.392 163.889c.221.276.408.772.739.882 1.501.508 2.891-.298 3.387-1.963.077-.276-.309-.993-.518-1.004a3.95 3.95 0 0 0-3.233 1.158c-.187.188-.22.53-.375.927zm6.288 50.548c.023-.022-.132-.199-.209-.298l-.508.43c.078.099.155.21.232.309.154-.143.331-.276.485-.441zm-3.166 63.797c1.368.21 2.449-.563 2.593-1.853.11-.993-.828-2.119-1.82-2.196-1.126-.088-2.328 1.026-2.372 2.207-.044.937.617 1.698 1.599 1.842zm-2.383-51.916c0-.022-.253 0-.386.011l.033.728h.398c0-.254-.011-.496-.045-.739zm-3.927 215.518c.143 1.059 1.169 1.865 2.273 1.666.783-.143 1.368-.607 1.434-1.511.088-1.126-.717-1.843-2.041-1.821-1.114.033-1.798.717-1.666 1.666zm-.695-138.67c.408-.166.861-.276.85-.353-.034-.364-.188-.706-.298-1.059-.243.088-.673.154-.684.276-.044.353.077.728.132 1.136zm-1.324-237.67c.331.529.949.882 1.754 1.577.353-.849.717-1.323.695-1.798-.022-.794-.518-1.335-1.401-1.302-.728.022-1.412.938-1.048 1.523zm-.606 429.745c.044-1.456-.971-2.316-2.67-2.272-1.523.044-2.504 1.103-2.361 2.581.121 1.269 1.048 2.074 2.438 2.096 1.556.033 2.548-.893 2.593-2.405zm-10.282 54.818c2.041 1.621 4.148 2.427 6.674 1.312.408-.176.794-.43 1.136-.695 1.876-1.467 1.975-7.49-.739-8.902-.529-.276-1.037-.629-1.577-.872-3.277-1.423-6.112-.011-6.884 3.442-.166.728-.199 1.489-.166 1.236-.187 2.46.375 3.53 1.556 4.479zm-1.721-265.857c.695.188 1.511-.43 1.566-1.18.056-.706-.617-1.501-1.379-1.423-.507.055-.97.452-1.279.606-.177.982.375 1.799 1.092 1.997zm-.11-141.307c-.034-.695-.53-.982-1.159-.926-.684.066-1.048.606-.882 1.191.121.43.628.761.849.993 1.048-.122 1.214-.662 1.192-1.258zm-3.156 417.589c.861-.1 1.435-.795 1.126-1.512-.199-.463-.673-.805-1.247-1.445-.629.783-1.191 1.258-1.456 1.853-.243.585.706 1.203 1.577 1.104zm-10.171-22.329c.143.033.618-.607.629-.949.011-.683-.905-1.246-1.6-.992-.32.121-.529.551-1.015 1.103.795.353 1.368.695 1.986.838zm-1.28-63.411c1.457 1.357 2.891 1.688 4.49.585 1.909-1.313 3.795-2.295 6.2-2.284 1.114 0 1.854-1.026 2.14-2.074.232-.838.265-1.787.155-2.658-.121-1.048-.497-2.085-1.699-2.427-1.368-.398-2.923.055-3.607 1.169-.607.993-1.06 2.085-1.633 3.254-1.324-.375-2.438-.794-3.597-1.004-1.478-.264-2.559.409-3.287 1.81-.662 1.324-.397 2.471.838 3.629zm-.959-239.292c.033-.165-.387-.606-.431-.584-.32.165-.595.408-1.037.739l.938.849c.188-.331.452-.651.53-1.004zm-2.107 311.319c.22-.132.628-.287.617-.408-.022-.331-.22-.64-.353-.993-.364.221-.783.43-.772.474.121.32.331.618.508.927zm-.012-107.582c.254-.309.806-.773 1.049-1.357.231-.585-.585-1.501-1.225-1.6-.75-.11-1.666.794-1.71 1.699-.033.695.706 1.335 1.886 1.258zm-1.037-54.376c.023-.078-.077-.199-.121-.298-.099.044-.254.077-.287.143-.022.077.078.199.122.298.099-.044.253-.077.286-.143zm.045-122.73c.231-1.809-1.865-4.17-3.817-4.28-1.512-.077-3.244 1.831-3.31 3.651-.066 1.744 1.302 3.619 2.648 3.641 2.085.044 4.269-1.423 4.479-3.012zm-5.605 259.922c.331-.409.684-.806.971-1.236.022-.033-.353-.32-.739-.673-.287.508-.563.938-.75 1.412-.033.077.331.32.518.497zm-.739-154.27c.795-.154 1.49-1.081 1.501-2.008.011-.959-.806-1.798-1.688-1.72-1.037.077-1.765 1.025-1.721 2.25.044.849 1.059 1.644 1.908 1.478zm-8.34 142.113c.155.871.982 1.511 1.942 1.511 2.482.011 3.949-1.313 4.071-3.762.033-.739 0-1.511-.166-2.217-.441-1.832-2.824-2.505-4.335-1.313-1.468 1.158-1.589 2.78-1.644 4.589.033.309.055.75.132 1.192zm5.428-170.134c1.302.442 2.681.784 3.806-.364 1.224-1.246 1.831-2.769 1.478-4.534-.364-1.82-3.067-3.177-4.644-2.283-2.218 1.246-4.369 2.603-6.52 3.949-.166.099-.121.541-.21 1.026l6.09 2.206zm-5.582-70.614c.044-1.964-2.538-3.641-4.6-3.1-.684.176-1.368 1.224-1.391 2.129-.066 2.658.806 4.048 3.873 6.111 1.654-1.312 2.074-3.188 2.118-5.14zm-4.115 14.429c.243.199.629.761 1.081.828.706.11 1.081-.519.96-1.17-.066-.353-.441-.783-.783-.926-.574-.254-1.236.297-1.258 1.268zm.011 113.121c.066.276.673.43 1.224.75.387-.497.883-.894 1.049-1.39.22-.695.231-1.467-.486-2.019-.585-.452-1.754-.21-1.853.474-.111.718-.1 1.49.066 2.185zm-2.019-52.6c.96-.11 1.6-.883 1.545-1.876-.089-1.478-1.004-2.261-2.372-2.029-.949.165-1.743 1.026-1.677 1.831.11 1.269 1.246 2.206 2.504 2.074zm-3.64 181.044a1.48 1.48 0 0 0 1.842.805c.474-.155 1.048-.695 1.147-1.147.155-.662.033-1.446-.187-2.097-.243-.717-.828-1.191-1.71-1.014-.993.209-1.633.915-1.556 2.085.089.275.21.86.464 1.368zm-1.104-299.758c1.015 1.688 2.383 2.604 4.303 2.637.43-.32 1.335-.695 1.732-1.368.938-1.6.375-4.126-.971-5.384-1.07-1.004-3.376-.971-4.578.055-1.17.993-1.357 2.615-.486 4.06zm.486-71.254c.695.132 1.136-.342 1.048-1.015-.044-.342-.563-.916-.75-.872-.464.099-.872.496-1.501.905.574.496.861.915 1.203.982zm-3.365-55.722c.563.408 1.368.651 2.063.662 1.39.022 2.637-1.346 2.582-2.615-.078-1.467-1.556-2.912-2.968-2.879-.298.011-.651-.033-.883.11-1.555.971-3.088.75-4.765.276-1.203-.331-2.317.871-2.328 2.151 0 .971.728 1.842 1.6 1.853.441 0 .926 0 1.334-.154 1.269-.519 2.295-.166 3.365.596zm-4.942 253.798c-1.258-.011-2.251 1.081-2.162 2.372.077 1.136 1.103 2.162 2.029 2.019 1.048-.154 1.986-1.456 1.953-2.714-.022-.871-.893-1.677-1.82-1.677zm-3.078 119.641c.518.408.86.816 1.291.959.154.056.794-.606.728-.761-.177-.441-.585-.783-.905-1.169l-1.114.971zm4.115 73.35c.055-1.07-.85-1.996-1.898-1.941-1.103.055-1.963.948-1.919 1.974.044.927.739 1.622 1.688 1.666 1.191.066 2.063-.64 2.129-1.699zm-5.34 19.637c.111.221.497.496.684.452 1.004-.231 2.008-.485 2.957-.882.276-.121.496-.794.419-1.136-.077-.331-.562-.574-.783-.762-1.467-.055-2.548.353-3.243 1.49-.133.209-.155.617-.034.838zm-.65-66.379c.22.596.937 1.137 1.555 1.424 1.511.706 2.923.176 4.556-.861.099-.772.221-1.357.243-1.953.044-1.268-.21-2.482-1.567-2.945-1.334-.441-2.68-.353-3.806.651-1.114 1.015-1.489 2.316-.981 3.684zm1.721-80.267c-.287-.453-.662-1.247-1.225-1.887-.375-.43-.982-.706-1.533-.959-1.843-.861-3.663-.254-4.656 1.522-.904 1.611-.397 3.861 1.302 4.766 3.64 1.93 5.494 1.82 6.112-3.442zm-6.829 39.968c.551-1.379 1.291-2.681 2.129-4.402l-2.129-2.007c0-1.236.11-2.571-.044-3.862-.089-.739-.739-1.434-1.578-1.301-.673.099-1.577.452-1.853.971-.695 1.301-1.456 2.746-1.523 4.17-.11 2.096-.242 4.114-.838 6.144-.21.717.309 1.721.684 2.505.353.739 1.125.992 1.919.684 1.435-.552 2.615-1.368 3.233-2.902zm-1.6 78.646c-.088-1.787-.364-3.563-.573-5.45-.872-.595-1.655-1.334-2.593-1.732-2.548-1.081-4.81-.319-6.807 1.975-.397.464-.518 1.512-.275 2.074.397.927 1.026 1.942 1.853 2.449 1.765 1.092 3.674 1.986 5.593 2.769 1.269.53 2.868-.684 2.802-2.085zm-8.958 42.208c.695.077 1.17-.309 1.335-.96.188-.717-.441-1.566-1.246-1.544-.497.011-.982.419-1.291.562-.144 1.093.419 1.865 1.202 1.942zm-8.13 12.786c.309.96 1.158 1.511 2.118 1.235 2.096-.606 4.082-.562 6.145.21a2.13 2.13 0 0 0 2.791-1.6c.375-2.239 1.103-4.335 1.919-6.442.486-1.236-.452-2.515-2.261-2.648-.464.221-1.478.541-2.251 1.148-.54.43-.816 1.235-1.147 1.908-.53 1.081-1.445 1.467-2.559 1.522-1.192.056-2.416-.022-3.586.155a1.9 1.9 0 0 0-1.632 1.897c.011.861.198 1.776.463 2.615zm-6.001-146.613c1.191 1.864 3.111 2.537 4.578 1.621 1.908-1.191 2.647-3.651 1.621-5.505-.584-1.059-1.588-1.301-3.144-1.191-.441.166-1.334.386-2.085.827-1.676.982-2.007 2.626-.97 4.248zm-2.67-50.769c1.379-.618 1.964-1.864 1.677-3.309-.276-1.379-.971-2.505-2.096-3.343-1.368-1.026-3.244-.949-4.579.154-.97.795-1.39 2.284-.805 3.696a8.77 8.77 0 0 0 1.655 2.615c.452.485 1.269.628 1.875.904.872-.265 1.611-.419 2.273-.717zm-2.946 62.33c-.154-.452-.706-.772-1.29-1.357-.541.618-1.082.982-1.17 1.423-.132.673.772 1.313 1.556 1.181.662-.1 1.114-.607.904-1.247zm-3.044 77.697c.165.464.75.784 1.334 1.357.508-.684.993-1.07 1.137-1.566.198-.684-.728-1.302-1.545-1.081-.64.176-1.169.628-.926 1.29zm-.122-183.923c.464-.132.861-.54 1.28-.838-.276-.265-.563-.761-.827-.75-.464.011-.916.342-1.666.662.628.507.993.993 1.213.926zm-.75-53.361c.684.111 1.489-.496 1.578-1.18.088-.673-.53-1.412-1.269-1.533s-1.5.452-1.567 1.169c-.066.706.519 1.423 1.258 1.544zm-2.273-26.388c.729-.165 1.291-.926 1.148-1.644-.166-.805-.673-1.29-1.512-1.334-.926-.045-1.687.805-1.599 1.71.088.871 1.026 1.478 1.963 1.268zm-3.099 237.67c.816-.165 1.268-.684 1.246-1.522-.011-.717-.805-1.335-1.533-1.169-.784.176-1.269.65-1.214 1.533.055.794.717 1.324 1.501 1.158zm-1.931 62.352l.364-.629c-.254-.088-.507-.275-.739-.231-.144.022-.243.364-.364.573.243.089.496.188.739.287zm-2.14-507.685c.198-.585-.486-1.202-1.092-.971-.32.121-.706.618-.695.927.022.331.474.629.838 1.059.408-.419.827-.673.949-1.015zm-1.953 309.289c-1.302-.375-2.603-.762-3.938-1.004-.783-.144-1.478.176-1.754 1.048-.265.794-.177 1.643.529 2.008 1.456.739 3.023 1.268 4.744 1.974.651-.772 1.357-1.335 1.688-2.063.408-.882-.166-1.643-1.269-1.963zm-2.383-91.013c-.11-.75-.651-1.048-1.279-.883-.331.089-.762.541-.806.883-.099.673.353 1.158 1.037 1.169.695.011 1.048-.463 1.048-1.169zm.497 248.305c.264.584.849 1.037 1.522 1.798.651-.806 1.269-1.269 1.456-1.876.254-.827-.838-1.687-1.754-1.533-.717.132-1.489 1.004-1.224 1.611zm-.574-32.269c.739.111 1.556-.54 1.401-1.29-.099-.475-.54-1.037-.982-1.258-.684-.342-1.522.254-1.632.993-.122.739.43 1.434 1.213 1.555zm-4.711-47.933c.221 1.379.872 2.548 1.898 3.497 1.577 1.445 4.115.905 4.766-1.158.353-1.103.32-2.339.463-3.508-.143-.022-.298-.044-.441-.077.242-1.159.573-2.317.662-3.487.033-.463-.431-1.07-.828-1.39-.242-.198-1.026-.143-1.213.089-1.159 1.423-2.615 2.416-4.203 3.287-1.048.574-1.291 1.633-1.104 2.747zm-4.456-38.38c1.213.519 2.504.85 3.077 1.037 2.063-.044 3.056-.761 3.464-1.963.32-.949-.044-2.041-.959-2.769-1.192-.938-2.527-1.556-4.082-1.578-1.423-.022-2.604.916-2.89 2.284-.276 1.246.231 2.493 1.39 2.989zm-2.792-139.674c1.115 1.181 2.571 1.611 4.126 1.567 2.593-.067 5.13.011 7.535 1.18.254.121.916-.187 1.148-.485.242-.309.308-.861.242-1.269-.066-.419-.32-.872-.618-1.169-1.489-1.479-3.022-2.913-4.523-4.336-1.401.397-2.669.905-3.982 1.092-1.324.188-2.692.044-4.027.044-1.07 1.611-.684 2.538.099 3.376zm-1.224 118.835c-.088-.838-.585-1.39-1.412-1.467-1.18-.099-2.151 1.015-2.107 2.714.364.254.871.871 1.467.971 1.302.22 2.195-.839 2.052-2.218zm-3.85 141.097c1.103.53 2.482.034 3.089-.948.452-.739.209-1.434-.386-1.964-.949-.838-2.295-.96-3.244-.221-.419.32-.617.927-1.015 1.556.585.607.971 1.291 1.556 1.577zm.044-105.497c.022-1.103-1.191-2.394-2.251-2.383-1.489.022-3.243 1.522-3.099 2.659.176 1.379 1.886 2.868 3.099 2.725 1.082-.133 2.218-1.666 2.251-3.001zm-10.072 154.677c.684 1.28 2.217 1.854 3.905 1.49 1.754-.375 2.913-1.445 3.056-2.88.033-.286 0-.606-.077-.882-.464-1.556-2.394-2.493-4.468-2.196-1.523.221-2.857 2.008-2.703 3.641.088.265.155.574.287.827zm.099-306.994c.85.1 1.578-.397 1.578-1.136 0-.651-.353-1.125-1.015-1.214-.772-.11-1.489 0-1.776.872-.232.673.364 1.379 1.213 1.478zm-2.118 227.378c.64-.387 1.147-.971.894-1.821-.254-.871-.662-1.71-1.633-1.908-.993-.21-1.644.507-2.251 1.136-.529.552-.904 1.313-.43 1.997.375.529 1.07.838 1.6 1.224.728-.253 1.335-.342 1.82-.628zm-3.982 11.704c.54.21 1.213-.441 1.015-.992-.111-.32-.574-.718-.883-.718-.309-.011-.618.431-1.048.773.375.397.596.816.916.937zm.408-114.709c-.122-2.151-2.207-4.17-4.082-3.949-2.262.265-4.17 2.46-3.971 4.6.165 1.798 2.206 3.508 4.07 3.431 2.174-.11 4.093-2.085 3.983-4.082zm-6.84 34.949c-1.18-.066-2.085.673-2.151 1.765-.077 1.368.706 2.218 2.129 2.317 1.335.088 2.306-.497 2.405-1.445.143-1.423-.872-2.549-2.383-2.637zm-1.831 136.343c.662.154 1.643.055 2.107-.342 1.633-1.457 2.614-3.31 2.526-5.593-.088-1.975-1.5-3.498-3.365-3.652a3.78 3.78 0 0 0-4.015 2.946c-.177.728-.199 1.5-.254 1.853-.022 2.945.827 4.291 3.001 4.788zM256.004 465.3c.056-.122-.286-.43-.452-.651l-.927.673c.166.221.331.452.618.816.287-.287.607-.518.761-.838zm-.518-15.312c.585.143 1.191.22 1.787.242 1.324.055 2.151-.772 2.317-2.228.132-1.147-.552-2.173-1.589-2.361-.441-.077-.893-.11-1.246-.143-.398.022-.695.033-.993.066-1.247.143-1.931.871-1.942 2.063-.011 1.224.574 2.085 1.666 2.361zm-2.791 99.143c.871-.022 1.798-1.147 1.401-1.865-.496-.882-1.169-1.676-1.875-2.404-.464-.486-1.611-.111-1.909.507-.849 1.776.441 3.817 2.383 3.762zm-1.898-17.85c2.339-.011 3.343-1.07 3.078-3.309-.099-.905-.353-1.798-1.335-2.152-1.191-.441-2.36-.375-3.364.486-.331.287-.629.662-.806 1.059-.728 1.732-.452 4.093 2.427 3.916zm-3.265-76.925c0-1.136-1.026-2.118-2.041-1.754-.574.21-.971.894-1.28 1.203.144 1.312.927 1.985 1.876 1.974.761-.011 1.445-.684 1.445-1.423zm-3.199 53.78c.176.464.662.806 1.103 1.291.507-.474.96-.706 1.07-1.048.232-.684-.662-1.456-1.423-1.169-.331.121-.827.728-.75.926zm.32 57.73c.993.232 1.996-.243 2.118-1.015.165-1.037-.585-1.975-1.721-2.118-.761-.099-1.5.419-1.633 1.125-.176.971.342 1.81 1.236 2.008zm.143-43.973c.761-.132 1.302-.838 1.203-1.577-.1-.773-.828-1.379-1.534-1.258a1.47 1.47 0 0 0-1.202 1.6c.088.794.794 1.368 1.533 1.235zm-6.586 20.806c.872.033 1.644-.816 1.589-1.754-.044-.86-.563-1.346-1.357-1.5-.905-.177-1.809.585-1.832 1.467-.033.916.718 1.754 1.6 1.787zm-1.666-11.396c.662.254 1.434-.518 1.258-1.301-.077-.32-.651-.839-.827-.773-.464.166-.839.596-1.346 1.004.408.497.595.949.915 1.07zm-2.383-54.64c1.17.099 2.35.022 3.277.022.474.441.706.628.893.838.74.827.673 2.504 2.273 2.416.861-.044 2.979-3.078 3.067-4.126s-.993-2.504-2.118-2.548c-2.394-.11-4.788-.122-7.182-.088-.827.011-1.346.573-1.489 1.412-.155.926.419 1.996 1.279 2.074zm-2.162-10.249c.419.143.883.177 1.181.232 1.71.055 2.625-1.236 2.052-2.703-.42-1.081-1.225-1.655-2.383-1.699-1.181-.044-2.141.651-2.317 1.677s.474 2.162 1.467 2.493zm-3.056 121.847c.398-.221.795-.464 1.126-.773.673-.617 1.334-1.268 1.213-2.294-.099-.85-1.202-1.82-2.25-2.019-1.424-.265-2.747-.022-3.773 1.048-.386.408-.552 1.026-.684 1.302.276 2.471 2.526 3.74 4.368 2.736zm-1.092-60.731c0-1.059-.728-1.776-1.434-1.544-.441.143-.938.662-1.059 1.103-.188.706.629 1.412 1.368 1.203.463-.144.849-.574 1.125-.762zm-2.361-9.719a1.88 1.88 0 0 0-1.842-2.007c-1.169-.011-1.997 1.003-1.919 2.427.044.816.463 1.412 1.29 1.511 1.247.165 2.383-.761 2.471-1.931zm-5.835 60.378c.088-.011.253-.64.209-.662-.32-.166-.673-.287-1.026-.331-.044-.011-.165.452-.298.849.386.055.762.166 1.115.144zm-1.093-9.719c.574.165 1.17-.541 1.037-1.126-.154-.695-.673-1.026-1.323-.882-.353.077-.629.507-1.192 1.004.607.419 1.004.86 1.478 1.004zm-1.235-23.917c1.721.099 3.21-.64 4.424-1.865 1.037-1.048.992-2.68-.188-3.574-.695-.53-1.544-.894-2.383-1.169-.331-.111-1.037.099-1.191.375-.861 1.555-1.611 3.188-2.505 5.008.74.519 1.269 1.192 1.843 1.225zm-1.953-36.902c.629 1.048 1.225 2.151 2.681 2.074 1.853-.088 3.707-1.511 3.905-3.188.166-1.467.033-2.968.033-4.369.817-1.015 1.677-.496 2.527-.287 1.456.376 2.934.828 4.545-.617-.133-.806-.144-1.423-.353-1.964-.75-1.931-1.854-2.747-3.74-2.57-3.74.353-6.972 1.798-9.168 4.975-1.268 1.842-1.687 3.861-.43 5.946zm-.187-53.703c-.155-.563-.806-1.004-1.07-1.313-1.357.011-2.096.75-2.03 1.655.055.728.728 1.324 1.5 1.313.971-.011 1.831-.783 1.6-1.655zm-2.99 9.101c-.916-.11-1.732.596-1.798 1.942.32.276.75.916 1.324 1.114.838.287 1.732-.585 1.754-1.5.022-.783-.552-1.478-1.28-1.556zm.397 58.635c.221.011.651-.287.64-.42-.044-.485-.232-.959-.441-1.743-.574.519-1.015.739-1.081 1.037-.155.629.209 1.092.882 1.126zm-.529-19.185c.32-.066.761-.485.805-.783.033-.298-.375-.651-.673-1.092-.408.298-.838.463-.993.761-.276.496.287 1.225.861 1.114zm-2.913-7.943c-.386-.662-1.368-.971-1.776-1.257-1.908-.122-3.067.827-3.574 2.559-.419 1.445.011 2.901 1.158 3.519.497.265 1.158.408 1.699.32 2.339-.375 3.696-3.067 2.493-5.141zm-5.736 8.462l.331.121-.056-.364-.275.243zm1.93 65.749a.36.36 0 0 0 .331-.154c.033-.088-.088-.232-.143-.353l-.364.165c.055.122.088.309.176.342zm-4.236-25.009c1.511-2.526 3.707-4.28 6.189-5.758.629-.375 1.158-.927 1.666-1.457.132-.143.033-.551-.022-.816-.022-.11-.254-.265-.353-.243-3.674.74-7.447 1.093-10.878 2.736-.739.353-1.291 1.092-2.041 1.754l4.446 4.148c.21-.088.828-.088.993-.364zm-5.273 14.298c.463-.188.926-.717 1.092-1.203.232-.695-.574-1.445-1.666-1.368-.176.287-.585.717-.695 1.214-.176.794.596 1.621 1.269 1.357zm-1.655 7.722l-.121-.254-.122.254h.243zm-1.489-34.519c1.599.033 3.618-1.699 3.784-3.221.176-1.71-1.434-3.387-3.31-3.442-2.052-.055-3.332 1.202-3.354 3.299-.011 1.765 1.335 3.342 2.88 3.364zm-12.808-3.684c1.82 1.952 2.217 4.17 2.162 6.652-.022 1.136.607 2.008 1.578 2.592 1.037.618 2.063 1.258 3.144 1.809 1.213.618 2.007.475 2.89-.364 1.037-.981 1.213-2.04.563-3.265-.651-1.236-1.545-2.228-2.791-2.89-.662-.353-1.368-.662-1.953-1.126-.64-.507-.872-1.29-.408-2.018.562-.883 1.313-1.644 1.842-2.538.166-.276.022-.948-.232-1.213-.242-.254-.86-.397-1.191-.276-.684.265-1.28.728-1.986 1.158l-2.692-1.588c-1.412.805-1.754 2.173-.926 3.067zm-3.222-12.654c1.446.75 2.902 1.456 4.391 2.107.166.077.585-.165.728-.375a.98.98 0 0 0 .133-.816c-.795-2.03-2.769-2.946-5.119-2.361-.21.055-.331.441-.497.673.122.276.166.662.364.772zm-3.53-80.19c.287 0 .85-.519.828-.773-.033-.474-.386-.926-.728-1.632-.508.584-.927.86-.993 1.202-.122.618.22 1.192.893 1.203zm.177-166.427c1.114.905 2.405 1.225 3.762.629 1.268-.563 1.489-1.754 1.5-3.001 0-3.067-1.346-4.765-3.949-4.997-1.589-.144-2.935.949-3.067 2.548-.155 1.876.22 3.586 1.754 4.821zm-2.504 138.759c.066-.364-.122-.872-.376-1.159-.264-.309-.739-.441-1.334-.772-.375.342-.905.64-1.126 1.081-.132.265.111.861.364 1.137.265.297.74.485 1.148.551.64.121 1.202-.176 1.324-.838zm-1.832 95.072c.088-.055.111-.232.155-.353-.122-.033-.287-.143-.364-.099-.089.044-.1.232-.155.353.133.044.298.143.364.099zm-1.324-46.951c1.368-.011 2.45-.927 2.416-2.074-.033-1.137-1.026-2.019-2.416-2.152-1.092-.099-1.996.706-2.052 1.843-.066 1.346.828 2.394 2.052 2.383zm-1.974-12.941a.97.97 0 0 0 1.18-.971c-.044-.871-.562-1.445-1.379-1.423-.463.011-.927.486-1.28.684.067 1.225.74 1.534 1.479 1.71zm-2.659-77.134c-.331.022-.629.441-.86.617-.011.861.364 1.28 1.015 1.203.319-.044.783-.452.838-.761.099-.629-.342-1.104-.993-1.059zm-.32 31.992c-1.897-.574-3.453-1.754-5.218-2.471-1.489-.607-3.232-1.159-4.722.077-1.511 1.247-1.191 2.99-.882 4.611.463 2.471 2.339 3.707 5.527 3.685 2.118.099 3.916-1.048 5.659-2.217 1.335-.894 1.181-3.222-.364-3.685zm.872 36.041c.011-.077-.629-.32-.684-.254-.232.298-.364.673-.53 1.015l.905.342c.121-.375.276-.739.309-1.103zm-2.869 31.937c.662.155 1.181-.287 1.225-.938.022-.308-.419-.639-.839-1.235-.496.54-.959.86-1.136 1.302-.077.165.43.794.75.871zm-4.159 14.816c1.49.563 2.858-.563 2.593-2.096-.662-3.839-1.776-7.436-5.615-9.002-.673-1.677 1.004-1.898 1.357-3.1-1.435-2.57-4.126-3.442-7.116-4.192.452-.607.629-1.125.938-1.225 1.544-.529 2.526-1.511 3.21-2.989.507-1.081 1.28-2.063 2.03-3.001.96-1.191 2.041-1.18 3.034-.077.397.452.639 1.125 1.114 1.412.739.441 1.61.827 2.46.916 1.434.154 2.67-1.192 2.416-2.604-.155-.872-.485-1.765-.96-2.515-1.544-2.482-4.004-3.619-6.74-4.236-1.39-.309-2.747.551-3.089 2.007-.243 1.026-.166 2.118-.419 3.144-.32 1.313-.629 2.703-1.313 3.828-.596.971-1.633 1.766-2.626 2.383-1.147.717-2.471.453-3.287-.573-.949-1.181-1.92-2.251-3.166-3.166-2.516-1.865-4.303-4.215-4.071-7.668.055-.761-.607-1.654-1.136-2.338-.574-.751-1.986-.475-2.251.397-.298.982-.441 2.008-.706 3.254-1.07-.22-1.92-.441-2.769-.573-1.644-.265-2.824.386-3.089 1.864-.254 1.445-.86 2.956.254 4.622.772-.121 1.721-.055 2.46-.419 2.791-1.346 5.317-.596 7.821.728 1.258.662 1.744 1.644 1.335 3.023-.286.982-.728 2.019-1.401 2.758-.728.794-1.677-.055-2.548-.177-.342-.044-.805.232-1.092.497-.144.132-.1.584-.011.849.088.276.309.519.496.75l1.192 1.49c-.695 1.809-2.703 3.166-1.909 5.372.177.497.662.872 1.18 1.512.839-1.026 1.324-2.119 2.163-2.538 1.919-.96 3.53-2.283 5.262-3.486.243-.165.927 0 1.213.243.298.254.596.882.475 1.158-.408.938-1.004 1.798-1.534 2.692-.673 1.125-.386 2.041.85 2.548 1.114.453 2.261.828 3.453 1.258l1.048 3.023c.64 1.71 1.875 2.868 3.695 2.923 1.766.099 3.244.728 4.799 1.324zm-28.065 22.659c-1.026-.143-2.162.96-2.305 2.24-.089.706.54 1.357 1.379 1.445 1.522.154 2.68-.485 2.813-1.533.11-.883-.883-2.019-1.887-2.152zm3.74-17.132c-.099.86.872 1.71 1.953 1.677.198-.309.662-.728.728-1.203.121-.882-.783-1.776-1.644-1.588-.419.088-.982.695-1.037 1.114zm21.049 12.179c-.541.022-1.07.331-1.578.552-.066.033-.055.275-.11.695.452.32.971.86 1.589 1.037.463.132 1.07-.155 1.566-.375.155-.067.254-.541.188-.773-.21-.816-.894-1.169-1.655-1.136zm1.434-6.542c-.044-.088-.221-.099-.342-.143-.044.121-.154.276-.121.353.044.088.231.099.353.143.044-.121.143-.276.11-.353zm-2.758 26.675c.772.375 1.412.783 2.107 1.015 1.07.353 2.074-.386 1.699-1.313-.607-1.511-.408-2.868.055-4.346.375-1.192-.187-2.207-1.114-2.67-.971-.474-2.173-.375-2.89.485-.431.519-.762 1.335-.706 1.986.121 1.489.496 2.946.849 4.843zm-1.666-8.406c.938.21 1.743-.497 1.809-1.489.056-.762-.507-1.424-1.29-1.523-.993-.132-1.82.541-1.82 1.456.011.894.518 1.39 1.301 1.556zm-2.416-16.879c.166-.176.298-.386.442-.573-.111-.078-.32-.232-.331-.221-.166.176-.298.375-.431.574.111.077.309.231.32.22zm-1.103-9.939c.96.342 2.03.617 3.254-.464-1.367-1.875-3.441-2.151-5.019-3.144-.827-1.5-.132-3.453-1.732-4.755-1.445-.507-3.1-.397-4.733-.275-1.489.11-2.184 1.831-1.268 3.066.529.717 1.246 1.302 1.732 2.03.176.265-.066.795-.155 1.556-.993-.574-1.71-1.07-2.482-1.434-.728-.342-1.489-.309-1.997.452-.496.75-.298 1.953.508 2.383.618.331 1.39.529 2.096.496 1.191-.044 2.361-.375 3.552-.463 2.107-.143 4.192-.177 6.244.552zm-10.237 10.899c.088.088.165.176.253.265.066-.1.188-.21.177-.298s-.155-.177-.243-.254a2.57 2.57 0 0 0-.187.287zm6.321 24.733l.827-.651c-.209-.165-.419-.463-.629-.474-.209 0-.419.298-.628.463l.43.662zm-.706-23.63c.739.364 1.456.066 1.875-.717.066-.132.155-.353.099-.43-.341-.441-.684-1.136-1.114-1.203-.662-.11-1.39.21-2.085.375-.066.011-.077.265-.198.718.397.364.827.97 1.423 1.257zm-15.301 20.431c2.691-1.5 2.691-1.456 5.88-1.269 1.963.122 3.927.177 5.891.089.673-.033 1.345-.541 1.963-.916.155-.099.133-.54.122-.816 0-.122-.166-.309-.276-.331-.585-.122-1.17-.243-1.754-.287-.75-.055-1.765.287-2.207-.088-2.625-2.196-5.891-.541-8.693-1.578-.463-.176-1.235.099-1.71.408-.452.298-.904.883-.97 1.39-.133 1.081.242 1.611 1.754 3.398zm-.375-20.552c1.257.088 2.382-.144 2.989-1.412l-1.986-4.92c-1.059 1.246-2.338 3.772-2.449 4.854-.055.639.673 1.423 1.446 1.478zm-2.615-17.408a5.79 5.79 0 0 0 1.533-.795c.133-.099.122-.728.033-.761-.375-.154-.882-.364-1.18-.21-.474.232-.816.729-1.235 1.148.419.32.706.673.849.618zm-8.131 4.611c1.17.75 4.171 1.401 6.421 1.28-2.019-2.008-3.718-3.1-5.957-2.924-.298.022-.629.541-.783.894-.078.165.121.617.319.75zm.662-63.864c.022-.066-.22-.308-.242-.286-.21.121-.397.275-.596.43l.496.518c.122-.22.265-.43.342-.662zm-.397-56.196c.243-.551.574-.971.486-1.191-.1-.243-.607-.386-.949-.441-.11-.011-.452.485-.386.617.132.32.441.563.849 1.015zm-4.71 113.099c.242 1.257 1.246 2.041 2.912 2.008.166-.331.64-.839.585-1.28-.144-1.158-.96-1.798-2.096-2.063-.717-.155-1.534.607-1.401 1.335zm-1.523 3.32c.21-.088.397-.22.596-.342-.154-.154-.298-.32-.452-.474-.133.188-.276.364-.375.563-.022.033.198.264.231.253zm1.004-82.926c.331-.077.75-.541.794-.872.1-.794-.595-1.301-1.665-1.18-.155.21-.563.519-.596.861-.077.783.651 1.39 1.467 1.191zm-1.853-49.886c.231.309.772.563 1.158.552 1.401-.045 3.155-1.732 3.387-3.133.132-.85-.386-1.821-1.203-2.207-1.367-.662-2.978-.397-3.618.695-.364.618-.496 1.368-.772 2.173.353.651.618 1.346 1.048 1.92zm-.055-44.469a1.31 1.31 0 0 0-1.357-1.435c-.982.023-1.721.751-1.71 2.052.342.276.805.905 1.401 1.059.871.232 1.611-.639 1.666-1.676zm-3.519 192.494l.628-.386-.662-.816c-.165.198-.463.408-.441.596.011.22.298.408.475.606zm-.232-49.323c.298-.188.574-.717.54-1.059-.033-.287-.518-.541-1.114-1.092-.22.827-.419 1.324-.419 1.82 0 .132.794.463.993.331zm-3.034-42.373l.739-.673c-.22-.133-.441-.375-.662-.364-.187.011-.364.297-.551.452.154.198.32.397.474.585zm.43-190.046c1.059-.055 1.832-.982 1.81-2.195-.023-1.721-1.137-2.825-2.847-2.825-1.037 0-1.842.982-1.798 2.174.066 1.743 1.247 2.934 2.835 2.846zm-2.316-46.532c.022-1.07-1.004-2.008-2.03-1.854-1.114.155-1.842 1.081-1.743 2.185.099 1.114 1.059 1.787 2.217 1.566.827-.143 1.534-1.015 1.556-1.897zm-5.152 194.237c.132.839 1.07 1.534 1.953 1.445 1.037-.11 1.787-1.18 1.589-2.261-.177-.938-1.037-1.6-1.909-1.467-1.004.143-1.798 1.257-1.633 2.283zm-2.824 100.743c.585.177 1.225-.452 1.004-1.037-.121-.32-.596-.706-.916-.706-.331 0-.651.43-1.445 1.026.596.32.949.585 1.357.717zm-1.986 28.286c.221-.055.485-.298.541-.508.033-.132-.364-.529-.419-.507-.309.154-.563.397-.905.662.375.176.618.397.783.353zm-.077-274.759c.772.143 1.511-.375 1.589-1.093.077-.772-.441-1.378-1.247-1.434-.662-.044-1.114.21-1.28.872-.221.816.199 1.522.938 1.655zm-.927-56.219c2.019-.551 2.317-.805 2.394-2.052.077-1.235-.276-1.566-2.228-2.074-.96 1.357-.905 2.714-.165 4.126z" fill="#ffdec9"/></g><defs><clipPath id="A"><path fill="#fff" transform="matrix(-1 0 0 1 600 0)" d="M0 0h600v632.577H0z"/></clipPath></defs></svg>