<svg xmlns="http://www.w3.org/2000/svg" width="800" height="844" fill="none"  xmlns:v="https://vecta.io/nano"><g clip-path="url(#A)"><path d="M3.588 419.903c7.811 41.421 26.403 80.18 46.525 116.894 40.068 73.119 85.387 147.091 148.945 202.28 7.325 6.369 14.9 12.444 22.711 18.209-.162-1.029-.235-2.118-.383-3.456.177-1.044.398-2.412.677-3.751.132-.632 1.692-1.03 2-.485 1.162 2.044 2.427 4.059 3.31 6.236.632 1.589-.809 3.339-2.545 3.648l4.06 2.927c25.27 24.873 55.645 44.51 88.52 58.204.176-.191.573-.294.853-.426l.72.779c-.103.059-.22.118-.323.177 18.401 7.56 37.567 13.282 57.057 17.004 17.194 3.28 34.537 4.986 51.879 5.265-.265-.235-.545-.514-.898-.794.751-.779 1.133-1.515 1.721-1.721.809-.279 1.501.221 1.677 1.162.088.486-.015.971-.206 1.368 61.793.559 123.395-16.915 177.981-45.819 73.339-38.832 141.251-99.948 172.994-178.083 10.561-26.006 16.312-52.894 18.298-80.047-1.809-.074-2.986-1.25-2.942-3.001.029-1.383 1.265-2.736 2.618-2.839a3.06 3.06 0 0 1 .721.044c3.015-56.1-9.693-113.216-29.095-166.095-11.002-30.007-23.902-59.351-38.449-87.887-.236.75-1.265 1.353-2.104.971-.735-.339-1.25-1.133-1.662-1.53.191-1.397 1.28-2.074 2.251-1.795.147.045.279.118.412.177-17.593-34.228-37.582-67.265-59.617-98.787-.411.559-1.044.883-1.765.795-1.015-.118-1.868-1.089-1.794-2.03.073-.839.588-1.574 1.294-1.956-8.678-12.297-17.665-24.373-26.947-36.185-15.768-20.078-33.316-41.259-52.703-60.896-.162 1.191-1.088 1.912-2.383 1.78-1.368-.147-2.235-1.118-2.162-2.412.059-1.059.839-1.853 1.898-2.03-26.742-26.653-56.939-50.173-90.756-63.69-.235 1.074-.941 2.045-2.177 2.78-1.015.603-2.147 1.059-3.265 1.456-1.956.691-3.324.294-4.222-1.089-1.412-2.148-1.441-4.663.265-5.972.191-.147.412-.28.618-.427-13.885-4.736-28.359-7.752-43.451-8.59-.573 1.5-1.647 2-2.956 1.971-.809-.015-1.721-.706-2.368-1.324-.236-.221-.148-.544.132-.853L436.89.017c-41.333-.485-78.929 18.46-112.496 40.891-39.7 26.521-77.811 55.6-116.525 83.533l-10.973 7.869a1.23 1.23 0 0 0 .603-.058c2.647-1.045 5.251-1.736 8.178-1.324.941.132 2.133-.927 3.074-1.604 3.604-2.559 5.016-2.294 8.546 2.074l-9.134 4.781c-3.324-1.265-6.869-1.236-10.444-.221-.75.221-1.603.162-2.412.133-1.088-.044-1.956-.324-2.648-.75l-10.575 7.545c.088.353.206.721.323 1.089.53 1.618-.75 2.883-2.294 2.442-.707-.206-1.427-.383-2.133-.574l-14.768 10.59c-.162.603-.441 1.162-1.162 1.471-.089-.162-.162-.309-.25-.456-21.932 15.827-43.598 31.993-64.206 49.452-31.404 26.609-60.984 57.351-79.253 94.668C.22 338.679-4.031 379.468 3.588 419.903zm790.292 64.161c.353-.029 1.089.707 1.059 1.045-.029.456-.647.868-1.191 1.515-.441-.633-1.044-1.103-.986-1.5.059-.427.706-1.045 1.118-1.06zm-5.501 39.73c2.03-.044 3.383.985 3.368 2.559-.014 1.604-1.382 2.824-3.206 2.839-1.853.015-3.324-1.118-3.398-2.648-.103-1.588 1.206-2.706 3.236-2.75zm-5.648-36.302c.25-.044.573.382.868.603l-1.089 1.294-1.177-1.221c.471-.235.912-.588 1.398-.676zm-7.546 51.143c.794.192 1.147.956.75 1.795-.368.765-1.088 1.206-1.838.721-.515-.324-.765-1.059-1.427-2.06 1.221-.235 1.927-.603 2.515-.456zm-21.902 41.318c-1.206-.132-1.412-1.132-1.662-2.074-.235-.868.029-1.559.941-1.853 1.001-.338 1.883.353 2.015 1.544.118 1.236-.455 2.354-1.294 2.383zm4.545 23.579c-.294-.147-.603-.294-.897-.456.221-.265.427-.544.662-.78.029-.029.426.192.426.295 0 .323-.117.632-.191.941zm2.03-16.312c-.544-.192-.912-.898-1.706-1.736 1.118-.5 1.75-1 2.368-.986.927.015 1.191.809 1 1.648-.206.809-.868 1.353-1.662 1.074zm2.971 13.208c.471.03 1.162.412 1.339.824.368.839-.088 1.692-.971 1.78-.603.059-1.265-.515-1.706-.721-.088-1.383.456-1.927 1.338-1.883zm4.075 10.37c.132.912-.868 1.736-2.045 1.604-1.059-.118-1.941-.5-2.074-1.751-.117-1.059.721-2.074 1.677-2.044 1.309.044 2.251.882 2.442 2.191zm-1.795-82.827c-.073 1.03-1.25 1.927-2.559 1.942-1.265.015-2.368-1.03-2.28-2.177.088-1.221 1.162-2.368 2.221-2.339 1.456.03 2.706 1.25 2.618 2.574zm-6.707-59.322c.147-1.397 1.162-2.177 2.442-1.897 1.029.22 1.735 1.25 1.5 2.206-.324 1.28-1.368 2.089-2.589 1.957-.912-.089-1.486-1.06-1.353-2.266zm-.324 30.522c.53.088 1.545.176 2.501.47 1.956.618 3.251 2.589 3.192 4.649-.059 2.147-1.324 3.956-3.28 4.603-.765.251-1.56.412-2.354.515-3.56.442-5.884-1.118-6.163-4.118-.368-3.825 1.794-6.163 6.104-6.119zm-8.369-53.321c1.559-.176 2.456.706 2.589 2.545.117 1.853-.618 3.045-1.986 3.133-1.765.132-3.413-1.059-3.53-2.53-.118-1.53 1.191-2.957 2.927-3.148zm-3.766 193.44c1.648.044 2.942 1.427 2.898 3.118-.029 1.545-1.5 2.618-3.398 2.486-1.5-.103-2.618-1.265-2.589-2.692.03-1.647 1.412-2.956 3.089-2.912zm-3.427-44.51c.015.162.059.471.044.485-.279.074-.574.089-.853.118-.015-.176-.044-.338-.059-.515l.868-.088zm.53 73.899c.661.176 1.456.765 1.706 1.368.456 1.118-.853 2.588-1.986 2.25-.618-.191-1.074-.927-1.353-1.177-.103-1.662.676-2.691 1.633-2.441zM738.53 325.5l.662.309-.294.338c-.148-.059-.339-.088-.398-.206-.073-.103.015-.294.03-.441zm-5.546-37.258c1.074-.177 1.898.382 2.383 1.309.633 1.206.236 2.648-1.162 3.515-.544.339-1.544.398-2.132.133-.604-.265-.971-1.074-1.221-1.383.029-1.897.97-3.383 2.132-3.574zm-3.191 69.736c.132-.603.853-1.089 1.632-2.001.618.986 1.221 1.545 1.309 2.163.118.926-.632 1.368-1.529 1.294-.868-.059-1.589-.603-1.412-1.456zm2.088 305.258c.912.133 1.692 1.162 1.648 2.192-.074 1.559-1.177 2.618-2.707 2.559-1.25-.044-2.353-1.073-2.383-2.221-.014-1.471 1.751-2.765 3.442-2.53zm-14.606-346.959c-.25.618-.897 1.089-1.177 1.398-1.441.029-2.456-1.015-2.074-1.898.25-.588.971-1.191 1.589-1.338.956-.236 2.015.971 1.662 1.838zm7.472 279.959c-.514 1.81-1.897 2.457-3.677 1.751-1.324-.53-2.5-1.177-2.898-2.722-.514-1.971.736-3.677 2.722-3.647 2.912.058 4.574 2.044 3.853 4.618zm-3.265-119.967l.941-1.236c.295.235.853.515.824.691-.073.456-.412.883-.662 1.339l-1.103-.794zm4.089 85.886c.118.059.132.309.206.486l-.5.176c-.059-.162-.118-.338-.191-.5.161-.074.367-.221.485-.162zm-1.412-271.045c.206-.044.853.78.838 1.192-.029.838-.632 1.471-1.529 1.279-.427-.088-.721-.72-1.354-1.426.824-.456 1.398-.912 2.045-1.045zm-2 19.284c.779-.338 1.47.073 1.765.912.353 1-.339 2.103-1.324 1.956-.633-.088-1.206-.603-2.236-1.177.838-.809 1.236-1.441 1.795-1.691zm-5.09-55.321c1.236.015 2.133 1 2.118 2.309-.014 1.648-1.191 2.692-3.118 2.78-1.486.059-2.574-1.118-2.471-2.647.132-1.471 1.53-2.457 3.471-2.442zm-1.735 23.328c1.47 0 2.574 1.148 2.618 2.722.059 2.265-1.618 4.162-3.53 3.971-1.236-.118-2.163-1.441-2.221-3.133-.074-2.147 1.176-3.56 3.133-3.56zm-593.823 54.145c-.853-.133-1.618-.736-2.206-1.03-.162-1.544 1.103-2.824 2.221-2.78.912.03 1.795.986 1.854 1.986.058 1.029-.78 2-1.869 1.824zm.059 141.31c-.22.221-.47.398-.72.574-.089-.147-.192-.294-.28-.441l.735-.559c.089.162.28.397.265.426zm5.972-28.594c-.015-.971 1.074-1.736 2.501-1.471.132.426.515 1.074.5 1.706-.015.912-.736 1.339-1.589 1.295-.912-.045-1.412-.662-1.412-1.53zm13.15 182.246c-.353.088-.868-.471-1.177-.662-.117-1.147.603-2.059 1.295-1.765.441.191.971.853.941 1.28-.015.411-.618 1.044-1.059 1.147zm10.046-117.805l-.809-1.692c.456-.206.912-.515 1.383-.574.147-.014.618.662.544.853-.147.442-.588.795-1.118 1.413zm4.663-20.005c-.573-.294-.956-.971-1.809-1.868 1.25-.529 2.015-1.118 2.765-1.074.397.015 1.015 1.074 1.074 1.692.088.985-1.132 1.721-2.03 1.25zm2.574-151.622c-.191.442-1 1.045-1.25.942-.603-.28-1.044-.912-1.353-1.206.176-1.354 1.029-1.957 1.78-1.663.882.368 1.162 1.148.823 1.927zm-.691-61.881c-.427-.647-.647-1.427-1.074-2.427.868-1.25 1.648-2.648 2.707-3.78.632-.677 1.632-1.162 2.559-1.398 2.309-.588 4.81.368 5.825 2.045 1.03 1.721.191 4.795-1.853 6.369a9.38 9.38 0 0 1-2.633 1.368c-2.486.794-4.016.177-5.531-2.177zm1.956-63.749l1.001-.133c-.03.324-.015.662-.103.971-.015.074-.471.147-.5.088-.177-.294-.265-.617-.398-.926zm6.222 96.33c-.117-.044-.162-.309-.235-.471l.397-.353c.132.235.25.471.383.691-.192.059-.398.192-.545.133zm.133 20.387c-.25.765-1.001 1.368-1.854 2.471-.662-1.015-1.279-1.545-1.368-2.162-.147-1.03.353-1.898 1.501-2.104.926-.162 2.015.853 1.721 1.795zm-4.825 60.425c-.927-.162-1.927-1.28-1.603-2.118.309-.78 1.059-1.383 1.941-2.457.868 1.089 1.648 1.706 1.898 2.501.353 1.088-1.059 2.265-2.236 2.074zm3.192 187.129c-1.412-.014-2.442-.941-2.427-2.162.044-2 1.441-3.368 3.471-3.412 1.28-.03 2.354.985 2.369 2.235.044 2.074-1.28 3.369-3.413 3.339zm4.207 100.434c-.442-.206-.692-.794-1.28-1.544.721-.471 1.265-1.015 1.868-1.118.338-.059 1.03.573 1.162 1 .28.971-.897 2.059-1.75 1.662zm.132-295.639c-1.294.133-2.324-.75-2.324-2 0-1.294.883-2.28 2.104-2.339 1.206-.059 2.324.912 2.382 2.06.059 1.176-.867 2.162-2.162 2.279zm-.206-123.409l-5.339-.5c-1.25-.147-2.221-1.221-2.251-2.383s.721-1.765 1.736-2.118c1.677-.589 3.324-1.25 5.031-1.721.926-.265 2.029-.456 2.912-.191.838.25 1.839 1.015 2.118 1.794 1.147 3.192-.78 5.487-4.207 5.119zm-3.412-40.862l5.56-2.618c.956-.427 2.147.22 2.353 1.132.265 1.148-.309 2.06-1.206 2.442-2.03.853-4.148 1.265-6.237.103-.132-.088-.161-.338-.47-1.059zm9.987 105.067c-.147.368-.985.795-1.279.677-.412-.177-.618-.853-.898-1.28.383-.397.589-.809.883-.897.75-.206 1.618.735 1.294 1.5zm5.707-3.971c-.014-1.53 1.059-2.677 2.545-2.707 1.118-.029 1.927 1.03 1.927 2.501 0 1.441-.736 2.574-1.78 2.736-1.338.206-2.677-1.045-2.692-2.53zm5.81 9.958c-.132.382-.794.588-1.22.868-.295-.427-.574-.868-.942-1.427.471-.427.853-1.059 1.206-1.044.956.029 1.221.838.956 1.603zm3.722-78.9c-.294-.397-.441-.868-.662-1.353l1.162-.441c.147.485.338.956.382 1.441.015.118-.823.427-.882.353zm3.104 329.44c-.398.089-1.015-.735-1.368-1 .191-1.412.853-1.824 1.676-1.603.442.118 1.118.912 1.03 1.088-.265.618-.78 1.383-1.338 1.515zm6.692-304.052c-1.324-.838-2.927-1.221-4.31-1.986-.897-.5-1.485-1.485-.97-2.515.308-.618 1.029-1.265 1.676-1.397 1.148-.221 2.369-.059 4.487-.059-.147.015.647-.147 1.426-.162 2.207-.044 3.281 1.294 2.869 3.457-.486 2.5-2.486 4.354-5.178 2.662zm2.648 127.749c.824-.53 1.25-.986 1.721-1.059.882-.118 1.559.382 1.544 1.309-.014.897-.647 1.559-1.515 1.309-.588-.147-1.015-.868-1.75-1.559zm6.516-71.207c-.515.132-1.177-.118-1.721-.324-.986-.367-1.898-1.103-1.456-2.177.309-.75 1.309-1.22 2.074-1.882.926.514 1.75.75 2.221 1.294.456.515.912 1.471.721 2-.177.53-1.148.912-1.839 1.089zm-.397 179.672c-.956-.191-1.295-.956-1.059-1.706.191-.603.838-1.059 1.588-1.927.647.941 1.265 1.471 1.383 2.088.191.971-.912 1.751-1.912 1.545zm-2.574-172.347c.559-1.015 2.383-1.25 3.221-.603.883.691 1.206 1.736.794 2.677-.882 2-1.912 3.942-3 5.854-.265.471-.912.75-1.427 1.059-1.045.633-2.677-.191-2.78-1.691 0-.088-.133-.544.015-.868 1.029-2.162 2.015-4.339 3.177-6.428zm.529 160.815c.03.029-.191.279-.309.427l-.735-.618c.103-.147.221-.294.323-.442.251.192.515.398.721.633zm1.883 155.284c-.103.03-.647-.662-.559-.853.177-.471.603-.853 1.162-1.574.382.794.897 1.398.75 1.662-.206.397-.853.618-1.353.765zm.103-76.767c-.309-.515-1.089-1.25-1.177-2.044-.162-1.515 1.206-2.589 2.707-2.457.97.089 1.838 1.089 1.765 2.06-.103 1.5-1.324 2.588-3.295 2.441zm-.28-33.507c-1.456-.088-2.632-.677-3.486-1.912-1.573-2.28-.912-4.281 1.692-4.913.574-.133 1.162-.221 1.559-.294 2.515-.118 4.178 1.706 4.016 4.206-.103 1.736-1.751 3.016-3.781 2.913zm3.884-209.355c-.044-1.309.941-2.471 2.059-2.427 2.03.088 3.486 1.28 3.751 3.103.176 1.192-.75 2.163-2.177 2.251-2.192.147-3.574-.971-3.633-2.927zm2.941 10.399c-.323-.941.692-1.956 2.089-1.941.265.353.868.853 1.089 1.5.323.941-.662 2.074-1.648 1.839-.603-.162-1.324-.809-1.53-1.398zm17.416 267.559l-.544-.809.471-.912c.264.191.794.471.764.559-.161.412-.456.78-.691 1.162zm7.222-358.035c-.779.295-1.559.147-1.868-.838-.073-.956.412-1.53 1.324-1.589.853-.058 1.647.324 1.618 1.265 0 .398-.603.986-1.074 1.162zm1.795-17.209c.162.132.088.809-.088 1.088-.648.942-2.28 1.074-3.134.25-.235-.22-.25-.691-.455-1.368.573-.323 1.191-.956 1.823-.971.618-.014 1.31.545 1.854 1.001zm-1.53-37.67l1.28-1.177c.279.412.676.779.809 1.235.059.206-.456.839-.574.795-.456-.133-.868-.456-1.515-.853zm3.221 535.912c-.235-.25-.691-.544-.647-.736.059-.308.456-.558.721-.823.265.294.721.588.677.779-.089.295-.486.515-.751.78zm-.088-343.164c-.471.162-1.206-.515-2.339-1.074.898-.853 1.324-1.559 1.913-1.75.809-.265 1.691.279 1.647 1.147-.029.618-.662 1.501-1.221 1.677zm19.357-199.559c1.971 1.53 2.545 4.163 1.559 6.458-.794 1.838-3.647 2.75-5.751 1.721-2.412-1.177-3.427-3.325-3.545-5.855-.029-.676.471-1.559 1.001-2.059.853-.809 1.926-1.383 3.294-2.324 1.412.824 2.501 1.339 3.442 2.059zm-2.868-31.462c.015-1.471.382-2.795 1.721-3.604 1.118-.677 3.133-.559 3.971.279.927.927 1.074 2.133.78 3.354a5.07 5.07 0 0 1-.721 1.633c-.823 1.279-2.471 2-3.589 1.632-1.265-.412-2.147-1.765-2.162-3.294zm3.515 177.98c-.573 1.574-1.956 2.03-3.986 1.691-1.971-.338-3.177-1.279-3.427-2.794-.132-.78-.147-1.589-.176-1.927.117-4.795 3.677-6.825 7.413-4.545.721.441 1.441 1.632 1.383 2.427-.133 1.75-.603 3.501-1.207 5.148zm.354 127.896c-.221-.074-.442-.162-.736-.265.25-.088.456-.235.559-.176s.118.294.177.441zm-.162-174.068c-1.133.191-2.266-.765-2.427-2.457.279-.294.662-1.029 1.25-1.279 1.015-.427 2.427.5 2.721 1.574.221.765-.647 2-1.544 2.162zm-1.251-9.267c-.294.368-1.117.662-1.5.5-.603-.264-1.015-.926-1.75-1.647.897-.427 1.382-.853 1.868-.853 1.132.014 1.971 1.265 1.382 2zm-5.56 15.43c.045 1.177-1.029 2.089-2.368 2.015-1.559-.073-2.544-1.162-2.177-2.78.177-.765 1.015-1.368 1.383-1.824 2.03.103 3.118 1.148 3.162 2.589zm-2.221 420.902c1.118-.044 1.927 1.176 1.795 2.53-.088.882-.662 1.441-1.559 1.353-1.148-.118-1.868-1.221-1.81-3.045.383-.22.971-.824 1.574-.838zm-1.059-371.244c-.206-.191-.367-.426-.544-.647l.397-.265.544.677c-.147.073-.367.265-.397.235zm-4.53 42.392c1.147.176 1.677 1.015 2 2 .339 1.03.177 1.986-.662 2.751-.132.132-.367.147-.559.235-.382-.044-.853.03-1.147-.147-1.103-.677-1.647-1.736-1.662-3.03 0-.956 1.133-1.942 2.03-1.809zm-1.78-27.153c-.044-.118.088-.309.132-.471.162-.015.324-.015.486-.029-.074.25-.133.5-.206.764-.147-.088-.368-.132-.412-.264zm2.339-149.416c-.853-.647-1.368-1.75-1.765-2.279.132-2.074 1.456-3.281 2.824-3.104 2.295.279 3.868 2.397 3.471 4.751-.059.353-.309.794-.618.985-1.382.912-2.794.501-3.912-.353zm4.795-34.551c-.132.294-.544.456-.897.72-1.662-.514-3.192-1.294-3.751-3.162-.059-.191.544-.824.603-.794 1.368.662 2.721 1.353 4.016 2.133.191.117.176.794.029 1.103zm-3.56 5.324l-5.339 3.251c-1.692-.25-1.339-1.78-1.75-2.78-.398-.941-.427-1.956.456-2.721.853-.736 1.853-.736 2.765-.25 1.162.632 2.221 1.427 3.868 2.5zm-5.869 237.891c-.205-1.353.912-2.633 2.398-2.78 1.162-.118 2.427 1.03 2.339 2.133-.103 1.265-1.398 2.442-2.81 2.545-.809.058-1.765-.883-1.927-1.898zm1.839 90.476c.794-2.133 1.236-4.148.883-6.413-.103-.662.382-1.515.809-2.133.632-.897 2.397-1.28 3.25-.853 1.206.588 1.927 1.662 1.662 2.898-.279 1.309-1.044 2.53-1.721 4.074.309.868.795 1.956 1.089 3.089.544 2.103-.618 3.604-2.706 3.618-2.707.03-4.222-1.721-3.266-4.28zm6.943 221.475c-1.309-.117-2.118-1-2.089-2.338.029-1.486 1.089-2.633 2.501-2.736 1.397-.089 2.485 1.176 2.338 2.721-.132 1.574-1.22 2.486-2.75 2.353zm3.574-254.615c-.691-1.412-1-3-1.559-4.751.603-1.235.985-2.647 1.868-3.603 1.133-1.236 2.809-1.721 4.442-.942 1.618.78 2.236 2.383 2.104 4.045-.118 1.589-.545 3.177-1.001 4.722-.382 1.294-1.529 1.868-2.765 2.03-1.28.147-2.53-.368-3.089-1.501zm5.575 100.258c-.074.676-.589 1.294-1.045 2.191-.75-.588-1.353-.838-1.544-1.279-.338-.795-.059-1.574.794-1.957.721-.338 1.883.28 1.795 1.045zm-.324 138.236c-1.5.074-2.794-1.441-2.736-3.162.059-1.648 1.339-2.722 3.192-2.707 1.604.015 2.766 1 2.795 2.398.044 1.824-1.427 3.398-3.251 3.471zm2.736-494.727c-1.544.044-2.912-1.338-3.059-3.089-.133-1.573 1.309-3 3.044-3.015 1.604-.015 3.016 1.383 3.075 3.074.059 1.589-1.339 2.986-3.06 3.03zm6.884 11.944c-2.28-.132-3.869-1.691-3.854-3.795.015-1.574 1.456-2.78 3.31-2.78 2.118.015 3.692 1.295 3.78 3.089.118 2.03-1.339 3.589-3.236 3.486zm5.192 15.165c-.014 1.486-1.294 2.648-2.691 2.442-1.81-.265-2.795-1.471-2.678-3.251.089-1.294 1.089-2.206 2.325-2.118 1.853.118 3.059 1.28 3.044 2.927zm-7.207 141.105c-.633-.133-1.162-.691-2.148-1.324.853-.75 1.295-1.383 1.868-1.574.765-.265 1.486.118 1.736 1 .28.942-.515 2.089-1.456 1.898zm.485-17.71c-1.324-.029-2.221-1-2.088-2.28.117-1.206 1.117-2.074 2.397-2.074 1.295 0 2.148.956 2.059 2.309-.088 1.251-1.015 2.075-2.368 2.045zm6.546 100.846c1.941-.044 3.192 1.412 3.089 3.589-.074 1.427-1.295 2.353-2.972 2.25-1.868-.117-2.912-1.309-2.794-3.177.117-1.647 1.088-2.633 2.677-2.662zm-2.133 34.684c-.015-.265.382-.544.603-.809.294.147.588.309.868.456l-.809 1.118c-.235-.265-.647-.5-.662-.765zm3.015 235.375l.045-.294.308.191-.353.103zm2.324-21.593c-.132.795-.867 1.501-1.176 2.001-1.633.22-2.824-.765-2.824-1.942 0-1.118.632-1.794 1.706-2 1.25-.221 2.5.735 2.294 1.941zm-.456-386.247c-.308-.603-.794-1.132-.779-1.647 0-1.353.118-2.736.412-4.06.088-.426.838-.97 1.338-1.029 1.309-.147 2.648-.044 3.78-.044 1.251 2.235 1.633 4.162.206 5.942-1.353 1.662-3.191 1.177-4.957.838zm-.029-139.751c1.177-.824 1.839-1.603 2.604-1.75 1.309-.25 2.427.897 2.206 2.015-.235 1.132-1.103 1.706-2.133 1.441-.794-.191-1.471-.912-2.677-1.706zm6.913 114.555c-.573.132-1.176.147-1.544.191-1.824-.074-3.119-1.133-3.074-2.368.058-1.692 1.279-2.971 2.956-3.045a7.1 7.1 0 0 1 1.765.147c1.221.25 2.03 1.324 2.001 2.559-.044 1.236-.853 2.251-2.104 2.516zm1.265 47.584l-.485.176c-.059-.162-.206-.367-.162-.485s.309-.133.471-.191a20.14 20.14 0 0 0 .176.5zm-2.78 430.227c-1.015-.029-1.956-1.088-1.794-2 .162-.957 1.382-1.942 2.191-1.545.618.309 1.251 1.015 1.457 1.662.279.912-.839 1.912-1.854 1.883zm6.31-56.542c-3.177.412-5.765-1.324-6.295-4.251-.103-.588-.118-1.206-.147-1.544.103-3.913 2.633-6.016 5.957-5.046.883.265 1.898.927 2.324 1.707.647 1.191 1.044 2.618 1.192 3.986.308 2.824-1.001 4.883-3.031 5.148zm-1.706-516.011c-.029-1.353.853-2.368 2.104-2.441 1.309-.089 2.412.809 2.515 2.044.118 1.53-1.015 2.824-2.457 2.81-1.22-.015-2.132-1.045-2.162-2.413zm1.383 72.737c.235-2.265 2.971-4.795 4.795-4.442 1.883.367 3.604 2.883 3.413 5.001-.177 2.044-2.089 3.765-4.001 3.633-2.295-.162-4.398-2.265-4.207-4.192zm15.062 50.496c1.824.986 2.089 3.104.588 4.516-1.22 1.147-2.633 1.824-4.912 1.897-.721-.514-1.957-1.176-2.869-2.147-.412-.427-.47-1.662-.147-2.206 1.486-2.545 4.839-3.413 7.34-2.06zm-.78-53.482c.589-.441 1.015-1 1.383-.971.383.03.986.647.986 1.015 0 .353-.618 1-.986 1-.382.015-.794-.559-1.383-1.044zm-2.721 94.359c-.603-.015-1.176-.559-2.236-1.118.912-.809 1.413-1.603 1.913-1.603.529 0 1.338.662 1.529 1.221.295.809-.367 1.529-1.206 1.5zm-4.56 277.017c-.264-.132-.338-.633-.485-.971l.824-.662.676 1.339c-.353.117-.779.412-1.015.294zm2.339 121.806c-.25-.132-.294-.632-.426-.971l.926-.529.53 1.294c-.353.074-.794.324-1.03.206zm.677-276.84c-.206-1.398.632-2.574 1.809-2.545 1.221.03 2.221.956 2.383 2.236.162 1.25-.736 2.486-1.883 2.589-1.118.073-2.118-.912-2.309-2.28zm3.559 40.391c-.073.191-.132.397-.235.662-.088-.235-.132-.368-.176-.5.132-.059.264-.118.411-.162zm-.426-26.491l.412-.147-.074.456-.338-.309zm-.618 49.834c-.191.192-.426.339-.632.515l-.265-.397.647-.485c.088.117.279.353.25.367zm-1.088 98.552c.014-1.633 1.059-2.648 2.647-2.545 1.192.073 1.986 1.044 2.015 2.515.03 1.324-.853 2.148-2.309 2.162-1.412-.014-2.368-.867-2.353-2.132zm4.795 40.2c-.353.058-.809-.545-1.133-.765.044-1.162.559-1.707 1.427-1.486.368.088.882.839.809 1.177-.088.441-.662 1-1.103 1.074zm4.236-223.417c-.338.176-.765.191-1.147.294-1.545-.206-2.589-1.074-3.045-2.53-.441-1.383-.574-2.81.677-3.883.441-.368 1.029-.677 1.603-.75 1.441-.192 2.971 1.073 3.471 2.75.515 1.706-.103 3.398-1.559 4.119zm3.766-32.257c-.148 1.823-1.383 3.074-2.986 3.015-1.766-.059-2.957-1.618-2.854-3.78.074-1.736 1.309-2.942 3.03-2.957 1.839-.015 2.971 1.5 2.81 3.722zm2.118-93.286c-.795 2.736-3.472 4.869-5.649 4.531-2.471-.383-4.795-3.413-4.736-6.193.044-2.53 3.089-5.369 5.619-5.251 2.736.132 5.266 3.045 4.972 5.737-.045.397-.089.794-.206 1.176zm8.663 230.331c-.073 1.191-1.176 2.191-2.397 2.176-1.751-.014-3.089-1.191-3.236-2.853-.118-1.427 1.103-2.501 2.736-2.398 1.853.118 3 1.324 2.897 3.075zm-2.471-232.596l.441-.162-.073.486-.368-.324zm4.913 259.704c-1.809-.117-3.457-2.177-3.427-4.309.015-1.471 1.706-2.648 3.559-2.486s3.075 1.706 3.075 3.854c0 1.647-1.53 3.044-3.207 2.941zm.721 8.179c-.353 1.397-1.074 2.588-2.56 3.059-1.265.412-3.03-.368-4.118-1.78-1.25-1.632-1.03-3.309-.25-5.06.75-1.647 2.103-2.279 3.751-2.485.397.132.853.161 1.118.397 1.676 1.603 2.647 3.501 2.059 5.869zm-.03-60.367c-2.132.03-3.868-2.088-3.324-4.78.736-3.707 4.53-5.648 7.781-3.986 2.412 1.235 3.016 4.045 1.25 6.045-1.353 1.53-2.912 2.736-5.707 2.721zm-4.177-179.804l-.765-1.162c.338-.132.736-.427 1-.338s.383.559.574.868a17.88 17.88 0 0 1-.809.632zm4.442 351.945c-1.559 1.001-3.265 1.53-5.148 1.221-3.045-.485-4.575-3.633-3.177-6.384 1.235-2.427 3.221-3.456 6.133-3.486 1.736.03 3.428 1.118 3.957 2.736.765 2.251.03 4.751-1.765 5.913zm3.471-19.578c-1.721-.117-3.03-1.397-3.133-3.059-.117-1.824 1.074-3.265 2.736-3.28 2.03-.03 3.472 1.368 3.442 3.339-.014 1.736-1.397 3.118-3.045 3zm-1.309-271.265c-1.941-.147-3.074-1.809-2.956-4.913.191-.441.382-1.471.985-2.177.912-1.074 2.192-1.75 3.707-1.353 1.5.397 2.251 1.515 2.618 2.942.103.382.147.779.162 1.176.044 2.677-1.897 4.531-4.516 4.325zm8.208-97.301c.118-1.353 1.147-2.324 2.265-2.133 1.353.235 2.295 1.647 1.971 3.089-.264 1.177-1.221 1.427-2.25 1.397-1.324-.058-2.104-1.015-1.986-2.353zm-1.647-10.723c-1.913-.28-3.678-1.883-4.104-3.869-.486-2.265.176-4.398 1.309-6.28.412-.677 1.677-.824 1.75-.853 4.163-.736 7.031 5.089 5.604 7.839-1.088 2.119-2.677 3.428-4.559 3.163zm4.486-44.127c-2.81.485-5.398 1.559-7.928 2.838-.339.177-.868.309-1.162.162-.677-.353-1.545-.779-1.765-1.382-.206-.559.088-1.81.544-2.045 2.236-1.147 3.971-2.501 4.883-5.031.736-2.015 2.913-1.838 4.737-1.853h.603c1.441.059 2.868.191 3.486 1.824.647 1.692-.089 3.589-1.809 4.678-.486.323-1.015.706-1.589.809zm-6.913 121.909c.088-1.501 1.353-2.633 2.838-2.265.618.161 1.413.912 1.545 1.515.294 1.353-1.074 2.618-2.53 2.618-1.059 0-1.912-.868-1.853-1.868zm4.545 265.47c-.103.412-.927.986-1.295.912-.662-.147-1.618-.618-1.75-1.147-.485-1.957 0-3.839 1.177-6.399 2.103 2.427 2.412 4.457 1.868 6.634zm.426-59.057c-.059-.162-.206-.368-.162-.485.059-.118.309-.133.471-.192.059.162.206.368.162.486-.059.103-.309.117-.471.191zm-.044-157.461c-1.441.147-2.736-1.03-2.78-2.942.5-.353 1.162-1.177 1.942-1.309 1.588-.265 2.942.985 2.736 2.309-.147 1.059-.751 1.839-1.898 1.942zm7.414 132.588c-.28 1.633-1.721 2.736-3.398 2.633-1.427-.088-2.56-1.383-2.442-2.81.132-1.676 1.545-3.074 3.06-3 1.632.073 3.044 1.677 2.78 3.177zm-2.177-158.8c-.971-.853-1.427-2-1.074-3.251.382-1.412 1.206-2.559 2.75-2.912.574-.132 1.192-.103 1.898-.162.691.177 1.515.28 2.206.633a2.39 2.39 0 0 1 1.104 1.324c.455 1.529-.501 3.927-1.795 4.824-1.177.824-3.839.633-5.089-.456zm10.281 32.125c-.309 1.059-1.103 1.544-2.206 1.486-1.118-.059-1.868-.81-1.809-1.839s.868-1.824 1.882-1.824c1.28-.029 2.442 1.118 2.133 2.177zm-.617-197.529c.455.162 1.014.765 1.044 1.206.029.397-.589.853-1.03 1.442-.559-.486-1.147-.751-1.353-1.192-.309-.735.588-1.721 1.339-1.456zm-1.001 347.327c-2.853.103-4.868-1.913-4.854-4.84.015-2.971 1.971-5.28 4.516-5.339 2.662-.074 4.633 1.691 4.78 4.266.192 3.456-1.573 5.81-4.442 5.913zm4.398-419.343c-.838.162-1.809-.706-1.971-1.736-.162-1.044.456-1.926 1.53-2.103.883-.147 1.53.25 1.824 1.074.412 1.191-.309 2.574-1.383 2.765zm3.81 585.6c-.147-.28-.338-.559-.441-.853-.03-.089.294-.383.323-.368.28.162.515.382.78.574l-.662.647zm2.677-52.085c-1.515.015-2.545-1.045-2.545-2.633 0-1.456 1.177-2.515 2.722-2.427 1.265.073 2.118.971 2.191 2.324.103 1.603-.868 2.721-2.368 2.736zm1.324-590.998c1.706-.059 2.853.809 2.942 2.221.103 1.441-.971 2.501-2.604 2.589-1.647.088-2.839-.824-2.942-2.236-.103-1.471.956-2.515 2.604-2.574zm-3.148-4.898c-.118-.515-.059-1.133.132-1.633.118-.309.589-.691.898-.677.706.03 1.632.074 2.044.501.633.661.177 1.529-.514 2.015-.442.309-1.06.367-1.516.514-.441-.279-.985-.441-1.044-.72zm6.487 66.117c1.132.397 1.338 1.501 1.074 2.368-.295.956-1.104 1.766-1.663 2.604-.691-.368-1.147-.456-1.323-.736-.868-1.441-.545-3 .838-4.074.25-.191.765-.265 1.074-.162zM364.683 340.4c.117-1.544 1.162-2.485 2.691-2.456 1.53.015 2.501 1 2.56 2.589.059 1.765-.971 2.898-2.795 3.074-1.574.147-2.603-1.206-2.456-3.207zm1.75 341.958c.294.427.633.824.839 1.28.029.073-.545.412-1.03.779-.235-.5-.544-.926-.618-1.397-.029-.191.53-.441.809-.662zm4.383-63.22c-.206 1.486-1.338 2.442-2.824 2.339-1.397-.103-2.441-1.368-2.338-2.824.132-1.736 1.544-2.868 3.206-2.604 1.427.236 2.177 1.427 1.956 3.089zm2.28-383.246c-.147-1.427.927-2.515 2.516-2.559 1.691-.059 2.765.809 2.824 2.265.073 1.515-.942 2.559-2.516 2.603-1.618.045-2.677-.809-2.824-2.309zm4.442-132.985c-1.162 0-2.265-1.309-2.073-2.457.22-1.264 1.323-2.221 2.971-2.118.397.427 1.353 1.015 1.588 1.81.368 1.265-1.162 2.765-2.486 2.765zm.824 40.832c.044.103-.117.295-.191.442l-.456-.236c.074-.147.132-.309.206-.456.162.074.397.118.441.25zm.177 688.579c-.206.059-.545-.309-1.015-.618l1.088-.986c.191.28.559.559.544.824a1.12 1.12 0 0 1-.617.78zm4.81-246.055c-.148 1.192-1.295 2.104-2.53 2.001-1.868-.147-3.339-1.912-3.045-3.677.22-1.339 1.721-2.53 2.986-2.398 1.691.206 2.839 1.986 2.589 4.074zm2.986-105.037c-2.192.058-4.222-1.795-4.384-4.016-.117-1.589 1.383-3.162 2.927-3.104 2.486.103 4.31 1.766 4.369 3.972.044 1.662-1.294 3.104-2.912 3.148zm4.662 198.073l-.176-.397c.088-.103.176-.221.265-.324l-.089.721zm4.693 154.784c-.839.588-1.927.75-2.663-.074-.426-.485-.765-1.574-.5-2.03.515-.912 1.471-1.559 2.177-2.25.662.353 1.088.456 1.309.721.912 1.044.78 2.868-.323 3.633zm-3.501-287.578c.088-1.707 1.015-2.751 2.191-2.854.927-.088 1.883.986 1.736 1.927-.206 1.28-1.206 2.236-2.442 2.015-.617-.132-1.132-.823-1.485-1.088zm7.516 3.353c-.75-.22-1.28-1.191-1.677-1.573.103-2.295 1.427-3.619 3.06-3.457 1.103.103 1.838.809 1.956 1.897.221 1.839-1.603 3.634-3.339 3.133zm6.59-261.954c-.162-1.515.735-2.928 2.074-3.089 1.147-.147 1.853.573 2.25 1.529.515 1.28-.279 2.648-1.78 3.236-1.132.427-2.412-.397-2.544-1.676zm.75-131.647c.088-.971.971-1.574 2.192-1.427.823.103 1.515.441 1.574 1.412.058 1-.751 1.751-1.883 1.78-1.074.029-1.971-.809-1.883-1.765zm4.81 524.277c.294.206.853.442 1.103.853.382.648-.265 1.795-1.015 1.751-.471-.03-1.074-.412-1.324-.809-.412-.677.192-1.618 1.236-1.795zm-.706 154.99c-1.118-.058-2.03-.882-2.03-1.809 0-1.486 1.206-2.706 2.662-2.692 1.236.015 2.31 1.059 2.339 2.28.03 1.368-1.221 2.31-2.971 2.221zm3-174.009c-.132.265-.617.368-1.059.618-.397-.294-.985-.529-1.265-.956-.559-.853-.676-1.883.103-2.662.28-.28 1.177-.324 1.501-.089 1.074.765 1.25 1.913.72 3.089zm7.738-203.383c-2.295 1.854-3.531 4.192-4.472 6.928-1.427-.088-2.707.089-3.78-.294-2.442-.912-3.03-3.707-1.089-5.31.765-.632 1.486-1.324 2.089-1.868v-5.295c1.794-.088 3.368-.383 4.913-.221 2.647.265 4.354 4.428 2.339 6.06zm7.295-66.279c-.147-.074-.368-.118-.412-.235-.044-.103.118-.28.192-.427.147.074.294.162.426.235-.073.147-.132.295-.206.427zm-2.236-61.528c-.044-1.192 1.339-2.354 2.442-1.839 1.397.662 2.81 1.456 3.869 2.545.47.485.353 1.882.073 2.706-.338.986-1.412 1.383-2.471 1.177-2.295-.427-3.824-2.265-3.913-4.589zm4.104-8.973l.53-.574c.073.148.22.295.206.442 0 .117-.192.22-.294.338-.148-.074-.295-.132-.442-.206zm15.386 94.433c.618 1.662 1 3.456 1.265 5.207.206 1.397-1.324 2.853-2.677 2.53-3.31-.765-6.678-1.471-9.311-3.854-1.603-1.456-1.897-3.177-.985-5.487.97-2.456 2.162-3.368 4.398-3.383 3.868 0 5.942 1.324 7.31 4.987zm-4.648-227.609c.132-.044.265-.074.397-.118l-.265.574c-.059-.147-.088-.294-.132-.456zm-1.78 263.558c-.132-.309.75-1.339 1.368-1.589.883-.382 2.103.618 2.015 1.648-.059.647-.662 1.25-1.25 2.309-.986-1.03-1.809-1.589-2.133-2.368zm.574 9.208l-.927.397c-.191-.25-.559-.544-.5-.736.074-.279.441-.47.691-.706l.736 1.045zm-3.501 25.344c-.074 1.029-.941 1.853-1.927 1.823-1.044-.029-1.765-.823-1.765-1.941s.53-1.883 1.603-2.162c1.059-.28 2.177.985 2.089 2.28zm-.103-186.703l.868-.986c.368.338.765.662 1.044 1.059.044.059-.529.765-.662.721-.456-.132-.823-.486-1.25-.794zm2.78-82.136c-.235 1.397-1.662 2.412-3.015 2.147-1.251-.25-2.295-1.397-2.192-2.427.132-1.279 1.53-2.221 3.104-2.088 1.265.117 2.28 1.265 2.103 2.368zm-3.398 168.831c.265 1.148-.676 2.398-1.897 2.515-1.501.133-2.766-.794-3.016-2.206-.161-.912.603-1.883 1.663-2.103 1.573-.309 2.927.426 3.25 1.794zm.412 180.614c-.265.176-.765.029-1.691.029-.633-.221-1.766-.544-2.854-.986-1.03-.411-1.589-1.191-1.339-2.324.251-1.103 1.677-2.015 2.766-1.721 1.324.368 2.692.78 3.854 1.457.514.309.941 1.397.823 2-.117.618-.941 1.133-1.559 1.545zm2.677 62.763c-.235-.338-.941-.941-.882-1.426.088-.589.779-1.442 1.309-1.53.5-.074 1.382.559 1.647 1.103.412.868-.559 1.839-2.074 1.853zm.28-124.262c-.765.441-2.383-.265-2.413-.633 0-.794-.103-1.221.015-1.559.986-2.795 2.986-4.648 5.619-5.869.294-.132.912-.059 1.103.162.353.427.824 1.103.706 1.53-.735 2.824-2.486 4.927-5.03 6.369zm5.722 153.239c-.295-.367-1.001-.882-1.118-1.515-.192-.941.632-1.382 1.485-1.382.868 0 1.53.515 1.545 1.441s-.574 1.412-1.912 1.456zm.97-189.865c-1.794.103-3.236-1.559-3.147-3.633.073-1.751 1.485-3.074 3.147-2.957 1.589.103 2.986 1.677 2.913 3.266-.059 1.662-1.442 3.236-2.913 3.324zm.456-234.022c-1.765.206-3.339-.986-3.412-2.589-.089-1.824 1.456-3.457 3.353-3.53 1.574-.059 3.207 1.471 3.192 2.986-.029 1.485-1.471 2.942-3.133 3.133zm-1.647-13.106c.809-.029 1.633.294 1.574 1.206-.044.618-.603 1.192-1.221 2.28-.75-.912-1.383-1.353-1.53-1.927-.176-.765.221-1.53 1.177-1.559zm1.059-118.158c-.618-.427-1.191-1.162-1.383-1.869-.412-1.544-.573-3.147-.765-4.324.339-2.78-.117-5.766 2.766-6.575 2.412-.691 3.868 1.677 5.398 3.221.691.706 1.324 1.53 1.839 2.383 1.353 2.236 1.088 4.384-.648 6.031-2.118 1.956-5.265 2.515-7.207 1.133zm7.237 366.978c0-1.53.662-2.736 1.927-3.56.662-.427 1.441-.721 2.191-.986 1.604-.559 3.163-.691 4.457.706 1.221 1.31 1.309 2.913.927 4.531-.574 2.383-3.471 4.089-6.178 3.736-1.883-.25-3.339-2.192-3.324-4.427zm10.105 141.266c-1.03.706-1.574 1.353-2.192 1.441-.853.118-1.515-.529-1.485-1.456.029-.882.632-1.603 1.5-1.485.618.088 1.147.765 2.177 1.5zm-6.943-79.959c-.147.309-.206.78-.441.883-.206.088-.588-.221-.897-.353.147-.309.22-.78.441-.868.206-.088.588.206.897.338zm-1.5 48.717c-.044-.191.015-.397.015-.589.22-.323.367-.809.676-.926.53-.221 1.162-.353 1.736-.294 1.456.132 2.706 1.235 2.368 2.177-.235.632-.956 1.353-1.588 1.544-1.56.427-2.928-.485-3.207-1.912zm4.736 213.841c-1.427.441-2.515-.206-2.721-1.412-.176-1.044.544-2.03 1.545-2.089 1.191-.073 2.471.868 2.677 2.339-.383.309-.868.956-1.501 1.162zm9.767 10.046c-1.677 1.971-4.03 2.545-6.545 1.604-1.133-.427-1.721-1.736-1.354-2.986.648-2.118 2.398-3.177 5.413-3.133.397.117 1.001.22 1.545.441 1.515.603 2 2.824.941 4.074zm-6.001-105.258l.426-1.015 1.236.735c-.25.28-.471.706-.765.765-.25.074-.603-.294-.897-.485zm5.045-189.13c-.176-.941.618-1.868 1.736-2.03 1.059-.147 1.882.53 2.03 1.692.147 1.191-.427 2.338-1.236 2.441-1.059.133-2.309-.912-2.53-2.103zm2.162-24.329c0-1.706.971-2.912 2.824-3.295.765-.162 1.648-.279 2.339-.014.633.235 1.383.911 1.545 1.544.676 2.677-.662 4.31-3.325 4.31-2.118 0-3.383-.956-3.383-2.545zm1.265 284.783c-.235-.191-.412-.441-.603-.676l.868-.383c.059.28.162.559.162.839 0 .088-.368.265-.427.22zm5.178-46.186c-.235.088-1-.515-1.103-.897-.206-.809.279-1.53 1.132-1.545.412-.015.853.515 1.648 1.059-.692.603-1.118 1.177-1.677 1.383zm20.21-51.159c-.809-.735-1.279-1.838-1.647-2.397.073-3.207 1.853-5.207 4.339-5.428 1.118-.103 2.456.824 2.736 1.898.603 2.324-.162 4.501-2.104 5.736-1.044.662-2.309 1.103-3.324.191zm-3.045-199.602c-1.721.044-3.633-1.795-3.544-3.428.073-1.368 1.559-2.662 2.897-2.5 1.559.191 3.163 1.677 3.31 3.089.117 1.162-1.412 2.809-2.663 2.839zm11.694-92.388c-1.412-.206-2.427-1.736-2.133-3.075.221-1 1.648-2.235 2.677-1.941 2.251.647 4.443 1.53 6.62 2.397.22.089.411.765.308 1.045-.191.5-.544 1.206-.97 1.324-1.133.323-2.324.382-3.207.5-1.309-.089-2.324-.103-3.295-.25zm2.927 38.979c.103 1.25-.926 2.353-2.118 2.265-1.206-.088-2.147-1.133-2.147-2.868.456-.353 1.073-1.162 1.868-1.368 1.206-.309 2.28.721 2.397 1.971zm-2.956 141.178c.868 1.559.823 3.089-.118 4.575-1.044 1.647-2.486 2.588-4.53 2.412-1.559-.133-2.53-1.53-2.427-3.574.132-2.883 1.176-4.369 3.515-4.972 1.501-.383 2.81.191 3.56 1.559zm-1.015 120.056c-.265.618-.853 1.177-1.427 1.53-.162.103-.794-.574-1.088-.795-.015-1.397.897-2.383 1.75-2.015.382.162.897 1 .765 1.28zm-5.251-144.385c-.147.338-.809.515-1.28.588-.147.015-.603-.647-.53-.809.206-.426.633-.75 1.163-1.338.323.706.779 1.265.647 1.559zm5.015 269.883c-.058.03-.617-.662-.544-.779.265-.412.677-.706 1.074-1.074.324.456.721.956.677 1a4.09 4.09 0 0 1-1.207.853zm2.236-55.439c-.926.324-1.956.471-2.956.501-2.31.058-4.075-1.339-4.398-3.325-.353-2.162 1.206-4.515 3.383-5.06.588-.147 1.191-.147 1.662-.191.544.03.941.044 1.338.088 2.06.295 3.692 1.633 3.957 3.222.309 1.809-1.059 4.089-2.986 4.765zm3.589-181.069c-.117-.912.574-1.309 1.398-1.28.309.015.882.442.853.545-.162.617-.486 1.176-.868 2.059-.706-.647-1.324-.941-1.383-1.324zm4.737 91.123c-2.06-.029-3.648-1.691-3.663-3.824 0-1.971 1.5-3.427 3.368-3.251 1.81.177 2.883 1.559 2.913 3.78.029 1.912-1.089 3.325-2.618 3.295zm2.103-194.822c-.838 1-1.971 1.235-3.221.985-1.295-.264-2.074-1.132-2.339-2.368-.162-.765-.368-1.662-.103-2.324.338-.824.986-1.824 1.75-2.103 1.883-.692 3.854-.486 5.737.235.338 2.295-.53 4.016-1.824 5.575zm2.809 186.261l-.691-.647c.265-.176.515-.397.794-.515.074-.029.398.28.383.324-.118.294-.309.559-.486.838zm2.236-331.926c-.132.25-.573.324-.882.471-.206-.265-.427-.53-.633-.78l1.28-.603c.088.309.353.706.235.912zm6.693 336.104c-1.397.015-2.574-1.177-2.662-2.707-.074-1.397 1.147-2.75 2.544-2.794 1.383-.045 2.692 1.279 2.677 2.677-.014 1.456-1.25 2.809-2.559 2.824zm6.604-384.511c2.192.058 3.692 1.779 3.442 3.986-.412 3.706-2.544 5.677-5.81 5.427-2.015-.161-3.354-1.471-3.486-3.412-.279-3.56 2.192-6.09 5.854-6.001zm-5.824-37.141c.058-1.721 1.412-3.133 2.941-3.045 1.53.103 2.986 2.192 2.736 3.957-.162 1.162-1.588 1.971-3.28 1.853-1.5-.103-2.456-1.191-2.397-2.765zm2.309 304.332c-.633-.133-1.177-.75-1.53-1-.059-1.442.809-2.369 1.824-2.324.897.029 1.456.559 1.515 1.456.074 1-.868 2.074-1.809 1.868zm2.839 62.322c.412.059 1.044.721 1.029 1.104-.014.397-.647 1-1.073 1.073-.324.059-.78-.588-1.368-1.088.603-.486 1.059-1.133 1.412-1.089zm1.941 75.782c-.206.603-.926 1.044-1.691 1.838-.839-.985-1.618-1.588-1.957-2.382-.338-.809.942-1.707 2.001-1.53 1.03.176 1.956 1.162 1.647 2.074zm1.824-81.371c-.206.618-.897 1.383-1.471 1.486-.441.073-1.059-.765-1.868-1.427.692-.795 1.059-1.545 1.648-1.795.838-.382 2.015.795 1.691 1.736zm.442-211.988c-.324 1.03-1.663 1.706-2.972 1.265-.603-.206-1.059-.912-1.368-1.206.206-1.839 1.251-2.78 2.413-2.604 1.235.206 2.25 1.53 1.927 2.545zm10.502 366.684c-.118.441-.942 1.132-1.147 1.044-.604-.265-1.06-.868-1.692-1.456.588-.706.853-1.309 1.309-1.5.839-.368 1.824.794 1.53 1.912zm.794-37.464c-2.103-.574-3.015-1.751-2.809-3.884.206-2.177 1.118-3.412 3.118-3.839 1.353-.294 2.809-.603 4.119-.353 1.029.192 2.118 1.059 2.809 1.927.868 1.103.132 2.295-.603 3.251-1.662 2.192-3.633 3.707-6.634 2.898zm-1.441-454.645c-1.501.118-2.516-.823-2.648-2.471-.132-1.574.824-2.692 2.324-2.75 1.515-.059 2.633.956 2.692 2.456.073 1.559-.868 2.662-2.368 2.765zm3.103 203.545c.147.383-.176 1.236-.544 1.471-.353.235-1.221.147-1.544-.147-.677-.603-1.133-1.456-1.721-2.251.5-.632.764-1.147 1.191-1.456.235-.176.912-.162 1.074.044.603.721 1.206 1.486 1.544 2.339zm2.707 79.577c-.147-1.339 1.206-2.663 2.633-2.56 1.191.074 2.206 1.147 2.235 2.354.03 1.176-1.014 2.177-2.309 2.221-1.206.044-2.427-.927-2.559-2.015zm3.339 276.869c-.383.03-.824-.559-1.456-1.059.632-.485 1.088-1.088 1.47-1.044.412.044.765.677 1.133 1.059-.382.382-.735 1.015-1.147 1.044zm-.353-117.584c-1.206.088-2.368-.809-2.516-1.957-.176-1.426.883-2.633 2.398-2.736a2.43 2.43 0 0 1 2.515 1.971c.236 1.368-.868 2.604-2.397 2.722zm27.256-178.672c.456-1.633 1.426-2.795 3.5-3.633 2.192.779 4.281 1.412 6.267 2.28.617.264 1.279 1.118 1.338 1.75.059.618-.515 1.75-1.03 1.883-2.456.691-4.957 1.324-7.486 1.574-1.839.176-3.104-2.001-2.589-3.854zm2.809-244.554c.03-.956.942-1.868 1.927-1.897.971-.03 1.868.882 1.883 1.897.015.971-.912 1.883-1.898 1.883-1 0-1.941-.927-1.912-1.883zm8.576 318.806c-1.251-1.059-1.663-3.016-.839-4.384 1-1.662 2.442-2.647 4.854-2.706 2.133-.088 3.736 2.177 2.604 4.501-.515 1.044-1.309 2.044-2.177 2.824-1.177 1.074-3.133.868-4.442-.235zm3.706 76.34c1.471.118 2.78 1.294 2.839 2.559.059 1.28-1.324 2.589-2.721 2.574-1.486-.029-2.427-1.176-2.309-2.824.103-1.368 1.073-2.397 2.191-2.309zm-4.368-25.27c-.25.147-.486.323-.751.441-.029.015-.294-.294-.25-.382.103-.265.309-.501.471-.751.162.236.353.456.53.692zm6.383-256.998c-1.75.912-3.53.941-5.148-.206-.573-.412-.838-1.265-1.059-1.618.118-2.457 2.236-4.192 4.236-3.707.927.235 1.854.78 2.604 1.412 1.25 1.059.838 3.369-.633 4.119zm-3.883-10.959c-2.133.074-3.78-1.147-3.809-2.853-.045-2.412 1.985-4.28 4.662-4.295 2.074 0 3.428 1.28 3.413 3.236-.03 2.368-1.618 3.824-4.266 3.912zm-2.103 418.196c-.736.323-2.03.117-2.707-.368-.926-.647-1.809-1.677-2.147-2.736-.662-2.089-1-4.295-1.353-6.457-.177-1.103 1.323-2.383 2.427-1.986 1.073.397 2.324.927 2.971 1.795 1.574 2.132 2.309 4.648 2.265 7.795-.353.486-.721 1.633-1.456 1.957zm4.221-67.456c-1.618-.25-2.706-1.633-2.647-3.383.059-1.854 1.765-3.295 3.574-3.06 1.339.177 2.383 1.544 2.295 2.971-.118 2.089-1.633 3.707-3.222 3.472zM605.059 657c-2.53-.339-4.471-2.163-4.354-4.089.133-2.163 1.854-3.56 4.089-3.31 2.207.25 3.722 2.236 3.604 4.707-.103 1.574-1.75 2.898-3.339 2.692zm6.855-36.008c-.839-.089-1.721-1.265-1.648-2.207.089-1.22 1.148-2.177 2.898-2.147.368.441 1.28 1.074 1.441 1.838.251 1.324-1.367 2.663-2.691 2.516zm20.46 105.273c-1.53-.015-2.809-1.471-2.824-3.236-.015-1.603 1.353-2.898 3.104-2.957 1.529-.044 2.691 1.03 2.735 2.516.059 2.147-1.206 3.692-3.015 3.677zm-.265-187.497c-1.574.162-3.133-1.192-3.206-2.751-.059-1.294 1.103-2.456 2.633-2.633 1.868-.206 3.339.765 3.515 2.31.162 1.441-1.235 2.912-2.942 3.074zm2.824 129.425c-.117.971-1.456 1.677-2.794 1.501-1.324-.177-2.236-1.177-2.104-2.324.118-1.118 1.324-2.06 2.486-1.971 1.353.103 2.56 1.5 2.412 2.794zm2.516-175.685c-1.162.558-2.383.485-3.442-.236-1.765-1.206-2.707-2.912-2.766-5.633.309-.618.662-1.78 1.398-2.648 1.088-1.309 3.192-1.191 4.265.059 1.354 1.574 2.207 3.368 2.177 5.472-.014 1.25-.397 2.397-1.632 2.986zm1.603-102.214l.074-.456.338.309-.412.147zm4.369 321.438c-.339.089-.853-.485-1.162-.676.058-1.162.456-1.883 1.412-1.721.367.059.897.853.838 1.25-.073.441-.632 1.03-1.088 1.147zm-.898-356.137l.751-.824c.294.162.794.294.853.515.059.28-.236.662-.368.986l-1.236-.677zm10.429 135.133c.044-.397.03-.809.162-1.177.544-1.53 1.868-2.501 3.148-2.236 1.118.236 1.677 1.074 1.721 2.162.073 1.81-1.074 3.192-2.707 3.398-1.221.147-2.383-.926-2.324-2.147zm4.001 109.539c-1.118.132-1.971-.927-1.897-2.369.073-1.485.853-2.368 2.029-2.324 1.148.03 2.148 1.162 2.06 2.324-.089 1.192-1.059 2.236-2.192 2.369zm.927-127.514c-1.148 1.206-2.471 2.074-4.001 2.089-2.707-.103-5.443-2.192-5.59-4.104-.132-1.839 1.633-3.913 4.045-4.678.765-.235 1.574-.455 2.354-.455 2 0 3.383 1.103 4.339 2.794.706 1.221.235 2.913-1.147 4.354zm-6.325-83.812c-1.471.014-2.692-1.471-2.692-3.281 0-1.662 1.25-2.941 2.971-3.03 1.574-.088 2.942.912 3.016 2.192.117 2.251-1.368 4.104-3.295 4.119zm2.177 62.631c-.015.324-.133.633-.221.956-.324-.147-.662-.279-.985-.426.235-.265.441-.545.706-.751.088-.058.514.147.5.221zm29.918 11.576c-.412-.029-.809-.603-1.397-1.103.573-.427 1.015-.986 1.353-.941.412.058.971.647 1 1.044.03.338-.632 1.03-.956 1zm.412-68.074c-.809.353-1.78-.603-1.839-1.882.236-.28.5-.854.927-1.045.809-.368 1.794.544 1.736 1.662-.015.456-.412 1.089-.824 1.265zm7.325 306.553c-.941-.191-1.942-.088-2.295-.515-1.147-1.368-2.147-2.897-3.044-4.457-.721-1.25-.147-2.971 1.044-3.706s3.104-.692 3.942.206c.383.412.736 1.044.736 1.574-.059 2.162-.236 4.339-.383 6.898zm6.649-76.046c-.751 2.309-2.751 3.412-4.869 4.074-1.589.501-3.31-.088-4.398-1.309-.721-.809-.839-2.162-1.015-2.691-.015-2.192.677-3.325 2.045-4.045 3.221-1.721 6.295-1.089 7.825 1.691.353.647.632 1.618.412 2.28zm-2.28-39.229l.706-.692c.132.295.309.574.367.883.03.103-.294.412-.308.397-.265-.191-.515-.397-.765-.588zm.882-15.901c-1.353.03-2.515-1.265-2.427-2.692.059-.926 1.03-1.632 2.104-1.529 1.294.117 2.147 1.044 2.118 2.294-.015.971-.883 1.898-1.795 1.927zm-.529-89.755c-1.148.044-2.133-1.118-2.06-2.412.089-1.559 1.236-2.824 2.516-2.795 1.132.029 2.147 1.192 2.103 2.442-.044 1.441-1.206 2.706-2.559 2.765zm.897-13.268c-1.633-.014-2.927-1.397-2.912-3.103.014-1.868 1.441-3.339 3.368-3.457 1.294-.073 2.368 1.162 2.412 2.824.059 2.251-1.074 3.751-2.868 3.736zm7.472 43.613c-1.177 0-1.765-.647-1.956-1.794-.088-.957.691-2.001 1.559-2.089 1.103-.103 2.28.985 2.324 2.147.03.956-.853 1.736-1.927 1.736zm4.178-19.534c-.147.853-.736 1.339-1.633 1.368-1.118.03-1.883-.662-1.956-2.221.308-.279.764-.985 1.368-1.147 1.22-.368 2.427.794 2.221 2zm-3.413-75.663c.309-.25.691-.78 1.162-.868.883-.177 1.574.353 1.442 1.279-.059.427-.662 1.015-1.104 1.118-.882.191-1.426-.338-1.5-1.529zm2.103-96.713c.971.059 1.869 1.177 1.604 2.074-.309 1.015-.912 1.736-2.56 1.662-.264-.323-.97-.809-1.132-1.441-.294-1.133.941-2.354 2.088-2.295zm-5.854 64.853c2.663-.25 4.295 1.059 4.472 3.633.015.206.015.397.029.603-.073 1.647-.279 3.295-2.074 3.986-1.382.544-2.912.471-3.898-.706-.735-.853-1.235-2.059-1.441-3.177-.456-2.516.721-4.119 2.912-4.339zm-2.294 43.097c.367.383 1.044.765 1.044 1.162 0 .412-.618.839-1.133 1.457-.441-.618-1.029-1.089-.985-1.471.059-.427.691-.78 1.074-1.148zm-9.958-142.619c.294-2.722 1.897-4.34 4.118-4.178 2.751.206 4.398 2.074 4.192 4.766-.206 2.662-2.103 4.251-4.883 4.03-2.398-.162-3.707-1.941-3.427-4.618zm.985 259.307c.706.573 1.28 1.456 1.618 2.309.441 1.103-.75 2.412-2.486 2.251-.5-.383-1.588-.912-2.206-1.78-.559-.765-.486-1.912.382-2.662.824-.707 1.898-.736 2.692-.118zm-5.119-236.935c1.324.309 1.986 1.251 2.236 2.515.338 1.692-.132 3.192-1.353 3.604-.647.221-1.809.177-2.162-.25-.854-1.015-1.368-2.324-1.721-2.971.014-2.03 1.618-3.221 3-2.898zm-7.398 128.896c1.853-1.5 5.074-.456 6.016 1.795 1.206 2.853-.603 6.854-3.575 7.825-.367.118-.779.132-1.162.191-2.897-.044-5.221-3.854-3.868-6.634.573-1.191 1.544-2.324 2.589-3.177zm-3.663-133.647c1.089.383 1.442 1.28 1.383 2.339-.059 1-1.074 1.691-2.104 1.559-1.103-.147-1.824-.985-1.706-2 .147-1.28 1.383-2.28 2.427-1.898zm-2.986 226.124c.324-1.03.971-1.751 2.148-1.766 1 0 1.838 1.001 1.721 2.045-.148 1.294-1.265 2.192-2.501 2.03-.927-.118-1.677-1.309-1.368-2.309zm2.81 170.449c3.353 1.088 5.045 4.207 3.927 7.605-.265.809-1.206 1.382-1.589 1.809-4.295.309-7.457-3.427-6.545-7.09.485-1.883 2.368-2.927 4.207-2.324zm-6.384-443.966c1.309-.22 2.78 1.089 2.75 2.442-.029 1.603-1.368 2.898-3.177 2.707-.779-.074-1.5-.868-2-1.177-.221-2.251.809-3.707 2.427-3.972zm-14.533-83.253c2.133-1.471 4.501-2.619 6.855-3.766 1.117-.544 2.588.206 3 1.295.383 1.015.265 2-.515 2.78-.411.426-.912.838-1.456 1.059-2.162.853-3.721 2.294-4.824 4.324-.545.986-1.648 1.442-2.56.912-.765-.441-1.235-1.441-1.75-2.265-.191-.309-.118-.78-.206-1.648.338-.706.618-2.118 1.456-2.691zm-3.883 17.71c.059-.398.147-.795.25-1.177.691-2.383 2.162-3.442 4.398-3.192 2.456.279 3.854 1.618 3.913 3.765.073 2.472-1.354 4.31-3.707 4.722-.397.074-.794.059-1.206.088-2.692.074-4.03-1.471-3.648-4.206zm-15.665 50.702c.647-.412 1.559.294 1.559 1.235 0 .339-.235.809-.515.986-.618.397-1.53-.353-1.618-1.25.191-.324.294-.795.574-.971zm-3.751 13.106c2.162-1.324 4.177-1.427 5.428.353 2.897 4.089 7.369 5.413 11.576 7.281.897.397 1.809.72 2.588 1.029.486 2.295-.75 3.413-2.235 4.045-2.56 1.089-3.03 2.869-2.516 5.369.412 1.942.501 3.972.736 6.119-2.133 1.118-3.986 2.265-5.987 3.104-2.5 1.059-5.06-.324-5.472-3.016-.235-1.544 0-3.177.177-4.765.132-1.192.662-2.339.75-3.53.191-2.501-.368-4.766-2.397-6.546-1.354-1.192-2.648-2.501-3.781-3.898-1.691-2.089-1.221-4.089 1.133-5.545zm-1.648 109.833c.074.309.177.603.192.912 0 .059-.397.25-.471.206-.265-.206-.456-.486-.677-.751a24.34 24.34 0 0 0 .956-.367zm-.044 321.644c.309.059.486.78.736 1.192-.515.161-1.015.426-1.545.456-.161.014-.353-.589-.632-1.104.5-.205 1.015-.632 1.441-.544zm-.235 54.792c.868-.147 1.324.617 1.427 1.471.117.912-.559 1.868-1.221 1.603-.633-.235-1.133-.824-2.059-1.545.823-.706 1.294-1.441 1.853-1.529zm-2.133-496.419c.177-.014.338-.014.515-.029l-.221.809c-.147-.088-.397-.147-.441-.28s.088-.338.147-.5zm-1.485-84.974l.235.765c-.191.029-.412.117-.544.058-.103-.044-.103-.308-.147-.485.161-.118.308-.221.456-.338zm.117 108.994c.25 0 .5.427.75.677-.25.235-.514.662-.764.662-.251-.015-.501-.441-.751-.677.25-.25.515-.662.765-.662zm-3.706 280.856c-2.486 1.707-6.178 1.368-8.296-.779-1.766-1.78-1.236-5.457 1.162-6.737 1.368-.735 2.986-1.044 3.736-1.294 2.956-.074 4.677.853 5.295 2.383.897 2.28.088 5.06-1.897 6.427zm2.118-53.452c.294 1.559-.927 3.236-2.516 3.456-1.735.235-3.353-.897-3.5-2.442s1.176-3.486 2.471-3.647c1.353-.177 3.28 1.265 3.545 2.633zm-3.942-343.606c.103.044.132.294.191.442-.162.058-.353.191-.456.147-.103-.059-.133-.295-.191-.442.161-.058.353-.191.456-.147zm-3.457 320.836c2 .073 3.236 1.118 3.265 2.78.045 2.692-1.573 4.442-3.912 4.236-2.03-.191-3.236-1.515-3.266-3.589-.014-2.324 1.354-3.53 3.913-3.427zm-4.986-229.36c-3.325 3.751-7.767 2.957-10.723.471-1.162-.985-1.457-2.383-.912-3.824 1.265-3.28 4.456-6.193 8.487-4.663 1.294.5 2.692.735 4.074 1.103 2.03 3.104.824 4.928-.926 6.913zm-11.93-73.972c.074-.279.206-1.074.501-1.794.809-2.03 2.427-3.295 3.956-3.133 2.354.235 4.457 2.515 4.428 4.912-.03 1.913-.692 3.56-2.471 4.487-1.574.809-3.104.397-4.56-.456-1.368-.78-1.957-1.957-1.854-4.016zm-.794 137.854c.236-.088 1.059.588 1.177 1.03.25.897-.294 1.632-1.236 1.632-.47 0-.926-.559-1.779-1.117.75-.677 1.22-1.28 1.838-1.545zm-3.001-94.918c.339.927.604 1.868.736 2.295.147 2.103-.515 3.368-1.795 4.015-1.323.662-2.927.339-3.75-.779-1.148-1.53-1.515-3.222-1.03-5.075.368-1.397 1.618-2.353 3.074-2.324 1.309.044 2.31.603 2.765 1.868zm-2.765-43.068c1 .323 1.854 1.044 1.765 2.118-.073.897-.397 2.03-1.015 2.589-1.426 1.279-3.177 1.515-4.986.573-.941-.485-1.633-1.147-1.647-2.265-.015-1.309.573-2.309 1.794-2.795.721-.279 1.53-.353 2.148-.5.764.103 1.382.103 1.941.28zm-4.06-84.21c.442.103 1.015.706 1.104 1.162.235 1.25-.795 2.427-2.03 2.25-.603-.088-1.133-.75-1.515-1 .088-1.633 1.235-2.662 2.441-2.412zm-2.029 352.034c-.059.279-.074.588-.177.853-.029.059-.426.088-.471.014-.132-.25-.191-.529-.279-.809a19.21 19.21 0 0 1 .927-.058zm-6.281-245.26c.147-1.001 1.103-1.736 2.118-1.663 1.059.074 1.721.883 1.662 2.03-.059 1.133-.588 1.868-1.765 1.986-1.177.132-2.206-1.103-2.015-2.353zm2.044 271.339a1.76 1.76 0 0 1 1.81 1.897c-.103 1.309-1.162 2.486-2.295 2.177-.794-.22-1.427-1.029-1.883-1.397.015-1.75 1-2.662 2.368-2.677zm-2.147 334.382c.544 1.03.647 2.28.809 2.898-.103 2.957-1.177 4.354-3.354 4.986-2.118.618-3.957.221-5.501-1.367-1.677-1.736-2.206-3.751-1.397-5.458 1.014-2.162 2.765-3.5 5.089-3.721 1.971-.206 3.471.986 4.354 2.662zm-9.855-218.518c.294-.368.544-1.03.985-1.177 2.001-.677 3.854.397 4.516 2.618.103.368-.412 1.324-.691 1.339-1.633.147-3.119-.368-4.31-1.545-.25-.25-.294-.706-.5-1.235zm8.384-67.398c.029.03-.177.265-.28.398l-.676-.574c.103-.132.206-.28.309-.412.206.191.441.368.647.588zm-4.222-85.062c1.824-.28 3.266.75 3.457 2.471.147 1.323-1.103 2.824-2.427 2.927-1.5.117-3.104-1.368-3.162-2.942-.059-1.25.823-2.265 2.132-2.456zm-3.177 69.221c0 .029-.338 0-.515-.015l.045-.971h.529c0 .338-.015.662-.059.986zm-5.236-287.358c.191-1.412 1.559-2.486 3.03-2.221 1.044.191 1.824.809 1.912 2.015.118 1.501-.956 2.457-2.721 2.427-1.486-.044-2.398-.956-2.221-2.221zm-.927 184.894c.544.221 1.147.368 1.133.471-.044.485-.25.941-.397 1.412-.324-.118-.898-.206-.912-.368-.059-.471.103-.971.176-1.515zm-1.765 316.893c.441-.706 1.265-1.176 2.339-2.103.47 1.133.956 1.765.926 2.397-.029 1.06-.691 1.78-1.868 1.736-.97-.029-1.882-1.25-1.397-2.03zm-.809-572.994c.059 1.942-1.294 3.089-3.56 3.03-2.029-.058-3.339-1.471-3.147-3.442.161-1.691 1.397-2.765 3.25-2.794 2.074-.044 3.398 1.191 3.457 3.206zm-13.709-73.089c2.721-2.162 5.531-3.236 8.899-1.75.544.235 1.059.574 1.515.927 2.501 1.956 2.633 9.987-.985 11.87-.706.368-1.383.838-2.104 1.162-4.368 1.897-8.149.015-9.178-4.589-.221-.971-.265-1.986-.221-1.647-.25-3.28.5-4.707 2.074-5.972zm-2.295 354.475c.927-.25 2.016.574 2.089 1.574.074.941-.824 2-1.838 1.897-.677-.073-1.295-.603-1.707-.809-.235-1.309.5-2.397 1.456-2.662zm-.147 188.409c-.044.927-.706 1.309-1.544 1.236-.912-.089-1.397-.809-1.177-1.589.162-.574.839-1.015 1.133-1.324 1.397.162 1.618.883 1.588 1.677zm-4.206-556.784c1.147.132 1.912 1.059 1.5 2.015-.265.618-.897 1.074-1.662 1.927-.839-1.044-1.589-1.677-1.942-2.471-.323-.78.942-1.603 2.104-1.471zM527.763 78.74c.191-.044.823.809.838 1.265.015.912-1.206 1.662-2.133 1.324-.426-.162-.706-.736-1.353-1.471 1.059-.471 1.824-.927 2.648-1.118zm-1.706 84.548c1.941-1.809 3.853-2.251 5.986-.78 2.545 1.751 5.06 3.06 8.267 3.045 1.485 0 2.471 1.368 2.853 2.765.309 1.118.353 2.383.206 3.545-.162 1.398-.662 2.78-2.265 3.236-1.824.53-3.898-.073-4.81-1.559-.809-1.324-1.412-2.78-2.177-4.339-1.765.5-3.251 1.059-4.795 1.338-1.971.353-3.413-.544-4.383-2.412-.883-1.765-.53-3.295 1.118-4.839zm-1.28 319.056c.044.22-.515.809-.574.779-.426-.221-.794-.544-1.382-.985l1.25-1.133c.25.441.603.868.706 1.339zm-2.81-415.092c.295.177.839.383.824.544-.029.441-.294.853-.471 1.324-.485-.294-1.044-.574-1.029-.632.162-.427.441-.824.676-1.236zm-.014 143.443c.338.412 1.073 1.03 1.397 1.81.309.779-.78 2-1.633 2.132-1 .147-2.221-1.059-2.28-2.265-.044-.927.942-1.78 2.516-1.677zm-1.383 72.502c.029.103-.103.264-.162.397-.132-.059-.338-.103-.382-.191-.03-.103.103-.265.162-.398.132.059.338.103.382.192zm.059 163.639c.309 2.412-2.486 5.56-5.09 5.707-2.015.103-4.324-2.442-4.412-4.869-.089-2.324 1.735-4.824 3.53-4.854 2.78-.059 5.692 1.898 5.972 4.016zm-7.472-346.562c.441.544.912 1.074 1.294 1.647.029.045-.471.427-.985.898-.383-.677-.751-1.251-1.001-1.883-.044-.103.442-.427.692-.662zm-.986 205.692c1.059.206 1.986 1.442 2.001 2.677.014 1.28-1.074 2.398-2.251 2.295-1.383-.103-2.353-1.368-2.295-3.001.059-1.132 1.412-2.191 2.545-1.971zm-11.12-189.483c.206-1.162 1.309-2.015 2.589-2.015 3.309-.014 5.266 1.751 5.427 5.016.045.986 0 2.015-.22 2.957-.589 2.441-3.766 3.339-5.781 1.75-1.956-1.544-2.118-3.707-2.192-6.119.045-.412.074-1 .177-1.589zm7.237 226.845c1.736-.589 3.574-1.045 5.075.485 1.632 1.662 2.441 3.692 1.971 6.045-.486 2.427-4.09 4.237-6.193 3.045-2.957-1.662-5.825-3.471-8.693-5.266-.221-.132-.162-.72-.28-1.368l8.12-2.941zm-7.443 94.153c.059 2.618-3.383 4.854-6.134 4.133-.912-.235-1.824-1.633-1.853-2.839-.088-3.545 1.074-5.398 5.163-8.149 2.206 1.751 2.765 4.251 2.824 6.855zm-5.486-19.24c.323-.265.838-1.015 1.441-1.103.941-.147 1.442.691 1.28 1.559-.089.471-.589 1.044-1.045 1.236-.764.338-1.647-.397-1.676-1.692zm.014-150.827c.089-.368.898-.574 1.633-1 .515.661 1.177 1.191 1.397 1.853.295.927.309 1.956-.647 2.692-.779.603-2.339.279-2.471-.633-.147-.956-.132-1.986.088-2.912zm-2.691 70.133c1.279.147 2.132 1.177 2.059 2.5-.118 1.971-1.339 3.016-3.163 2.707-1.265-.221-2.324-1.368-2.235-2.442a3.05 3.05 0 0 1 3.339-2.765zm-4.855-241.392c.486-1 1.486-1.383 2.457-1.074.632.206 1.397.927 1.53 1.53.206.883.044 1.927-.25 2.795-.324.956-1.104 1.589-2.28 1.353-1.324-.279-2.177-1.221-2.074-2.78.117-.368.279-1.147.617-1.824zm-1.47 399.677c1.353-2.251 3.177-3.472 5.736-3.516.574.427 1.78.927 2.309 1.824 1.251 2.133.501 5.501-1.294 7.178-1.427 1.339-4.501 1.295-6.104-.073-1.559-1.324-1.809-3.486-.647-5.413zm.647 95.006c.926-.176 1.515.456 1.397 1.353-.059.456-.75 1.221-1 1.162-.618-.132-1.162-.662-2.001-1.206.765-.662 1.148-1.221 1.604-1.309zm-4.487 74.296c.751-.544 1.824-.868 2.751-.883 1.853-.029 3.516 1.795 3.442 3.486-.103 1.957-2.074 3.884-3.957 3.839-.397-.014-.868.045-1.176-.147-2.074-1.294-4.119-1-6.355-.367-1.603.441-3.089-1.162-3.103-2.869 0-1.294.97-2.456 2.132-2.471.589 0 1.236 0 1.78.206 1.692.691 3.06.221 4.486-.794zm-6.589-338.398c-1.677.014-3.001-1.442-2.883-3.163.103-1.515 1.471-2.883 2.706-2.692 1.398.206 2.648 1.942 2.604 3.619-.03 1.162-1.192 2.236-2.427 2.236zm-4.104-159.521c.691-.544 1.147-1.088 1.721-1.279.206-.074 1.059.809.971 1.014-.236.589-.78 1.045-1.206 1.56l-1.486-1.295zm5.486-97.801c.074 1.427-1.132 2.662-2.53 2.589-1.47-.074-2.618-1.265-2.559-2.633.059-1.235.986-2.162 2.251-2.221 1.588-.088 2.75.853 2.838 2.265zm-7.119-26.182c.147-.294.662-.662.912-.603 1.339.309 2.677.647 3.942 1.177.368.162.662 1.059.559 1.515-.103.441-.75.765-1.044 1.015-1.956.073-3.398-.471-4.325-1.986a1.3 1.3 0 0 1-.044-1.118zm-.868 88.505c.295-.794 1.251-1.515 2.074-1.898 2.016-.941 3.898-.235 6.075 1.148.133 1.029.294 1.809.324 2.603.059 1.692-.28 3.31-2.089 3.927-1.78.589-3.574.471-5.074-.867-1.486-1.354-1.986-3.089-1.31-4.913zm2.295 107.023c-.382.603-.883 1.662-1.633 2.516-.5.573-1.309.941-2.044 1.279-2.457 1.148-4.884.339-6.208-2.029-1.206-2.148-.529-5.149 1.736-6.355 4.854-2.574 7.325-2.427 8.149 4.589zm-9.105-53.291c.736 1.839 1.721 3.575 2.839 5.869l-2.839 2.677c0 1.648.147 3.427-.059 5.148-.117.986-.985 1.913-2.103 1.736-.897-.132-2.104-.603-2.471-1.294-.927-1.736-1.942-3.663-2.03-5.56-.147-2.795-.324-5.487-1.118-8.193-.28-.956.412-2.295.912-3.339.471-.986 1.5-1.324 2.559-.912 1.913.735 3.486 1.824 4.31 3.868zM460.38 80.608c-.117 2.383-.485 4.751-.765 7.266-1.162.794-2.206 1.78-3.456 2.309-3.398 1.442-6.413.426-9.076-2.633-.529-.618-.691-2.015-.368-2.765.53-1.236 1.368-2.589 2.472-3.265 2.353-1.456 4.898-2.648 7.457-3.692 1.692-.706 3.825.912 3.736 2.78zm-11.944-56.277c.927-.103 1.56.412 1.78 1.28.25.956-.588 2.089-1.662 2.059-.662-.015-1.309-.559-1.721-.75-.191-1.456.559-2.486 1.603-2.589zm-10.84-17.048c.412-1.28 1.544-2.015 2.824-1.648 2.795.809 5.442.75 8.193-.279 1.618-.603 3.442.485 3.721 2.133.5 2.986 1.471 5.781 2.56 8.59.647 1.647-.603 3.354-3.016 3.53-.617-.294-1.971-.721-3-1.53-.721-.574-1.089-1.647-1.53-2.545-.706-1.441-1.927-1.956-3.413-2.03-1.588-.074-3.221.029-4.78-.206-1.28-.206-2.148-1.221-2.177-2.53.015-1.147.265-2.368.618-3.486zm-8.002 195.484c1.589-2.486 4.148-3.383 6.104-2.162 2.545 1.588 3.531 4.869 2.163 7.34-.78 1.412-2.119 1.735-4.193 1.588-.588-.22-1.779-.514-2.78-1.103-2.235-1.309-2.677-3.501-1.294-5.663zm-3.56 67.692c1.839.823 2.619 2.485 2.236 4.412-.368 1.839-1.294 3.339-2.795 4.457-1.823 1.368-4.324 1.265-6.104-.206-1.294-1.059-1.853-3.045-1.074-4.927.515-1.265 1.28-2.486 2.207-3.486.603-.648 1.691-.839 2.5-1.207 1.162.353 2.148.559 3.03.957zm-3.927-83.107c-.206.603-.941 1.03-1.721 1.809-.721-.824-1.441-1.309-1.559-1.897-.177-.897 1.03-1.751 2.074-1.574.883.132 1.486.809 1.206 1.662zm-4.06-103.596c.221-.618 1.001-1.044 1.78-1.809.677.912 1.324 1.427 1.515 2.089.265.912-.971 1.736-2.059 1.441-.853-.235-1.559-.838-1.236-1.721zm-.161 245.23c.617.177 1.147.721 1.706 1.118-.368.353-.75 1.015-1.103 1-.618-.014-1.221-.456-2.221-.882.838-.677 1.323-1.324 1.618-1.236zm-1.001 71.148c.912-.147 1.986.662 2.104 1.574.117.897-.706 1.883-1.692 2.045s-2-.603-2.088-1.56c-.089-.941.691-1.897 1.676-2.059zm-3.03 35.184c.971.221 1.721 1.236 1.53 2.192-.221 1.074-.897 1.721-2.015 1.78-1.236.059-2.251-1.074-2.133-2.28.118-1.162 1.368-1.971 2.618-1.692zm-4.133-316.893c1.088.221 1.692.912 1.662 2.03-.015.956-1.074 1.78-2.044 1.559-1.045-.235-1.692-.868-1.618-2.045.073-1.059.956-1.765 2-1.544zm-2.574-83.136l.485.838c-.338.118-.676.368-.985.309-.191-.029-.324-.485-.486-.765.324-.118.662-.25.986-.383zm-2.854 676.914c.265.78-.647 1.603-1.456 1.294-.426-.161-.941-.823-.927-1.235.03-.441.633-.839 1.118-1.412.545.559 1.104.897 1.265 1.353zm-2.603-412.385c-1.736.5-3.472 1.015-5.251 1.338-1.045.192-1.971-.235-2.339-1.397-.353-1.059-.235-2.192.706-2.677 1.942-.985 4.03-1.691 6.325-2.633.868 1.03 1.809 1.78 2.25 2.751.545 1.176-.22 2.191-1.691 2.618zm-3.177 121.35c-.147 1-.868 1.398-1.707 1.177-.441-.118-1.014-.721-1.073-1.177-.133-.897.47-1.544 1.382-1.559.927-.015 1.398.618 1.398 1.559zm.662-331.073c.353-.78 1.132-1.383 2.029-2.398.868 1.074 1.692 1.692 1.942 2.501.338 1.103-1.118 2.25-2.339 2.044-.956-.177-1.985-1.338-1.632-2.148zm-.765 43.024c.985-.147 2.074.721 1.868 1.721a2.77 2.77 0 0 1-1.309 1.677c-.912.456-2.03-.338-2.177-1.324-.162-.985.573-1.912 1.618-2.074zm-6.281 63.912c.294-1.839 1.162-3.398 2.53-4.663 2.103-1.927 5.486-1.206 6.354 1.544.471 1.471.427 3.119.618 4.678-.191.029-.397.059-.588.103.323 1.544.765 3.089.882 4.648.044.618-.573 1.427-1.103 1.853-.324.265-1.368.191-1.618-.118-1.544-1.897-3.486-3.221-5.604-4.383-1.398-.765-1.721-2.177-1.471-3.662zm-5.943 51.173c1.618-.692 3.339-1.133 4.104-1.383 2.751.059 4.075 1.015 4.619 2.618.426 1.265-.059 2.721-1.28 3.692-1.588 1.25-3.368 2.074-5.442 2.104-1.898.029-3.471-1.221-3.854-3.045-.368-1.662.309-3.324 1.853-3.986zm-3.721 186.232c1.486-1.574 3.427-2.148 5.501-2.089 3.457.088 6.84-.015 10.047-1.574.338-.161 1.22.25 1.529.648.324.411.412 1.147.324 1.691-.088.559-.427 1.162-.824 1.559-1.986 1.971-4.03 3.883-6.031 5.781-1.868-.53-3.559-1.206-5.31-1.456-1.765-.25-3.589-.059-5.368-.059-1.427-2.148-.912-3.383.132-4.501zm-1.633-158.447c-.117 1.118-.779 1.854-1.882 1.956-1.574.133-2.869-1.353-2.81-3.618.485-.338 1.162-1.162 1.956-1.294 1.736-.295 2.928 1.118 2.736 2.956zM375.7 87.86c1.471-.706 3.309-.044 4.118 1.265.603.986.28 1.912-.514 2.618-1.265 1.118-3.06 1.28-4.325.294-.559-.427-.824-1.236-1.353-2.074.779-.809 1.294-1.721 2.074-2.103zm.059 140.664c.029 1.471-1.589 3.192-3.001 3.177-1.986-.029-4.324-2.03-4.133-3.545.235-1.839 2.515-3.824 4.133-3.633 1.441.176 2.957 2.221 3.001 4.001zm-13.43-206.237c.912-1.706 2.957-2.471 5.207-1.986 2.339.5 3.883 1.927 4.075 3.839.044.382 0 .809-.103 1.177-.618 2.074-3.192 3.324-5.957 2.927-2.03-.294-3.81-2.677-3.604-4.854.117-.353.206-.765.382-1.103zm.133 409.326c1.132-.133 2.103.529 2.103 1.515 0 .868-.471 1.5-1.353 1.618-1.03.147-1.986 0-2.368-1.162-.309-.897.485-1.839 1.618-1.971zm-2.825-303.17c.854.515 1.53 1.294 1.192 2.427-.338 1.162-.883 2.28-2.177 2.545-1.324.279-2.192-.677-3.001-1.515-.706-.736-1.206-1.751-.573-2.663.5-.706 1.426-1.118 2.132-1.632.971.338 1.78.456 2.427.838zm-5.31-15.606c.721-.28 1.618.588 1.354 1.323-.147.427-.765.956-1.177.956-.412.015-.824-.573-1.397-1.029.5-.53.794-1.089 1.22-1.25zm.545 152.945c-.162 2.868-2.942 5.56-5.443 5.266-3.015-.353-5.56-3.28-5.295-6.134.221-2.397 2.942-4.677 5.428-4.574 2.897.147 5.457 2.78 5.31 5.442zm-9.12-46.598c-1.574.088-2.78-.898-2.868-2.354-.103-1.824.941-2.956 2.839-3.089 1.779-.118 3.074.662 3.206 1.927.191 1.898-1.162 3.398-3.177 3.516zm-2.442-181.79c.883-.206 2.192-.073 2.81.456 2.177 1.942 3.486 4.413 3.368 7.458-.117 2.633-2 4.663-4.486 4.869a5.04 5.04 0 0 1-5.354-3.927c-.236-.971-.265-2-.339-2.471-.029-3.927 1.104-5.722 4.001-6.384zm-1.971 185.644c.074.162-.382.574-.603.868l-1.235-.897.823-1.089c.383.383.809.692 1.015 1.118zm-.691 20.417a11.83 11.83 0 0 1 2.383-.324c1.765-.074 2.868 1.03 3.089 2.971.176 1.53-.736 2.898-2.118 3.148-.589.103-1.192.147-1.662.191-.53-.029-.927-.044-1.324-.088-1.662-.191-2.574-1.162-2.589-2.751-.015-1.632.765-2.78 2.221-3.147zm-3.721-132.191c1.162.029 2.397 1.529 1.868 2.485-.662 1.177-1.56 2.236-2.501 3.207-.618.647-2.147.147-2.545-.676-1.132-2.369.589-5.09 3.178-5.016zm-2.53 23.799c3.118.015 4.456 1.427 4.103 4.413-.132 1.206-.47 2.397-1.779 2.868-1.589.588-3.148.5-4.487-.647-.441-.383-.838-.883-1.073-1.412-.971-2.31-.603-5.457 3.236-5.222zm-4.354 102.567c0 1.515-1.368 2.824-2.721 2.339-.765-.28-1.295-1.192-1.707-1.604.191-1.75 1.236-2.647 2.501-2.633 1.015.015 1.927.912 1.927 1.898zm-4.266-71.707c.235-.618.883-1.074 1.471-1.721.677.632 1.28.941 1.427 1.397.309.912-.883 1.942-1.898 1.559-.441-.161-1.103-.97-1-1.235zm.427-76.973c1.323-.309 2.662.324 2.824 1.353.22 1.383-.78 2.633-2.295 2.824-1.015.132-2-.559-2.177-1.5-.235-1.294.456-2.412 1.648-2.677zm.191 58.63c1.015.177 1.735 1.118 1.603 2.104-.132 1.03-1.103 1.839-2.044 1.677-1.001-.177-1.707-1.103-1.604-2.133.118-1.059 1.059-1.824 2.045-1.648zm-8.782-27.741c1.163-.044 2.192 1.089 2.119 2.339-.059 1.147-.751 1.794-1.81 2-1.206.236-2.412-.779-2.441-1.956-.044-1.221.956-2.339 2.132-2.383zm-2.221 15.195c.883-.339 1.913.691 1.677 1.735-.103.427-.868 1.118-1.103 1.03-.618-.221-1.118-.794-1.794-1.339.544-.661.794-1.265 1.22-1.426zm-3.177 72.854c1.559-.132 3.133-.029 4.369-.029.632-.589.941-.839 1.191-1.118.986-1.104.898-3.339 3.03-3.222 1.148.059 3.972 4.104 4.09 5.501s-1.324 3.339-2.825 3.398c-3.192.147-6.383.162-9.575.118-1.103-.015-1.795-.765-1.986-1.883-.206-1.235.559-2.662 1.706-2.765zm-2.883 13.665c.559-.192 1.177-.236 1.574-.309 2.28-.074 3.501 1.647 2.736 3.604-.559 1.441-1.633 2.206-3.177 2.265-1.574.059-2.854-.868-3.089-2.236s.632-2.883 1.956-3.324zm-4.074-162.463c.529.294 1.059.618 1.5 1.03.897.824 1.78 1.692 1.618 3.06-.132 1.133-1.603 2.427-3.001 2.692-1.897.353-3.662.029-5.03-1.397-.515-.544-.735-1.368-.912-1.736.368-3.295 3.368-4.986 5.825-3.648zm-1.456 80.974c0 1.412-.971 2.368-1.913 2.059-.588-.191-1.25-.882-1.412-1.47-.25-.942.839-1.883 1.824-1.604.618.191 1.133.765 1.501 1.015zm-3.148 12.959c.118 1.412-1.045 2.677-2.457 2.677-1.559.015-2.662-1.339-2.559-3.236.059-1.089.618-1.883 1.721-2.015 1.662-.221 3.177 1.015 3.295 2.574zm-7.781-80.503c.117.015.338.853.279.883-.426.221-.897.382-1.368.441-.059.015-.22-.603-.397-1.133.515-.074 1.015-.221 1.486-.191zm-1.456 12.959c.764-.221 1.559.721 1.382 1.5-.206.927-.897 1.368-1.765 1.177-.471-.103-.838-.677-1.588-1.339.809-.559 1.338-1.147 1.971-1.338zm-1.648 31.889c2.295-.132 4.28.853 5.898 2.486 1.383 1.397 1.324 3.574-.25 4.766-.926.706-2.059 1.191-3.177 1.559-.441.147-1.382-.133-1.588-.5-1.148-2.074-2.148-4.251-3.339-6.678.985-.692 1.691-1.589 2.456-1.633zm-2.603 49.202c.838-1.397 1.632-2.868 3.574-2.765 2.471.117 4.942 2.015 5.207 4.251.221 1.956.044 3.956.044 5.824 1.089 1.354 2.236.662 3.368.383 1.942-.5 3.913-1.103 6.061.824-.177 1.073-.192 1.897-.471 2.618-1 2.574-2.471 3.662-4.986 3.427-4.987-.471-9.297-2.398-12.224-6.634-1.691-2.456-2.25-5.148-.573-7.928zm-.25 71.604c-.206.75-1.074 1.339-1.427 1.75-1.809-.014-2.795-1-2.707-2.206.074-.971.971-1.765 2.001-1.75 1.294.014 2.441 1.044 2.133 2.206zm-3.987-12.135c-1.22.147-2.309-.794-2.397-2.589.426-.368 1-1.221 1.765-1.485 1.118-.383 2.309.779 2.339 2 .029 1.044-.736 1.971-1.707 2.074zm.53-78.179c.294-.015.868.382.853.559-.059.647-.309 1.28-.588 2.324-.765-.691-1.354-.986-1.442-1.383-.206-.838.28-1.456 1.177-1.5zm-.706 25.579c.426.088 1.015.647 1.074 1.045.044.397-.5.867-.898 1.456-.544-.397-1.118-.618-1.323-1.015-.368-.662.382-1.633 1.147-1.486zm-3.883 10.591c-.515.882-1.824 1.294-2.369 1.677-2.544.161-4.089-1.104-4.765-3.413-.559-1.927.014-3.868 1.544-4.692.662-.353 1.545-.544 2.265-.427 3.119.5 4.928 4.089 3.325 6.855zm-7.649-11.282l.441-.162-.073.485-.368-.323zm2.574-87.667a.48.48 0 0 1 .441.206c.044.118-.117.309-.191.471l-.485-.221c.073-.162.117-.412.235-.456zm-5.648 33.346c2.015 3.368 4.942 5.707 8.252 7.678.838.5 1.544 1.236 2.221 1.942.176.191.044.735-.03 1.088-.029.147-.338.353-.471.324-4.898-.986-9.928-1.456-14.503-3.648-.985-.471-1.721-1.456-2.721-2.339l5.928-5.53c.279.117 1.103.117 1.324.485zm-7.031-19.063c.618.25 1.235.956 1.456 1.603.309.927-.765 1.927-2.221 1.824-.235-.382-.78-.956-.927-1.618-.235-1.059.794-2.162 1.692-1.809zm-2.207-10.296l-.161.338-.162-.338h.323zm-1.985 46.024c2.132-.044 4.824 2.266 5.045 4.295.235 2.28-1.912 4.516-4.413 4.59-2.736.073-4.442-1.604-4.471-4.398-.015-2.354 1.779-4.457 3.839-4.487zm-17.078 4.913c2.427-2.603 2.957-5.56 2.883-8.869-.029-1.515.809-2.677 2.104-3.457 1.382-.824 2.75-1.677 4.192-2.412 1.618-.824 2.677-.633 3.854.485 1.382 1.309 1.618 2.721.75 4.354-.868 1.647-2.059 2.971-3.722 3.854-.882.471-1.824.882-2.603 1.5-.853.677-1.162 1.721-.544 2.692.75 1.177 1.75 2.192 2.456 3.383.221.368.029 1.265-.309 1.618-.323.338-1.147.53-1.588.368-.912-.353-1.707-.971-2.648-1.545l-3.589 2.118c-1.883-1.073-2.339-2.897-1.236-4.089zm-4.295 16.872c1.927-1.001 3.869-1.942 5.855-2.81.22-.103.779.221.97.5a1.31 1.31 0 0 1 .177 1.089c-1.059 2.706-3.692 3.927-6.825 3.148-.28-.074-.442-.589-.662-.898.162-.367.22-.882.485-1.029zm-4.707 106.92c.383 0 1.133.692 1.104 1.03-.045.632-.515 1.236-.971 2.177-.677-.78-1.236-1.147-1.324-1.603-.162-.824.294-1.589 1.191-1.604zm.236 221.902c1.485-1.206 3.206-1.632 5.016-.838 1.691.75 1.985 2.339 2 4.001 0 4.089-1.795 6.354-5.266 6.663-2.118.191-3.913-1.265-4.089-3.398-.206-2.5.294-4.78 2.339-6.428zm-3.339-185.011c.088.485-.162 1.162-.5 1.544-.353.412-.986.589-1.78 1.03-.5-.456-1.206-.853-1.5-1.442-.177-.353.147-1.147.485-1.515.353-.397.985-.647 1.53-.735.853-.162 1.603.235 1.765 1.118zm-2.442-126.763c.118.073.147.308.206.47-.162.044-.383.191-.485.133-.118-.059-.133-.309-.206-.471.176-.059.397-.191.485-.132zm-1.765 62.602c1.824.014 3.265 1.235 3.221 2.765-.044 1.515-1.368 2.692-3.221 2.868-1.456.133-2.662-.941-2.736-2.456-.088-1.795 1.103-3.192 2.736-3.177zm-2.633 17.253c.809-.206 1.633.486 1.574 1.295-.059 1.162-.75 1.927-1.839 1.897-.618-.014-1.235-.647-1.706-.912.088-1.632.985-2.044 1.971-2.28zm-3.545 102.847c-.441-.03-.838-.589-1.147-.824-.015-1.147.485-1.706 1.353-1.603.427.058 1.044.603 1.118 1.015.132.838-.456 1.47-1.324 1.412zm-.426-42.657c-2.53.765-4.604 2.339-6.958 3.295-1.986.809-4.31 1.544-6.295-.103-2.016-1.662-1.589-3.986-1.177-6.148.618-3.295 3.118-4.943 7.369-4.913 2.824-.133 5.222 1.397 7.546 2.956 1.78 1.192 1.574 4.295-.485 4.913zm1.162-48.055c.014.103-.839.427-.912.339-.309-.397-.486-.898-.706-1.354l1.206-.455c.161.5.367.985.412 1.47zm-3.825-42.582c.883-.206 1.574.382 1.633 1.25.029.412-.559.853-1.118 1.647-.662-.721-1.28-1.147-1.515-1.735-.103-.221.574-1.06 1-1.162zm-5.545-19.755c1.986-.75 3.809.75 3.456 2.795-.882 5.119-2.368 9.914-7.486 12.003-.898 2.235 1.338 2.53 1.809 4.133-1.912 3.427-5.501 4.589-9.488 5.589.603.809.839 1.501 1.251 1.633 2.059.706 3.368 2.015 4.28 3.986.677 1.442 1.706 2.751 2.706 4.001 1.28 1.589 2.722 1.574 4.046.103.529-.603.853-1.5 1.485-1.883.986-.588 2.148-1.103 3.28-1.221 1.912-.206 3.56 1.589 3.222 3.472-.206 1.162-.648 2.353-1.28 3.353-2.059 3.31-5.34 4.825-8.987 5.649-1.854.412-3.663-.736-4.119-2.677-.324-1.368-.221-2.824-.559-4.192-.427-1.751-.838-3.604-1.75-5.105-.795-1.294-2.177-2.353-3.501-3.177-1.53-.956-3.295-.603-4.383.765-1.265 1.574-2.56 3.001-4.222 4.222-3.354 2.486-5.737 5.619-5.428 10.223.074 1.015-.809 2.206-1.515 3.118-.765 1-2.647.632-3-.53-.397-1.309-.589-2.677-.942-4.339-1.426.294-2.559.589-3.692.765-2.191.353-3.765-.515-4.118-2.486-.339-1.927-1.148-3.942.338-6.163 1.03.162 2.295.074 3.28.559 3.722 1.795 7.09.794 10.429-.971 1.677-.882 2.324-2.191 1.78-4.03-.383-1.309-.971-2.692-1.868-3.677-.971-1.059-2.236.073-3.398.235-.456.059-1.074-.309-1.456-.662-.191-.176-.133-.78-.015-1.133.118-.367.412-.691.662-1l1.589-1.985c-.927-2.413-3.604-4.222-2.545-7.164.235-.662.882-1.162 1.574-2.015 1.118 1.368 1.765 2.824 2.883 3.383 2.559 1.28 4.707 3.045 7.016 4.648.324.221 1.236 0 1.618-.323.397-.339.794-1.177.632-1.545-.544-1.25-1.338-2.397-2.044-3.589-.897-1.5-.515-2.721 1.132-3.398 1.486-.603 3.016-1.103 4.604-1.677l1.398-4.03c.853-2.28 2.5-3.824 4.927-3.898 2.354-.132 4.325-.971 6.399-1.765zm-37.42-30.212c-1.368.191-2.883-1.28-3.074-2.986-.118-.942.72-1.81 1.838-1.927 2.03-.206 3.575.647 3.751 2.044.147 1.177-1.177 2.692-2.515 2.869zm4.986 22.843c-.132-1.147 1.162-2.28 2.604-2.236.264.412.882.971.971 1.603.161 1.177-1.045 2.369-2.192 2.119-.559-.118-1.309-.927-1.383-1.486zm28.065-16.239c-.721-.029-1.427-.441-2.103-.735-.088-.045-.074-.368-.147-.927.603-.427 1.294-1.147 2.118-1.383.618-.176 1.427.206 2.089.5.206.089.338.721.25 1.03-.28 1.088-1.192 1.559-2.207 1.515zm1.912 8.722c-.058.118-.294.133-.456.192-.058-.162-.205-.368-.161-.471.058-.118.309-.132.47-.191.059.162.192.368.147.47zm-3.677-35.566c1.03-.5 1.883-1.044 2.81-1.353 1.426-.471 2.765.514 2.265 1.75-.809 2.015-.544 3.824.073 5.795.5 1.589-.25 2.942-1.485 3.56-1.295.632-2.898.5-3.854-.647-.574-.692-1.015-1.78-.941-2.648.161-1.986.661-3.927 1.132-6.457zm-2.221 11.208c1.25-.279 2.324.662 2.412 1.986.074 1.015-.676 1.897-1.721 2.03-1.323.176-2.427-.721-2.427-1.942.015-1.191.692-1.853 1.736-2.074zm-3.221 22.505c.22.236.397.515.588.765-.147.103-.426.309-.441.294-.221-.235-.397-.5-.574-.765.147-.103.412-.309.427-.294zm-1.471 13.253c1.28-.456 2.706-.824 4.339.618-1.824 2.5-4.589 2.868-6.693 4.192-1.103 2-.176 4.604-2.309 6.34-1.927.676-4.133.529-6.31.367-1.986-.147-2.913-2.441-1.692-4.089.706-.956 1.662-1.735 2.31-2.706.235-.353-.089-1.059-.206-2.074-1.324.765-2.28 1.426-3.31 1.912-.971.456-1.986.412-2.662-.603-.662-1-.397-2.604.676-3.177.824-.442 1.854-.706 2.795-.662 1.589.059 3.148.5 4.736.618 2.81.191 5.59.235 8.326-.736zm-13.65-14.533c.117-.117.22-.235.338-.353.088.133.25.28.235.398s-.206.235-.323.338c-.088-.118-.177-.25-.25-.383zm8.428-32.977l1.103.867c-.279.221-.559.618-.838.633-.28 0-.559-.397-.839-.618l.574-.882zm-.941 31.507c.985-.486 1.941-.089 2.5.956.089.176.206.47.133.573-.456.589-.912 1.515-1.486 1.604-.883.147-1.853-.28-2.78-.501-.088-.014-.103-.353-.265-.956.53-.485 1.103-1.294 1.898-1.676zm-20.402-27.242c3.589 2.001 3.589 1.942 7.84 1.692 2.618-.162 5.237-.236 7.855-.118.897.044 1.794.721 2.618 1.221.206.132.177.721.162 1.088a.6.6 0 0 1-.368.442c-.779.162-1.559.323-2.339.382-1 .074-2.353-.382-2.941.118-3.501 2.927-7.855.721-11.591 2.103-.618.236-1.648-.132-2.28-.544-.603-.397-1.206-1.177-1.295-1.853-.176-1.442.324-2.148 2.339-4.531zm-.5 27.403c1.677-.117 3.177.192 3.986 1.883l-2.647 6.56c-1.413-1.662-3.119-5.03-3.266-6.472-.073-.853.897-1.897 1.927-1.971zm-3.486 23.211a7.72 7.72 0 0 1 2.045 1.059c.176.133.161.971.044 1.015-.5.206-1.177.486-1.574.28-.633-.309-1.089-.971-1.648-1.53.559-.426.942-.897 1.133-.824zm-10.841-6.148c1.56-1 5.56-1.868 8.561-1.706-2.692 2.677-4.957 4.133-7.943 3.898-.397-.03-.838-.721-1.044-1.192-.103-.22.162-.824.426-1zm.883 85.151c.029.088-.294.412-.324.382-.279-.161-.529-.367-.794-.573l.662-.691c.162.294.353.573.456.882zm-.53 74.928c.324.736.765 1.295.648 1.589-.133.324-.809.515-1.265.588-.147.015-.603-.647-.515-.823.176-.427.588-.751 1.132-1.354zm-6.28-150.798c.323-1.676 1.662-2.721 3.883-2.677.22.442.853 1.118.779 1.707-.191 1.544-1.279 2.397-2.794 2.75-.956.206-2.045-.809-1.868-1.78zm-2.03-4.427c.279.118.529.294.794.456-.206.206-.397.427-.603.632-.177-.25-.368-.485-.5-.75-.03-.044.265-.353.309-.338zm1.338 110.568c.442.103 1 .721 1.059 1.163.133 1.059-.794 1.735-2.221 1.573-.206-.279-.75-.691-.794-1.147-.103-1.044.868-1.853 1.956-1.589zm-2.471 66.515c.309-.412 1.03-.75 1.545-.735 1.868.059 4.206 2.309 4.515 4.177.177 1.133-.515 2.427-1.603 2.942-1.824.882-3.971.529-4.825-.927-.485-.823-.661-1.824-1.029-2.898.47-.867.823-1.794 1.397-2.559zm-.073 59.293c.058 1.103-.736 1.926-1.81 1.912-1.309-.03-2.294-1-2.28-2.736.456-.368 1.074-1.206 1.868-1.412 1.162-.309 2.148.853 2.222 2.236zm-4.693-256.66l.839.515-.883 1.088c-.22-.264-.618-.544-.588-.794.015-.294.397-.544.632-.809zm-.309 65.765c.398.25.765.956.721 1.412-.044.382-.691.72-1.485 1.456-.295-1.103-.559-1.765-.559-2.427 0-.177 1.059-.618 1.323-.441zm-4.045 56.497l.986.898c-.294.176-.588.5-.883.485-.25-.015-.485-.397-.735-.603.206-.265.427-.53.632-.78zm.574 253.394c1.412.074 2.442 1.31 2.412 2.928-.029 2.294-1.515 3.765-3.795 3.765-1.382 0-2.456-1.309-2.397-2.898.088-2.324 1.662-3.912 3.78-3.795zm-3.089 62.044c.03 1.426-1.338 2.677-2.706 2.471-1.486-.206-2.457-1.442-2.324-2.913.132-1.485 1.412-2.383 2.956-2.088 1.103.191 2.045 1.353 2.074 2.53zm-6.869-258.984c.177-1.118 1.427-2.045 2.604-1.927 1.382.147 2.382 1.574 2.118 3.015-.236 1.251-1.383 2.133-2.545 1.957-1.339-.191-2.398-1.677-2.177-3.045zm-3.765-134.324c.779-.235 1.632.603 1.338 1.383-.162.426-.794.941-1.221.941-.441 0-.868-.573-1.927-1.368.795-.426 1.265-.779 1.81-.956zm-2.648-37.714c.294.074.647.397.721.677.044.176-.486.706-.559.676-.412-.206-.75-.529-1.206-.882.5-.236.823-.53 1.044-.471zm-.103 366.346c1.03-.192 2.015.5 2.118 1.456.103 1.029-.588 1.838-1.662 1.912-.883.059-1.486-.28-1.706-1.162-.295-1.089.264-2.03 1.25-2.206zm-1.236 74.957c2.692.736 3.089 1.074 3.192 2.736.103 1.648-.368 2.089-2.971 2.765-1.28-1.809-1.206-3.618-.221-5.501z" fill="#ffc7bd"/></g><defs><clipPath id="A"><path fill="#fff" transform="matrix(-1 0 0 -1 800 843.436)" d="M0 0h800v843.436H0z"/></clipPath></defs></svg>