<svg width="546" height="575" viewBox="0 0 546 575" fill="none" xmlns="http://www.w3.org/2000/svg">
<path d="M542.6 289.1C537.3 260.9 524.6 234.6 511 209.6C483.8 159.9 452.9 109.6 409.7 72.1C404.7 67.8 399.6 63.6 394.3 59.7C394.4 60.4 394.5 61.1 394.6 62C394.5 62.7 394.3 63.6 394.1 64.5C394 64.9 392.9 65.2 392.7 64.8C391.9 63.4 391 62 390.5 60.6C390.1 59.5 391 58.3 392.2 58.1C391.3 57.4 390.4 56.8 389.4 56.1C372.2 39.2 351.6 25.8 329.2 16.5C329.1 16.6 328.8 16.7 328.6 16.8C328.4 16.6 328.3 16.4 328.1 16.3C328.2 16.3 328.2 16.2 328.3 16.2C315.8 11.1 302.8 7.20001 289.5 4.60001C277.8 2.40001 266 1.20001 254.2 1.00001C254.4 1.20001 254.6 1.30001 254.8 1.50001C254.3 2.00001 254 2.50001 253.6 2.70001C253.1 2.90001 252.6 2.50001 252.5 1.90001C252.4 1.60001 252.5 1.20001 252.6 1.00001C210.6 0.60001 168.7 12.5 131.6 32.2C81.7 58.6 35.6 100.2 14 153.3C6.8 171 2.9 189.3 1.6 207.7C2.8 207.8 3.6 208.6 3.6 209.7C3.6 210.6 2.7 211.6 1.8 211.6C1.6 211.6 1.5 211.6 1.3 211.6C-0.799998 249.7 7.9 288.6 21.1 324.5C28.6 344.9 37.3 364.9 47.2 384.2C47.4 383.7 48.1 383.3 48.6 383.5C49.1 383.7 49.5 384.3 49.7 384.5C49.6 385.4 48.8 385.9 48.2 385.7C48.1 385.7 48 385.6 47.9 385.6C59.9 408.9 73.4 431.3 88.4 452.8C88.7 452.4 89.1 452.2 89.6 452.3C90.3 452.4 90.9 453 90.8 453.7C90.8 454.3 90.4 454.8 89.9 455C95.8 463.4 101.9 471.6 108.2 479.6C118.9 493.2 130.9 507.7 144 521C144.1 520.2 144.7 519.7 145.6 519.8C146.5 519.9 147.1 520.6 147.1 521.4C147.1 522.1 146.5 522.7 145.8 522.8C164 540.9 184.5 556.9 207.5 566.1C207.7 565.4 208.1 564.7 209 564.2C209.7 563.8 210.5 563.5 211.2 563.2C212.5 562.7 213.5 563 214.1 563.9C215.1 565.4 215.1 567.1 213.9 568C213.8 568.1 213.6 568.2 213.5 568.3C222.9 571.5 232.8 573.6 243 574.1C243.4 573.1 244.1 572.7 245 572.8C245.5 572.8 246.2 573.3 246.6 573.7C246.8 573.9 246.7 574.1 246.5 574.3C246.9 574.3 247.3 574.3 247.6 574.3C275.7 574.6 301.3 561.7 324.1 546.5C351.1 528.5 377 508.7 403.3 489.7C405.8 487.9 408.3 486.1 410.8 484.3C410.7 484.3 410.5 484.3 410.4 484.3C408.6 485 406.8 485.5 404.8 485.2C404.2 485.1 403.4 485.8 402.7 486.3C400.2 488 399.3 487.9 396.9 484.9C399.1 483.7 401 482.7 403.1 481.6C405.4 482.5 407.8 482.4 410.2 481.8C410.7 481.7 411.3 481.7 411.8 481.7C412.5 481.7 413.1 481.9 413.6 482.2C416 480.5 418.4 478.8 420.8 477.1C420.7 476.9 420.7 476.6 420.6 476.4C420.2 475.3 421.1 474.4 422.2 474.7C422.7 474.8 423.2 475 423.7 475.1C427 472.7 430.4 470.3 433.7 467.9C433.8 467.5 434 467.1 434.5 466.9C434.6 467 434.6 467.1 434.7 467.2C449.6 456.4 464.3 445.4 478.4 433.6C499.7 415.5 519.9 394.6 532.3 369.2C544.9 344.4 547.8 316.6 542.6 289.1ZM5.3 245.5C5.1 245.5 4.6 245 4.6 244.8C4.6 244.5 5 244.2 5.4 243.8C5.7 244.2 6.1 244.6 6.1 244.8C6.1 245.1 5.6 245.5 5.3 245.5ZM9.1 218.5C7.7 218.5 6.8 217.8 6.8 216.8C6.8 215.7 7.7 214.9 9 214.9C10.3 214.9 11.3 215.7 11.3 216.7C11.3 217.7 10.5 218.5 9.1 218.5ZM12.9 243.2C12.7 243.2 12.5 242.9 12.3 242.8C12.5 242.5 12.7 242.3 13 241.9C13.3 242.3 13.6 242.5 13.8 242.7C13.6 242.9 13.3 243.1 12.9 243.2ZM18 208.4C17.5 208.3 17.2 207.7 17.5 207.2C17.7 206.7 18.2 206.4 18.7 206.7C19 206.9 19.2 207.4 19.7 208.1C18.9 208.3 18.5 208.5 18 208.4ZM32.9 180.3C33.7 180.4 33.9 181.1 34 181.7C34.2 182.3 34 182.8 33.4 183C32.7 183.2 32.1 182.8 32 181.9C32 181.1 32.4 180.4 32.9 180.3ZM29.9 164.3C30.1 164.4 30.3 164.5 30.5 164.6C30.4 164.8 30.2 165 30 165.1C30 165.1 29.7 165 29.7 164.9C29.7 164.7 29.8 164.5 29.9 164.3ZM28.5 175.4C28.9 175.5 29.1 176 29.7 176.6C28.9 176.9 28.5 177.3 28.1 177.3C27.5 177.3 27.3 176.7 27.4 176.2C27.5 175.6 27.9 175.2 28.5 175.4ZM26.5 166.4C26.2 166.4 25.7 166.1 25.6 165.8C25.3 165.2 25.7 164.7 26.3 164.6C26.7 164.6 27.2 164.9 27.5 165.1C27.4 166.1 27.1 166.4 26.5 166.4ZM23.7 159.4C23.6 158.8 24.3 158.2 25.1 158.3C25.8 158.4 26.4 158.6 26.5 159.5C26.6 160.2 26 160.9 25.4 160.9C24.5 160.8 23.8 160.3 23.7 159.4ZM24.9 215.7C24.9 215 25.8 214.4 26.6 214.4C27.5 214.4 28.2 215.1 28.2 215.9C28.1 216.7 27.4 217.5 26.7 217.5C25.7 217.4 24.8 216.6 24.9 215.7ZM29.5 256C29.4 256.9 28.7 257.5 27.8 257.3C27.1 257.1 26.6 256.4 26.8 255.8C27 254.9 27.7 254.4 28.6 254.5C29.2 254.5 29.6 255.2 29.5 256ZM29.7 235.2C29.3 235.1 28.6 235.1 28 234.9C26.7 234.5 25.8 233.1 25.8 231.7C25.8 230.2 26.7 229 28 228.6C28.5 228.4 29.1 228.3 29.6 228.3C32 228 33.6 229.1 33.8 231.1C34.1 233.7 32.6 235.3 29.7 235.2ZM35.4 271.5C34.3 271.6 33.7 271 33.6 269.8C33.5 268.5 34 267.7 34.9 267.7C36.1 267.6 37.2 268.4 37.3 269.4C37.4 270.4 36.6 271.4 35.4 271.5ZM37.9 140C36.8 140 35.9 139 35.9 137.9C35.9 136.9 36.9 136.1 38.2 136.2C39.2 136.3 40 137.1 40 138C40 139.1 39.1 140 37.9 140ZM40.3 170.3C40.3 170.2 40.3 170 40.3 170C40.5 170 40.7 169.9 40.9 169.9C40.9 170 40.9 170.1 40.9 170.2C40.7 170.2 40.5 170.2 40.3 170.3ZM39.9 120C39.5 119.9 38.9 119.5 38.7 119.1C38.4 118.3 39.3 117.3 40 117.6C40.4 117.7 40.7 118.2 40.9 118.4C41.1 119.5 40.6 120.2 39.9 120ZM43 353.3C42.9 353.2 42.7 353.2 42.6 353.1C42.7 353 42.7 352.9 42.8 352.9C42.9 352.9 43 353 43.1 353C43 353.1 43 353.2 43 353.3ZM46.7 378.6C46 378.7 45.4 378.3 45.1 377.7C44.7 376.9 44.9 375.9 45.9 375.3C46.3 375.1 46.9 375 47.4 375.2C47.8 375.4 48.1 375.9 48.2 376.1C48.2 377.5 47.5 378.5 46.7 378.6ZM48.9 331.2C48.8 331.6 48.3 331.9 47.8 332.6C47.4 331.9 47 331.6 46.9 331.1C46.8 330.5 47.3 330.2 47.9 330.2C48.5 330.3 49 330.7 48.9 331.2ZM47.5 123.7C46.9 123.6 46.4 122.9 46.4 122.2C46.4 121.1 47.2 120.4 48.2 120.5C49.1 120.5 49.8 121.2 49.8 122C49.8 123 48.6 123.9 47.5 123.7ZM57.4 359.6C57.6 359.2 58 358.9 58.2 358.7C59.2 358.7 59.9 359.4 59.6 360C59.4 360.4 58.9 360.8 58.5 360.9C57.9 361 57.2 360.2 57.4 359.6ZM52.3 169.3C52.6 168.1 53.6 167.6 54.8 168.1C55.7 168.5 56.5 168.9 56.8 169.9C57.1 171.2 56.3 172.4 55 172.4C53 172.4 51.8 171 52.3 169.3ZM54.6 250.8C54.4 251.1 54.2 251.4 54 251.6C53.8 251.4 53.4 251.3 53.4 251.1C53.5 250.8 53.7 250.5 53.9 250.2C54.2 250.5 54.4 250.7 54.6 250.8ZM51.8 192.4C51.7 192.4 51.7 192.2 51.7 192.1C51.8 192.1 51.9 192 52 192C52 192.1 52.1 192.2 52.1 192.3C52 192.4 51.9 192.5 51.8 192.4ZM52.7 376.7C52.6 376.7 52.1 376.2 52.1 375.9C52.1 375.3 52.5 374.9 53.1 375C53.4 375.1 53.6 375.5 54 376C53.6 376.3 53.2 376.6 52.7 376.7ZM54.1 363.6C53.6 363.8 53.1 363.6 52.9 363C52.7 362.3 53.1 361.6 53.8 361.7C54.2 361.8 54.6 362.1 55.3 362.5C54.8 363 54.5 363.4 54.1 363.6ZM57.6 401.2C56.8 401.2 56.2 400.5 56.2 399.6C56.2 398.5 57 397.8 58.3 397.7C59.3 397.7 60.1 398.5 60 399.5C59.8 400.5 58.9 401.2 57.6 401.2ZM58.7 385.3C57.7 385.3 57 384.5 56.9 383.4C56.9 381.9 58 380.6 59.3 380.7C60.1 380.8 60.8 381.7 60.8 382.8C60.9 384.4 60.1 385.3 58.7 385.3ZM462.5 348.5C463.1 348.6 463.6 349 464 349.2C464.1 350.2 463.3 351.1 462.5 351.1C461.9 351.1 461.3 350.4 461.2 349.8C461.1 349.1 461.7 348.4 462.5 348.5ZM462.4 252.5C462.5 252.4 462.7 252.2 462.9 252.1C463 252.2 463 252.3 463.1 252.4C462.9 252.5 462.8 252.7 462.6 252.8C462.5 252.6 462.4 252.5 462.4 252.5ZM458.4 271.9C458.4 272.6 457.7 273.1 456.7 272.9C456.6 272.6 456.4 272.2 456.4 271.7C456.4 271.1 456.9 270.8 457.5 270.8C458 270.9 458.4 271.3 458.4 271.9ZM449.4 148C449.6 147.9 450 148.3 450.2 148.4C450.3 149.2 449.8 149.8 449.3 149.6C449 149.5 448.6 149 448.7 148.7C448.7 148.5 449.1 148.1 449.4 148ZM442.6 228.1C442.8 228.6 443 228.9 443.1 229.2C442.8 229.3 442.5 229.5 442.2 229.6C442.1 229.6 441.8 229.2 441.8 229C441.9 228.7 442.2 228.5 442.6 228.1ZM439.4 241.7C439.8 241.9 440.1 242.4 440.6 243C439.8 243.4 439.2 243.8 438.7 243.7C438.4 243.7 438 243 438 242.5C438 241.9 438.8 241.4 439.4 241.7ZM437.7 344.8C437.8 344.5 438.4 344.1 438.5 344.2C438.9 344.4 439.2 344.8 439.4 345C439.3 345.9 438.7 346.3 438.2 346.1C437.6 345.8 437.4 345.3 437.7 344.8ZM438.1 386.8C438.4 387.2 438.5 387.8 438.8 388.4C438.2 389.3 437.7 390.2 437 391C436.6 391.5 435.9 391.8 435.3 391.9C433.7 392.3 432 391.6 431.3 390.5C430.6 389.3 431.2 387.2 432.6 386.2C433.1 385.8 433.8 385.5 434.4 385.3C436.1 384.8 437.1 385.2 438.1 386.8ZM436.8 430.2C436.6 430.2 436.3 430.3 436.1 430.3C436.1 430.1 436.1 429.9 436.2 429.6C436.2 429.5 436.5 429.5 436.5 429.5C436.6 429.8 436.7 430 436.8 430.2ZM432.6 364.7C432.7 364.7 432.7 364.9 432.8 365C432.7 365.1 432.6 365.2 432.5 365.2C432.4 365 432.3 364.9 432.2 364.7C432.3 364.7 432.5 364.7 432.6 364.7ZM432.5 350.8C432.7 350.3 433.2 349.9 433.8 349.1C434.3 349.8 434.7 350.2 434.7 350.6C434.8 351.3 434.5 351.9 433.7 352C433 352.2 432.3 351.5 432.5 350.8ZM435.8 309.8C436.4 309.9 437.1 310.7 436.9 311.2C436.7 311.7 436.2 312.1 435.6 312.9C435 312.2 434.5 311.7 434.3 311.2C434 310.4 435 309.6 435.8 309.8ZM433.6 182.5C434.6 182.5 435.3 183.1 435.2 184C435.2 185.4 434.2 186.3 432.8 186.3C431.9 186.3 431.2 185.6 431.2 184.8C431.2 183.4 432.1 182.5 433.6 182.5ZM430.7 114.3C431 114.4 431.2 114.8 431.6 115.3C431.1 115.6 430.7 116 430.3 116.1C430.1 116.1 429.6 115.7 429.5 115.4C429.4 114.7 430.2 114 430.7 114.3ZM430.6 315.2C431.5 315.1 432.2 315.7 432.2 316.6C432.2 317.5 431.6 318.2 430.8 318.2C430 318.2 429.2 317.6 429.2 316.8C429.1 316 429.8 315.3 430.6 315.2ZM430.8 399.1C432 399.2 433.2 399.3 434.4 399.4C435.3 399.5 435.9 400.2 435.9 401C435.9 401.8 435.4 402.2 434.7 402.4C433.6 402.8 432.4 403.3 431.3 403.6C430.7 403.8 429.9 403.9 429.3 403.7C428.7 403.5 428 403 427.9 402.5C427.1 400.5 428.5 398.9 430.8 399.1ZM433.1 426.9C431.7 427.6 430.5 428.1 429.3 428.7C428.6 429 427.8 428.6 427.7 427.9C427.5 427.1 427.9 426.5 428.5 426.2C429.9 425.6 431.3 425.3 432.7 426.1C432.9 426.3 432.9 426.4 433.1 426.9ZM426.3 355.5C426.4 355.3 427 355 427.2 355C427.5 355.1 427.6 355.6 427.8 355.9C427.5 356.2 427.4 356.5 427.2 356.5C426.7 356.7 426.1 356 426.3 355.5ZM422.4 358.2C422.4 359.2 421.7 360 420.7 360C419.9 360 419.4 359.3 419.4 358.3C419.4 357.3 419.9 356.5 420.6 356.4C421.5 356.3 422.4 357.2 422.4 358.2ZM418.5 351.4C418.6 351.1 419 351 419.3 350.8C419.5 351.1 419.7 351.4 419.9 351.8C419.6 352.1 419.3 352.5 419.1 352.5C418.5 352.5 418.3 351.9 418.5 351.4ZM415.9 405.1C416.1 405.4 416.2 405.7 416.3 406C415.9 406.1 415.7 406.2 415.5 406.3C415.4 406 415.3 405.6 415.2 405.3C415.3 405.2 415.9 405 415.9 405.1ZM413.8 181.1C414.1 181 414.5 181.6 414.7 181.8C414.6 182.8 414.1 183 413.6 182.9C413.3 182.8 412.8 182.3 412.9 182.2C413.1 181.7 413.5 181.2 413.8 181.1ZM409.3 387.8C410.2 388.4 411.3 388.6 412.2 389.2C412.8 389.5 413.2 390.2 412.9 390.9C412.7 391.3 412.2 391.8 411.8 391.9C411 392.1 410.2 391.9 408.8 391.9C408.9 391.9 408.4 392 407.8 392C406.3 392 405.6 391.1 405.9 389.7C406.1 387.9 407.5 386.6 409.3 387.8ZM407.5 300.9C406.9 301.3 406.7 301.6 406.3 301.6C405.7 301.7 405.2 301.3 405.2 300.7C405.2 300.1 405.6 299.6 406.2 299.8C406.7 300 407 300.5 407.5 300.9ZM403.1 349.4C403.5 349.3 403.9 349.5 404.3 349.6C405 349.8 405.6 350.3 405.3 351.1C405.1 351.6 404.4 351.9 403.9 352.4C403.3 352.1 402.7 351.9 402.4 351.5C402.1 351.1 401.8 350.5 401.9 350.1C401.9 349.7 402.6 349.5 403.1 349.4ZM403.3 227.2C403.9 227.3 404.2 227.8 404 228.4C403.9 228.8 403.4 229.1 402.9 229.7C402.5 229.1 402 228.7 402 228.3C401.9 227.6 402.6 227.1 403.3 227.2ZM405.1 344.4C404.7 345.1 403.5 345.3 402.9 344.8C402.3 344.3 402.1 343.6 402.4 343C403 341.6 403.7 340.3 404.4 339C404.6 338.7 405 338.5 405.4 338.3C406.1 337.9 407.2 338.4 407.3 339.4C407.3 339.5 407.4 339.8 407.3 340C406.5 341.5 405.9 343 405.1 344.4ZM404.7 235.1C404.7 235.1 404.8 234.9 404.9 234.8C405.1 234.9 405.2 235.1 405.4 235.2C405.3 235.3 405.3 235.4 405.2 235.5C405 235.3 404.9 235.2 404.7 235.1ZM403.4 129.5C403.5 129.5 403.8 129.9 403.8 130.1C403.7 130.4 403.4 130.7 403 131.2C402.7 130.7 402.4 130.2 402.5 130.1C402.7 129.7 403.1 129.6 403.4 129.5ZM403.4 181.7C403.6 182.1 404.1 182.5 404.2 183.1C404.3 184.1 403.4 184.9 402.4 184.8C401.7 184.7 401.2 184.1 401.2 183.4C401.2 182.3 402 181.6 403.4 181.7ZM403.6 204.5C404.6 204.6 405.4 205 406 205.8C407.1 207.4 406.6 208.7 404.9 209.1C404.5 209.2 404.1 209.3 403.8 209.3C402.1 209.4 401 208.1 401.1 206.4C401.1 205.3 402.2 204.4 403.6 204.5ZM400.9 346.8C400.9 347.7 400.3 348.5 399.5 348.4C398.1 348.3 397.1 347.5 396.9 346.3C396.8 345.5 397.4 344.8 398.4 344.8C399.9 344.7 400.9 345.5 400.9 346.8ZM398.9 339.7C399.1 340.3 398.4 341 397.5 341C397.3 340.8 396.9 340.4 396.8 340C396.6 339.4 397.2 338.6 397.9 338.8C398.3 338.9 398.8 339.3 398.9 339.7ZM387.1 157.8C387.2 158 387.3 158.2 387.5 158.4C387.4 158.6 387.3 158.8 387.2 159C387 158.9 386.7 158.7 386.7 158.6C386.7 158.3 386.9 158.1 387.1 157.8ZM382.2 401.2C382.7 401 383.3 401.1 383.5 401.8C383.5 402.4 383.2 402.8 382.6 402.9C382 402.9 381.5 402.7 381.5 402C381.4 401.7 381.9 401.3 382.2 401.2ZM381 412.9C380.9 412.8 380.9 412.3 381.1 412.2C381.5 411.6 382.6 411.5 383.2 412C383.4 412.2 383.4 412.5 383.5 412.9C383.1 413.1 382.7 413.6 382.3 413.6C381.8 413.6 381.3 413.2 381 412.9ZM382 438.5C381.6 438.9 381.4 439.1 381.1 439.3C380.9 439 380.6 438.8 380.6 438.5C380.6 438.4 380.9 437.9 381 438C381.3 438 381.6 438.3 382 438.5ZM379.8 74.2C380 74.4 380.3 74.6 380.2 74.7C380.2 74.9 379.9 75.1 379.7 75.3C379.5 75.1 379.2 74.9 379.2 74.8C379.4 74.5 379.6 74.4 379.8 74.2ZM379.9 307.5C380.2 307.4 380.7 307.9 381.5 308.2C380.9 308.8 380.6 309.3 380.2 309.4C379.6 309.6 379 309.2 379.1 308.6C379.1 308.2 379.5 307.6 379.9 307.5ZM366.7 443.2C365.4 442.2 365 440.4 365.6 438.8C366.1 437.5 368.1 436.9 369.5 437.6C371.1 438.4 371.8 439.9 371.9 441.6C371.9 442.1 371.6 442.7 371.2 443C370.6 443.6 369.9 443.9 369 444.6C368.1 444 367.3 443.7 366.7 443.2ZM368.7 464.6C368.7 465.6 368.4 466.5 367.5 467.1C366.7 467.6 365.4 467.5 364.8 466.9C364.2 466.3 364.1 465.5 364.3 464.6C364.4 464.2 364.6 463.8 364.8 463.5C365.4 462.6 366.5 462.1 367.2 462.4C368 462.6 368.6 463.5 368.7 464.6ZM366.3 343.6C366.7 342.5 367.6 342.2 369 342.5C370.3 342.7 371.2 343.4 371.3 344.4C371.4 344.9 371.4 345.5 371.4 345.7C371.3 349 368.9 350.3 366.4 348.8C365.9 348.5 365.4 347.7 365.5 347.1C365.5 345.9 365.9 344.7 366.3 343.6ZM366 256.6C366.1 256.7 366.3 256.7 366.5 256.8C366.3 256.9 366.2 257 366.1 256.9C366.1 256.9 366.1 256.7 366 256.6ZM366.1 374.9C366.9 374.8 367.6 375.4 367.8 376.6C367.6 376.8 367.4 377.3 366.9 377.5C366.2 377.8 365.3 377.2 365 376.4C364.9 375.9 365.5 375 366.1 374.9ZM367 381.2C367.2 381 367.8 380.8 368 380.9C368.4 381.1 368.7 381.5 369.2 382C368.6 382.3 368.3 382.6 367.9 382.6C367.2 382.6 366.6 381.7 367 381.2ZM370.8 370.8C370.8 370 371.5 369.4 372.4 369.4C373.5 369.5 374.1 370.2 373.9 371.3C373.8 371.8 373.2 372.2 373 372.5C371.5 372.4 370.8 371.7 370.8 370.8ZM372.3 84.6C371.5 84.6 371 83.8 371.1 82.9C371.2 82.3 371.5 81.9 372.2 82C373 82.1 373.5 82.8 373.4 84.1C373.1 84.2 372.7 84.6 372.3 84.6ZM373 337C373.1 337.1 373.3 337.3 373.4 337.4C373.3 337.5 373.2 337.5 373.1 337.6C373 337.4 372.9 337.3 372.7 337.1C372.8 337.1 373 337 373 337ZM376.1 308.2C375.3 308.1 375 307.5 374.7 306.8C374.5 306.1 374.6 305.4 375.1 304.9C375.2 304.8 375.3 304.8 375.5 304.7C375.8 304.7 376.1 304.7 376.3 304.8C377 305.3 377.4 306 377.4 306.9C377.4 307.6 376.7 308.3 376.1 308.2ZM377.3 326.6C377.3 326.7 377.2 326.8 377.2 326.9C377.1 326.9 377 326.9 376.9 326.9C376.9 326.7 377 326.6 377 326.4C377.1 326.5 377.3 326.5 377.3 326.6ZM375.7 428.2C376.3 428.6 376.6 429.4 376.9 429.8C376.8 431.2 375.9 432 375 431.9C373.4 431.7 372.4 430.3 372.6 428.7C372.6 428.5 372.8 428.2 373 428C374 427.3 374.9 427.6 375.7 428.2ZM372.4 451.7C372.5 451.5 372.8 451.4 373 451.2C374.1 451.6 375.2 452.1 375.5 453.3C375.5 453.4 375.1 453.9 375.1 453.8C374.2 453.4 373.3 452.9 372.4 452.3C372.3 452.4 372.3 451.9 372.4 451.7ZM374.9 448.1C376.5 447.1 377.5 446.5 378.5 445.9C379.7 446.1 379.4 447.1 379.7 447.8C380 448.4 380 449.1 379.4 449.7C378.8 450.2 378.1 450.2 377.5 449.9C376.7 449.4 376 448.8 374.9 448.1ZM378.8 286.4C378.9 287.3 378.2 288.2 377.2 288.3C376.4 288.4 375.5 287.6 375.6 286.9C375.7 286 376.6 285.2 377.5 285.2C378.1 285 378.7 285.7 378.8 286.4ZM377.6 224.8C377.1 226.2 376.8 227.6 377 229.2C377.1 229.7 376.7 230.2 376.4 230.7C376 231.3 374.8 231.6 374.2 231.3C373.4 230.9 372.9 230.2 373.1 229.3C373.3 228.4 373.8 227.6 374.3 226.5C374.1 225.9 373.8 225.2 373.6 224.4C373.2 223 374 221.9 375.4 221.9C377.2 221.9 378.2 223.1 377.6 224.8ZM372.9 74.3C373.8 74.4 374.3 75 374.3 75.9C374.3 76.9 373.6 77.7 372.6 77.8C371.7 77.9 370.9 77 371 75.9C371.1 74.8 371.8 74.2 372.9 74.3ZM370.4 247.4C370.9 248.4 371.1 249.4 371.5 250.6C371.1 251.4 370.8 252.4 370.2 253.1C369.4 253.9 368.3 254.3 367.2 253.7C366.1 253.2 365.7 252.1 365.8 250.9C365.9 249.8 366.2 248.7 366.5 247.7C366.8 246.8 367.5 246.4 368.4 246.3C369.2 246.3 370.1 246.6 370.4 247.4ZM366.7 179.2C366.8 178.7 367.1 178.3 367.4 177.7C367.9 178.1 368.3 178.3 368.4 178.6C368.6 179.1 368.4 179.7 367.9 179.9C367.4 180.2 366.6 179.7 366.7 179.2ZM366.9 85.2C367.9 85.2 368.8 86.2 368.8 87.4C368.8 88.5 367.9 89.3 366.6 89.2C365.5 89.2 364.7 88.5 364.7 87.6C364.6 86.4 365.6 85.3 366.9 85.2ZM365 421.6C366.1 421.6 367 422.5 367.1 423.7C367.2 424.8 366.2 425.7 365 425.8C363.9 425.8 363 424.9 362.9 423.7C362.9 422.6 363.8 421.6 365 421.6ZM360.3 413.5C361.8 413.6 362.9 414.6 362.9 416.1C362.9 417.2 361.9 418 360.6 418C359.2 418 358.1 417.1 358 415.9C358.1 414.4 359 413.4 360.3 413.5ZM356.8 403.1C356.8 402.1 357.7 401.3 358.6 401.4C359.8 401.6 360.5 402.4 360.4 403.6C360.3 404.5 359.7 405.1 358.8 405C357.6 405.1 356.8 404.3 356.8 403.1ZM361.7 307.2C362.1 307.3 362.5 307.7 363.2 308.1C362.6 308.6 362.3 309 361.9 309.2C361.4 309.4 360.9 309.1 360.7 308.5C360.5 307.9 361.1 307.1 361.7 307.2ZM361.4 319.3C362.3 319.3 362.9 320 362.8 320.8C362.7 321.6 362 322.2 361.2 322.2C360.3 322.2 359.7 321.6 359.8 320.6C359.8 319.8 360.5 319.2 361.4 319.3ZM356.9 250.7C355.6 250.7 354.7 249.7 354.8 248.3C354.8 247.3 355.7 246.7 356.8 246.8C358.1 246.9 358.8 247.7 358.7 249C358.7 250 358 250.7 356.9 250.7ZM358.4 227.1C358.4 227.3 358.1 227.5 358 227.7C357.8 227.6 357.6 227.5 357.4 227.4C357.6 227.1 357.8 226.9 357.9 226.6C358.1 226.8 358.4 226.9 358.4 227.1ZM356.3 67.1V67.3L356.1 67.2L356.3 67.1ZM354.7 81.8C354.8 81.3 355.3 80.8 355.5 80.4C356.6 80.3 357.4 80.9 357.4 81.7C357.4 82.5 357 82.9 356.2 83.1C355.5 83.2 354.6 82.6 354.7 81.8ZM355.1 344.4C355.3 344.8 355.6 345.2 355.6 345.5C355.6 346.4 355.5 347.4 355.3 348.3C355.2 348.6 354.7 349 354.4 349C353.5 349.1 352.6 349 351.8 349C350.9 347.5 350.7 346.2 351.7 345C352.6 343.8 353.9 344.1 355.1 344.4ZM355.1 439.4C354.3 440 353.9 440.5 353.3 440.6C352.4 440.8 351.6 440 351.8 439.2C352 438.4 352.6 438 353.3 438.2C353.8 438.3 354.2 438.8 355.1 439.4ZM350.4 361.5C350.8 361.4 351.2 361.4 351.5 361.4C352.7 361.4 353.6 362.2 353.6 363C353.6 364.2 352.7 365 351.6 365.1C351.2 365.1 350.8 365.1 350.4 365C349.6 364.8 349 364.1 349 363.3C349 362.4 349.5 361.7 350.4 361.5ZM349.5 329.1C349.6 329.1 349.7 329 349.8 329C349.8 329.1 349.9 329.3 349.9 329.3C349.9 329.4 349.7 329.4 349.6 329.4C349.6 329.4 349.6 329.2 349.5 329.1ZM351.4 36.7C352.1 36.7 352.7 37.4 352.6 38.1C352.5 38.7 351.7 39.4 351.1 39.1C350.7 38.9 350.2 38.4 350.1 38C350 37.3 350.7 36.6 351.4 36.7ZM347.1 75.1C349.3 74.8 351 76 351.4 78C351.5 78.4 351.5 78.8 351.5 79.1C351.4 81.8 349.7 83.2 347.4 82.5C346.8 82.3 346.1 81.9 345.8 81.3C345.4 80.5 345.1 79.5 345 78.6C344.8 76.7 345.7 75.3 347.1 75.1ZM348.3 425.9C348.3 426.8 347.7 427.5 346.9 427.6C346 427.7 345.3 427 345.2 426.2C345.1 425.2 345.9 424.3 346.9 424.3C347.6 424.3 348.3 425 348.3 425.9ZM347.3 376.4C347.1 377.9 345.3 379.7 344 379.4C342.7 379.1 341.5 377.4 341.7 376C341.8 374.6 343.1 373.4 344.4 373.5C346 373.7 347.5 375.1 347.3 376.4ZM337.1 342.1C335.9 341.4 335.7 340 336.7 339C337.5 338.2 338.5 337.8 340 337.7C340.5 338.1 341.3 338.5 342 339.2C342.3 339.5 342.3 340.3 342.1 340.7C341.1 342.5 338.8 343 337.1 342.1ZM337.6 378.5C337.2 378.8 336.9 379.2 336.7 379.2C336.4 379.2 336 378.8 336 378.5C336 378.3 336.4 377.8 336.7 377.8C336.9 377.8 337.2 378.2 337.6 378.5ZM339.5 314.3C339.9 314.3 340.3 314.7 341 315.1C340.4 315.6 340 316.2 339.7 316.2C339.3 316.2 338.8 315.7 338.7 315.4C338.4 314.8 338.9 314.3 339.5 314.3ZM342.6 126C342.8 126.1 342.8 126.4 342.9 126.7C342.7 126.9 342.5 127 342.3 127.2C342.1 126.9 342 126.6 341.8 126.3C342.1 126.1 342.4 125.9 342.6 126ZM341 43.2C341.2 43.3 341.2 43.6 341.3 43.9C341.1 44 340.9 44.1 340.7 44.3C340.6 44 340.5 43.7 340.3 43.4C340.5 43.3 340.8 43.1 341 43.2ZM340.5 231.4C340.6 232.3 340.1 233.1 339.3 233.1C338.5 233.1 337.8 232.5 337.7 231.6C337.6 230.8 338.2 229.9 339 229.8C339.7 229.8 340.4 230.5 340.5 231.4ZM338.1 203.9C338.1 203.8 338.2 203.6 338.3 203.5C338.4 203.7 338.4 203.8 338.4 203.8C338.3 203.9 338.2 203.9 338.1 203.9ZM338.4 221.9L338.1 222L338.2 221.7L338.4 221.9ZM338.8 188.1C338.9 188 339.1 187.9 339.2 187.8C339.3 187.9 339.3 188 339.4 188.1C339.3 188.2 339.1 188.3 339 188.4C338.9 188.2 338.8 188.1 338.8 188.1ZM339.6 121.1C339.6 122.2 338.9 122.9 337.8 122.8C337 122.8 336.5 122.1 336.4 121.1C336.4 120.2 337 119.6 338 119.6C338.9 119.6 339.6 120.2 339.6 121.1ZM336.3 93.7C336.5 93.7 336.9 94.1 337.1 94.2C337.1 95 336.7 95.4 336.1 95.2C335.8 95.1 335.5 94.6 335.6 94.4C335.6 94.2 336 93.8 336.3 93.7ZM333.4 245.6C333.6 245.5 333.9 245.5 334.2 245.4C335.2 245.5 336 246.1 336.3 247.1C336.6 248 336.7 249 335.8 249.7C335.5 250 335.1 250.2 334.7 250.2C333.7 250.3 332.7 249.5 332.3 248.3C332 247.3 332.4 246.1 333.4 245.6ZM330.9 267.6C331 266.4 331.8 265.5 332.9 265.5C334.1 265.5 334.9 266.6 334.8 268.1C334.7 269.3 333.9 270.1 332.7 270.1C331.5 270.1 330.7 269.1 330.9 267.6ZM329.4 331C329.9 329.1 331.8 327.7 333.2 327.9C334.9 328.2 336.5 330.2 336.4 332.1C336.4 333.8 334.3 335.8 332.6 335.7C330.7 335.6 329 333.6 329.2 331.8C329.3 331.5 329.3 331.2 329.4 331ZM323.5 174.4C323.5 173.6 324.3 172.9 325.1 172.9C326.3 172.9 327.2 173.7 327.3 174.8C327.4 175.8 326.6 176.5 325.4 176.4C324.2 176.4 323.5 175.6 323.5 174.4ZM325.2 332.5L324.9 332.6L325 332.3L325.2 332.5ZM321.9 156C323.1 156.1 324.2 157.5 324.2 158.9C324.2 159.9 323 160.7 321.8 160.6C320.5 160.5 319.7 159.4 319.7 158C319.7 156.8 320.7 155.9 321.9 156ZM321.4 150.4C321.6 149.5 322.1 148.6 323.1 148.3C324 148 325.2 148.5 325.9 149.5C326.8 150.6 326.6 151.8 326.1 152.9C325.6 154 324.7 154.4 323.5 154.6C323.2 154.5 322.9 154.5 322.7 154.3C321.6 153.3 321 152 321.4 150.4ZM321.4 191.4C322.9 191.4 324 192.8 323.7 194.7C323.2 197.2 320.6 198.5 318.4 197.4C316.8 196.6 316.4 194.7 317.6 193.3C318.4 192.3 319.5 191.4 321.4 191.4ZM324.2 313.7C324.4 314 324.5 314.2 324.7 314.5C324.5 314.6 324.2 314.8 324 314.7C323.8 314.6 323.7 314.3 323.6 314.1C323.9 314 324 313.8 324.2 313.7ZM321.2 74.4C322.3 73.7 323.4 73.4 324.7 73.6C326.8 73.9 327.8 76.1 326.9 77.9C326.1 79.5 324.7 80.3 322.7 80.3C321.5 80.3 320.4 79.5 320 78.4C319.5 76.9 320 75.2 321.2 74.4ZM318.8 87.7C320 87.8 320.9 88.7 320.9 89.8C321 91 320.2 92 319 92C317.6 92 316.6 91.1 316.7 89.7C316.8 88.6 317.7 87.6 318.8 87.7ZM319.7 272.1C321 272.2 321.8 273.3 321.7 275.4C321.6 275.7 321.4 276.4 321 276.9C320.4 277.6 319.5 278.1 318.5 277.8C317.5 277.5 317 276.8 316.7 275.8C316.6 275.5 316.6 275.3 316.6 275C316.6 273.3 318 272 319.7 272.1ZM314.2 338.3C314.1 339.2 313.4 339.9 312.7 339.7C311.8 339.5 311.1 338.6 311.4 337.6C311.6 336.8 312.2 336.6 312.9 336.7C313.7 336.7 314.2 337.4 314.2 338.3ZM315.3 345.6C316.6 345.8 317.8 346.9 318.1 348.2C318.4 349.7 318 351.2 317.2 352.5C316.9 353 316.1 353.1 316 353.1C313.2 353.6 311.2 349.6 312.2 347.8C312.9 346.3 314 345.4 315.3 345.6ZM312.2 375.6C314.1 375.3 315.9 374.5 317.6 373.7C317.8 373.6 318.2 373.5 318.4 373.6C318.9 373.8 319.4 374.1 319.6 374.5C319.7 374.9 319.5 375.7 319.2 375.9C317.7 376.7 316.5 377.6 315.9 379.3C315.4 380.7 313.9 380.6 312.7 380.6C312.6 380.6 312.4 380.6 312.3 380.6C311.3 380.6 310.3 380.5 309.9 379.4C309.5 378.2 310 377 311.1 376.2C311.5 375.9 311.8 375.6 312.2 375.6ZM316.9 292.7C316.8 293.7 316 294.5 315 294.2C314.6 294.1 314 293.6 314 293.2C313.8 292.3 314.7 291.4 315.7 291.4C316.4 291.4 317 292 316.9 292.7ZM313.8 112.2C313.9 111.9 314.4 111.5 314.7 111.6C315.1 111.7 315.8 112 315.9 112.4C316.2 113.7 315.9 115 315.1 116.8C313.7 115.1 313.5 113.7 313.8 112.2ZM313.6 152.4C313.6 152.5 313.7 152.7 313.7 152.7C313.7 152.8 313.5 152.8 313.4 152.8C313.4 152.7 313.3 152.5 313.3 152.5C313.3 152.4 313.4 152.4 313.6 152.4ZM313.6 259.4C314.6 259.3 315.5 260.1 315.5 261.4C315.2 261.6 314.7 262.2 314.2 262.3C313.1 262.5 312.2 261.6 312.3 260.7C312.4 260 312.8 259.5 313.6 259.4ZM308.5 169.3C308.7 168.2 309.7 167.4 310.8 167.5C311.8 167.6 312.5 168.4 312.5 169.4C312.4 170.5 311.4 171.5 310.4 171.4C309.3 171.4 308.4 170.3 308.5 169.3ZM310 277.2C310.7 277.8 311 278.6 310.7 279.4C310.4 280.4 309.9 281.1 308.8 281.4C308.4 281.5 308 281.5 307.5 281.5C307 281.4 306.5 281.3 306 281.1C305.7 280.9 305.4 280.5 305.2 280.2C304.9 279.2 305.5 277.5 306.4 276.9C307.4 276.4 309.2 276.5 310 277.2ZM303 255.4C303.2 254.7 303.7 254.4 304.5 254.4C305.3 254.4 305.8 255 305.7 255.7C305.7 256.4 305.1 256.9 304.4 256.9C303.6 256.9 302.8 256.1 303 255.4ZM303.4 389.7C303.1 389.6 302.7 389.2 302.7 388.9C302.7 388.6 303.1 388.3 303.4 387.9C303.8 388.2 304.2 388.4 304.3 388.7C304.6 389.2 304 389.9 303.4 389.7ZM304.1 153.6C306 153.5 307.4 154.9 307.4 156.9C307.4 158.9 306.1 160.5 304.3 160.5C302.5 160.5 301.2 159.3 301.1 157.6C301 155.2 302.2 153.6 304.1 153.6ZM301.1 438.6C301.7 438.5 302.3 439.1 302.4 439.8C302.5 440.5 302.1 441.1 301.4 441.2C300.8 441.3 300.4 441 300.2 440.5C299.9 439.7 300.4 438.8 301.1 438.6ZM298.6 40.5C298.7 40.7 298.8 40.9 298.9 41.1C298.9 41.2 298.7 41.4 298.7 41.4C298.5 41.3 298.3 41.1 298.2 41C298.3 40.8 298.4 40.7 298.6 40.5ZM296.7 75.9C297.7 75.9 298.4 76.6 298.4 77.7C298.4 78.7 297.6 79.4 296.5 79.3C295.6 79.3 295.1 78.6 295 77.7C295.1 76.7 295.7 75.9 296.7 75.9ZM295.8 477.7C294.6 477.7 293.9 477.1 293.8 476.2C293.7 475.2 294.5 474.5 295.6 474.4C296.7 474.3 297.5 475 297.6 475.9C297.7 477 297 477.7 295.8 477.7ZM298 481.1C298.1 481.5 298 481.9 297.9 482.2C297.8 482.4 297.5 482.7 297.3 482.7C296.8 482.7 296.2 482.7 295.9 482.4C295.5 481.9 295.8 481.4 296.3 481C296.6 480.8 297 480.7 297.3 480.6C297.6 480.8 297.9 480.9 298 481.1ZM293.6 436.1C292.8 435.8 292.7 435.1 292.9 434.5C293.1 433.8 293.7 433.3 294 432.7C294.5 433 294.8 433 294.9 433.2C295.5 434.2 295.3 435.2 294.3 436C294.1 436.1 293.8 436.2 293.6 436.1ZM297.1 343.2C297 344.2 296.3 344.9 295.3 344.9C294.3 344.9 293.6 344.2 293.6 343.1C293.6 341.9 294.3 341.1 295.5 341C296.5 340.9 297.2 341.8 297.1 343.2ZM295.9 110.7C295.7 110.4 295.5 110.1 295.3 109.8C295.3 109.7 295.7 109.5 296 109.3C296.2 109.6 296.4 109.9 296.4 110.3C296.5 110.4 296.1 110.6 295.9 110.7ZM293 153.7C293.1 152.7 293.9 152 294.9 152.1C295.8 152.2 296.6 153 296.5 154C296.4 155.2 295.4 156 294.3 155.8C293.3 155.6 292.8 154.8 293 153.7ZM291.4 414.2C291.5 415.2 290.8 415.9 289.7 415.9C288.6 415.9 287.8 415.4 287.8 414.4C287.8 413.4 288.4 412.7 289.5 412.6C290.6 412.6 291.3 413.2 291.4 414.2ZM288.4 504.7C289.2 504.7 289.9 505.6 289.8 506.4C289.7 507.3 288.9 507.9 287.8 507.8C287.5 507.5 286.9 507.1 286.7 506.6C286.5 505.7 287.5 504.6 288.4 504.7ZM287.8 476.9C287.8 476.8 287.9 476.7 287.9 476.6C288 476.7 288.1 476.7 288.2 476.8C288.2 476.9 288.1 477 288.1 477.1C288 477 287.9 477 287.8 476.9ZM287.7 8.80001C287.8 8.80001 288.1 9.00001 288.4 9.20001C288.1 9.40001 287.9 9.70001 287.7 9.90001C287.6 9.70001 287.3 9.50001 287.3 9.30001C287.3 9.10001 287.5 8.80001 287.7 8.80001ZM284.4 176C284.5 175.2 285.3 174.6 286.1 174.6C287.4 174.7 288.4 175.9 288.2 177.1C288.1 178 287 178.8 286.2 178.7C285 178.7 284.3 177.5 284.4 176ZM282.4 247.5C283.9 247.5 285.3 248.7 285.4 250.2C285.5 251.3 284.5 252.4 283.4 252.3C281.7 252.2 280.5 251.1 280.4 249.6C280.4 248.5 281.3 247.5 282.4 247.5ZM279.2 112.8C279.2 112.9 279.3 113 279.3 113.1C279.2 113.2 279.2 113.2 279.1 113.3C279.2 113.1 279.2 113 279.2 112.8ZM276.1 7.60001C276.7 7.20001 277.4 7.10001 277.9 7.70001C278.2 8.00001 278.4 8.80001 278.2 9.10001C277.8 9.70001 277.2 10.2 276.7 10.6C276.2 10.4 276 10.3 275.8 10.1C275.2 9.30001 275.3 8.10001 276.1 7.60001ZM278.4 203.1C278.3 204.3 277.7 205 276.9 205C276.3 205.1 275.6 204.3 275.7 203.7C275.8 202.8 276.5 202.2 277.4 202.3C277.8 202.4 278.2 202.9 278.4 203.1ZM273.3 200.8C273.8 200.9 274.2 201.6 274.4 201.9C274.3 203.5 273.4 204.4 272.3 204.3C271.5 204.2 271 203.7 271 203C270.9 201.7 272.1 200.5 273.3 200.8ZM268.8 378.9C268.9 379.9 268.3 380.9 267.4 381C266.6 381.1 266.1 380.6 265.9 380C265.5 379.1 266.1 378.2 267.1 377.8C267.9 377.4 268.8 378 268.8 378.9ZM268.3 468.4C268.2 469.1 267.6 469.5 266.8 469.4C266.2 469.3 265.8 469.1 265.7 468.4C265.7 467.7 266.2 467.2 267 467.2C267.8 467.2 268.4 467.7 268.3 468.4ZM265.1 112C264.9 111.9 264.5 111.7 264.4 111.4C264.1 111 264.6 110.2 265.1 110.2C265.4 110.2 265.8 110.5 266 110.8C266.2 111.2 265.8 111.8 265.1 112ZM265.5 6.60001C266.3 6.60001 266.9 7.20001 266.9 7.80001C266.9 8.80001 266.1 9.60001 265.1 9.60001C264.3 9.60001 263.5 8.90001 263.5 8.00001C263.5 7.20001 264.4 6.50001 265.5 6.60001ZM263.5 124.9C263.6 124.7 263.9 124.6 264.2 124.5C264.5 124.7 264.9 124.9 265.1 125.1C265.5 125.7 265.6 126.4 265 126.9C264.8 127.1 264.2 127.1 264 127C263.3 126.5 263.1 125.7 263.5 124.9ZM258.2 263.2C259.8 261.9 260.6 260.3 261.2 258.5C262.2 258.6 263 258.4 263.8 258.7C265.5 259.3 265.9 261.2 264.5 262.3C264 262.7 263.5 263.2 263.1 263.6C263.1 264.8 263.1 265.9 263.1 267.2C261.9 267.3 260.8 267.5 259.8 267.3C258 267.1 256.9 264.3 258.2 263.2ZM253.3 308.2C253.4 308.3 253.5 308.3 253.6 308.4C253.6 308.5 253.5 308.6 253.5 308.7C253.4 308.6 253.3 308.6 253.2 308.5C253.2 308.4 253.2 308.3 253.3 308.2ZM254.8 350C254.8 350.8 253.9 351.6 253.1 351.2C252.2 350.8 251.2 350.2 250.5 349.5C250.2 349.2 250.3 348.2 250.5 347.7C250.7 347 251.5 346.8 252.2 346.9C253.7 347.2 254.7 348.5 254.8 350ZM252 356.1C251.9 356.2 251.8 356.4 251.6 356.5C251.5 356.4 251.5 356.3 251.5 356.2C251.5 356.1 251.6 356 251.7 356C251.8 356 251.9 356.1 252 356.1ZM241.6 291.9C241.2 290.8 240.9 289.6 240.7 288.4C240.6 287.4 241.6 286.5 242.5 286.7C244.7 287.2 247 287.7 248.8 289.3C249.9 290.3 250.1 291.5 249.5 293C248.8 294.7 248 295.3 246.5 295.3C243.9 295.3 242.5 294.4 241.6 291.9ZM244.7 446.7C244.6 446.7 244.5 446.8 244.4 446.8C244.5 446.7 244.5 446.5 244.6 446.4C244.7 446.5 244.7 446.6 244.7 446.7ZM245.9 267.5C246 267.7 245.4 268.4 245 268.6C244.4 268.9 243.6 268.2 243.6 267.5C243.6 267.1 244 266.6 244.5 265.9C245.1 266.6 245.7 267 245.9 267.5ZM245.5 261.2C245.7 261.1 245.9 261 246.1 260.9C246.2 261.1 246.5 261.3 246.4 261.4C246.4 261.6 246.1 261.7 245.9 261.9C245.9 261.7 245.7 261.5 245.5 261.2ZM247.9 244C247.9 243.3 248.5 242.7 249.2 242.8C249.9 242.8 250.4 243.4 250.4 244.1C250.4 244.9 250 245.4 249.3 245.6C248.6 245.8 247.9 244.9 247.9 244ZM248 370.9C247.7 371.2 247.6 371.4 247.4 371.6C247.2 371.4 246.9 371.2 246.7 370.9L247.1 370.4C247.4 370.5 247.7 370.7 248 370.9ZM246.1 426.8C246.3 425.8 247.2 425.2 248.2 425.3C249.1 425.5 249.8 426.2 249.7 427C249.6 427.9 248.7 428.5 247.6 428.4C246.7 428.3 246 427.5 246.1 426.8ZM248.4 312C248.2 311.2 248.9 310.4 249.7 310.3C250.7 310.2 251.6 310.8 251.8 311.8C251.9 312.4 251.4 313.1 250.7 313.2C249.5 313.4 248.6 312.9 248.4 312ZM248.1 189.2C248.3 189.1 248.6 189.2 249.2 189.2C249.6 189.3 250.4 189.6 251.1 189.9C251.8 190.2 252.2 190.7 252 191.5C251.8 192.2 250.9 192.9 250.1 192.7C249.2 192.5 248.3 192.2 247.5 191.7C247.1 191.5 246.9 190.8 246.9 190.3C247.1 189.8 247.7 189.5 248.1 189.2ZM246.3 146.5C246.5 146.7 246.9 147.1 246.9 147.5C246.8 147.9 246.4 148.5 246 148.5C245.7 148.6 245.1 148.1 244.9 147.7C244.6 147.2 245.3 146.6 246.3 146.5ZM246.1 231C246.6 230.7 247.7 231.2 247.7 231.4C247.7 231.9 247.8 232.2 247.7 232.5C247 234.4 245.7 235.7 243.9 236.5C243.7 236.6 243.3 236.5 243.2 236.4C243 236.1 242.6 235.7 242.7 235.4C243.2 233.4 244.4 232 246.1 231ZM242.2 126.8C242.4 127.1 242.9 127.4 243 127.8C243.1 128.4 242.6 128.7 242 128.7C241.4 128.7 241 128.4 241 127.7C240.9 127.2 241.3 126.9 242.2 126.8ZM241.6 255.9C242.8 255.8 243.8 257 243.7 258.4C243.6 259.6 242.7 260.5 241.6 260.4C240.5 260.3 239.6 259.3 239.6 258.2C239.6 257 240.6 256 241.6 255.9ZM241.3 415C242.5 414.9 243.6 415.7 243.6 416.8C243.7 418 242.6 419.1 241.3 419.2C240.2 419.2 239.1 418.2 239.1 417.2C239.1 416.1 240.1 415.2 241.3 415ZM242.4 423.9C241.8 423.9 241.3 423.7 241.3 423.1C241.3 422.7 241.7 422.3 242.1 421.6C242.6 422.2 243 422.5 243.1 422.9C243.3 423.4 243 423.9 242.4 423.9ZM241.7 504.3C242.1 504.6 242.5 505.1 242.6 505.6C242.9 506.6 243 507.7 243.1 508.5C242.9 510.4 243.2 512.4 241.2 513C239.6 513.5 238.6 511.9 237.5 510.8C237 510.3 236.6 509.8 236.3 509.2C235.4 507.7 235.6 506.2 236.7 505.1C238.2 503.7 240.3 503.3 241.7 504.3ZM236.7 254.8C236.7 255.8 236.2 256.7 235.4 257.2C234.9 257.5 234.4 257.7 233.9 257.9C232.8 258.3 231.7 258.4 230.9 257.4C230.1 256.5 230 255.4 230.3 254.3C230.7 252.7 232.7 251.5 234.5 251.8C235.7 251.9 236.7 253.3 236.7 254.8ZM229.9 158.7C230.6 158.2 231 157.8 231.4 157.7C232 157.6 232.4 158.1 232.4 158.7C232.4 159.3 232 159.8 231.4 159.7C230.9 159.7 230.6 159.2 229.9 158.7ZM234.6 213.1C234.7 212.9 234.7 212.6 234.9 212.5C235 212.4 235.3 212.6 235.5 212.7C235.4 212.9 235.4 213.2 235.2 213.3C235 213.4 234.8 213.2 234.6 213.1ZM235.6 180C235.6 180.1 235.6 180.3 235.6 180.4C235.5 180.6 235.3 180.9 235.1 181C234.7 181.2 234.3 181.2 233.9 181.2C232.9 181.1 232.1 180.4 232.3 179.7C232.5 179.3 232.9 178.8 233.4 178.7C234.5 178.4 235.4 179 235.6 180ZM232.4 34.6C233.4 34.3 234.1 34.7 234.2 35.6C234.3 36.3 233.8 37 233.2 37C232.4 37 231.5 36.4 231.4 35.4C231.6 35.2 232 34.7 232.4 34.6ZM225.7 27.8C226.8 26.5 228.4 26.1 230.1 26.7C230.9 27 231.3 27.9 231 28.7C230.6 30.1 229.4 30.9 227.3 30.8C227 30.7 226.6 30.6 226.2 30.5C225.3 30.1 225 28.6 225.7 27.8ZM229.8 99.3C229.7 99.5 229.6 99.8 229.5 100C229.2 99.8 228.9 99.7 228.7 99.5C228.9 99.3 229 99 229.2 99C229.4 98.9 229.6 99.2 229.8 99.3ZM226.4 227.9C226.5 228.5 226 229.2 225.2 229.3C224.5 229.4 223.9 228.9 223.8 228.2C223.7 227.4 224.1 226.6 224.6 226.5C225.4 226.4 226.2 227.1 226.4 227.9ZM224.9 244.4C224.9 245.6 224.2 246.4 223 246.6C222.5 246.7 221.9 246.8 221.4 246.6C221 246.4 220.5 246 220.4 245.6C219.9 243.8 220.9 242.7 222.7 242.7C224.1 242.7 224.9 243.4 224.9 244.4ZM224.1 50.8C224.3 50.9 224.4 51.1 224.5 51.3C224.3 51.4 224.1 51.5 223.9 51.6C223.9 51.4 223.8 51.2 223.8 51C223.8 50.9 224 50.8 224.1 50.8ZM220.5 82.2C220.7 82.1 221.2 82.5 221.3 82.8C221.4 83.4 221.1 83.8 220.5 83.9C220.2 83.9 219.9 83.5 219.4 83.2C219.9 82.8 220.2 82.4 220.5 82.2ZM206.8 117C207.4 117.5 207.7 118.3 207.9 118.6C207.8 120.8 206.6 122.1 205 122.3C204.2 122.4 203.3 121.7 203.1 121C202.7 119.4 203.2 117.9 204.5 117.1C205.3 116.7 206.1 116.4 206.8 117ZM208.9 252.7C210.1 252.7 211.4 253.9 211.3 255C211.3 255.9 210.2 256.8 209.3 256.7C208.2 256.6 207.2 255.6 207 254.6C207 253.9 208 252.7 208.9 252.7ZM200.9 315.5C201.9 315.6 202.6 316.7 202.4 317.6C202.3 318.3 201.3 319.1 200.6 318.9C199.1 318.5 197.6 317.9 196.1 317.3C195.9 317.2 195.8 316.8 195.9 316.6C196 316.3 196.3 315.8 196.6 315.7C197.4 315.5 198.2 315.4 198.8 315.4C199.6 315.4 200.3 315.4 200.9 315.5ZM198.9 289C198.8 288.2 199.5 287.4 200.3 287.5C201.1 287.6 201.8 288.3 201.8 289.4C201.5 289.6 201.1 290.2 200.5 290.3C199.7 290.6 199 289.9 198.9 289ZM200.9 193C200.3 191.9 200.3 190.9 201 189.9C201.7 188.8 202.7 188.1 204.1 188.3C205.2 188.4 205.8 189.3 205.8 190.7C205.7 192.7 205 193.7 203.4 194.1C202.3 194.4 201.5 194 200.9 193ZM201.6 111.4C201.8 111 202.2 110.6 202.6 110.4C202.7 110.3 203.1 110.8 203.3 110.9C203.3 111.8 202.7 112.5 202.1 112.3C201.9 112.2 201.5 111.6 201.6 111.4ZM205.2 209.6C205.3 209.4 205.8 209.3 206.1 209.2C206.2 209.2 206.5 209.6 206.5 209.7C206.4 210 206.1 210.2 205.7 210.6C205.4 210.2 205.1 209.8 205.2 209.6ZM201.8 26.1L202.2 26.6C202 26.9 201.7 27.1 201.5 27.3C201.3 27 201 26.7 201 26.6C201.2 26.4 201.5 26.2 201.8 26.1ZM200.3 63.8C200.9 63.6 201.6 63.5 202.3 63.5C203.9 63.5 205.1 64.4 205.3 65.8C205.5 67.3 204.5 68.9 203 69.2C202.6 69.3 202.2 69.3 201.9 69.3C201.5 69.3 201.3 69.3 201 69.2C199.6 69 198.5 68.1 198.3 67C198 65.8 199 64.2 200.3 63.8ZM197.8 186.9C197.9 187.5 197.4 187.8 196.9 187.8C196.7 187.8 196.3 187.5 196.3 187.4C196.4 187 196.6 186.6 196.9 186C197.4 186.4 197.8 186.6 197.8 186.9ZM194.6 124.9C196 124.9 197.1 126.1 197.1 127.5C197.1 128.8 196.1 129.8 194.8 129.7C193.6 129.6 192.8 128.6 192.8 127.1C192.8 125.9 193.6 124.9 194.6 124.9ZM193.2 257.4C193.8 256.7 194.5 256.6 195.4 256.7C196.3 256.9 196.8 257.5 197 258.3C197.1 258.8 197.3 259.4 197.1 259.9C196.9 260.5 196.4 261.1 195.9 261.3C194.6 261.8 193.3 261.6 192 261.1C191.7 259.6 192.3 258.4 193.2 257.4ZM191.3 130.8C191.5 130.9 191.6 131.1 191.8 131.2C191.6 131.3 191.5 131.5 191.3 131.6L191 131.4C191 131.1 191.2 131 191.3 130.8ZM189.8 356.4C189.9 356.2 190.2 356.2 190.4 356.1C190.5 356.3 190.7 356.5 190.8 356.6C190.5 356.7 190.2 356.9 189.9 357C189.9 356.8 189.7 356.6 189.8 356.4ZM185.2 127.9C186.2 127.9 186.9 128.7 187 129.7C187.1 130.7 186.2 131.6 185.3 131.6C184.4 131.6 183.5 130.7 183.5 129.8C183.5 128.8 184.3 127.9 185.2 127.9ZM180.7 389.3C179.2 389.3 178.2 388.1 178.4 386.6C178.7 384.1 180.1 382.7 182.4 382.9C183.8 383 184.7 383.9 184.8 385.2C184.9 387.7 183.2 389.4 180.7 389.3ZM184.7 414.6C184.7 415.8 183.7 416.7 182.7 416.7C181.7 416.6 180.7 415.2 180.8 414C180.9 413.2 181.9 412.7 183 412.7C184.1 412.8 184.7 413.5 184.7 414.6ZM183.1 207.7C183.5 207.8 183.9 208.2 184.1 208.4C184.1 209.4 183.6 210 182.9 210C182.3 210 181.9 209.6 181.9 209C181.8 208.3 182.5 207.5 183.1 207.7ZM181.2 165.3C180.9 165.3 180.5 164.8 180.5 164.5C180.5 164.2 180.9 163.8 181.2 163.8C181.4 163.8 181.7 164.2 182.1 164.5C181.7 164.9 181.4 165.3 181.2 165.3ZM179.9 113.8C180 113.4 180.5 113.1 181 112.5C181.6 113.2 182.1 113.6 182.3 114.1C182.5 114.6 181.7 115.3 180.9 115.1C180.3 115.1 179.6 114.4 179.9 113.8ZM178.6 169.1C178.7 168.7 179.2 168.2 179.6 168.1C179.9 168 180.3 168.6 180.9 169.1C180.4 169.6 180.2 170.1 179.8 170.3C179.2 170.6 178.4 169.8 178.6 169.1ZM178.3 313.2C178.5 312.5 179.4 312 180.3 312.3C180.7 312.4 181 312.9 181.2 313.1C181.1 314.3 180.3 315 179.6 314.9C178.8 314.8 178.1 313.9 178.3 313.2ZM171.2 63.9C171.3 63.6 171.8 63.1 172 63.2C172.4 63.4 172.7 63.8 173.1 64.2C172.7 64.7 172.5 65.1 172.2 65.2C171.6 65.5 171 64.7 171.2 63.9ZM170.6 89.4C172 89.8 172.6 90.6 172.5 92C172.4 93.5 171.7 94.3 170.4 94.6C169.5 94.8 168.5 95 167.6 94.8C166.9 94.7 166.2 94.1 165.7 93.5C165.1 92.8 165.6 91.9 166.1 91.3C167.3 89.9 168.6 88.9 170.6 89.4ZM171.6 398.5C172.6 398.4 173.3 399.1 173.4 400.2C173.5 401.3 172.8 402 171.8 402.1C170.8 402.1 170 401.5 170 400.4C169.9 399.3 170.6 398.6 171.6 398.5ZM169.5 260.1C169.4 259.8 169.6 259.3 169.9 259.1C170.1 258.9 170.7 259 171 259.2C171.5 259.6 171.8 260.2 172.2 260.7C171.9 261.1 171.7 261.5 171.4 261.7C171.2 261.8 170.8 261.8 170.7 261.7C170.1 261.2 169.7 260.7 169.5 260.1ZM167.7 206C167.8 206.9 166.9 207.8 165.9 207.7C165.1 207.6 164.4 206.9 164.4 206.1C164.4 205.3 165.1 204.6 166 204.6C166.7 204.6 167.6 205.3 167.7 206ZM165.4 17.8C165.7 17.8 166 18.2 166.4 18.5C166 18.8 165.7 19.2 165.4 19.2C165.1 19.2 164.9 18.7 164.6 18.5C164.9 18.2 165.1 17.8 165.4 17.8ZM165.6 97.7C166.4 97.6 167.2 98.2 167.3 99C167.4 100 166.7 100.8 165.7 100.9C164.9 101 164.1 100.4 164 99.6C163.8 98.7 164.6 97.8 165.6 97.7ZM147.1 219.2C146.8 220.3 146.1 221.1 144.7 221.7C143.2 221.2 141.8 220.7 140.4 220.2C140 220 139.5 219.4 139.5 219C139.5 218.6 139.9 217.8 140.2 217.7C141.9 217.2 143.6 216.8 145.3 216.6C146.6 216.5 147.5 217.9 147.1 219.2ZM145.2 385.5C145.2 386.2 144.6 386.8 143.9 386.8C143.2 386.8 142.6 386.2 142.6 385.5C142.6 384.8 143.2 384.2 143.9 384.2C144.6 384.2 145.2 384.8 145.2 385.5ZM139.4 168.7C140.3 169.4 140.5 170.7 140 171.7C139.3 172.8 138.3 173.5 136.7 173.5C135.2 173.6 134.2 172 134.9 170.4C135.3 169.7 135.8 169 136.4 168.5C137.1 167.8 138.5 168 139.4 168.7ZM136.8 116.8C135.8 116.7 134.9 115.9 134.9 115.1C134.9 114.2 135.8 113.3 136.7 113.4C137.7 113.4 138.3 114.2 138.3 115.3C138.3 116.2 137.6 116.9 136.8 116.8ZM139.8 134C140 133.9 140.1 133.8 140.3 133.7C140.3 133.7 140.5 133.9 140.5 134C140.4 134.2 140.3 134.3 140.2 134.5C140.1 134.3 139.9 134.2 139.8 134ZM135.5 308.7C136.7 308.1 137.9 308.1 139 308.8C139.4 309.1 139.6 309.7 139.7 309.9C139.6 311.6 138.2 312.8 136.8 312.4C136.2 312.2 135.5 311.9 135 311.4C134.2 310.8 134.5 309.2 135.5 308.7ZM138.1 316.2C139.6 316.1 140.7 317 140.7 318.1C140.7 319.7 139.3 321 137.5 321C136.1 321 135.2 320.1 135.2 318.8C135.2 317.2 136.3 316.2 138.1 316.2ZM139.5 31.9C140 31.7 140.9 31.8 141.3 32.2C141.9 32.6 142.5 33.3 142.8 34.1C143.3 35.5 143.5 37 143.7 38.5C143.8 39.3 142.8 40.1 142.1 39.8C141.4 39.5 140.5 39.2 140.1 38.6C139 37.2 138.5 35.4 138.6 33.3C138.8 32.9 139 32.1 139.5 31.9ZM136.7 77.7C137.8 77.9 138.5 78.8 138.5 80C138.5 81.3 137.3 82.2 136.1 82.1C135.2 82 134.5 81.1 134.5 80.1C134.6 78.7 135.6 77.6 136.7 77.7ZM133.7 128C135.4 128.2 136.7 129.5 136.7 130.8C136.6 132.3 135.4 133.2 133.9 133C132.4 132.8 131.4 131.5 131.5 129.8C131.5 128.7 132.6 127.8 133.7 128ZM129.1 152.4C129.7 152.5 130.3 153.3 130.2 153.9C130.1 154.7 129.4 155.4 128.2 155.4C127.9 155.1 127.3 154.7 127.2 154.2C127.1 153.2 128.2 152.3 129.1 152.4ZM115.1 80.9C116.1 80.9 117 81.9 117 83.1C117 84.2 116.1 85.1 114.9 85.1C113.9 85.1 113.1 84.4 113 83.4C113.1 81.9 113.9 80.8 115.1 80.9ZM115.3 208.3C116.4 208.2 117.4 209.1 117.5 210.2C117.5 211.1 116.7 211.9 115.7 212C114.4 212.1 113.4 211.5 113.3 210.4C113.2 209.4 114.2 208.4 115.3 208.3ZM113.4 120.3C113.5 119.6 114.4 119.2 115.3 119.3C116.2 119.4 116.8 120.1 116.7 120.9C116.6 121.7 115.8 122.3 115 122.2C114.1 122.2 113.3 121.2 113.4 120.3ZM111.7 239.8C112.5 239.4 113.3 239.5 114 240C115.2 240.8 115.8 242 115.9 243.8C115.7 244.2 115.4 245 115 245.6C114.3 246.5 112.8 246.4 112.1 245.6C111.2 244.5 110.6 243.3 110.6 241.9C110.6 241 110.9 240.2 111.7 239.8ZM110.6 309.3V309.6L110.4 309.4L110.6 309.3ZM107.6 90.7C107.8 90.6 108.2 91 108.4 91.2C108.4 92 108.1 92.5 107.4 92.4C107.2 92.4 106.8 91.8 106.8 91.6C106.9 91.2 107.3 90.8 107.6 90.7ZM108.2 332.9C108 333.1 107.9 333.3 107.7 333.5C107.5 333.4 107.2 333.3 107.1 333.1C107.1 332.9 107.3 332.7 107.4 332.4C107.7 332.6 108 332.7 108.2 332.9ZM101.2 241C101.2 241.3 101.2 241.6 101.1 241.8C100.7 242.8 99.8 243.5 99 243.3C98.2 243.1 97.9 242.6 97.8 241.8C97.8 240.6 98.5 239.6 99.6 239.5C100.4 239.4 101.2 240.2 101.2 241ZM98.4 166.5C99.2 166.4 99.7 167.1 99.7 168.1C99.6 169.1 99.1 169.7 98.3 169.7C97.5 169.7 96.8 168.9 96.9 168.1C97 167.3 97.7 166.6 98.4 166.5ZM97.8 253.2C98.6 252.4 99.5 251.8 100.5 251.8C102.3 251.9 104.2 253.3 104.3 254.6C104.4 255.8 103.2 257.3 101.6 257.8C101.1 258 100.5 258.1 100 258.1C98.6 258.1 97.7 257.3 97.1 256.2C96.5 255.3 96.9 254.2 97.8 253.2ZM102.1 310.2C103.1 310.2 103.9 311.2 103.9 312.4C103.9 313.5 103.1 314.4 101.9 314.5C100.8 314.6 99.9 313.9 99.9 313C99.8 311.5 100.8 310.2 102.1 310.2ZM100.6 267.6C100.6 267.4 100.7 267.2 100.7 267C100.9 267.1 101.1 267.2 101.4 267.3C101.2 267.5 101.1 267.7 100.9 267.8C100.9 267.8 100.6 267.7 100.6 267.6ZM80.3 259.7C80.6 259.7 80.8 260.1 81.3 260.4C80.9 260.7 80.6 261.1 80.4 261C80.1 261 79.7 260.6 79.7 260.3C79.6 260.2 80.1 259.7 80.3 259.7ZM80 306C80.5 305.8 81.2 306.4 81.2 307.3C81 307.5 80.9 307.9 80.6 308C80 308.2 79.4 307.6 79.4 306.9C79.5 306.6 79.7 306.1 80 306ZM75 97.6C75.6 97.7 76.3 97.7 76.6 98C77.4 98.9 78.1 100 78.7 101C79.2 101.8 78.8 103 78 103.5C77.2 104 75.9 104 75.3 103.4C75 103.1 74.8 102.7 74.8 102.3C74.8 100.8 74.9 99.4 75 97.6ZM70.5 149.3C71 147.7 72.4 147 73.8 146.5C74.9 146.2 76.1 146.6 76.8 147.4C77.3 147.9 77.4 148.9 77.5 149.2C77.5 150.7 77 151.5 76.1 152C73.9 153.2 71.8 152.7 70.8 150.8C70.5 150.4 70.4 149.8 70.5 149.3ZM72.1 176C71.9 176.2 71.8 176.3 71.6 176.5C71.5 176.3 71.4 176.1 71.3 175.9C71.3 175.8 71.5 175.6 71.5 175.6C71.7 175.7 71.9 175.9 72.1 176ZM71.5 186.8C72.4 186.8 73.2 187.7 73.1 188.6C73.1 189.2 72.4 189.7 71.7 189.6C70.8 189.5 70.2 188.9 70.3 188C70.2 187.4 70.8 186.8 71.5 186.8ZM71.8 247.8C72.6 247.8 73.3 248.6 73.2 249.4C73.1 250.5 72.4 251.3 71.5 251.3C70.7 251.3 70 250.5 70.1 249.6C70.1 248.7 70.9 247.8 71.8 247.8ZM71.2 256.8C72.3 256.8 73.2 257.8 73.2 258.9C73.2 260.2 72.2 261.2 70.9 261.3C70 261.4 69.3 260.5 69.3 259.4C69.2 257.8 70 256.8 71.2 256.8ZM66.1 227.2C66.9 227.2 67.3 227.6 67.4 228.4C67.5 229 66.9 229.8 66.3 229.8C65.5 229.9 64.7 229.1 64.7 228.3C64.8 227.7 65.4 227.2 66.1 227.2ZM63.3 240.5C63.4 239.9 63.8 239.6 64.4 239.6C65.2 239.6 65.7 240.1 65.7 241.1C65.5 241.3 65.2 241.8 64.8 241.9C64 242.1 63.1 241.3 63.3 240.5ZM65.6 291.9C65.4 292.1 65.1 292.4 64.8 292.5C64.2 292.6 63.7 292.3 63.8 291.6C63.8 291.3 64.2 290.9 64.5 290.8C65.2 290.7 65.6 291.1 65.6 291.9ZM64.2 357.6C63.5 357.6 62.9 356.8 63.1 356.2C63.3 355.5 63.7 355 64.8 355.1C65 355.3 65.5 355.7 65.6 356.1C65.8 356.9 65 357.7 64.2 357.6ZM68.2 313.6C66.4 313.8 65.3 312.9 65.2 311.1C65.2 311 65.2 310.8 65.2 310.7C65.2 309.6 65.4 308.5 66.6 308C67.5 307.6 68.6 307.7 69.2 308.5C69.7 309.1 70 309.9 70.2 310.7C70.4 312.3 69.6 313.4 68.2 313.6ZM69.7 284.3C69.4 284 69 283.8 69 283.5C69 283.2 69.4 282.9 69.8 282.5C70.1 282.9 70.5 283.2 70.5 283.5C70.4 283.8 70 284 69.7 284.3ZM76.5 381.2C76.3 383 75.2 384.2 73.7 384C71.8 383.9 70.7 382.6 70.9 380.8C71 379 72.3 377.9 74.2 378.1C75.8 378.2 76.7 379.4 76.5 381.2ZM75.8 204.9C75.3 204.5 74.9 203.9 74.7 203.3C74.4 202.5 75.2 201.7 76.4 201.8C76.7 202.1 77.5 202.4 77.9 203C78.3 203.5 78.2 204.3 77.6 204.8C77.1 205.3 76.3 205.4 75.8 204.9ZM79.3 366C78.4 365.8 77.9 365.2 77.8 364.3C77.6 363.2 77.9 362.1 78.7 361.9C79.1 361.7 79.9 361.8 80.2 362.1C80.8 362.8 81.1 363.7 81.4 364.1C81.3 365.4 80.2 366.2 79.3 366ZM84.3 278.4C83 279.4 80.9 278.7 80.2 277.2C79.4 275.3 80.6 272.5 82.6 271.9C82.9 271.8 83.1 271.8 83.4 271.8C85.4 271.8 86.9 274.4 86 276.3C85.7 277 85 277.8 84.3 278.4ZM86.8 369.2C86.1 368.9 85.8 368.3 85.9 367.6C85.9 366.9 86.6 366.4 87.3 366.5C88.1 366.6 88.5 367.2 88.5 367.9C88.4 368.8 87.5 369.5 86.8 369.2ZM88.8 215.5C88.6 216.2 88.1 216.7 87.3 216.7C86.6 216.7 86 216 86.1 215.3C86.2 214.4 87 213.8 87.8 213.9C88.5 214 89.1 214.8 88.8 215.5ZM86.9 99.6C84.6 98.9 83.5 96.7 84.2 94.4C84.4 93.9 85 93.5 85.3 93.2C88.2 93 90.4 95.5 89.7 98C89.5 99.3 88.2 100 86.9 99.6ZM91.3 401.5C90.4 401.6 89.4 400.8 89.4 399.8C89.4 398.7 90.3 397.8 91.6 398C92.1 398.1 92.6 398.6 93 398.8C93.1 400.3 92.4 401.3 91.3 401.5ZM101.2 458.1C99.7 459.1 98.1 459.9 96.5 460.7C95.7 461.1 94.7 460.6 94.5 459.8C94.2 459.1 94.3 458.4 94.8 457.9C95.1 457.6 95.4 457.3 95.8 457.2C97.3 456.6 98.3 455.6 99.1 454.3C99.5 453.6 100.2 453.3 100.8 453.7C101.3 454 101.6 454.7 102 455.2C102.1 455.4 102.1 455.7 102.1 456.3C101.9 456.7 101.7 457.7 101.2 458.1ZM103.8 446C103.8 446.3 103.7 446.5 103.6 446.8C103.1 448.4 102.1 449.1 100.6 449C98.9 448.8 98 447.9 97.9 446.4C97.8 444.7 98.8 443.5 100.4 443.2C100.7 443.2 100.9 443.2 101.2 443.1C103.1 443.1 104.1 444.2 103.8 446ZM114.4 411.5C114 411.8 113.3 411.3 113.3 410.7C113.3 410.5 113.5 410.2 113.6 410C114 409.7 114.6 410.2 114.7 410.8C114.7 411.1 114.6 411.4 114.4 411.5ZM117 402.6C115.5 403.5 114.2 403.6 113.3 402.4C111.3 399.6 108.3 398.7 105.4 397.5C104.8 397.2 104.2 397 103.6 396.8C103.3 395.2 104.1 394.5 105.1 394C106.8 393.3 107.2 392.1 106.8 390.3C106.5 389 106.5 387.6 106.3 386.1C107.7 385.3 109 384.6 110.4 384C112.1 383.3 113.8 384.2 114.1 386.1C114.3 387.1 114.1 388.3 114 389.3C113.9 390.1 113.6 390.9 113.5 391.7C113.4 393.4 113.8 394.9 115.1 396.1C116 396.9 116.9 397.8 117.7 398.8C118.9 400.3 118.6 401.7 117 402.6ZM118.1 328C118 327.8 118 327.6 118 327.4C118 327.4 118.3 327.2 118.3 327.3C118.5 327.4 118.6 327.6 118.8 327.8C118.5 327.8 118.3 327.9 118.1 328ZM118.1 109.3C117.9 109.3 117.8 108.8 117.6 108.5C117.9 108.4 118.3 108.2 118.6 108.2C118.7 108.2 118.8 108.6 119 108.9C118.8 109.1 118.4 109.4 118.1 109.3ZM118.3 72.1C117.7 72.2 117.4 71.7 117.3 71.1C117.2 70.5 117.7 69.8 118.1 70C118.5 70.2 118.9 70.6 119.5 71C119 71.5 118.7 72 118.3 72.1ZM119.7 409.5C119.6 409.5 119.5 409.5 119.3 409.5C119.4 409.3 119.4 409.1 119.5 408.9C119.6 409 119.8 409 119.8 409.1C119.9 409.3 119.8 409.4 119.7 409.5ZM120.8 467.3C120.7 467.1 120.7 467 120.6 466.8C120.7 466.8 120.9 466.7 121 466.8C121.1 466.8 121.1 467 121.1 467.1C121 467.2 120.9 467.2 120.8 467.3ZM120.7 393.2C120.5 393.2 120.4 392.9 120.2 392.7C120.4 392.5 120.6 392.2 120.7 392.3C120.9 392.3 121 392.6 121.2 392.8C121 392.9 120.9 393.2 120.7 393.2ZM123.2 202.3C124.9 201.1 127.4 201.4 128.8 202.8C130 204 129.6 206.5 128 207.4C127.1 207.9 126 208.1 125.5 208.3C123.5 208.3 122.3 207.7 121.9 206.7C121.3 205.1 121.9 203.2 123.2 202.3ZM121.8 238.6C121.6 237.5 122.4 236.4 123.5 236.3C124.7 236.1 125.8 236.9 125.9 238C126 239 125.1 240.4 124.2 240.5C123.3 240.5 121.9 239.5 121.8 238.6ZM124.4 472.2C124.3 472.2 124.3 472 124.3 471.9C124.4 471.9 124.5 471.8 124.6 471.8C124.7 471.8 124.7 472 124.7 472.1C124.6 472.2 124.5 472.2 124.4 472.2ZM126.8 254.1C125.4 254 124.6 253.3 124.6 252.2C124.6 250.4 125.7 249.2 127.3 249.3C128.7 249.4 129.5 250.3 129.5 251.7C129.5 253.3 128.5 254.2 126.8 254.1ZM130.2 410C132.5 407.4 135.5 408 137.5 409.7C138.3 410.4 138.5 411.3 138.1 412.3C137.2 414.5 135.1 416.5 132.3 415.5C131.4 415.2 130.5 415 129.5 414.7C128.2 412.6 129 411.4 130.2 410ZM138.3 460.3C138.3 460.5 138.2 461 138 461.5C137.5 462.9 136.3 463.7 135.3 463.6C133.7 463.4 132.3 461.9 132.3 460.3C132.3 459 132.8 457.9 134 457.2C135.1 456.6 136.1 456.9 137.1 457.5C138 458.1 138.4 458.9 138.3 460.3ZM138.8 366.6C138.6 366.7 138.1 366.2 138 365.9C137.8 365.3 138.2 364.8 138.8 364.8C139.1 364.8 139.4 365.2 140 365.6C139.6 366 139.3 366.4 138.8 366.6ZM140.9 431.1C140.7 430.5 140.5 429.8 140.4 429.5C140.3 428.1 140.8 427.2 141.6 426.8C142.5 426.3 143.6 426.6 144.2 427.3C145 428.3 145.2 429.5 144.9 430.7C144.7 431.7 143.8 432.3 142.8 432.3C141.9 432.4 141.2 432 140.9 431.1ZM142.8 460.4C142.1 460.2 141.5 459.7 141.6 459C141.6 458.4 141.9 457.6 142.3 457.2C143.3 456.3 144.5 456.2 145.7 456.8C146.3 457.1 146.8 457.6 146.8 458.3C146.8 459.2 146.4 459.9 145.6 460.2C145.1 460.4 144.6 460.4 144.1 460.5C143.6 460.5 143.1 460.5 142.8 460.4ZM145.5 517.6C145.2 517.5 144.8 517.1 144.8 516.8C144.6 515.9 145.3 515.2 146.2 515.3C146.6 515.4 147 515.8 147.2 516C147.1 517.1 146.3 517.8 145.5 517.6ZM146.9 278.3C146.9 278.1 146.9 277.9 147 277.7C147 277.7 147.3 277.6 147.3 277.7C147.4 277.9 147.4 278.1 147.5 278.3C147.3 278.3 147.1 278.3 146.9 278.3ZM151.2 445.1C151.1 445.8 150.5 446.3 149.8 446.2C149.1 446.1 148.6 445.6 148.7 444.8C148.7 444 149.1 443.5 149.9 443.4C150.6 443.4 151.3 444.2 151.2 445.1ZM149.8 260.6C149.1 260.6 148.5 260 148.6 259.3C148.7 258.4 149.4 257.6 150.2 257.8C150.7 257.9 151.2 258.5 151.5 258.7C151.4 260 150.7 260.6 149.8 260.6ZM151.2 33.3C150.8 32.6 150.8 31.8 150.7 31.3C150.8 29.3 151.5 28.3 153 27.9C154.4 27.5 155.7 27.7 156.7 28.8C157.8 30 158.2 31.4 157.7 32.5C157 34 155.8 34.9 154.2 35C152.9 35.2 151.8 34.4 151.2 33.3ZM157.9 181.8C157.7 182 157.5 182.5 157.2 182.6C155.8 183.1 154.6 182.3 154.1 180.8C154 180.5 154.4 179.9 154.6 179.9C155.7 179.8 156.7 180.2 157.5 181C157.8 181.2 157.8 181.5 157.9 181.8ZM152.2 227.6C152.2 227.6 152.3 227.4 152.4 227.3C152.6 227.4 152.7 227.6 152.9 227.7C152.8 227.8 152.8 227.9 152.7 228C152.5 227.9 152.4 227.8 152.2 227.6ZM155.1 285.5C153.9 285.7 152.9 285 152.8 283.8C152.7 282.9 153.5 281.9 154.5 281.8C155.5 281.7 156.6 282.7 156.7 283.8C156.6 284.6 156 285.3 155.1 285.5ZM157.3 238.4C157.3 238.4 157.5 238.4 157.6 238.4C157.6 238.6 157.6 238.8 157.6 239.1C157.5 239.1 157.4 239.1 157.2 239.1C157.2 238.9 157.2 238.6 157.3 238.4ZM160.8 433.8C160.7 434.8 159.7 435.5 158.7 435.3C158 435.2 157.5 434.7 157.4 433.9C157.3 432.9 158 432.2 159.3 432.3C160.3 432.3 160.9 432.9 160.8 433.8ZM161.4 308.1C161 308 160.6 307.9 160.6 307.8C160.6 307.5 160.8 307.2 160.9 306.8C161.1 306.9 161.5 306.9 161.5 307.1C161.6 307.4 161.5 307.7 161.4 308.1ZM162.6 92.6C162.3 93.1 161.7 93.4 161 94C160.7 93.2 160.4 92.8 160.4 92.4C160.4 91.7 160.9 91.2 161.7 91.2C162.4 91.3 163 92.1 162.6 92.6ZM163.2 482.2C163.2 480.9 164.1 480.1 165.6 480.1C167 480.1 167.9 481.1 167.7 482.4C167.6 483.6 166.7 484.3 165.5 484.3C164.1 484.4 163.2 483.6 163.2 482.2ZM172.5 531.9C170.7 533.4 168.7 534.1 166.5 533.1C166.1 532.9 165.8 532.7 165.5 532.5C163.8 531.2 163.7 525.7 166.2 524.4C166.7 524.1 167.1 523.8 167.6 523.6C170.6 522.3 173.1 523.6 173.8 526.7C173.9 527.4 174 528 173.9 527.8C174.1 530 173.6 531 172.5 531.9ZM174.1 290.9C173.5 291.1 172.7 290.5 172.7 289.8C172.7 289.2 173.3 288.4 173.9 288.5C174.4 288.5 174.8 288.9 175.1 289.1C175.2 290 174.7 290.7 174.1 290.9ZM174.2 162.8C174.2 162.2 174.7 161.9 175.3 162C175.9 162.1 176.2 162.5 176.1 163.1C176 163.5 175.5 163.8 175.3 164C174.3 163.8 174.2 163.3 174.2 162.8ZM177 541.3C176.2 541.2 175.7 540.6 176 539.9C176.2 539.5 176.6 539.2 177.1 538.6C177.7 539.3 178.2 539.7 178.4 540.3C178.7 540.9 177.8 541.4 177 541.3ZM186.3 521.1C186.2 521.1 185.7 520.5 185.7 520.2C185.7 519.6 186.5 519.1 187.2 519.3C187.5 519.4 187.7 519.8 188.1 520.3C187.3 520.6 186.8 521 186.3 521.1ZM187.4 463.6C186.1 464.8 184.8 465.1 183.3 464.1C181.6 462.9 179.9 462 177.7 462C176.7 462 176 461.1 175.8 460.1C175.6 459.3 175.6 458.5 175.7 457.7C175.8 456.7 176.1 455.8 177.2 455.5C178.4 455.1 179.8 455.5 180.5 456.6C181.1 457.5 181.5 458.5 182 459.6C183.2 459.3 184.2 458.9 185.3 458.7C186.6 458.5 187.6 459.1 188.3 460.3C188.8 461.5 188.5 462.5 187.4 463.6ZM188.3 246.7C188.3 246.6 188.7 246.2 188.7 246.2C189 246.3 189.2 246.6 189.6 246.9C189.2 247.2 189 247.4 188.7 247.7C188.6 247.3 188.4 247 188.3 246.7ZM190.2 528.9C190 528.8 189.6 528.6 189.6 528.5C189.6 528.2 189.8 527.9 189.9 527.6C190.2 527.8 190.6 528 190.6 528C190.6 528.3 190.4 528.6 190.2 528.9ZM190.2 431.4C190 431.1 189.5 430.7 189.3 430.2C189.1 429.7 189.8 428.8 190.4 428.8C191.1 428.7 191.9 429.5 191.9 430.3C191.9 430.9 191.3 431.4 190.2 431.4ZM191.2 382.1C191.2 382 191.3 381.9 191.3 381.8C191.4 381.8 191.5 381.9 191.6 381.9C191.6 382 191.5 382.1 191.5 382.2C191.3 382.2 191.2 382.1 191.2 382.1ZM191.1 270.8C190.9 269.2 192.8 267 194.6 266.9C196 266.8 197.5 268.6 197.6 270.2C197.7 271.8 196.4 273.5 195.2 273.5C193.3 273.6 191.3 272.3 191.1 270.8ZM196.2 506.4C195.9 506 195.6 505.7 195.3 505.3C195.3 505.3 195.6 505 196 504.7C196.3 505.2 196.5 505.5 196.7 506C196.7 506.1 196.4 506.3 196.2 506.4ZM196.9 366.6C196.2 366.5 195.5 365.6 195.5 364.8C195.5 363.9 196.2 363.2 197 363.2C197.9 363.3 198.6 364.1 198.6 365.2C198.6 366 197.6 366.8 196.9 366.6ZM204.4 495.4C204.3 496.2 203.5 496.8 202.6 496.8C200.3 496.8 199 495.6 198.9 493.4C198.9 492.7 198.9 492 199.1 491.4C199.5 489.7 201.7 489.1 203 490.2C204.3 491.3 204.4 492.7 204.5 494.4C204.5 494.6 204.5 495 204.4 495.4ZM199.5 341.2C198.3 341.6 197.1 341.9 196.1 340.9C195 339.8 194.4 338.4 194.8 336.8C195.1 335.2 197.6 333.9 199 334.7C201 335.8 203 337.1 204.9 338.3C205.1 338.4 205 338.8 205.1 339.2C203 339.9 201.3 340.6 199.5 341.2ZM204.6 277.2C204.6 275.4 206.9 273.9 208.8 274.4C209.4 274.6 210 275.5 210.1 276.3C210.2 278.7 209.4 280 206.6 281.8C205 280.7 204.6 279 204.6 277.2ZM208.3 290.3C208.1 290.5 207.7 291 207.3 291.1C206.7 291.2 206.3 290.6 206.4 290C206.5 289.7 206.8 289.3 207.1 289.2C207.7 288.9 208.3 289.4 208.3 290.3ZM208.3 392.8C208.2 393.1 207.7 393.2 207.2 393.5C206.8 393 206.4 392.7 206.3 392.2C206.1 391.6 206.1 390.9 206.7 390.4C207.2 390 208.3 390.2 208.4 390.8C208.4 391.5 208.4 392.2 208.3 392.8ZM210.1 345.1C209.2 345 208.6 344.3 208.7 343.4C208.8 342.1 209.6 341.3 210.8 341.6C211.7 341.7 212.4 342.5 212.3 343.3C212.3 344.4 211.3 345.3 210.1 345.1ZM213.4 509.2C213.1 509.9 212.4 510.1 211.7 509.9C211.3 509.8 210.8 509.3 210.7 508.9C210.6 508.3 210.7 507.6 210.9 507C211.1 506.4 211.6 505.9 212.4 506.1C213.3 506.3 213.9 506.9 213.8 508C213.8 508.2 213.6 508.8 213.4 509.2ZM214.4 237.5C213.5 239 212.2 239.9 210.5 239.9C210.1 239.6 209.3 239.3 208.9 238.7C208.1 237.2 208.6 235 209.8 233.8C210.8 232.9 212.9 232.9 214 233.9C215 234.7 215.2 236.2 214.4 237.5ZM214 172.9C213.4 173 213 172.6 213.1 172C213.1 171.7 213.6 171.2 213.8 171.2C214.2 171.3 214.6 171.7 215.2 172C214.5 172.5 214.3 172.9 214 172.9ZM217 122.4C216.5 122.8 215.8 123 215.1 123C213.8 123 212.7 121.8 212.8 120.6C212.9 119.3 214.2 118 215.5 118C215.8 118 216.1 118 216.3 118.1C217.7 119 219.1 118.8 220.6 118.4C221.7 118.1 222.7 119.2 222.7 120.3C222.7 121.2 222 122 221.2 122C220.8 122 220.4 122 220 121.9C218.9 121.4 218 121.7 217 122.4ZM221.5 352.5C222.6 352.5 223.5 353.5 223.5 354.7C223.4 355.7 222.5 356.7 221.7 356.5C220.7 356.4 219.9 355.2 219.9 354C219.9 353.2 220.7 352.5 221.5 352.5ZM224.3 460.9C223.8 461.3 223.5 461.6 223.1 461.8C223 461.8 222.4 461.2 222.4 461.1C222.6 460.7 222.9 460.4 223.2 460C223.5 460.3 223.8 460.5 224.3 460.9ZM220.6 527.4C220.5 526.4 221.4 525.6 222.3 525.6C223.3 525.7 224.1 526.5 224 527.4C224 528.2 223.3 528.9 222.5 528.9C221.4 529 220.6 528.4 220.6 527.4ZM225.4 545.2C225.3 545.4 225 545.7 224.8 545.6C223.9 545.4 223 545.2 222.1 544.8C221.9 544.7 221.6 544.1 221.7 543.8C221.8 543.5 222.2 543.3 222.4 543.1C223.7 543 224.7 543.4 225.3 544.5C225.5 544.7 225.5 545 225.4 545.2ZM226 485.1C225.8 485.6 225.1 486.1 224.6 486.4C223.2 487 222 486.6 220.5 485.6C220.4 484.9 220.3 484.4 220.3 483.8C220.3 482.7 220.5 481.5 221.7 481.1C222.9 480.7 224.1 480.8 225.2 481.7C226.1 482.6 226.5 483.8 226 485.1ZM224.4 412.3C224.7 411.9 225 411.2 225.5 410.6C225.8 410.2 226.4 410 226.9 409.7C228.6 408.9 230.2 409.5 231.1 411.1C231.9 412.6 231.5 414.6 229.9 415.4C226.7 417.2 225 417.1 224.4 412.3ZM230.6 448.5C230.1 447.3 229.4 446.1 228.7 444.5C229.4 443.8 230 443.3 230.6 442.7C230.6 441.6 230.5 440.4 230.6 439.2C230.7 438.5 231.3 437.9 232 438C232.6 438.1 233.4 438.4 233.7 438.9C234.3 440.1 235 441.4 235.1 442.7C235.2 444.6 235.3 446.4 235.9 448.3C236.1 449 235.6 449.9 235.3 450.6C235 451.3 234.3 451.5 233.6 451.2C232.3 450.7 231.2 449.9 230.6 448.5ZM232.1 519.8C232.2 518.2 232.4 516.6 232.6 514.9C233.4 514.4 234.1 513.7 235 513.3C237.3 512.3 239.4 513 241.2 515.1C241.6 515.5 241.7 516.5 241.5 517C241.1 517.8 240.6 518.8 239.8 519.2C238.2 520.2 236.5 521 234.7 521.7C233.5 522.2 232 521.1 232.1 519.8ZM240.2 558.1C239.6 558.2 239.1 557.8 239 557.2C238.8 556.5 239.4 555.8 240.1 555.8C240.5 555.8 241 556.2 241.3 556.3C241.4 557.3 240.9 558 240.2 558.1ZM247.6 569.7C247.3 570.6 246.5 571.1 245.7 570.8C243.8 570.2 242 570.3 240.1 571C239 571.4 237.8 570.7 237.6 569.6C237.3 567.6 236.6 565.7 235.9 563.8C235.5 562.7 236.3 561.5 237.9 561.4C238.3 561.6 239.2 561.9 239.9 562.4C240.4 562.8 240.6 563.5 240.9 564.1C241.4 565.1 242.2 565.4 243.2 565.5C244.3 565.6 245.4 565.5 246.5 565.6C247.4 565.7 248 566.4 248 567.3C248 568.1 247.8 568.9 247.6 569.7ZM253 436.8C251.9 438.5 250.2 439.1 248.8 438.3C247.1 437.2 246.4 435 247.3 433.3C247.8 432.3 248.7 432.1 250.1 432.2C250.5 432.4 251.3 432.6 252 433C253.6 433.8 253.9 435.3 253 436.8ZM255.4 390.7C254.2 390.1 253.6 389 253.9 387.7C254.1 386.4 254.8 385.4 255.8 384.7C257 383.8 258.7 383.8 259.9 384.8C260.8 385.5 261.2 386.9 260.6 388.2C260.2 389.1 259.7 389.9 259.1 390.6C258.7 391 258 391.2 257.4 391.4C256.7 391.1 256 391 255.4 390.7ZM258.1 447.2C258.2 446.8 258.7 446.5 259.3 446C259.8 446.6 260.3 446.9 260.4 447.3C260.5 447.9 259.7 448.5 259 448.4C258.3 448.3 257.9 447.8 258.1 447.2ZM260.9 517.7C260.7 518.1 260.2 518.4 259.7 518.9C259.2 518.3 258.8 517.9 258.7 517.5C258.5 516.9 259.4 516.3 260.1 516.5C260.6 516.7 261.1 517.1 260.9 517.7ZM261 351C260.6 350.9 260.2 350.5 259.8 350.2C260.1 350 260.3 349.5 260.5 349.5C260.9 349.5 261.3 349.8 262 350.1C261.5 350.6 261.2 351 261 351ZM261.6 302.6C261 302.7 260.2 302.2 260.2 301.5C260.1 300.9 260.7 300.2 261.4 300.1C262.1 300 262.8 300.5 262.8 301.2C262.8 301.8 262.3 302.5 261.6 302.6ZM263.7 278.7C263 278.5 262.5 277.9 262.7 277.2C262.8 276.5 263.3 276 264.1 276C264.9 276 265.6 276.7 265.5 277.5C265.4 278.3 264.6 278.9 263.7 278.7ZM266.5 494.1C265.8 493.9 265.4 493.5 265.4 492.7C265.4 492 266.1 491.5 266.8 491.6C267.5 491.8 268 492.2 267.9 493C267.8 493.8 267.2 494.3 266.5 494.1ZM268.3 550.6C268.2 550.4 268.1 550.2 268 550C268.2 549.9 268.5 549.8 268.7 549.8C268.8 549.8 268.9 550.1 269 550.3C268.7 550.4 268.5 550.5 268.3 550.6ZM270.2 90.4C270 89.9 270.6 89.3 271.2 89.5C271.5 89.6 271.8 90.1 271.8 90.3C271.8 90.6 271.4 90.9 271 91.3C270.7 91 270.3 90.7 270.2 90.4ZM272 370.8C273.2 370.5 274.4 370.1 275.6 369.9C276.3 369.8 276.9 370.1 277.2 370.9C277.4 371.6 277.4 372.4 276.7 372.7C275.4 373.4 274 373.9 272.4 374.5C271.8 373.8 271.2 373.3 270.9 372.6C270.5 371.8 271 371.1 272 370.8ZM274.1 288.3C274.2 287.6 274.7 287.4 275.3 287.5C275.6 287.6 276 288 276 288.3C276.1 288.9 275.7 289.4 275.1 289.4C274.5 289.4 274.1 288.9 274.1 288.3ZM273.7 513.4C273.5 513.9 272.9 514.3 272.3 515C271.7 514.3 271.1 513.8 271 513.3C270.8 512.6 271.8 511.8 272.6 511.9C273.2 512 273.9 512.8 273.7 513.4ZM274.2 484.1C273.5 484.2 272.8 483.6 272.9 482.9C273 482.5 273.4 482 273.8 481.8C274.4 481.5 275.2 482 275.3 482.7C275.4 483.4 274.9 484 274.2 484.1ZM278.5 440.7C278.3 441.9 277.7 443 276.8 443.9C275.4 445.2 273.1 444.7 272.5 442.9C272.2 441.9 272.2 440.8 272.1 439.7C272.2 439.7 272.4 439.7 272.5 439.6C272.3 438.5 272 437.5 271.9 436.4C271.9 436 272.3 435.4 272.7 435.1C272.9 434.9 273.6 435 273.8 435.2C274.9 436.5 276.2 437.4 277.6 438.2C278.4 438.7 278.6 439.6 278.5 440.7ZM282.5 405.9C281.4 406.4 280.2 406.7 279.7 406.8C277.8 406.8 276.9 406.1 276.6 405C276.3 404.1 276.6 403.1 277.5 402.5C278.6 401.6 279.8 401.1 281.2 401.1C282.5 401.1 283.6 401.9 283.8 403.2C284 404.3 283.6 405.4 282.5 405.9ZM285 279.3C284 280.4 282.7 280.8 281.3 280.7C279 280.6 276.6 280.7 274.5 281.8C274.3 281.9 273.7 281.6 273.5 281.4C273.3 281.1 273.2 280.6 273.3 280.2C273.4 279.8 273.6 279.4 273.9 279.1C275.3 277.8 276.6 276.5 278 275.2C279.3 275.6 280.4 276 281.6 276.2C282.8 276.4 284 276.2 285.2 276.2C286.1 277.7 285.8 278.5 285 279.3ZM286.2 387C286.3 386.2 286.7 385.7 287.5 385.7C288.6 385.6 289.4 386.6 289.4 388.2C289.1 388.4 288.6 389 288.1 389.1C286.8 389.2 286 388.2 286.2 387ZM289.6 514.9C288.6 515.4 287.3 514.9 286.8 514C286.4 513.3 286.6 512.7 287.2 512.2C288.1 511.4 289.3 511.3 290.1 512C290.5 512.3 290.7 512.8 291 513.4C290.5 514 290.2 514.6 289.6 514.9ZM289.6 419.2C289.6 418.2 290.7 417 291.6 417C293 417 294.5 418.4 294.4 419.4C294.2 420.6 292.7 422 291.6 421.9C290.7 421.9 289.6 420.5 289.6 419.2ZM298.7 559.5C298.1 560.7 296.7 561.2 295.2 560.9C293.6 560.6 292.6 559.6 292.4 558.3C292.4 558 292.4 557.8 292.5 557.5C292.9 556.1 294.7 555.2 296.5 555.5C297.9 555.7 299.1 557.3 298.9 558.8C298.9 559 298.9 559.2 298.7 559.5ZM298.6 281.2C297.8 281.3 297.2 280.8 297.2 280.2C297.2 279.6 297.5 279.2 298.1 279.1C298.8 279 299.4 279.1 299.7 279.9C300 280.5 299.4 281.1 298.6 281.2ZM300.6 487.3C300 487 299.6 486.4 299.8 485.6C300 484.8 300.4 484.1 301.3 483.9C302.2 483.7 302.8 484.4 303.3 484.9C303.8 485.4 304.1 486.1 303.7 486.7C303.4 487.2 302.7 487.5 302.3 487.8C301.6 487.6 301 487.6 300.6 487.3ZM304.2 497.9C303.7 498.1 303.1 497.5 303.3 497C303.4 496.7 303.8 496.4 304.1 496.3C304.4 496.3 304.7 496.7 305.1 497C304.7 497.4 304.5 497.8 304.2 497.9ZM303.8 393.9C303.9 391.9 305.8 390.1 307.5 390.3C309.6 390.5 311.3 392.5 311.1 394.5C311 396.1 309.1 397.7 307.4 397.6C305.4 397.5 303.7 395.7 303.8 393.9ZM310 425.6C311.1 425.5 311.9 426.2 311.9 427.2C312 428.4 311.3 429.2 310 429.3C308.8 429.4 307.9 428.9 307.8 428C307.7 426.7 308.6 425.7 310 425.6ZM311.7 549.2C311.1 549.3 310.2 549.3 309.8 548.9C308.3 547.6 307.4 545.9 307.5 543.8C307.6 542 308.9 540.6 310.5 540.5C312.2 540.4 313.7 541.5 314.1 543.2C314.3 543.9 314.3 544.6 314.3 544.9C314.4 547.5 313.6 548.7 311.7 549.2ZM313 423C312.9 422.9 313.3 422.6 313.4 422.4C313.7 422.6 314 422.8 314.2 423C314 423.2 313.9 423.4 313.6 423.7C313.4 423.5 313.1 423.3 313 423ZM313.5 409.1C313 409.2 312.4 409.3 311.9 409.3C310.7 409.3 310 408.6 309.8 407.3C309.7 406.3 310.3 405.3 311.2 405.2C311.6 405.1 312 405.1 312.3 405.1C312.7 405.1 312.9 405.1 313.2 405.2C314.3 405.3 315 406 315 407.1C315 408.1 314.5 408.9 313.5 409.1ZM316 499C315.2 499 314.4 498 314.7 497.3C315.1 496.5 315.8 495.8 316.4 495.1C316.8 494.7 317.9 495 318.1 495.6C318.9 497.2 317.8 499 316 499ZM317.7 482.8C315.6 482.8 314.7 481.8 314.9 479.8C315 479 315.2 478.2 316.1 477.8C317.2 477.4 318.2 477.5 319.1 478.2C319.4 478.5 319.7 478.8 319.8 479.2C320.6 480.8 320.3 483 317.7 482.8ZM320.7 413.1C320.7 412.1 321.6 411.2 322.5 411.5C323 411.7 323.4 412.3 323.7 412.6C323.6 413.8 322.9 414.4 322 414.4C321.3 414.3 320.7 413.7 320.7 413.1ZM323.6 461.8C323.4 462.2 323 462.5 322.6 463C322.1 462.6 321.7 462.4 321.6 462.1C321.4 461.5 322.2 460.8 322.9 461C323.2 461.1 323.7 461.6 323.6 461.8ZM323.3 514.1C322.4 514.3 321.5 513.9 321.4 513.2C321.2 512.3 321.9 511.4 323 511.3C323.7 511.2 324.4 511.7 324.5 512.3C324.6 513.2 324.1 514 323.3 514.1ZM323.2 474.3C322.5 474.2 322 473.5 322.1 472.9C322.2 472.2 322.8 471.7 323.5 471.8C324.2 471.9 324.7 472.5 324.6 473.2C324.5 473.9 323.8 474.4 323.2 474.3ZM329.1 493.1C328.3 493.1 327.6 492.4 327.7 491.5C327.7 490.7 328.2 490.3 328.9 490.1C329.7 489.9 330.5 490.6 330.6 491.4C330.6 492.4 329.9 493.1 329.1 493.1ZM330.6 482.8C330 483 329.3 482.3 329.5 481.6C329.6 481.3 330.1 480.8 330.3 480.9C330.7 481 331.1 481.4 331.5 481.8C331.1 482.3 330.9 482.7 330.6 482.8ZM332.8 433.3C331.7 433.4 330.7 433.3 329.8 433.3C329.4 433.7 329.2 433.9 329 434.1C328.3 434.9 328.4 436.4 326.9 436.3C326.1 436.3 324.2 433.5 324.1 432.6C324 431.7 325 430.3 326 430.3C328.2 430.2 330.3 430.2 332.5 430.2C333.2 430.2 333.7 430.7 333.9 431.5C334.1 432.2 333.6 433.2 332.8 433.3ZM334.8 424C334.4 424.1 334 424.2 333.7 424.2C332.2 424.3 331.3 423.1 331.8 421.8C332.2 420.8 332.9 420.3 334 420.3C335.1 420.3 335.9 420.9 336.1 421.8C336.3 422.7 335.7 423.7 334.8 424ZM337.5 534.4C337.1 534.2 336.8 534 336.5 533.7C335.9 533.1 335.3 532.5 335.4 531.6C335.5 530.8 336.5 529.9 337.4 529.8C338.7 529.6 339.9 529.8 340.8 530.7C341.1 531.1 341.3 531.6 341.4 531.9C341.2 534.2 339.2 535.3 337.5 534.4ZM338.5 479.4C338.5 478.4 339.2 477.8 339.8 478C340.2 478.1 340.7 478.6 340.8 479C341 479.6 340.2 480.3 339.6 480.1C339.1 480 338.8 479.6 338.5 479.4ZM340.7 470.6C340.6 469.6 341.4 468.8 342.4 468.8C343.5 468.8 344.2 469.7 344.1 471C344.1 471.7 343.7 472.3 342.9 472.4C341.8 472.5 340.7 471.6 340.7 470.6ZM346 525.3C345.9 525.3 345.8 524.7 345.8 524.7C346.1 524.5 346.4 524.4 346.7 524.4C346.7 524.4 346.8 524.8 347 525.2C346.6 525.2 346.3 525.3 346 525.3ZM346.9 516.5C346.4 516.7 345.8 516 346 515.5C346.1 514.9 346.6 514.6 347.2 514.7C347.5 514.8 347.8 515.2 348.3 515.6C347.7 516 347.4 516.4 346.9 516.5ZM348.1 494.8C346.5 494.9 345.2 494.2 344.1 493.1C343.2 492.1 343.2 490.7 344.3 489.9C344.9 489.4 345.7 489.1 346.5 488.8C346.8 488.7 347.4 488.9 347.6 489.1C348.4 490.5 349.1 492 349.9 493.6C349.1 494.2 348.6 494.8 348.1 494.8ZM349.8 461.4C349.2 462.3 348.7 463.3 347.4 463.3C345.7 463.2 344 461.9 343.9 460.4C343.7 459.1 343.9 457.7 343.9 456.4C343.2 455.5 342.4 455.9 341.6 456.1C340.3 456.4 338.9 456.8 337.5 455.5C337.6 454.8 337.6 454.2 337.8 453.7C338.5 451.9 339.5 451.2 341.2 451.4C344.6 451.7 347.5 453 349.5 455.9C350.6 457.7 351 459.5 349.8 461.4ZM350 412.7C350.1 412.2 350.7 411.8 351 411.5C352.2 411.5 352.9 412.2 352.8 413C352.7 413.7 352.1 414.2 351.4 414.2C350.6 414.2 349.8 413.5 350 412.7ZM352.7 420.9C353.5 420.8 354.3 421.4 354.3 422.7C354 423 353.6 423.5 353.1 423.7C352.3 424 351.5 423.2 351.5 422.3C351.5 421.6 352.1 421 352.7 420.9ZM352.4 474.1C352.2 474.1 351.8 473.8 351.8 473.7C351.8 473.3 352 472.8 352.2 472.1C352.7 472.6 353.1 472.8 353.2 473C353.3 473.6 353 474.1 352.4 474.1ZM352.8 456.7C352.5 456.6 352.1 456.3 352.1 456C352.1 455.7 352.4 455.4 352.7 455C353.1 455.3 353.5 455.4 353.6 455.7C353.9 456.1 353.4 456.8 352.8 456.7ZM355.5 449.5C355.9 448.9 356.7 448.6 357.1 448.4C358.8 448.3 359.9 449.1 360.3 450.7C360.7 452 360.3 453.3 359.2 453.9C358.8 454.1 358.2 454.3 357.7 454.2C355.6 453.8 354.4 451.4 355.5 449.5ZM360.7 457.2L360.4 457.3L360.5 457L360.7 457.2ZM358.9 516.8C358.8 516.8 358.6 516.7 358.6 516.7C358.6 516.6 358.7 516.5 358.7 516.4C358.8 516.5 358.9 516.5 359 516.6C359 516.6 359 516.7 358.9 516.8ZM362.8 494.1C361.4 491.8 359.4 490.2 357.2 488.9C356.6 488.6 356.1 488.1 355.7 487.6C355.6 487.5 355.7 487.1 355.7 486.9C355.7 486.8 355.9 486.7 356 486.7C359.3 487.4 362.8 487.7 365.9 489.2C366.6 489.5 367.1 490.2 367.7 490.8C366.1 492.3 365 493.4 363.7 494.6C363.5 494.4 362.9 494.3 362.8 494.1ZM367.5 507.1C367.1 506.9 366.7 506.4 366.5 506C366.3 505.4 367 504.7 368 504.8C368.2 505.1 368.5 505.4 368.6 505.9C368.9 506.6 368.1 507.3 367.5 507.1ZM369 514.1L369.1 513.9L369.2 514.1H369ZM370.4 482.8C369 482.8 367.1 481.3 367 479.9C366.8 478.3 368.3 476.8 370 476.8C371.9 476.7 373 477.9 373 479.8C373 481.3 371.8 482.7 370.4 482.8ZM382 479.4C380.4 481.2 380 483.2 380 485.4C380 486.4 379.4 487.2 378.6 487.7C377.7 488.3 376.7 488.8 375.8 489.3C374.7 489.9 374 489.7 373.2 489C372.3 488.1 372.1 487.2 372.7 486C373.3 484.9 374.1 484 375.2 483.4C375.8 483.1 376.4 482.8 377 482.4C377.6 481.9 377.8 481.2 377.4 480.6C376.9 479.8 376.2 479.1 375.7 478.3C375.5 478 375.7 477.4 375.9 477.2C376.1 477 376.7 476.8 377 477C377.6 477.2 378.2 477.7 378.8 478.1C379.6 477.6 380.4 477.1 381.2 476.7C382.4 477.4 382.8 478.6 382 479.4ZM384.9 468C383.6 468.7 382.3 469.3 380.9 469.9C380.7 470 380.4 469.7 380.2 469.6C380.1 469.4 380 469.1 380.1 468.9C380.8 467.1 382.6 466.2 384.7 466.8C384.9 466.8 385 467.2 385.1 467.4C385.1 467.5 385.1 467.9 384.9 468ZM388.1 395.3C387.8 395.3 387.3 394.8 387.3 394.6C387.3 394.2 387.7 393.8 388 393.1C388.5 393.6 388.8 393.9 388.9 394.2C389 394.7 388.7 395.3 388.1 395.3ZM388 244.4C387 245.2 385.8 245.5 384.6 245C383.5 244.5 383.3 243.4 383.2 242.3C383.2 239.5 384.4 238 386.8 237.8C388.2 237.7 389.5 238.7 389.6 240.1C389.7 241.7 389.4 243.3 388 244.4ZM390.2 370.2C390.1 369.9 390.3 369.4 390.5 369.1C390.7 368.8 391.2 368.7 391.7 368.4C392 368.7 392.5 369 392.7 369.4C392.8 369.6 392.6 370.2 392.4 370.4C392.2 370.7 391.7 370.8 391.4 370.9C390.9 371.1 390.3 370.8 390.2 370.2ZM391.9 456.4C391.8 456.4 391.8 456.2 391.8 456.1C391.9 456.1 392.1 456 392.1 456C392.2 456 392.2 456.2 392.2 456.3C392.1 456.3 392 456.4 391.9 456.4ZM393.1 413.8C391.9 413.8 390.9 413 390.9 411.9C390.9 410.9 391.8 410.1 393.1 410C394.1 409.9 394.9 410.6 395 411.7C395 412.9 394.2 413.8 393.1 413.8ZM394.9 402.1C394.3 402.2 393.8 401.8 393.8 401.2C393.8 400.4 394.3 399.9 395.1 399.9C395.5 399.9 395.9 400.3 396.3 400.5C396.2 401.6 395.6 401.9 394.9 402.1ZM397.3 332.2C397.6 332.2 397.9 332.6 398.1 332.8C398.1 333.6 397.8 334 397.2 333.9C396.9 333.9 396.5 333.5 396.4 333.2C396.3 332.6 396.7 332.1 397.3 332.2ZM397.6 361.2C399.3 360.7 400.7 359.6 402.3 359C403.7 358.5 405.2 358 406.6 359.1C408 360.2 407.7 361.8 407.4 363.3C407 365.5 405.3 366.7 402.4 366.6C400.5 366.7 398.9 365.6 397.3 364.6C396 363.7 396.2 361.6 397.6 361.2ZM396.8 393.8C396.8 393.7 397.4 393.5 397.4 393.6C397.6 393.9 397.7 394.2 397.9 394.5C397.7 394.6 397.4 394.7 397.1 394.8C397 394.5 396.8 394.2 396.8 393.8ZM399.4 422.8C398.8 422.9 398.3 422.5 398.3 422C398.3 421.7 398.7 421.4 399.1 420.9C399.6 421.4 400 421.7 400.1 422.1C400.1 422.1 399.7 422.7 399.4 422.8ZM403.2 436.2C401.9 436.7 400.6 435.7 400.8 434.3C401.4 430.8 402.4 427.6 405.9 426.1C406.5 424.6 405 424.4 404.7 423.3C406 421 408.4 420.2 411.2 419.5C410.8 419 410.6 418.5 410.3 418.4C408.9 417.9 408 417 407.4 415.7C406.9 414.7 406.2 413.8 405.6 413C404.7 411.9 403.8 411.9 402.8 412.9C402.4 413.3 402.2 413.9 401.8 414.2C401.1 414.6 400.3 414.9 399.6 415C398.3 415.1 397.2 413.9 397.4 412.6C397.5 411.8 397.8 411 398.3 410.3C399.7 408 401.9 407 404.4 406.5C405.7 406.2 406.9 407 407.2 408.3C407.4 409.2 407.3 410.2 407.6 411.1C407.9 412.3 408.2 413.5 408.8 414.6C409.3 415.5 410.3 416.2 411.2 416.8C412.2 417.4 413.4 417.2 414.2 416.3C415.1 415.2 415.9 414.3 417.1 413.4C419.4 411.7 421 409.6 420.8 406.4C420.8 405.7 421.4 404.9 421.8 404.3C422.3 403.6 423.6 403.9 423.8 404.7C424.1 405.6 424.2 406.5 424.4 407.7C425.4 407.5 426.1 407.3 426.9 407.2C428.4 407 429.5 407.5 429.7 408.9C429.9 410.2 430.5 411.6 429.5 413.1C428.8 413 427.9 413 427.3 412.7C424.8 411.5 422.5 412.2 420.2 413.4C419.1 414 418.6 414.9 419 416.1C419.3 417 419.7 417.9 420.3 418.6C421 419.3 421.8 418.5 422.6 418.4C422.9 418.4 423.3 418.6 423.6 418.9C423.7 419 423.7 419.4 423.6 419.7C423.5 420 423.3 420.2 423.2 420.4C422.9 420.8 422.5 421.2 422.1 421.8C422.7 423.4 424.6 424.7 423.8 426.7C423.6 427.1 423.2 427.5 422.7 428.1C421.9 427.2 421.5 426.2 420.7 425.8C419 424.9 417.5 423.7 415.9 422.6C415.7 422.4 415.1 422.6 414.8 422.8C414.5 423 414.3 423.6 414.4 423.9C414.8 424.8 415.3 425.5 415.8 426.3C416.4 427.3 416.2 428.2 415 428.6C414 429 413 429.3 411.9 429.7C411.6 430.7 411.3 431.6 410.9 432.4C410.3 433.9 409.2 435 407.6 435.1C405.9 435.1 404.6 435.7 403.2 436.2ZM428.6 456.7C429.5 456.6 430.6 457.6 430.7 458.7C430.8 459.3 430.2 459.9 429.4 460C428 460.1 427 459.6 426.9 458.6C426.8 457.9 427.7 456.9 428.6 456.7ZM425.2 441.2C425.3 442 424.4 442.7 423.4 442.7C423.2 442.4 422.8 442 422.7 441.6C422.6 440.8 423.4 440 424.2 440.2C424.7 440.3 425.2 440.8 425.2 441.2ZM406.1 452.3C406.6 452.3 407.1 452.6 407.5 452.8C407.6 452.8 407.5 453 407.6 453.4C407.2 453.7 406.7 454.2 406.2 454.3C405.8 454.4 405.2 454.2 404.8 454C404.7 453.9 404.6 453.5 404.6 453.3C404.8 452.6 405.4 452.2 406.1 452.3ZM404.8 446.3C404.8 446.2 405 446.2 405.1 446.2C405.1 446.3 405.2 446.4 405.2 446.5C405.2 446.6 405 446.6 404.9 446.6C404.9 446.5 404.8 446.4 404.8 446.3ZM407.3 470.5C406.6 470.8 406 471.2 405.4 471.4C404.4 471.7 403.5 471 403.9 470.2C404.5 468.8 404.3 467.6 403.8 466.3C403.5 465.2 404 464.3 404.8 463.9C405.7 463.5 406.8 463.6 407.4 464.3C407.8 464.8 408.1 465.5 408 466.1C408 467.5 407.7 468.8 407.3 470.5ZM408.8 462.9C407.9 463.1 407.2 462.5 407.2 461.6C407.2 460.9 407.7 460.3 408.4 460.2C409.3 460.1 410 460.7 410 461.5C410 462.3 409.6 462.7 408.8 462.9ZM411 447.6C410.9 447.4 410.7 447.3 410.6 447.1C410.7 447 410.9 446.9 410.9 446.9C411 447.1 411.2 447.2 411.3 447.4C411.2 447.5 411 447.6 411 447.6ZM412 438.6C411.1 438.9 410.2 439.2 409.1 438.2C410.3 436.5 412.2 436.2 413.6 435.4C414.4 434 413.7 432.3 415.2 431.1C416.5 430.6 418 430.7 419.5 430.8C420.8 430.9 421.5 432.5 420.6 433.6C420.1 434.2 419.5 434.8 419 435.4C418.8 435.6 419.1 436.1 419.1 436.8C420 436.3 420.6 435.8 421.4 435.5C422.1 435.2 422.8 435.2 423.2 435.9C423.6 436.6 423.5 437.7 422.7 438.1C422.1 438.4 421.4 438.6 420.8 438.6C419.7 438.6 418.7 438.3 417.6 438.2C415.8 437.9 413.9 437.9 412 438.6ZM421.3 448.5C421.2 448.6 421.1 448.7 421.1 448.7C421 448.6 420.9 448.5 420.9 448.4C420.9 448.3 421 448.2 421.1 448.2C421.2 448.3 421.3 448.4 421.3 448.5ZM415.6 470.9C415.3 470.7 415.1 470.5 414.8 470.3C415 470.1 415.2 469.9 415.4 469.9C415.6 469.9 415.8 470.2 416 470.3C415.8 470.5 415.7 470.7 415.6 470.9ZM416.2 449.5C415.5 449.8 414.9 449.6 414.5 448.9C414.4 448.8 414.4 448.6 414.4 448.5C414.7 448.1 415 447.5 415.4 447.4C416 447.3 416.7 447.6 417.3 447.7C417.4 447.7 417.4 447.9 417.5 448.4C417.2 448.7 416.8 449.2 416.2 449.5ZM430.1 468C427.7 466.6 427.7 466.7 424.8 466.9C423 467 421.2 467.1 419.5 467C418.9 467 418.3 466.5 417.7 466.2C417.6 466.1 417.6 465.7 417.6 465.5C417.6 465.4 417.7 465.2 417.9 465.2C418.4 465.1 419 465 419.5 464.9C420.2 464.9 421.1 465.2 421.5 464.8C423.9 462.8 426.8 464.3 429.4 463.4C429.8 463.2 430.5 463.5 431 463.8C431.4 464.1 431.8 464.6 431.9 465.1C431.8 465.9 431.5 466.4 430.1 468ZM430.4 449.4C429.3 449.5 428.2 449.3 427.7 448.1C428.3 446.6 428.9 445.1 429.5 443.6C430.5 444.7 431.6 447 431.7 448C431.8 448.6 431.1 449.3 430.4 449.4ZM432.8 433.6C432.3 433.4 431.8 433.2 431.4 432.9C431.3 432.8 431.3 432.2 431.4 432.2C431.7 432.1 432.2 431.9 432.5 432C432.9 432.2 433.2 432.7 433.6 433C433.2 433.3 432.9 433.6 432.8 433.6ZM440.2 437.7C439.1 438.4 436.4 439 434.4 438.9C436.2 437.1 437.8 436.1 439.8 436.3C440.1 436.3 440.4 436.8 440.5 437.1C440.5 437.2 440.4 437.6 440.2 437.7ZM439.6 379.9C439.6 379.8 439.8 379.6 439.8 379.6C440 379.7 440.2 379.9 440.3 380C440.1 380.2 440 380.3 439.8 380.5C439.8 380.3 439.6 380.1 439.6 379.9ZM439.9 328.9C439.7 328.4 439.4 328 439.5 327.8C439.6 327.6 440 327.4 440.4 327.4C440.5 327.4 440.8 327.8 440.8 328C440.6 328.3 440.3 328.5 439.9 328.9ZM444.2 431.4C444 432.5 443.1 433.3 441.6 433.2C441.4 432.9 441 432.4 441.1 432C441.2 431 442 430.4 443 430.1C443.6 430.1 444.3 430.8 444.2 431.4ZM445.6 434.4C445.4 434.3 445.2 434.2 445.1 434.1C445.2 434 445.4 433.8 445.5 433.7C445.6 433.9 445.8 434 445.8 434.2C445.8 434.3 445.6 434.5 445.6 434.4ZM444.7 359.3C444.4 359.2 444 358.8 444 358.5C443.9 357.8 444.5 357.3 445.5 357.4C445.6 357.6 446 357.9 446 358.2C446.1 358.9 445.4 359.5 444.7 359.3ZM446.4 314.1C446.2 314.4 445.7 314.6 445.4 314.6C444.1 314.6 442.5 313 442.3 311.8C442.2 311 442.7 310.2 443.4 309.8C444.6 309.2 446.1 309.4 446.7 310.4C447 311 447.1 311.6 447.4 312.4C447 312.9 446.7 313.5 446.4 314.1ZM446.4 273.8C446.4 273.1 446.9 272.5 447.6 272.5C448.5 272.5 449.2 273.2 449.1 274.4C448.8 274.6 448.4 275.2 447.8 275.4C447.1 275.5 446.5 274.7 446.4 273.8ZM449.6 448.2C449.4 448.1 449.2 448 449 447.9C449.2 447.7 449.4 447.4 449.6 447.2C449.7 447.4 450 447.6 450 447.7C450 447.9 449.8 448.1 449.6 448.2ZM449.8 403.5C449.5 403.3 449.3 402.9 449.3 402.5C449.3 402.2 449.8 402 450.3 401.5C450.5 402.2 450.7 402.7 450.7 403.2C450.7 403.4 450 403.7 449.8 403.5ZM452.6 365.1C452.4 364.9 452.2 364.7 451.9 364.5C452.1 364.4 452.3 364.2 452.5 364.2C452.7 364.2 452.8 364.5 453 364.6C452.8 364.8 452.7 364.9 452.6 365.1ZM452.2 192.9C451.2 192.9 450.5 192 450.6 190.9C450.6 189.3 451.6 188.3 453.2 188.3C454.1 188.3 454.9 189.2 454.8 190.3C454.7 191.9 453.6 192.9 452.2 192.9ZM454.3 150.7C454.3 149.7 455.2 148.9 456.1 149C457.1 149.1 457.8 150 457.7 151C457.6 152 456.7 152.6 455.7 152.4C454.9 152.3 454.3 151.5 454.3 150.7ZM458.9 326.7C458.8 327.5 457.9 328.1 457.1 328C456.2 327.9 455.5 326.9 455.7 325.9C455.9 325.1 456.6 324.4 457.4 324.6C458.4 324.8 459.1 325.8 458.9 326.7ZM461.5 418.1C461 418.3 460.4 417.7 460.6 417.2C460.7 416.9 461.1 416.6 461.4 416.6C461.7 416.6 462 417 462.7 417.5C462.2 417.7 461.9 417.9 461.5 418.1ZM463.3 443.7C463.1 443.6 462.9 443.4 462.8 443.2C462.8 443.1 463.1 442.7 463.2 442.7C463.5 442.8 463.7 443.1 464 443.3C463.7 443.5 463.4 443.7 463.3 443.7ZM463.4 194.6C462.7 194.7 462 194.3 462 193.6C461.9 192.9 462.4 192.4 463.1 192.3C463.7 192.3 464.1 192.5 464.3 193.1C464.4 193.9 464 194.5 463.4 194.6ZM464.2 143.7C462.4 143.2 462.1 143 462 141.8C461.9 140.7 462.2 140.4 464 139.9C464.9 141.2 464.9 142.4 464.2 143.7Z" fill="#FBD5CC"/>
</svg>
