<svg xmlns="http://www.w3.org/2000/svg" width="150" height="159" fill="none"  xmlns:v="https://vecta.io/nano"><path d="M149.327 79.412c-1.464-7.766-4.95-15.034-8.723-21.918-7.513-13.71-16.01-27.58-27.927-37.927a68.45 68.45 0 0 0-4.259-3.414c.031.193.044.397.072.648-.033.196-.074.452-.127.703-.025.119-.317.193-.375.091-.218-.383-.455-.761-.62-1.169-.119-.298.151-.626.477-.684l-.762-.549C102.345 10.53 96.65 6.848 90.486 4.28c-.033.036-.108.055-.16.08l-.135-.146c.019-.011.041-.022.061-.033-3.45-1.418-7.044-2.49-10.698-3.188a56.75 56.75 0 0 0-9.727-.987c.05.044.102.097.168.149-.141.146-.212.284-.323.323-.152.052-.281-.041-.315-.218-.016-.091.003-.182.039-.256C57.81-.102 46.259 3.174 36.025 8.593 22.273 15.875 9.54 27.334 3.588 41.984 1.608 46.86.53 51.902.157 56.993c.339.014.56.234.552.563-.006.259-.237.513-.491.532-.044.003-.088 0-.135-.008C-.483 68.599 1.9 79.308 5.538 89.223a149.99 149.99 0 0 0 7.209 16.478c.044-.14.237-.253.394-.182.138.064.234.213.312.287-.036.262-.24.389-.422.337-.028-.009-.052-.022-.077-.033 3.299 6.417 7.047 12.612 11.178 18.522a.35.35 0 0 1 .331-.149c.19.022.35.204.336.381-.014.157-.11.295-.243.366 1.627 2.306 3.312 4.57 5.053 6.785 2.956 3.765 6.247 7.736 9.882 11.418.03-.223.204-.359.447-.334.256.028.419.21.405.453-.011.198-.157.347-.356.38 5.014 4.998 10.676 9.408 17.017 11.942.044-.201.177-.383.408-.521.19-.113.403-.199.612-.273.367-.13.623-.055.791.204.265.403.27.874-.05 1.12-.036.027-.077.052-.116.08 2.604.888 5.317 1.453 8.147 1.61.108-.281.309-.375.554-.369.152.003.323.132.444.248.044.041.028.102-.025.16l.312.008c7.75.091 14.799-3.461 21.093-7.667 7.444-4.973 14.59-10.425 21.849-15.662l2.057-1.476c-.036-.005-.074-.003-.113.011-.496.196-.985.326-1.533.248-.177-.024-.4.174-.577.301-.676.48-.94.43-1.602-.389l1.712-.896c.624.237 1.288.231 1.959.041.14-.041.3-.03.452-.025a1.01 1.01 0 0 1 .496.141l1.983-1.415a3.07 3.07 0 0 0-.06-.204.34.34 0 0 1 .43-.458c.132.039.267.072.4.108l2.769-1.986c.03-.113.083-.218.218-.276a1.38 1.38 0 0 0 .047.086c4.112-2.968 8.174-5.999 12.038-9.273 5.888-4.989 11.435-10.753 14.86-17.75 3.398-6.958 4.195-14.606 2.766-22.188zM1.147 67.382c-.066.005-.204-.132-.199-.196.006-.086.121-.163.223-.284.083.119.196.207.185.281-.011.08-.132.196-.21.199zm1.031-7.449c-.381.008-.634-.185-.632-.48.003-.301.259-.53.601-.532.348-.003.623.21.637.496.019.298-.226.508-.607.516zm1.059 6.807c-.047.008-.108-.072-.163-.113l.204-.243.221.229c-.088.044-.171.11-.262.127zm1.415-9.589c-.149-.036-.215-.179-.141-.337.069-.143.204-.226.345-.135.097.061.143.198.268.386-.229.044-.361.113-.472.085zm4.107-7.747c.226.025.265.212.312.389.044.163-.006.292-.177.348-.188.063-.353-.066-.378-.29-.022-.232.086-.441.243-.447zm-.852-4.421c.055.028.113.055.168.086-.041.05-.08.102-.124.146-.006.005-.08-.036-.08-.055 0-.061.022-.118.036-.176zm-.381 3.059c.102.036.171.168.32.326-.21.094-.328.188-.444.185-.174-.003-.223-.152-.188-.309.039-.152.163-.254.312-.201zm-.557-2.477c-.088-.005-.218-.077-.251-.154-.069-.157.017-.317.182-.334.113-.011.237.096.32.135.017.259-.086.361-.251.353zm-.764-1.944c-.025-.171.163-.325.383-.301.199.022.364.094.389.328.022.199-.135.389-.314.383-.245-.008-.422-.165-.458-.411zm.336 15.53c.014-.193.234-.361.48-.364.237-.003.444.193.427.408-.017.229-.218.444-.416.438-.273-.005-.507-.234-.491-.483zM7.8 70.273c-.028.262-.218.408-.458.356-.193-.041-.325-.234-.281-.414.061-.24.256-.392.485-.367.171.017.279.199.254.425zm.061-5.723c-.099-.017-.29-.033-.469-.088a.89.89 0 0 1-.598-.871c.011-.403.248-.742.615-.863a2.42 2.42 0 0 1 .441-.097c.667-.083 1.103.21 1.156.772.069.717-.336 1.156-1.145 1.147zm1.569 9.998c-.292.033-.461-.132-.485-.477s.116-.571.372-.588c.331-.025.64.199.662.474.022.287-.223.554-.549.59zm.706-36.27c-.309-.008-.552-.267-.543-.585.006-.29.281-.491.637-.466.281.019.491.237.485.505a.56.56 0 0 1-.579.546zm.643 8.346c-.003-.03-.011-.088-.008-.091.052-.014.107-.016.16-.022.003.033.008.063.011.097l-.163.017zm-.099-13.856c-.124-.033-.273-.143-.32-.257-.085-.21.16-.485.372-.422.116.036.201.174.254.221.019.312-.127.505-.306.458zm.847 64.346l-.124-.058.055-.063c.028.011.063.017.075.039s-.003.055-.005.083zm1.04 6.986c-.201.033-.356-.072-.447-.246-.119-.226-.044-.496.218-.659.102-.063.29-.074.4-.024s.182.201.229.259c-.005.356-.182.634-.4.67zm.598-13.076c-.025.113-.16.204-.306.375-.116-.185-.229-.29-.245-.405-.022-.174.119-.257.287-.243.163.011.298.113.265.273zm-.392-57.236c-.171-.025-.317-.218-.309-.411.014-.292.221-.491.507-.48.234.008.441.201.447.416.003.276-.328.519-.645.474zm2.739 65.055c.047-.116.168-.204.221-.262.27-.005.461.19.389.356a.49.49 0 0 1-.298.251c-.179.044-.378-.182-.312-.345zM14.11 46.35c.097-.339.356-.461.69-.328.248.099.469.221.543.51.096.37-.138.69-.51.684-.546-.011-.858-.383-.723-.866zm.612 22.494l-.176.232c-.055-.044-.16-.096-.154-.13.014-.085.077-.165.124-.251l.207.149zm-.767-16.104c-.022-.011-.025-.058-.039-.091l.094-.033c.011.03.022.063.036.094-.03.014-.069.041-.091.03zm.265 50.821c-.039.008-.16-.146-.157-.223.005-.157.119-.276.287-.24.08.016.135.135.254.267-.154.086-.262.171-.383.196zm.375-3.616c-.146.064-.276-.014-.331-.171-.066-.188.063-.394.248-.367.119.016.226.113.419.221-.157.152-.232.27-.336.317zm.954 10.373c-.232-.003-.4-.187-.397-.433.003-.309.223-.505.585-.521.278-.011.483.21.463.496-.025.276-.287.461-.651.458zm.325-4.374c-.276 0-.483-.215-.491-.51-.011-.425.303-.781.662-.745.232.022.405.27.416.588.014.402-.221.667-.587.667zm111.342-10.152c.16.025.303.138.413.193.031.29-.207.53-.416.521-.171-.005-.337-.185-.348-.372-.011-.193.147-.375.351-.342zm-.011-26.496c.041-.041.088-.074.135-.108.016.028.036.055.052.083l-.138.105c-.016-.03-.052-.075-.049-.08zm-1.12 5.362c.003.182-.201.325-.469.276-.025-.08-.097-.201-.094-.32.003-.171.138-.251.298-.243.171.008.265.124.265.287zm-2.466-34.171c.066-.017.163.088.221.124.022.215-.113.386-.243.331-.083-.036-.182-.16-.176-.24s.115-.196.198-.215zm-1.883 22.088l.151.317c-.085.039-.171.097-.259.108-.028.003-.116-.124-.102-.16.028-.083.11-.149.21-.265zm-.875 3.751c.108.055.18.182.339.35-.234.099-.377.21-.518.201-.074-.003-.19-.201-.201-.317-.017-.185.212-.323.38-.234zm-.482 28.429c.035-.083.187-.196.234-.176.113.052.196.171.254.226-.033.254-.193.367-.334.312-.165-.069-.218-.215-.154-.361zm.129 11.603c.08.121.122.267.202.455-.163.234-.309.496-.508.709-.118.126-.306.217-.48.262-.433.11-.902-.069-1.092-.384-.193-.322-.036-.899.348-1.194a1.74 1.74 0 0 1 .493-.256c.466-.149.753-.034 1.037.408zm-.367 11.953l-.187.025c.005-.061.003-.125.019-.182.003-.014.088-.028.094-.017.033.055.05.116.074.174zm-1.166-18.062c.022.008.03.058.044.088l-.075.066c-.024-.044-.046-.088-.071-.129.036-.011.074-.036.102-.025zm-.025-3.823c.047-.143.188-.257.348-.463.124.19.239.29.256.405.028.193-.066.356-.281.394-.174.03-.378-.16-.323-.337zm.905-11.33c.173.03.361.24.3.397-.058.146-.198.259-.364.461-.163-.204-.309-.32-.356-.469-.066-.204.199-.425.42-.389zm-.599-35.087c.265.003.458.177.455.405-.008.375-.27.632-.651.64-.24.005-.441-.185-.444-.419-.008-.389.24-.632.64-.626zm-.789-18.831c.083.039.13.149.24.29-.135.088-.237.19-.35.21-.063.011-.193-.108-.218-.187-.052-.182.168-.386.328-.312zm-.024 55.432c.242-.025.435.141.435.375 0 .243-.165.428-.394.439s-.436-.171-.447-.386c-.011-.221.163-.405.406-.428zm.038 23.139l1.001.094a.48.48 0 0 1 .422.447c.006.217-.135.331-.325.397-.315.11-.623.234-.943.322-.174.05-.381.086-.546.036-.158-.047-.345-.19-.398-.336-.215-.599.147-1.029.789-.96zm.64 7.662l-1.043.491c-.179.08-.402-.042-.441-.213-.049-.215.058-.386.226-.458.381-.16.778-.237 1.17-.019.025.017.03.063.088.199zm-1.873-19.701c.028-.069.185-.149.24-.127.078.033.116.16.169.24-.072.075-.111.152-.166.168-.141.039-.303-.138-.243-.281zm-1.07.745a.48.48 0 0 1-.477.507c-.209.005-.361-.193-.361-.469 0-.27.138-.483.334-.513.251-.039.501.196.504.474zm-1.089-1.867c.025-.072.149-.11.229-.163.055.08.107.163.176.267-.088.08-.16.199-.226.196-.179-.005-.229-.157-.179-.301zm-.698 14.794c.055.074.083.162.124.253l-.218.083c-.027-.091-.063-.179-.071-.27-.003-.022.154-.08.165-.066zm-.582-61.77c.075-.017.19.138.257.188-.036.265-.16.342-.315.301-.082-.022-.209-.171-.193-.204.05-.116.146-.259.251-.284zm-1.255 57.009c.249.158.549.229.808.373.169.094.279.278.182.471-.058.116-.193.238-.314.262-.215.042-.444.011-.841.011.027-.002-.122.028-.268.031-.413.008-.615-.243-.538-.648.091-.469.467-.817.971-.5zm-.496-23.952c-.155.099-.235.185-.323.199-.165.022-.292-.072-.289-.246.002-.168.121-.292.284-.245.11.027.19.163.328.292zm-1.222 13.351c.097-.025.221.022.323.061.185.069.356.207.273.408-.058.141-.246.229-.389.353-.174-.097-.328-.141-.417-.243-.085-.097-.171-.276-.135-.375s.215-.171.345-.204zm.075-33.688c.179.036.242.179.198.32-.036.113-.157.199-.298.361-.121-.176-.237-.276-.259-.392-.036-.182.171-.328.359-.29zm.482 32.315c-.105.19-.447.234-.604.113-.165-.13-.226-.325-.149-.502.166-.375.359-.739.563-1.098.05-.088.171-.141.267-.199.196-.119.502.036.522.317 0 .017.024.102-.003.163-.193.405-.378.814-.596 1.205zm-.099-30.153c-.006-.006.036-.052.058-.08l.138.116c-.02.028-.042.055-.061.083-.047-.036-.096-.075-.135-.119zm-.353-29.116c.019-.005.121.124.105.16-.033.088-.113.16-.218.295-.072-.149-.168-.262-.141-.312.039-.074.16-.116.254-.143zm-.019 14.394c.057.097.204.234.22.383.031.284-.226.485-.507.461-.182-.017-.345-.204-.331-.386.019-.281.248-.485.618-.458zm.052 6.283c.273.017.494.127.654.358.295.427.171.803-.318.921-.107.025-.217.041-.292.055-.472.022-.783-.32-.753-.789.019-.325.328-.565.709-.546zm-.728 39.254c.008.246-.177.463-.386.455-.381-.017-.654-.24-.704-.582-.033-.223.141-.406.409-.422.411-.028.67.182.681.549zm-.552-1.95c.061.177-.129.367-.391.364-.05-.066-.163-.16-.204-.281-.061-.177.124-.389.308-.345a.48.48 0 0 1 .287.262zm-3.265-50.167l.102.152-.088.171c-.05-.036-.149-.088-.144-.105.031-.077.086-.146.13-.218zm-1.354 67.132c.146-.055.292-.028.35.157.014.179-.077.287-.248.298-.16.011-.309-.061-.304-.237 0-.075.113-.185.202-.218zm-.337 3.226c-.03-.024-.016-.151.017-.204.121-.176.427-.201.587-.046.044.041.047.129.086.256-.108.061-.224.179-.342.182s-.246-.102-.348-.188zm.287 7.064l-.24.22c-.052-.077-.127-.146-.152-.231-.011-.039.086-.158.108-.149.085.024.163.085.284.16zm-.604-100.484c.044.047.13.102.121.138-.011.058-.085.105-.135.154-.049-.055-.135-.11-.127-.146.017-.055.091-.096.141-.146zm.017 64.343c.088-.03.226.097.438.201-.168.16-.248.292-.358.328-.152.05-.318-.052-.309-.215.005-.116.124-.281.229-.314zm-3.63 37.418c-.369-.287-.477-.781-.292-1.211.149-.345.684-.516 1.078-.323.452.221.643.623.665 1.098.005.127-.088.292-.188.386-.16.152-.361.259-.618.436-.264-.155-.468-.251-.645-.386zm.538 5.899c-.003.276-.072.524-.323.676-.209.126-.587.104-.744-.053-.174-.174-.202-.4-.147-.629.025-.107.075-.215.136-.306.154-.24.463-.375.673-.306.237.077.402.331.405.618zm-.659-33.372c.107-.295.367-.381.747-.317.37.064.596.24.643.524.025.146.027.298.033.361-.022.899-.69 1.28-1.39.852-.135-.083-.27-.306-.259-.455.024-.328.113-.656.226-.965zm-.066-23.98c.041.014.082.03.137.05-.046.016-.085.044-.104.033s-.022-.055-.033-.083zm.03 32.638c.212-.036.425.143.455.46-.052.055-.124.193-.234.24-.191.08-.455-.093-.511-.295-.041-.143.122-.375.29-.405zm.234 1.737c.056-.069.21-.124.282-.094.113.05.19.174.328.309-.168.08-.259.16-.35.16-.213-.002-.37-.237-.26-.375zm1.043-2.893c-.008-.22.193-.391.444-.378.292.014.477.218.408.522-.033.143-.19.256-.259.342-.381-.02-.585-.216-.593-.486zm.416-78.919c-.209.008-.361-.221-.336-.474.016-.166.124-.27.292-.254.215.022.35.229.339.571-.071.041-.182.154-.295.157zm.199 69.608c.038.036.069.08.102.121l-.075.05-.102-.127c.028-.014.069-.05.075-.044zm.849-7.949c-.215-.033-.314-.19-.375-.375-.063-.193-.033-.372.124-.516.025-.025.069-.028.105-.044.072.008.16-.005.215.028a.64.64 0 0 1 .312.568.38.38 0 0 1-.381.339zm.334 5.091c.008.022-.016.058-.025.088-.03.003-.06.003-.091.005.014-.047.025-.094.039-.143.027.017.069.025.077.05zm-.438 28.015c.16.122.256.329.33.428-.024.389-.273.615-.529.582-.43-.053-.725-.45-.651-.891.011-.066.058-.149.116-.185.259-.171.524-.094.734.066zm-.9 6.479c.025-.055.102-.086.169-.135.311.096.598.242.703.593.011.036-.102.154-.113.149-.257-.124-.51-.254-.753-.4-.036-.022-.033-.149-.006-.207zm.668-.999l1.001-.609c.317.047.251.334.328.521.075.177.08.367-.085.51s-.348.138-.519.047c-.218-.118-.416-.267-.725-.469zm1.1-44.604c.039.254-.171.494-.449.521-.218.022-.455-.193-.439-.4.02-.237.262-.458.527-.477.152-.011.331.165.361.356zm-.344-16.964c-.149.4-.232.778-.166 1.203.019.124-.072.284-.152.4-.118.168-.449.24-.609.16-.226-.11-.361-.312-.312-.543.053-.245.196-.474.323-.764-.058-.163-.149-.367-.204-.579-.102-.394.116-.676.507-.678.508-.005.792.323.613.803zm-1.302-41.527a.4.4 0 0 1 .391.438c-.005.279-.204.494-.468.513s-.467-.221-.439-.51c.025-.295.229-.466.516-.441zm-.67 47.74c.129.265.187.563.292.891-.113.232-.185.497-.35.676-.213.232-.527.323-.833.177s-.419-.447-.395-.758c.022-.298.102-.596.188-.885.072-.243.287-.35.518-.381.24-.028.475.069.58.281zm-1.046-18.798c.014-.127.111-.243.196-.411.141.11.254.157.29.24.063.149.011.295-.149.367-.135.063-.353-.052-.337-.196zm.061-25.919c.281-.014.524.27.513.593-.011.309-.251.51-.598.508-.301-.003-.519-.188-.524-.45a.64.64 0 0 1 .609-.651zm-.513 92.761c.29-.008.546.251.574.579.025.295-.246.563-.571.566-.301.002-.566-.26-.577-.577-.011-.298.251-.56.574-.568zm-1.291-2.239c.427.024.725.317.723.711-.003.295-.273.521-.621.521-.397-.002-.692-.242-.709-.579-.022-.38.251-.673.607-.653zm-.974-2.844c.003-.278.243-.496.505-.458.339.05.524.276.502.61-.017.243-.204.414-.436.397-.348-.022-.574-.24-.571-.549zm1.351-26.457c.118.025.218.13.403.248-.16.141-.243.259-.35.295-.144.05-.279-.022-.326-.188-.052-.177.097-.392.273-.356zm-.091 3.321c.248.005.416.188.392.427-.022.226-.21.389-.45.389s-.403-.179-.386-.433c.017-.234.19-.389.444-.383zm-1.227-18.909c-.364.008-.598-.265-.579-.673.014-.267.243-.441.557-.422.35.022.546.245.524.596-.022.309-.204.494-.502.499zm.4-6.503c.003.05-.072.102-.113.152-.055-.028-.11-.058-.163-.085l.152-.21c.044.05.121.094.124.143zm-.565-44.133l-.008.055-.058-.036.066-.019zm-.436 4.049c.025-.149.163-.281.221-.375.306-.041.53.143.53.364 0 .21-.119.336-.32.375-.234.041-.469-.138-.43-.364zm.086 72.421c.058.113.149.212.146.309 0 .254-.022.513-.077.761-.017.08-.157.182-.251.193-.246.028-.497.008-.709.008-.234-.419-.306-.781-.039-1.114.254-.312.598-.221.929-.157zm.005 26.203c-.221.155-.345.301-.488.328-.246.047-.455-.168-.414-.377s.207-.32.4-.271c.149.036.276.171.502.32zm-1.296-21.479c.107-.025.221-.028.29-.036.342.014.585.212.576.444a.57.57 0 0 1-.554.57 1.31 1.31 0 0 1-.331-.027.47.47 0 0 1-.375-.48.49.49 0 0 1 .394-.472zm-.237-8.922l.091-.033c.011.03.039.069.03.091s-.058.025-.088.036c-.011-.033-.022-.064-.033-.094zm.521-80.668c.19.006.367.204.337.375-.03.179-.259.364-.411.29-.116-.058-.234-.19-.273-.312-.052-.171.157-.359.347-.353zm-1.183 10.602c.596-.077 1.081.248 1.18.797.019.11.022.226.028.29-.019.734-.494 1.128-1.117.946-.165-.05-.356-.174-.436-.32-.121-.223-.196-.491-.223-.748-.058-.529.188-.916.568-.965zm.32 96.752c.005.254-.16.444-.394.458-.245.017-.452-.152-.472-.383-.022-.287.19-.53.461-.527.229.003.4.196.405.452zm-.259-13.638c-.044.425-.557.899-.899.833-.353-.069-.676-.54-.64-.938.033-.383.392-.706.75-.681.43.031.825.425.789.786zm-2.824-9.468a.5.5 0 0 1-.11-.847c.229-.215.494-.342.921-.356.135.097.367.221.538.403.077.08.088.312.028.414-.279.477-.907.64-1.376.386zm.146 10.028c-.11.083-.19.188-.259.182s-.185-.121-.185-.19.116-.188.185-.188.149.105.259.196zm.51-17.692c.113.003.221.105.419.21-.171.152-.265.301-.359.301-.099 0-.251-.124-.287-.229-.055-.152.069-.287.226-.281zm.855-51.941c.05.025.063.119.091.182l-.154.124-.127-.251c.066-.022.146-.077.19-.055zm-.439-22.839c.047.025.055.119.08.182l-.174.099-.099-.243c.066-.014.149-.061.193-.039zm-.127 51.908c.039.262-.119.483-.339.477-.229-.005-.416-.179-.447-.419-.03-.234.138-.466.353-.485.21-.014.397.171.433.428zm-.667-7.573c.014-.036.025-.075.044-.124.016.044.025.069.033.094-.025.011-.05.022-.077.03zm.08 4.967l-.077.028.014-.086.064.058zm.116-9.344c.036-.036.08-.063.119-.096l.05.075-.121.091c-.017-.022-.052-.066-.047-.069zm.204-18.478c-.003.306-.199.496-.496.477-.223-.014-.372-.196-.378-.472-.005-.248.16-.403.433-.405.265.003.444.163.441.4zm-.899-7.537c.066-.011.152.102.212.143-.008.218-.105.32-.267.279-.069-.017-.166-.157-.152-.221a.31.31 0 0 1 .207-.201zm-.794 41.891c.063-.033.143-.036.215-.055.29.039.485.201.571.474.083.259.108.527-.127.728a.62.62 0 0 1-.301.141c-.27.036-.557-.201-.651-.516-.096-.32.019-.637.292-.772zm-.706 6.048c.028-.342.259-.577.56-.565.331.011.554.303.535.709-.014.325-.246.552-.568.554-.345.003-.557-.281-.527-.698zm-.397 17.491c.149-.513.651-.913 1.059-.85.463.072.899.64.888 1.161-.008.474-.579 1.007-1.053.985-.513-.025-.987-.571-.932-1.076.008-.075.017-.149.039-.221zM88.9 47.765c.014-.223.221-.411.45-.408.328.003.579.223.607.535.022.267-.207.469-.513.45-.347-.022-.563-.248-.543-.576zm.463 43.612l-.083.03.014-.091.069.061zm-.921-48.695c.339.022.648.408.643.808-.003.276-.32.496-.667.466s-.576-.32-.576-.723c0-.309.287-.571.601-.552zm-.135-1.533c.066-.262.201-.485.48-.574.237-.077.568.069.772.334.234.306.193.621.047.949-.141.309-.394.427-.703.466-.074-.025-.16-.03-.21-.075-.314-.301-.496-.656-.386-1.1zm.005 11.319c.4-.006.725.392.623.896-.138.695-.849 1.059-1.459.747-.452-.232-.565-.758-.234-1.133.254-.287.546-.513 1.07-.51zm.783 33.713l.143.218c-.063.025-.138.08-.188.063s-.072-.105-.108-.163c.05-.041.099-.08.152-.119zm-.833-65.99c.292-.187.612-.287.965-.229.571.091.858.681.596 1.197-.232.455-.604.648-1.15.654-.325-.006-.643-.21-.742-.513-.143-.422-.005-.891.331-1.109zm-.651 3.671c.323.022.568.262.587.574.022.342-.201.612-.513.615a.6.6 0 0 1-.645-.626c.003-.325.262-.585.571-.563zm.245 50.862c.364.028.577.339.554.921-.036.083-.072.276-.185.408-.171.201-.411.328-.695.254s-.422-.284-.491-.552c-.019-.072-.028-.146-.03-.221-.008-.502.356-.849.847-.811zm-1.539 18.244c-.022.254-.215.436-.425.4a.48.48 0 0 1-.37-.579c.05-.221.229-.268.422-.262.248.011.394.19.372.441zm.309 2.011a.96.96 0 0 1 .769.725c.091.425-.033.825-.245 1.178-.077.127-.314.154-.328.16-.78.138-1.318-.954-1.051-1.47.204-.397.502-.643.855-.593zm-.841 8.274c.527-.091 1.012-.292 1.487-.532.063-.033.163-.058.218-.03.127.066.29.146.331.259.039.105-.017.339-.102.383-.419.215-.745.469-.916.943-.138.378-.546.345-.888.348h-.113c-.27-.011-.538-.036-.654-.342-.121-.317.017-.673.339-.877.091-.061.19-.132.298-.152zm1.296-22.858c-.017.281-.254.494-.532.425a.47.47 0 0 1-.29-.284c-.055-.254.201-.491.474-.491.199 0 .359.163.348.35zm-.852-49.776c.019-.077.174-.185.243-.171.124.028.303.116.328.215.091.367 0 .72-.221 1.2-.394-.455-.452-.836-.35-1.244zm-.08 11.073c.011.03.039.069.03.091s-.058.025-.088.036c-.011-.03-.039-.069-.03-.091s.058-.022.088-.036zm.008 29.524c.27-.028.513.193.521.552-.094.066-.218.221-.364.245-.298.05-.552-.185-.513-.433.028-.199.141-.345.356-.364zm-1.39-24.86c.052-.306.323-.513.637-.494.267.017.48.259.458.527-.025.314-.289.576-.574.563-.306-.014-.571-.314-.521-.596zm.408 29.775c.182.16.267.375.201.609-.072.265-.226.48-.516.546-.108.025-.223.019-.356.03-.13-.033-.284-.052-.414-.119a.45.45 0 0 1-.207-.248.96.96 0 0 1 .337-.905c.221-.154.72-.119.954.085zm-1.928-6.023c.058-.199.207-.29.414-.279s.35.152.339.345-.163.342-.353.342c-.24.005-.458-.21-.4-.408zm.116 37.037c-.085-.031-.19-.144-.196-.226-.005-.075.11-.16.193-.271.105.091.215.141.254.224.058.138-.11.322-.251.273zm.188-65.124c.535-.019.913.358.91.907-.003.557-.37.99-.847 1.001-.499.014-.869-.317-.896-.8-.036-.648.295-1.089.833-1.109zm-.825 78.627c.157-.031.339.132.37.325s-.085.361-.287.395c-.165.027-.287-.047-.342-.202-.077-.223.058-.482.259-.518zm-.714-109.8c.028.052.064.105.083.16.005.017-.055.072-.061.069-.052-.03-.097-.072-.146-.108l.124-.121zm-.502 9.766c.284-.003.477.196.477.494 0 .273-.221.472-.51.455-.237-.014-.397-.182-.411-.436-.019-.301.163-.51.444-.513zm-.248 110.812c-.32.011-.535-.152-.552-.417-.019-.27.182-.468.488-.485s.532.154.552.419c.019.276-.179.472-.488.483zm.59.918c.022.097.011.213-.025.306-.022.058-.11.13-.168.127-.132-.005-.306-.014-.383-.094-.119-.124-.033-.286.097-.377.083-.058.199-.069.284-.097.083.052.185.083.196.135zm-1.216-12.397c-.212-.074-.251-.281-.201-.444.055-.179.207-.331.312-.488.13.069.215.086.248.138.163.27.102.563-.157.764-.047.036-.143.05-.201.03zm.985-25.627c-.022.29-.218.466-.505.461s-.469-.187-.48-.485c-.011-.331.182-.543.524-.576.295-.028.488.226.461.601zm-.328-64.117c-.055-.08-.119-.154-.157-.24-.005-.014.102-.077.193-.146.044.094.102.174.116.262.005.036-.099.083-.152.124zm-.822 11.854c.039-.279.251-.458.53-.438.262.019.458.257.439.53a.51.51 0 0 1-.601.488c-.267-.044-.408-.267-.367-.579zm-.428 71.859c.028.267-.174.471-.472.479-.317.011-.519-.151-.529-.424-.014-.284.177-.48.472-.488.303-.009.502.151.529.433zm-.833 24.934a.43.43 0 0 1 .389.461c-.041.237-.248.416-.557.397-.075-.08-.254-.19-.298-.339-.069-.237.218-.519.466-.519zm-.154-7.656c-.008-.019.022-.055.036-.083.028.014.058.031.085.045-.014.027-.025.057-.039.085-.03-.014-.074-.022-.083-.047zM79.024 2.085c.039-.011.102.058.19.116l-.204.185c-.036-.052-.105-.105-.102-.154a.21.21 0 0 1 .116-.146zm-.902 46.135c.028-.223.243-.394.474-.375.35.028.626.358.571.69-.041.251-.323.474-.56.45-.317-.039-.532-.372-.486-.764zm-.56 19.695c.411-.011.792.337.822.753a.57.57 0 0 1-.549.582c-.466-.019-.808-.331-.819-.745-.008-.312.243-.582.546-.59zm-.874-37.139l.033.074c-.017.019-.033.041-.05.061l.017-.135zm-.88-29.022c.157-.11.361-.141.499.014.08.091.143.295.094.381-.097.171-.276.292-.408.422-.124-.066-.204-.085-.245-.135-.171-.196-.146-.538.061-.681zm.656 53.921c-.017.32-.19.516-.411.535-.174.017-.353-.185-.326-.361.039-.24.226-.419.458-.378.116.025.212.154.279.204zm-1.409-.629c.141.041.24.223.314.295-.019.43-.267.678-.574.648a.38.38 0 0 1-.367-.356c-.041-.345.301-.681.626-.587zm-1.236 49.116c.03.284-.138.549-.389.58-.215.027-.347-.108-.422-.287-.096-.24.052-.497.334-.607.212-.08.452.074.477.314zm-.141 24.684c-.017.182-.182.295-.411.268-.154-.02-.284-.083-.295-.265-.011-.188.141-.328.353-.334.201-.005.37.152.353.331zm-.902-98.302c-.055-.039-.16-.083-.207-.16-.072-.121.05-.336.19-.328.088.005.201.077.248.152.077.127-.036.303-.232.337zm.132-29.061c.21.011.381.165.381.339 0 .279-.226.507-.499.505a.45.45 0 0 1-.438-.427c-.006-.256.229-.433.557-.416zm-.563 32.627c.025-.05.116-.069.199-.116.075.055.185.099.237.179.105.16.127.353-.019.499-.052.052-.221.061-.281.017-.201-.143-.234-.358-.135-.579zm-1.451 38.134c.43-.347.662-.786.838-1.299.267.017.507-.017.709.055.458.171.568.695.204.996-.143.119-.279.248-.392.35v.993c-.337.017-.632.072-.921.041-.496-.05-.816-.83-.439-1.136zm-1.368 12.427c.028.014.069.022.077.044s-.022.052-.036.08c-.028-.014-.055-.03-.08-.044.014-.028.025-.055.039-.08zm.419 11.537c.008.223-.251.441-.458.345-.262-.124-.527-.273-.725-.477-.088-.091-.066-.353-.014-.507.063-.185.265-.259.463-.221.43.08.717.425.734.861zm-.769 1.682l-.099.108c-.014-.028-.041-.055-.039-.083 0-.022.036-.041.055-.063.028.014.055.025.083.039zm-2.885-17.706c-.116-.312-.188-.648-.237-.976a.45.45 0 0 1 .502-.474c.621.143 1.252.276 1.746.723.301.273.356.596.185 1.029-.182.461-.405.632-.825.634-.725 0-1.114-.248-1.371-.935zm.871 42.676c-.025.009-.05.014-.075.022l.05-.107c.011.027.017.055.025.085zm.334-49.417c.025.058-.141.251-.257.298-.166.072-.394-.116-.378-.309.011-.121.124-.234.235-.433.185.193.339.298.4.444zm-.108-1.727l.174-.074c.036.047.105.102.094.138-.014.052-.083.088-.13.132l-.138-.196zm.656-4.752c.014-.193.176-.348.361-.342.196.005.331.154.331.364s-.099.353-.301.405-.408-.185-.392-.427zm.019 35.007l-.163.184c-.069-.063-.143-.124-.196-.198-.008-.011.099-.144.124-.135.085.024.154.091.234.149zm-.521 15.4a.5.5 0 0 1 .565-.403c.235.047.43.262.411.455-.025.24-.287.417-.582.392-.237-.022-.428-.237-.394-.444zm.637-31.656c-.05-.215.127-.45.356-.472.281-.025.519.149.565.414.03.171-.113.353-.312.394-.295.058-.549-.08-.609-.337zm-.077-33.865c.05-.033.143-.005.317-.005.119.041.331.102.535.185.193.077.298.223.251.436-.047.207-.314.378-.519.323-.248-.069-.505-.146-.723-.273-.096-.058-.176-.262-.154-.375s.177-.212.292-.29zm-.502-11.768c.044.063.176.176.165.267-.017.11-.146.27-.245.287-.094.014-.259-.105-.309-.207-.077-.163.105-.345.389-.347zm-.052 23.299c.143-.083.447.05.452.119 0 .149.019.229-.003.292-.185.524-.56.871-1.053 1.1-.055.025-.171.011-.207-.03-.066-.08-.154-.207-.132-.287.138-.53.466-.924.943-1.194zm-1.073-28.732c.055.069.188.166.21.284.036.176-.119.259-.279.259s-.287-.097-.29-.27.108-.265.358-.273zm-.182 35.6c.336-.019.607.292.59.681-.014.328-.279.576-.59.554-.298-.019-.56-.314-.546-.612.011-.312.27-.607.546-.623zm-.086 43.879c.331-.039.626.184.64.485.017.342-.273.648-.629.662-.295.011-.601-.276-.598-.56.006-.278.276-.551.587-.587zm.309 2.457c-.152.006-.306-.055-.295-.226.008-.116.113-.224.229-.428.141.171.259.254.287.362.033.143-.041.286-.221.292zm-.199 22.155c.116.08.223.218.259.35.077.29.108.59.143.811-.063.521.022 1.081-.519 1.233-.452.129-.725-.315-1.012-.604-.13-.133-.248-.287-.345-.447-.254-.419-.204-.822.121-1.131.397-.367.987-.472 1.351-.212zm-1.357-68.809c0 .287-.124.513-.361.667-.124.08-.27.135-.411.185-.301.105-.593.13-.836-.132-.229-.245-.245-.546-.174-.849.108-.447.651-.767 1.158-.701.353.047.626.411.623.83zm-1.895-26.487c.193-.132.295-.254.411-.27.16-.022.284.099.279.273-.005.166-.119.301-.281.279-.116-.017-.215-.144-.408-.281zm1.302 14.992c.028-.058.039-.146.083-.165.039-.017.11.041.168.066-.028.058-.041.146-.083.163s-.11-.039-.168-.064zm.281-9.134c.008.036-.003.074-.003.11-.041.061-.069.152-.127.174-.099.041-.218.066-.325.055-.273-.025-.507-.232-.444-.408a.54.54 0 0 1 .298-.29c.292-.08.549.091.601.359zm-.888-40.095c.267-.083.472.039.51.265.033.196-.102.381-.29.392-.223.014-.463-.163-.502-.439.072-.058.163-.179.281-.218zm-1.831-1.884c.314-.37.756-.477 1.227-.301.212.08.323.325.254.56-.121.397-.45.596-1.015.587-.075-.022-.187-.041-.29-.083-.284-.113-.375-.53-.177-.764zm1.125 19.736l-.08.19-.232-.138c.047-.052.088-.132.143-.143.047-.014.113.055.168.091zm-.946 35.462c.033.176-.116.35-.325.381-.199.028-.353-.099-.381-.317-.028-.223.08-.439.232-.458.199-.025.433.171.474.394zm-.405 4.562c0 .32-.182.546-.53.618-.143.03-.309.052-.438.003-.119-.044-.259-.171-.29-.29-.127-.502.124-.808.623-.808.397 0 .634.179.634.477zm-.237-53.397c.044.036.077.083.113.127l-.163.072c-.011-.052-.03-.105-.03-.157 0-.016.069-.05.08-.041zm-.971 8.66c.044-.017.188.097.207.168.039.152-.052.287-.212.29-.077.003-.16-.097-.309-.199.13-.113.21-.221.314-.259zm-3.79 9.592c.152.138.24.345.309.45-.014.601-.348.976-.814 1.018-.21.019-.461-.154-.513-.356-.113-.436.03-.844.394-1.076.196-.124.433-.207.623-.036zm.571 37.426c.323-.008.681.337.665.643-.014.257-.292.499-.543.469-.292-.036-.593-.314-.621-.579-.022-.218.265-.527.499-.532zm-2.193 17.323a.5.5 0 0 1 .4.576c-.041.188-.309.419-.502.364-.422-.121-.833-.287-1.241-.45-.041-.017-.077-.144-.058-.196.036-.094.102-.226.182-.248.212-.061.436-.072.601-.094.245.017.436.019.618.047zm-.549-7.309c-.019-.234.174-.441.397-.425s.403.212.403.538c-.085.066-.201.218-.35.257-.226.058-.428-.135-.45-.37zm.554-26.471c-.163-.292-.155-.579.022-.858.196-.309.466-.485.849-.452.292.025.474.287.455.67-.025.541-.221.819-.659.932a.56.56 0 0 1-.667-.292zm.19-22.51c.05-.116.16-.221.268-.287.03-.019.149.108.204.149.003.262-.168.447-.328.378-.072-.03-.168-.188-.143-.24zm.985 27.072c.028-.063.152-.096.24-.11a.22.22 0 0 1 .099.152c-.039.08-.119.141-.218.251-.061-.132-.146-.237-.121-.292zm-.941-50.603c.011-.006.116.124.102.146-.05.077-.127.132-.201.201-.061-.085-.135-.179-.127-.188a.77.77 0 0 1 .226-.16zm-.419 10.395c.174-.061.367-.088.554-.094.433-.011.764.251.825.623a.88.88 0 0 1-.634.949c-.11.028-.223.028-.312.036-.102-.006-.176-.008-.251-.017-.386-.055-.692-.306-.742-.604-.058-.339.199-.767.56-.893zm-.673 33.951c.022.171-.108.245-.262.24-.058-.003-.165-.083-.16-.102.03-.116.091-.221.163-.386.132.121.248.176.259.248zm-.888-17.086a.7.7 0 0 1 .687.717c0 .369-.281.643-.632.609-.339-.033-.541-.292-.546-.709-.006-.358.204-.623.491-.618zm-.394 36.529c.157-.187.37-.232.604-.185.243.05.389.212.438.444.03.143.069.312.019.436-.063.154-.185.342-.328.394-.353.13-.723.091-1.076-.044-.063-.43.099-.753.342-1.045zm-.527-34.924l.13.121c-.05.033-.096.075-.149.096-.014.005-.074-.052-.072-.061.022-.055.058-.105.091-.157zm-.419 62.236c.025-.047.108-.061.166-.088.039.05.08.099.119.146l-.24.113c-.017-.058-.066-.132-.044-.171zm-1.255-63.019c.262-.003.483.221.499.507a.52.52 0 0 1-.477.524.52.52 0 0 1-.502-.502c.003-.273.234-.527.48-.529zm-1.238 72.095c-.411-.011-.692-.333-.645-.747.077-.695.477-1.065 1.089-1.018.378.031.629.276.654.64.052.668-.411 1.142-1.098 1.125zm1.092 6.964c-.011.323-.265.588-.552.571s-.56-.411-.513-.742c.03-.218.298-.369.615-.347.281.019.461.223.45.518zm-.433-57.062c.119.025.221.141.287.188.011.27-.152.444-.342.436a.27.27 0 0 1-.284-.273c-.014-.187.163-.389.339-.35zm-.532-11.686c-.077-.011-.196-.135-.193-.207s.121-.187.201-.201c.061-.011.146.11.256.204-.113.091-.199.212-.265.204zm-.364-14.209c.039-.113.174-.196.317-.345.157.185.303.298.367.447s-.176.32-.375.287c-.193-.033-.367-.218-.309-.389zm-.342 15.257c.039-.116.168-.259.276-.279.083-.014.199.143.35.268-.13.149-.199.29-.309.336-.157.072-.378-.149-.317-.325zm-.083 39.748c.061-.193.312-.32.557-.237.113.039.199.171.257.226-.039.345-.234.521-.452.488-.232-.039-.422-.287-.361-.477zm-1.969-68.753c.022-.083.176-.212.215-.196.113.05.199.163.317.273-.11.132-.16.245-.245.281-.157.069-.342-.149-.287-.359zm-.149 7.025c.394.107.565.328.527.728-.039.408-.21.64-.585.72-.254.055-.527.113-.772.066-.193-.036-.397-.199-.527-.361-.163-.207-.025-.43.113-.61.312-.411.681-.695 1.244-.543zm.27 85.246c.281-.023.472.154.496.463a.44.44 0 0 1-.436.516c-.284.011-.494-.18-.505-.461-.014-.292.163-.499.444-.518zm-.582-38.165c-.028-.072.033-.232.102-.276s.229-.027.29.028c.127.113.212.273.323.422-.094.119-.143.215-.223.273-.044.033-.171.03-.201-.008-.113-.135-.226-.279-.29-.439zm-.507-14.92c.028.251-.226.499-.494.48-.223-.014-.414-.215-.419-.441-.006-.221.19-.408.433-.416.226-.008.455.174.48.378zm-.626-51.913c.072-.006.154.105.273.199-.119.091-.204.204-.276.196-.077-.008-.143-.127-.212-.199.072-.072.138-.19.215-.196zm.066 22.047c.226-.017.444.152.472.367.033.267-.166.494-.45.513-.226.014-.433-.149-.472-.37-.044-.256.163-.488.45-.51zm-5.11 33.501c-.086.306-.268.524-.656.681-.411-.146-.803-.265-1.175-.427a.48.48 0 0 1-.251-.328c-.011-.116.097-.328.193-.353.461-.13.929-.248 1.404-.295.345-.033.582.375.485.722zm-.527 45.854c-.005.179-.177.35-.361.356s-.35-.166-.353-.356a.37.37 0 0 1 .356-.353c.188 0 .364.174.358.353zM38.11 46.201c.234.199.312.565.157.822-.187.312-.458.496-.91.508-.4.017-.7-.408-.488-.844.096-.196.245-.383.408-.53.221-.201.587-.163.833.044zm-.695-14.314c-.276-.022-.521-.243-.532-.48s.248-.485.51-.483c.279.005.455.221.433.529-.019.256-.201.45-.411.433zm.819 4.738c.047-.028.091-.061.141-.083.005-.003.055.055.047.072-.019.05-.058.094-.088.141-.03-.044-.066-.086-.099-.13zm-1.197 48.187c.328-.171.662-.177.965.039.108.077.157.237.199.303-.022.461-.419.786-.794.695-.174-.044-.347-.146-.488-.265-.234-.199-.157-.632.119-.772zm.728 2.055c.4-.014.709.215.714.535.008.452-.372.803-.874.805-.389 0-.643-.24-.64-.607.005-.444.303-.717.8-.734zm.394-78.412c.138-.061.381-.022.508.069a1.08 1.08 0 0 1 .403.513c.124.392.188.805.254 1.211.033.207-.248.447-.455.372-.201-.075-.436-.174-.557-.336-.295-.4-.433-.871-.425-1.462.066-.091.135-.306.273-.367zm-.791 12.648c.303.047.507.306.496.634-.011.348-.331.618-.67.574-.251-.033-.447-.29-.43-.557.022-.392.306-.695.604-.651zm-.816 13.853c.474.063.838.405.816.767-.025.405-.348.667-.767.62-.414-.047-.698-.419-.676-.883a.58.58 0 0 1 .626-.505zm-1.285 6.752c.157.017.323.237.309.414-.017.229-.215.408-.543.403-.069-.083-.24-.201-.27-.345-.047-.248.257-.499.505-.472zM31.43 21.97c.287.003.527.276.529.607.003.301-.254.543-.582.554a.48.48 0 0 1-.513-.472c-.011-.403.226-.692.565-.689zm.05 35.156a.57.57 0 0 1 .601.516c.011.243-.207.461-.494.494-.35.039-.626-.143-.659-.433-.03-.27.232-.546.552-.576zm-.53-24.267c.022-.182.273-.314.524-.281s.419.221.394.436c-.022.21-.248.386-.466.37-.254-.019-.48-.281-.452-.524zm-.472 32.941c.218-.105.447-.091.645.044.331.226.508.546.518 1.056-.058.116-.124.334-.262.496-.204.245-.598.223-.8-.011-.254-.295-.414-.632-.408-1.026.003-.234.075-.45.306-.56zm-.301 19.165l-.014.085-.064-.058.077-.028zm-.819-60.27c.064-.017.16.091.218.127-.011.218-.085.353-.265.323-.069-.011-.168-.16-.157-.234.014-.083.119-.193.204-.215zm.168 66.776l-.141.154c-.055-.03-.149-.055-.16-.097-.011-.052.044-.124.069-.185l.232.127zm-1.955-25.337c-.008.074-.006.152-.03.221-.102.287-.35.469-.59.419-.21-.044-.314-.201-.323-.405-.014-.339.201-.599.507-.637a.4.4 0 0 1 .436.403zm-.75-20.539c.21-.025.37.174.356.444-.014.279-.16.444-.381.436a.42.42 0 0 1-.386-.436.49.49 0 0 1 .411-.444zm-.174 23.909c.215-.226.463-.389.75-.392.508.019 1.02.411 1.048.769.025.345-.306.734-.758.877-.143.044-.295.086-.441.086-.375 0-.634-.207-.814-.524-.132-.229-.044-.546.215-.816zm1.186 15.715c.276-.003.505.276.505.615 0 .312-.234.552-.557.568-.295.017-.552-.171-.565-.411-.022-.422.257-.77.618-.772zm-.408-11.743c.003-.061.025-.119.041-.179.061.028.124.052.185.08-.044.05-.083.102-.132.141-.017.011-.097-.028-.094-.041zm-5.61-2.171c.077.005.152.113.262.207-.108.08-.19.185-.254.176-.077-.011-.182-.121-.188-.196-.005-.064.119-.193.179-.188zm-.077 12.764c.152-.066.334.113.345.353-.044.052-.094.16-.174.196-.152.069-.337-.102-.326-.312.003-.085.077-.204.154-.237zm-1.373-57.479c.177.036.364.016.43.096a5.81 5.81 0 0 1 .571.836c.135.234.027.557-.196.695s-.582.13-.739-.039a.49.49 0 0 1-.138-.295c.011-.405.044-.814.072-1.293zm-1.247 14.259c.141-.433.516-.64.913-.764.298-.094.621.017.825.245.135.152.157.405.19.505.003.411-.127.623-.383.758-.604.323-1.18.204-1.467-.317-.066-.121-.118-.303-.077-.427zm.427 7.355l-.132.13c-.025-.055-.058-.108-.069-.166-.006-.019.055-.077.058-.074.05.036.096.074.143.11zm-.166 2.981c.254-.005.472.237.455.505-.011.174-.193.306-.394.287a.41.41 0 0 1-.397-.43c.003-.182.165-.356.336-.361zm.099 16.829c.215-.008.4.21.386.452-.017.292-.232.529-.472.524-.212-.005-.403-.223-.394-.458.008-.27.226-.508.48-.519zm-.168 2.488c.306.003.549.262.546.582-.003.35-.27.626-.632.648-.243.014-.444-.218-.452-.529-.011-.422.201-.703.538-.701zm-1.401-8.177c.221 0 .331.121.367.337.017.179-.13.375-.292.392a.44.44 0 0 1-.436-.403c-.005-.179.16-.325.361-.325zm-.783 3.663c.028-.16.138-.251.306-.257.21-.005.353.124.367.416-.058.052-.143.185-.256.215-.229.069-.455-.149-.416-.375zm.64 14.187c-.058.047-.13.146-.218.163-.165.033-.295-.066-.27-.24.011-.08.124-.19.207-.21.165-.036.267.063.281.287zm-.394 18.134c-.182-.011-.35-.221-.301-.389.058-.19.171-.326.48-.312.05.061.182.152.212.27.055.212-.176.441-.392.43zm1.098-12.16c-.499.047-.805-.199-.838-.681-.003-.039-.003-.075-.005-.113.014-.309.052-.618.389-.747.259-.102.546-.088.731.132.138.16.232.386.27.596.085.472-.135.772-.546.814zm.43-8.081c-.069-.072-.196-.143-.196-.218s.116-.157.212-.273c.083.116.193.204.185.276-.011.08-.13.146-.201.215zm1.867 26.741c-.055.51-.356.813-.772.783-.516-.039-.825-.389-.786-.894.039-.499.394-.797.916-.755.45.03.695.364.643.866zm-.185-48.62c-.132-.108-.24-.273-.303-.433-.083-.207.141-.452.466-.422.094.072.298.171.414.334.105.143.091.358-.072.499-.154.132-.356.138-.505.022zm.96 44.425c-.248-.058-.372-.235-.419-.472-.064-.317.025-.598.254-.675.121-.041.339-.033.405.047.16.19.257.436.323.557-.003.38-.303.604-.563.543zm1.387-24.168c-.348.281-.951.085-1.128-.337-.226-.535.113-1.285.67-1.467.069-.022.146-.025.218-.036.543.008.979.723.725 1.244-.107.223-.29.436-.485.596zm.687 25.059c-.204-.072-.27-.24-.259-.439.011-.187.201-.317.394-.292.207.027.342.185.32.375-.028.24-.259.427-.455.356zm.56-42.398c-.061.193-.182.328-.403.331-.188 0-.345-.187-.323-.383a.42.42 0 0 1 .469-.381c.174.022.314.245.257.433zm-.527-31.959c-.629-.204-.946-.789-.736-1.426.05-.152.226-.259.298-.339.805-.058 1.398.643 1.227 1.329a.61.61 0 0 1-.789.436zm1.197 83.244c-.245.041-.521-.204-.516-.458.006-.301.256-.543.596-.507.146.013.281.162.375.22.041.422-.152.695-.455.745zM27.572 126c-.4.276-.844.491-1.285.706-.21.102-.485-.039-.563-.243-.072-.19-.05-.375.097-.521.077-.08.171-.157.273-.199.405-.16.698-.43.905-.81.102-.185.309-.271.48-.171.143.082.232.27.328.424.036.058.022.147.039.309-.063.133-.116.397-.273.505zm.728-3.321a1.97 1.97 0 0 1-.047.221c-.13.447-.405.645-.825.598-.461-.052-.723-.303-.734-.706-.014-.463.254-.808.695-.885.075-.014.149-.011.226-.016.505-.014.756.275.684.788zm2.937-9.506c-.121.077-.292-.056-.292-.232 0-.063.044-.152.096-.185.116-.074.287.066.303.235-.036.06-.055.149-.108.182zm.703-2.458c-.405.249-.783.268-1.018-.066-.543-.767-1.382-1.015-2.171-1.365-.168-.075-.339-.135-.485-.193-.091-.43.141-.64.419-.759.48-.204.568-.537.472-1.006-.077-.364-.094-.745-.138-1.148.4-.209.747-.424 1.122-.581.469-.199.949.06 1.026.565.044.289 0 .596-.033.893-.025.224-.124.439-.141.662-.036.469.069.894.45 1.228.254.223.496.469.709.731.317.391.229.766-.212 1.039zm.309-20.593c-.014-.058-.033-.113-.036-.171 0-.011.075-.047.088-.039.05.039.085.091.127.141-.061.022-.118.044-.179.069zm.008-60.308c-.058-.011-.091-.146-.138-.223.096-.03.19-.08.29-.085.03-.003.066.11.119.207-.094.039-.19.119-.27.102zm.044-10.273c-.163.028-.248-.116-.267-.276-.022-.171.105-.35.229-.301.119.044.212.154.386.29-.154.132-.243.27-.347.287zm.4 93.078c-.033.003-.064.003-.097.006l.041-.152c.028.017.075.028.083.053s-.017.063-.028.093zm.278 15.933l-.044-.143c.036-.006.077-.022.102-.011.019.008.019.058.028.091-.03.022-.058.041-.086.063zm-.022-20.436c-.047 0-.094-.08-.141-.127.047-.044.096-.124.143-.124s.094.082.141.126c-.047.047-.096.125-.143.125zm.695-52.661a1.26 1.26 0 0 1 1.556.146c.331.334.232 1.023-.218 1.263-.257.138-.56.196-.7.243-.554.014-.877-.16-.993-.447-.168-.427-.016-.949.356-1.205zm-.397 10.022c-.055-.292.174-.607.472-.648.325-.044.629.168.656.458s-.221.654-.463.684c-.254.033-.615-.237-.665-.494zm.739 64.426c-.019-.008-.025-.055-.036-.082.03-.011.066-.036.086-.028s.025.055.036.083c-.03.011-.066.036-.086.027zm.648-60.156c-.375-.014-.607-.21-.612-.521-.008-.505.295-.833.734-.794a.63.63 0 0 1 .612.673c.003.436-.254.662-.734.643zm.935 43.005c.623-.704 1.456-.555 2.011-.089.218.185.273.447.171.717-.237.616-.836 1.162-1.591.875-.243-.094-.505-.138-.764-.207-.381-.582-.154-.924.174-1.296zm2.237 13.869c-.014.053-.039.202-.094.337-.152.381-.455.618-.742.587-.441-.044-.836-.471-.83-.921.006-.358.13-.667.463-.841.295-.152.582-.074.855.086.257.146.367.366.348.752zm.149-25.847c-.044.016-.199-.11-.221-.193-.047-.168.055-.306.232-.306.088 0 .174.104.334.209-.141.127-.229.24-.345.29zm.563 17.797c-.063-.174-.113-.35-.138-.43-.028-.395.096-.632.337-.753.248-.124.549-.064.703.146.215.287.284.604.193.951a.58.58 0 0 1-.576.436c-.245-.008-.433-.113-.519-.35zm.519 8.075c-.187-.06-.348-.196-.331-.397.014-.168.075-.38.19-.485.268-.24.596-.284.935-.108.176.091.306.215.309.425.003.245-.108.433-.336.524-.135.052-.287.066-.403.094-.143-.02-.259-.02-.364-.053zm.761 15.79c-.083-.02-.19-.133-.207-.218-.044-.235.149-.455.381-.422.113.016.212.14.284.187-.016.306-.232.5-.458.453zm.381-66.007c.011-.052.014-.11.033-.16a.11.11 0 0 1 .088-.003c.025.047.036.099.052.152-.058.005-.116.008-.174.011zm1.178 45.987c-.027.187-.207.325-.397.311-.199-.014-.323-.165-.312-.38s.11-.351.331-.373.414.207.378.442zm-.383-50.877a.33.33 0 0 1-.339-.356c.019-.245.218-.466.43-.408.149.041.267.193.353.262-.003.328-.187.499-.444.502zm.403-62.697c-.102-.193-.121-.427-.152-.543.019-.554.221-.816.629-.935.397-.116.742-.041 1.031.256.315.325.414.703.262 1.023-.19.405-.519.656-.954.698-.37.039-.651-.185-.816-.499zm1.848 40.972c-.055.069-.102.193-.185.221-.375.127-.723-.074-.847-.491-.019-.069.077-.248.13-.251a.99.99 0 0 1 .808.29c.047.047.055.132.094.232zm-1.572 12.637c-.006-.006.033-.05.052-.075l.127.108c-.019.025-.039.052-.058.077-.039-.036-.083-.069-.121-.11zm.792 15.949c-.342.052-.612-.141-.648-.463-.028-.248.207-.529.455-.549.281-.022.582.257.593.552.011.234-.154.425-.4.461zm.596-12.979c0-.005.063 0 .096.003l-.008.182h-.099c0-.064.003-.124.011-.185zm.982 53.88c-.036.265-.292.466-.568.416-.196-.036-.342-.151-.358-.378-.022-.281.179-.46.51-.455.279.009.45.18.416.417zm.174-34.668c-.102-.041-.215-.069-.212-.088.008-.091.047-.177.075-.265.061.022.168.039.171.069.011.088-.019.182-.033.284zm.331-59.418c-.083.132-.237.221-.438.394-.088-.212-.179-.331-.174-.45a.31.31 0 0 1 .35-.325c.182.005.353.235.262.381zm.152 107.436c-.011-.364.243-.579.667-.568.381.011.626.276.59.645-.03.318-.262.519-.61.524-.389.009-.637-.223-.648-.601zm2.57 13.704c-.51.406-1.037.607-1.669.329-.102-.044-.199-.108-.284-.174-.469-.367-.494-1.873.185-2.226.132-.069.259-.157.394-.218.819-.355 1.528-.002 1.721.861.041.182.05.372.041.309.047.615-.094.882-.389 1.119zm.43-66.464c-.174.047-.378-.108-.392-.295-.014-.177.154-.375.345-.356.127.014.243.113.32.152.044.245-.094.45-.273.499zm.028-35.327c.008-.174.132-.246.29-.232.171.017.262.152.221.298-.03.108-.157.19-.212.248-.262-.03-.303-.166-.298-.314zm.789 104.397c-.215-.025-.359-.199-.281-.378.05-.116.168-.201.312-.361.157.195.298.314.364.463.061.146-.177.301-.394.276zm2.543-5.582c-.036.008-.154-.152-.157-.238-.003-.171.226-.311.4-.248.08.031.132.138.254.276-.199.088-.342.174-.496.21zm.32-15.853c-.364.339-.723.422-1.123.146-.477-.328-.949-.574-1.55-.571-.278 0-.463-.256-.535-.518a1.74 1.74 0 0 1-.039-.665c.03-.262.124-.521.425-.607.342-.099.731.014.902.293.152.248.265.521.408.813.331-.094.61-.198.899-.251.37-.066.64.102.822.452.166.331.099.618-.21.908zm.24-59.823c-.008-.041.096-.152.108-.146.08.041.149.102.259.185l-.235.212c-.047-.083-.113-.163-.132-.251zm.527 77.83c-.055-.034-.157-.072-.154-.102.005-.083.055-.16.088-.249.091.055.196.108.193.119-.03.08-.083.154-.127.232zm.003-26.896c-.063-.077-.201-.193-.262-.339s.146-.375.306-.4c.188-.028.416.198.428.425.008.173-.176.333-.472.314zm.259-13.594c-.005-.019.019-.05.03-.075.025.011.063.02.072.036s-.019.05-.03.075c-.025-.011-.063-.02-.072-.036zm-.011-30.682c-.058-.452.466-1.043.954-1.07.378-.019.811.458.827.913.017.436-.325.905-.662.91-.521.011-1.067-.356-1.12-.753zm1.401 64.98c-.083-.102-.171-.201-.243-.309-.005-.008.088-.08.185-.168.072.127.141.234.188.353.008.019-.083.08-.13.124zm.185-38.567c-.199-.039-.372-.271-.375-.502-.003-.24.201-.45.422-.431.259.019.441.257.43.563a.44.44 0 0 1-.477.37zm2.085 35.528c-.039.218-.245.378-.485.378-.62.002-.987-.329-1.018-.941a2.06 2.06 0 0 1 .041-.554c.11-.458.706-.626 1.084-.329.367.29.397.695.411 1.148-.008.077-.014.187-.033.298zM54.696 93.77c-.325.11-.67.196-.951-.091-.306-.312-.458-.692-.37-1.133.091-.455.767-.794 1.161-.571.554.312 1.092.651 1.63.987.041.025.03.135.052.257l-1.522.552zm1.396-17.654c-.011-.491.634-.91 1.15-.775.171.044.342.306.348.532.017.665-.201 1.012-.968 1.528-.414-.328-.518-.797-.53-1.285zm1.029 3.607c-.061.05-.157.19-.27.207-.177.028-.27-.13-.24-.292.017-.088.11-.196.196-.232.143-.063.309.075.314.317zm-.003 28.28c-.017.069-.168.108-.306.188-.097-.124-.221-.224-.262-.348-.055-.173-.058-.367.121-.504.146-.114.439-.053.463.118.028.179.025.372-.017.546zm.505-13.15c-.24-.028-.4-.221-.386-.469.022-.37.251-.565.593-.508.237.041.436.257.419.458a.57.57 0 0 1-.626.518zm.91 45.261a.37.37 0 0 1-.46.202c-.119-.039-.262-.174-.287-.287-.039-.166-.008-.362.047-.524a.35.35 0 0 1 .428-.254c.248.052.408.229.389.521-.022.069-.052.215-.116.342zm.276-74.939c-.254.422-.596.651-1.076.659-.108-.08-.334-.174-.433-.342-.234-.4-.094-1.031.243-1.346.268-.251.844-.243 1.145.014.292.248.339.654.121 1.015zm-.121-17.814c-.174.033-.284-.086-.262-.254.011-.086.141-.229.188-.218.116.025.218.124.375.226-.143.124-.215.229-.301.245zm.841-13.931c-.141.102-.342.163-.516.166-.347.005-.659-.337-.645-.654.019-.367.389-.728.742-.72.074.003.163-.008.221.028.389.243.772.188 1.191.069.301-.083.579.218.582.538 0 .243-.182.461-.4.463-.11 0-.232 0-.334-.039-.317-.13-.574-.041-.841.149zm1.236 63.45c.314-.003.563.27.541.593-.019.284-.276.541-.508.505-.262-.039-.496-.364-.488-.678.005-.218.223-.419.455-.419zm.77 29.91c-.13.103-.215.205-.323.24a.32.32 0 0 1-.182-.19c.044-.11.146-.196.226-.292l.279.242zm-1.029 18.338c-.014-.267.212-.499.474-.485.276.014.491.237.48.493a.43.43 0 0 1-.422.417c-.298.016-.516-.16-.532-.425zm1.335 4.909c-.028.055-.124.124-.171.113-.251-.058-.502-.121-.739-.22-.069-.031-.124-.199-.105-.284s.141-.144.196-.191c.367-.013.637.089.811.373.033.052.039.154.008.209zm.163-16.594c-.055.149-.234.284-.389.355-.378.177-.731.045-1.139-.215-.025-.193-.055-.339-.061-.488-.011-.317.052-.62.392-.736.334-.111.67-.088.951.163s.372.579.245.921zm-.43-20.067c.072-.113.166-.312.306-.472.094-.107.245-.176.383-.24.461-.215.916-.063 1.164.381.226.402.099.965-.325 1.191-.91.483-1.373.455-1.528-.86zm1.707 9.992c-.138-.345-.323-.67-.532-1.101l.532-.502c0-.308-.028-.642.011-.965.022-.185.185-.358.394-.325.168.025.394.113.463.242.174.326.364.687.381 1.043.028.524.061 1.029.21 1.536.052.179-.077.43-.171.626-.088.185-.281.248-.48.171-.359-.138-.654-.342-.808-.725zm.4 19.661c.022-.446.091-.89.143-1.362.218-.149.414-.334.648-.433.637-.27 1.203-.08 1.702.494.099.115.13.377.069.518-.099.232-.256.485-.463.612-.441.273-.918.497-1.398.693-.317.132-.717-.171-.7-.522zm2.239 10.552c-.174.02-.292-.077-.334-.24-.047-.179.11-.391.312-.386.124.003.245.105.323.141.036.273-.105.466-.301.485zm2.033 3.197c-.077.24-.29.378-.529.309-.524-.152-1.02-.141-1.536.052-.303.113-.645-.091-.698-.4-.094-.56-.276-1.084-.48-1.61-.121-.309.113-.629.565-.662.116.055.37.135.563.286.135.108.204.309.287.478.132.27.361.366.64.38.298.014.604-.005.896.039.24.038.403.229.408.474a2.33 2.33 0 0 1-.116.654zm1.5-36.654c-.298.467-.778.635-1.144.406-.477-.298-.662-.913-.406-1.376.146-.265.397-.326.786-.298.11.041.334.096.521.207.419.245.502.656.243 1.061zm.667-12.692a.7.7 0 0 1-.419-.827c.069-.345.243-.626.524-.836.342-.256.811-.237 1.145.039.243.198.347.571.201.924a2.18 2.18 0 0 1-.414.653c-.113.122-.317.158-.469.227-.218-.067-.403-.105-.568-.18zm.736 15.583c.039-.113.177-.193.323-.339.135.154.27.245.292.355.033.169-.193.329-.389.295-.166-.024-.279-.151-.226-.311zm.761 19.424c-.041.116-.187.196-.334.339-.127-.171-.248-.267-.284-.391-.05-.171.182-.326.386-.271.16.045.292.158.232.323zm.03-45.981c-.116-.033-.215-.135-.32-.21.069-.066.141-.19.207-.187.116.003.229.086.416.165-.157.127-.248.248-.303.232zm.188-13.34c-.171.028-.372-.124-.394-.295s.132-.353.317-.383.375.113.392.292a.38.38 0 0 1-.314.386zm.568-6.597c-.182-.041-.323-.232-.287-.411a.38.38 0 0 1 .378-.334c.232-.011.422.201.4.427-.022.218-.257.37-.491.317zm.775 59.418c-.204-.042-.317-.171-.312-.381.003-.179.201-.334.383-.292.196.044.317.162.303.383-.014.199-.179.331-.375.29zm.483 15.588l-.091-.158c.063-.022.127-.069.185-.058.036.006.061.092.091.144-.061.022-.124.047-.185.072zm.535-126.922c-.05-.146.121-.301.273-.243.08.03.177.155.174.232-.005.083-.119.157-.21.265-.102-.105-.207-.168-.237-.254zm.488 77.322c.325-.093.651-.19.985-.251a.36.36 0 0 1 .439.262c.066.199.044.411-.132.502-.364.185-.756.318-1.186.494-.163-.193-.339-.334-.422-.516-.102-.22.041-.411.317-.491zm.596-22.753c.028-.187.163-.262.32-.221a.33.33 0 0 1 .201.221c.025.168-.088.29-.259.292s-.262-.116-.262-.292zm-.124 62.076c-.066.147-.212.26-.381.45-.163-.201-.317-.317-.364-.469-.063-.207.21-.422.439-.383.179.033.372.251.306.402zm.143-8.067c-.185.028-.389-.135-.35-.322a.52.52 0 0 1 .246-.315c.171-.085.381.064.408.249s-.108.358-.303.388zm1.178-11.983c-.055.345-.218.637-.474.874-.394.362-1.029.226-1.192-.289-.088-.276-.08-.585-.116-.877.036-.006.075-.011.11-.02-.061-.289-.143-.579-.165-.871-.008-.116.108-.268.207-.348.061-.049.257-.035.303.022.29.356.654.604 1.051.822.262.144.323.409.276.687zm1.114-9.595c-.303.13-.626.212-.769.259-.516-.011-.764-.19-.866-.491-.08-.237.011-.51.24-.692.298-.234.632-.389 1.02-.394.356-.006.651.229.723.571.069.311-.058.623-.347.747zm.698-34.918c-.278.295-.643.403-1.031.392-.648-.016-1.282.003-1.884.295-.064.03-.229-.047-.287-.121s-.077-.215-.061-.317a.57.57 0 0 1 .154-.292c.372-.37.756-.728 1.131-1.084.35.099.667.226.996.273s.673.011 1.007.011c.268.403.171.634-.025.844zm.306 29.708c.022-.209.146-.347.353-.366.295-.025.538.253.527.678-.091.063-.218.218-.367.243-.325.055-.549-.21-.513-.555zm.962 35.275c-.276.132-.621.008-.772-.238-.113-.184-.052-.358.097-.49.237-.21.574-.24.811-.056.105.08.154.232.254.389-.146.152-.243.323-.389.395zm-.011-26.375c-.006-.276.298-.598.563-.595.372.005.811.38.775.664-.044.345-.472.717-.775.681-.27-.033-.554-.416-.563-.75zm2.518 38.67c-.171.32-.554.463-.976.372-.439-.094-.728-.361-.764-.72a.59.59 0 0 1 .019-.22c.116-.389.599-.624 1.117-.549.381.055.714.502.676.91-.022.066-.039.143-.072.207zm-.025-76.749c-.212.025-.394-.099-.394-.284 0-.163.088-.281.254-.303.193-.028.372 0 .444.218.058.168-.091.345-.303.37zm.529 56.844c-.16-.096-.287-.242-.223-.455s.165-.427.408-.477c.248-.052.411.127.563.284.132.138.226.329.108.5-.094.132-.267.209-.4.306-.182-.064-.334-.086-.455-.158zm.996 2.927c-.135.052-.303-.111-.254-.249.028-.08.143-.179.221-.179s.154.108.262.193c-.094.1-.149.204-.229.235zm-.102-28.678c.03-.537.552-1.042 1.02-.987.565.066 1.043.615.993 1.15-.041.45-.552.877-1.018.858-.543-.028-1.023-.521-.996-1.021zm1.71 8.738c.295-.017.521.168.538.441.019.342-.177.554-.532.579-.334.022-.576-.124-.601-.361-.036-.356.218-.637.596-.659zm.458 34.085c-.165.039-.411.014-.527-.085-.408-.364-.654-.828-.632-1.399.022-.493.375-.874.841-.912s.894.264 1.004.736c.044.182.05.375.063.463.006.737-.207 1.073-.75 1.197zm.37-34.808c-.014-.03.072-.108.113-.163l.232.169c-.041.055-.083.113-.154.204-.072-.072-.152-.13-.19-.21zm.13-3.828c-.146.036-.298.055-.447.061-.331.013-.538-.193-.579-.557-.033-.287.138-.544.397-.591.11-.019.223-.027.312-.036.099.006.174.009.248.017.312.036.483.218.485.516.003.306-.144.521-.416.59zm.698 24.786c-.218-.006-.45-.287-.35-.466a2.98 2.98 0 0 1 .469-.602c.116-.121.403-.027.477.127.212.444-.11.955-.596.941zm.474-4.463c-.585-.002-.836-.267-.769-.827.025-.226.088-.45.334-.538.298-.11.59-.094.841.122a.78.78 0 0 1 .201.264c.182.433.113 1.024-.607.979zm.816-19.231c0-.284.257-.529.51-.438.143.052.243.223.32.3-.036.328-.232.497-.469.494-.19-.003-.361-.171-.361-.356zm.8 13.445c-.044.116-.165.201-.276.323-.127-.119-.24-.177-.267-.262-.058-.171.165-.364.356-.293.083.031.207.183.188.232zm-.08 14.433c-.248.057-.499-.061-.529-.254-.041-.259.146-.494.43-.53a.37.37 0 0 1 .408.282c.044.242-.086.452-.309.502zm-.036-10.994a.36.36 0 0 1-.301-.394c.025-.193.207-.345.383-.314.188.033.32.206.301.399-.022.199-.198.342-.383.309zm1.647 5.202c-.218.008-.411-.204-.397-.439.011-.215.141-.336.339-.375a.4.4 0 0 1 .458.367c.008.229-.179.439-.4.447zm.416-2.849c-.165.063-.359-.13-.314-.326.019-.08.163-.209.207-.193.116.042.21.149.336.251-.102.124-.149.238-.229.268zm.596-13.66c-.292.025-.587.005-.819.005-.119.111-.177.157-.223.21-.185.207-.168.626-.568.604-.215-.011-.745-.77-.767-1.032s.248-.626.529-.637c.599-.027 1.197-.03 1.795-.022.207.003.337.144.372.353.039.232-.105.499-.32.519zm.541-2.562c-.105.035-.221.044-.295.057-.427.014-.656-.308-.513-.675.105-.271.306-.414.596-.425.295-.011.535.163.579.419a.58.58 0 0 1-.367.624zm.764 30.461c-.099-.055-.199-.116-.281-.193-.168-.154-.334-.317-.303-.573.025-.213.301-.456.563-.505.356-.066.687-.006.943.262.097.102.138.256.171.325-.069.618-.632.935-1.092.684zm.273-15.182c0-.265.182-.444.359-.386.11.035.234.165.265.275.047.177-.157.353-.342.301-.116-.036-.212-.143-.281-.19zm.59-2.43a.47.47 0 0 1 .461-.502c.292-.003.499.251.48.607-.011.204-.116.353-.323.378-.312.041-.596-.191-.618-.483zm1.459 15.094c-.022-.003-.063-.16-.052-.165a.76.76 0 0 1 .256-.083c.011-.003.041.113.074.212-.097.014-.19.042-.279.036zm.273-2.43c-.143.042-.292-.135-.259-.281.039-.174.168-.256.331-.221.088.02.157.127.298.251-.152.105-.251.216-.37.251zm.309-5.979c-.43.025-.803-.16-1.106-.466-.259-.262-.248-.67.047-.893a2.02 2.02 0 0 1 .596-.293c.083-.027.259.025.298.094.215.389.403.797.626 1.252-.185.13-.317.298-.461.306zm.488-9.225c-.157.262-.306.538-.67.518-.463-.022-.927-.378-.976-.797-.041-.367-.008-.742-.008-1.092-.204-.254-.419-.124-.632-.072-.364.094-.734.207-1.136-.154.033-.201.036-.356.088-.491.188-.483.463-.687.935-.643.935.089 1.743.45 2.292 1.244.317.461.422.966.108 1.487zm.047-13.426c.039-.141.201-.251.268-.328.339.003.524.187.507.414a.37.37 0 0 1-.375.328c-.243-.003-.458-.196-.4-.414zm.747 2.275c.229-.027.433.149.45.486-.08.069-.187.229-.331.278-.21.072-.433-.146-.439-.375-.005-.196.138-.369.32-.389zm-.099 14.659c-.055.003-.163-.072-.16-.105.011-.121.058-.24.11-.436.143.13.254.185.27.26.039.157-.052.273-.221.281zm.132-4.796c-.08-.017-.19-.122-.201-.196s.094-.163.168-.273c.102.074.21.116.248.19.069.124-.072.306-.215.279zm.728-1.986c.097-.165.342-.243.444-.314.477-.031.767.207.894.64.105.361-.003.725-.29.879-.124.067-.29.102-.425.08-.585-.093-.924-.766-.623-1.285zm1.434 2.115l-.083.031.014-.091.069.06zm-.483 16.438c-.022.008-.074-.017-.083-.039s.022-.058.036-.088l.091.041c-.014.031-.022.078-.044.086zm1.059-6.252c-.378-.632-.927-1.07-1.547-1.44-.157-.094-.29-.232-.416-.364-.033-.036-.008-.138.006-.204.006-.028.063-.066.088-.061.918.185 1.862.273 2.719.684.185.088.323.273.51.439l-1.111 1.037c-.052-.022-.207-.022-.248-.091zm1.319 3.574a.54.54 0 0 1-.273-.301c-.058-.173.143-.361.416-.342.044.072.146.18.174.304.044.198-.149.405-.317.339zm.413 1.931l.031-.064.03.064h-.061zm.373-8.63c-.4.008-.905-.425-.946-.805-.044-.428.358-.847.827-.861.513-.014.833.301.839.825.002.441-.334.835-.72.841zm3.202-.921c-.455.488-.555 1.042-.541 1.663.006.284-.151.502-.394.648-.259.154-.516.314-.786.452-.304.155-.502.119-.723-.091-.259-.245-.303-.51-.14-.816s.386-.557.697-.723c.166-.088.342-.165.489-.281.159-.127.217-.323.102-.505-.141-.22-.329-.411-.461-.634-.041-.069-.006-.237.058-.304s.215-.099.298-.068c.171.066.32.182.496.289l.673-.397c.353.201.439.543.232.767zm.805-3.164c-.361.188-.725.364-1.098.527-.041.019-.146-.041-.182-.094s-.055-.146-.033-.204c.199-.507.693-.736 1.28-.59.052.014.083.11.124.168-.03.069-.041.166-.091.193zm.883-20.047c-.072 0-.213-.13-.207-.193.008-.119.096-.232.182-.409.127.147.232.216.248.301.03.155-.055.298-.223.301zm-.044-41.607c-.279.226-.602.306-.941.157-.317-.141-.372-.439-.375-.75 0-.767.336-1.191.987-1.249a.69.69 0 0 1 .767.637c.039.469-.055.896-.438 1.205zm.626 34.69c-.017-.091.03-.218.093-.29s.185-.11.334-.193c.094.086.226.16.281.27.034.067-.027.215-.091.284-.066.075-.184.122-.286.138-.16.031-.301-.044-.331-.209zm.457 23.768c-.022-.014-.027-.058-.038-.088.03-.009.072-.036.091-.025s.025.058.038.088c-.033.011-.074.036-.091.025zm.331-11.738c-.342-.003-.612-.232-.604-.519s.257-.504.604-.537c.273-.025.5.176.513.46.017.337-.206.599-.513.596zm.494-3.235c-.152.038-.306-.091-.295-.243.011-.218.141-.361.345-.356.116.003.231.122.32.171-.017.307-.185.384-.37.428zm.665-19.284c.082.006.157.11.215.154.003.215-.091.32-.254.301-.08-.011-.196-.113-.209-.19a.22.22 0 0 1 .248-.265zm.08 7.998c.474-.143.863-.439 1.304-.618.373-.152.808-.29 1.181.019s.298.747.22 1.153c-.116.617-.584.926-1.381.921-.53.025-.98-.262-1.415-.555-.334-.223-.295-.805.091-.921zm-.218 9.011a.29.29 0 0 1 .171-.064c.058.075.091.168.132.254-.063.025-.127.047-.226.085-.03-.093-.069-.184-.077-.275zm.717 7.984c-.166.038-.295-.072-.306-.235-.006-.077.105-.16.209-.308.124.135.24.215.284.325.02.041-.107.199-.187.218zm1.04 3.704c-.373.14-.715-.141-.648-.524.165-.96.444-1.859 1.403-2.251.169-.419-.251-.474-.339-.775.359-.642 1.032-.86 1.779-1.048-.113-.151-.157-.281-.234-.306-.387-.132-.632-.378-.803-.747-.127-.271-.32-.516-.507-.75-.24-.298-.511-.296-.759-.02-.099.113-.16.282-.278.353-.185.111-.403.207-.615.229-.359.039-.668-.298-.604-.651.038-.218.121-.441.239-.629.387-.62 1.002-.904 1.686-1.059.347-.077.686.138.772.502.06.257.041.53.105.786.08.329.157.676.328.957.149.243.408.442.656.596.287.179.618.113.822-.143.237-.295.48-.563.792-.792.628-.466 1.075-1.053 1.017-1.917-.013-.19.152-.413.284-.584.144-.188.497-.119.563.099.074.245.11.502.177.814.267-.056.479-.111.692-.144.411-.066.706.097.772.466.063.362.215.739-.063 1.156-.194-.03-.431-.014-.615-.105-.698-.336-1.33-.149-1.956.182-.314.166-.436.411-.334.756.072.245.182.504.351.689.182.199.419-.014.637-.044.085-.011.201.058.273.124.036.033.025.146.003.213s-.078.129-.125.187l-.297.372c.173.453.675.792.477 1.344-.044.124-.166.217-.295.377-.21-.256-.331-.529-.541-.634-.48-.24-.882-.571-1.315-.871-.061-.042-.232 0-.304.06s-.149.221-.118.29c.102.234.251.449.383.673.168.281.096.51-.212.637-.279.113-.566.207-.864.314l-.262.756c-.16.427-.469.717-.924.731-.441.025-.81.182-1.199.331zm7.016 5.665c.256-.036.54.24.576.56.022.176-.135.339-.344.361-.381.038-.671-.122-.704-.384-.027-.22.221-.504.472-.537zm-.935-4.283c.025.215-.218.427-.488.419-.05-.077-.166-.182-.182-.301a.37.37 0 0 1 .411-.397c.105.022.245.174.259.279zm-5.262 3.044c.135.006.267.083.394.138.017.008.014.069.028.174-.113.08-.243.215-.397.259-.116.033-.268-.038-.392-.094-.039-.016-.063-.135-.047-.193.052-.204.223-.292.414-.284zm-.359-1.635c.011-.022.055-.025.086-.036.011.03.038.069.03.088s-.058.025-.088.036c-.011-.03-.036-.069-.028-.088zm.69 6.669c-.193.093-.353.195-.527.253-.268.089-.519-.096-.425-.328.152-.378.102-.717-.014-1.087a.54.54 0 0 1 .279-.667c.243-.119.543-.094.723.121.107.13.19.334.176.497-.03.372-.124.736-.212 1.211zm.416-2.102c-.234.052-.436-.124-.452-.372-.014-.191.127-.356.323-.381.248-.033.455.135.455.364a.37.37 0 0 1-.326.389zm.604-4.22c-.041-.044-.074-.096-.11-.143.027-.019.08-.058.083-.055.041.044.074.094.107.143-.027.019-.077.058-.08.055zm.276-2.485c-.24.086-.507.155-.814-.115.342-.469.861-.538 1.255-.786.207-.376.033-.864.433-1.189.362-.127.775-.099 1.183-.069.373.028.546.458.318.767-.133.179-.312.325-.433.507-.045.066.016.199.038.389.248-.143.428-.268.621-.359.182-.085.372-.077.499.114s.074.488-.127.595c-.154.083-.347.133-.524.124-.298-.011-.59-.093-.888-.115-.527-.036-1.048-.045-1.561.137zm2.559 2.725c-.022.022-.041.044-.063.066-.017-.024-.047-.052-.044-.074s.038-.044.06-.063c.017.022.034.046.047.071zm-1.58 6.184c-.069-.056-.138-.108-.207-.163.053-.041.105-.116.157-.119s.105.075.158.116l-.108.166zm.177-5.908c-.185.091-.364.017-.469-.179-.017-.033-.039-.088-.025-.108.085-.11.171-.284.278-.3.166-.028.348.052.522.093.016.003.019.067.049.18-.099.091-.207.242-.355.314zm3.825 5.108c-.673-.375-.673-.364-1.47-.317-.491.03-.982.044-1.473.022-.168-.009-.336-.135-.491-.229-.038-.025-.033-.135-.03-.204 0-.031.041-.077.069-.083.146-.03.292-.061.438-.072.188-.014.442.072.552-.022.656-.549 1.473-.135 2.173-.394.116-.044.309.025.428.102.113.074.226.221.242.347.033.271-.06.403-.438.85zm.094-5.138c-.315.022-.596-.036-.748-.353l.497-1.23c.264.311.584.943.612 1.213.014.16-.168.356-.361.37zm.653-4.352a1.44 1.44 0 0 1-.383-.199c-.033-.025-.03-.182-.008-.19.093-.039.22-.091.295-.053.118.058.204.182.309.287-.105.08-.177.168-.213.155zm2.033 1.153c-.292.187-1.043.35-1.605.319.504-.502.929-.775 1.489-.73.075.005.157.135.196.223.019.041-.03.154-.08.188zm-.166-15.966c-.005-.017.056-.078.061-.072.052.03.099.069.149.108l-.124.129c-.03-.055-.066-.107-.086-.165zm.1-14.049c-.061-.138-.144-.243-.122-.298.025-.061.152-.097.238-.11.027-.003.113.121.096.155-.033.08-.11.141-.212.254zm1.177 28.274c-.06.315-.311.51-.728.502-.041-.083-.16-.209-.146-.32.036-.289.24-.449.524-.515.179-.039.383.151.35.333zm.381.83c-.052-.022-.099-.055-.149-.085.039-.039.074-.08.113-.119.033.047.069.091.094.141.005.008-.05.066-.058.063zm-.251-20.731c-.083-.019-.188-.135-.199-.218-.024-.199.149-.325.417-.295.038.052.14.13.149.215.019.196-.163.347-.367.298zm.463-12.471c-.058.077-.193.141-.289.138-.351-.011-.789-.433-.847-.783a.55.55 0 0 1 .301-.552c.342-.166.744-.099.904.174.091.154.124.342.193.543-.088.163-.154.337-.262.48zm.014-11.117c-.011-.207.138-.361.339-.359.246.005.431.188.428.513-.086.069-.202.226-.35.265-.218.058-.403-.16-.417-.419zm.88 48.124l-.157-.097.165-.204c.042.05.116.102.11.149-.002.055-.074.102-.118.152zm.058-12.331c-.075-.047-.144-.18-.135-.265.008-.072.129-.135.278-.273.055.207.105.331.105.455 0 .033-.199.116-.248.083zm.758-10.594l-.185-.168c.056-.033.111-.094.166-.091.047.003.091.075.138.113a4.68 4.68 0 0 1-.119.146zm-.107-47.511c-.265-.014-.458-.245-.453-.549.006-.43.284-.706.712-.706.259 0 .461.245.449.543-.016.436-.311.734-.708.712zm.579-11.633c-.006-.268.251-.502.507-.463.279.039.461.27.436.546s-.265.447-.554.392c-.207-.036-.384-.254-.389-.474zm1.288 48.559a.47.47 0 0 1-.488.361c-.26-.028-.447-.295-.397-.565.044-.234.259-.4.477-.367a.52.52 0 0 1 .408.571zm.706 25.186c-.146.044-.306-.113-.251-.259.03-.08.149-.177.229-.177s.163.108.361.257c-.149.08-.237.146-.339.179zm.496 7.071c-.055-.013-.121-.074-.135-.126-.008-.033.091-.133.105-.127.077.038.141.099.226.165-.094.044-.154.1-.196.088zm.02-68.689c-.193.036-.378-.094-.398-.273-.019-.193.111-.345.312-.359.166-.011.279.052.32.218.055.204-.05.381-.234.414zm.231-14.055c-.504-.138-.579-.201-.598-.513s.069-.392.557-.519c.24.339.226.679.041 1.032z" fill="#fff"/></svg>