<svg version="1.1" id="Layer_1" xmlns="http://www.w3.org/2000/svg" x="0" y="0" viewBox="0 0 756.1 601.3" xml:space="preserve"><style>.st0{fill:#318287}</style><path class="st0" d="M179.6 250.5c-2 6.9-2.3 14.3-6.5 20.7-4.3 6.4-7.9 13.1-14.4 17.8-6.9 4.9-13.9 9.5-22.1 12.2-1.9.6-3.7 1.2-5.4-.2-.8 2.9-3.6 2.7-5.5 3-10.3 1.6-20.2-.9-29.8-4.4-6.8-2.5-13-6.2-18.6-11.2v14.1c0 2.7 0 2.8-2.9 2.2-.4-.1-.4-.7-1.2-.1-3.4 2.5-7.6 2.1-11.4 2.3-12.4.7-24.8.7-37.2 1.7-3.2.3-6.5-.6-9.6-1.4-1.3-.3-2.1-1.1-1.9-2.4.2-1.3.5-2.3 2.3-2.8 8.7-2.3 9.8-4.1 10.4-12.8.3-4.1-1.6-8.7 2.4-12.4.8-.8-2.5-2.2-1.2-3.7 4-4.7-2.5-11.2 2.8-15.6-3-5-.8-10.3-.4-15.3.5-6.4.7-12.8 1.2-19.1.3-3.7-2.1-7.5.7-11-1.5-1.4-1.9-3.4-1.7-5.2 1.4-12-.8-23.8-1.8-35.7-.9-10.7-3.3-21.4-6.6-31.7-1.8-5.5-2.2-11.6-7-15.8 1.2-3.3-2.8-1.7-3.3-3.5-.2-.8-.5-1.3.2-1.8.3-.9.4-2 1.5-2.2 7.6-1 15.2-2.8 22.9-.2v-.1c.9-2 2.8-1.1 4.1-1 9.9.2 19.8.6 29.7 1 .7 0 1.4.2 1.8.9 2 1.2 2.8 2.9 2.7 5.3-.1 2.5.1 5-.1 7.5-.7 9.4 1 18.7.8 28.1-.1 6.4-1 13.1.9 19.7 1.1 3.6-1.3 7.9 1.7 11.5 4.2-7.8 10.4-13.3 17.7-17.7.7-1.3 1.6-2.1 3.2-2.1 2.9-1.6 5.5-3.9 8.9-4.5 2.3-3.1 6.1-2.9 9.2-3.6 7.7-1.6 15.6-2.4 23.5-.3v-.1c11.1 1 20 6.6 27.9 13.8 12.4 11.4 14.9 26.6 15.6 42.6.7 11.4-.4 22.7-3.5 33.5zM17.9 119l-.1-.3-.2.3h.3zm4.9 4.4l-.5.1.4.2.1-.3zM27.7 281l-.3-.2-.1.3.4-.1zm3.9-40.4c-.9.1-1.3.6-1.2 1.4 0 .3.3.6.5.9.5-.4 1.3-.7 1.6-1.3.2-.4-.3-.9-.9-1zm.2-43.9c.1-.1.2-.2.4-.3-.1-.1-.2-.3-.3-.3-.1 0-.2.2-.3.3 0 .1.1.2.2.3zm1.3-25.2c-.2-.3-.3-.7-.5-.8-.3-.1-.7.1-1 .2.2.3.4.6.6.8.4.4.7.3.9-.2zm.9-42.9h-.4l.2.4.2-.4zm1.3 157.8c-.1 0-.3.1-.5.2 0 .1 0 .3.1.3.1.1.4.2.5.1.5-.3.4-.5-.1-.6zm.5-39c.3-.4.7-.8 1-1.2-.2-.2-.5-.5-.7-.5-.6 0-1 .4-.9 1 0 .3.3.4.6.7zm1.1 13.4c-.2-.3-.4-.2-.5.2 0 0 .2.1.3.2.2-.1.3-.3.2-.4zm2.5 27h-.3l.1.3.2-.3zm1.2-9.4c-.1-.3-.2-.7-.3-1-.1.1-.4.3-.4.4 0 .3.2.7.3 1l.4-.4zm1.1-16.5c-.2-.2-.3-.5-.5-.7-.1.1-.3.3-.3.4 0 .3.2.6.3.9.2-.2.4-.4.5-.6zm-.2 26.9l-.4.1.4.2v-.3zm1.2-15.5c.3-.1.6-.2.9-.4l-.6-.6c-.2.2-.5.4-.7.6.2.1.4.4.4.4zm.8-6.3h.3l-.1-.4-.2.4zm.6 32.3l-.3-.2v.4l.3-.2zm2.1-21.9c0-.4-.5-1-.9-1.1-1-.3-.6.5-.6.9s.1.9.3 2c.6-.9 1.2-1.3 1.2-1.8zm-2.1-141.7c0 .2.1.3.2.5.1-.1.2-.3.3-.4-.1-.2-.1-.3-.2-.5-.1.1-.3.3-.3.4zm4.4 156.7c-.1-.1-.2-.4-.3-.4-.3 0-.6.1-.9.2.1.2.2.4.4.6.2-.1.5-.2.8-.4zm-.5-10.5c.1.1.2.2.3.4.1-.1.2-.2.4-.3-.1-.1-.2-.3-.3-.3-.2-.1-.3.1-.4.2zm.3-14.7c.2-.2.5-.3.7-.5-.3-.1-1-.6-.7.5zm4 22.3c-.1-2.5-1.9-2.6-3.6-2.9.5 1.9 2.4 1.8 3.6 2.9zm-3.2-13.3c.1.1.2.3.3.4.1-.1.3-.2.4-.3-.1-.1-.2-.3-.3-.4-.1 0-.3.2-.4.3zm0-9.5s.1-.1 0 0v-.3.3zm.1-32.3l.1.4.2-.4h-.3zm0 9.4l.1.3.2-.3h-.3zm2.2 3.6l.3.2v-.4l-.3.2zm.2 10.6c0 .1.1.2.2.3.1-.3.1-.6.2-1-.2.3-.3.5-.4.7zm.5 35.5h-.3l.1.3.2-.3zm3.3-2.5c-.4-1.8-1.8-1.4-3-1.3.1 1.4.5 2.4 2.3 1.9.3 0 .8-.4.7-.6zm-3-34.1c.5.1 1.1.6 1.2-.6l-1.2.6zm-.1-117.4l.1.3.2-.3h-.3zm.4 63.6v.3l.3-.1-.3-.2zm.6 74.5H53c.1 0 .2.1.4.2 0-.2 0-.2-.1-.2zm.6 6.1c.1.3.2.6.3.8.1-.1.4-.3.3-.3l-.3-.9c-.1.1-.4.3-.3.4zm-.3-110.6l.1.3.2-.3h-.3zm.9 98.6c2.8-.7 2.8-.8 1.4-3.3-1.3.7-.5 2.3-1.4 3.3zm0-143.6c.2.2.5.3.7.5 0-.4.2-1-.7-.5zm.6 135.1c.1.5.6.9.9 1.3.3.3.6.2.8-.5-.2-.3-.4-.8-.8-1.2-.6-.6-1-.3-.9.4zm4.1-132.8c-.5-.2-.9-.5-1.4-.7-.5-1.2-1.4-1.1-2.4-.9.3 1.1 1.1 1.3 2 1.3.3.6.7.8 1.3.7.2-.1.3-.3.5-.4zM57 287v-2c-.7.2-1.2.6-1 1.4.1.5.5.7 1 .6zm-.9-153.4c0-.1-.1-.3-.2-.4-.1 0-.3 0-.4.1-.1.1-.2.4-.1.5.4.3.6.3.7-.2zm1.4 153.9c-.1-.1-.2-.2-.3-.2 0 .3 0 .4.3.2zM59 260l-.3-.3-.3.3c.1.1.2.3.3.3.1 0 .2-.2.3-.3zm.9-17.6l-.3.1.3.2v-.3zm.9 26.4c.1.4.4.7.9.8-.3-.3-.6-.5-.9-.8zm.1 6.1c.3.1.6.3.9.3.1 0 .2-.2.4-.3-.3-.1-.6-.3-.9-.3-.2-.1-.3.2-.4.3zm1.4 10.2c-.3-.1-.7-.4-1-.3-.4.1-.5.5-.1.8.1.1.3.2.5.2.6 0 .8-.2.6-.7zm-.6-15.5l.1.3-.1-.3c0 .1 0 0 0 0zm-.2-143.9c.3.4.6.9.9 1.2.3.3.6 0 .6-.4-.1-.7-.4-1-1.1-1 0-.1-.2.1-.4.2zm2.6 162.5c-.2-.2-.5-.5-.8-.7-.2.3-.6.5-.7.9-.3 1 .5.7.9.6.2 0 .3-.5.6-.8zm-.7-7.6v.4l.4-.2-.4-.2zm2.2-24.4c-.7 0-1.2-.2-1.6-.1-.5.1-.6.5-.1.7.3.1.7.1 1 .1.2 0 .3-.3.7-.7zm-.8 2.6c-.1-.1-.2-.3-.3-.3-.1 0-.3.2-.4.3.1.1.2.3.3.3.1 0 .3-.2.4-.3zm1.1 26.5h-.3l.1.3.2-.3zm1.2-11.4c-.1-.6-.3-.8-.5-.5-.2.3-.1.7-.1 1.1 0 .1.2.3.3.4.1-.4.2-.7.3-1zm.2-150.4c-.2-.4-.4-.8-.5-1.1-.5-.3-.9-.2-.9.3 0 .3.2.7.4.9.3.1.7-.1 1-.1zm1 155.5c0-.2-.1-.3-.2-.5-.4.3-.4.6-.1 1 .1-.2.3-.3.3-.5zm-.6-161.3l-.4.1c0 .2.1.3.1.5.5 0 .6-.2.3-.6zm1.7 170.1l-.2-.4-.2.3.4.1zm.1-24.1l-.1.4.1-.4zm1.9 0c.1 0-.1-.4-.2-.5-.7-.4-1.2 0-1.7.5.7.3 1.3.5 1.9 0zM71 117.9c.4-.3.4-.6.2-1-.2.2-.3.5-.4.7 0 .1.2.3.2.3zm.4 99.6c.1.3.3.7.5 1 .3.4.7.3.7-.2.1-.5 0-1.1-.7-1.3-.4-.1-.6.1-.5.5zm2.5 78.4c.1-.6-.6-.6-1.1-.5-.5.1-1.1.4-.7 1 .1.3.7.6.8.6.3-.3 1-.7 1-1.1zm-1.4-71.1c-.1.1-.3.2-.3.3 0 .1.2.2.3.3l.3-.3c-.2 0-.2-.2-.3-.3zm1.4 24.7c-.1-.1-.2-.4-.3-.4-.3.1-.7.2-1 .3.1.1.3.4.4.4.3 0 .6-.2.9-.3zm-.4-56.4l.2-.3h-.3l.1.3zm1.1-3.8c-.3-.1-.6-.3-.9-.4-.1 0-.4.2-.4.3.1.4.4.6.8.4.2 0 .3-.2.5-.3zm63.2 33.8c.1-6.2-1.3-13-2.7-19.3-.8-3.3.3-7.1-2.8-9.9-.6-.6.5-3-.1-3.6-4.6-4.8-6.5-12.3-14.3-13.9-1.5-.3-3.3-1-4.2-2.8-.5-1-1.3-1.3-2.4-.9-3.4 1.1-7 .3-10.4.8h-.3.4c-7.8 7-16.1 13.4-22.1 22.3-1.5 2.2-2.4 4.1-2.5 6.7-.5 7.4.3 14.8.2 22.2-.1 4.7-.4 9.4-.1 14.1.6 9.7 1.2 19.3.3 29-.2 2.4-1.1 6.3 2.6 7.1 5.7 1.4 11.1 3.9 17.3 3.6 3.4-.2 6.9-.3 10.3-.3 3.3 0 5-5.7 9-2.3 0 0 1-.7 1.1-1.1.5-3.6 3.6-4.6 6-6.3 2-3.1 3.5-6.7 8-7-1.3-2.6-.2-7.1 2.3-9.2-1-4 1.7-7.2 2.4-10.9.9-6.1 1.9-12.4 2-18.3zm-42.2-50.5c-.2-.4-.3-.8-.5-1.2-.2.5-.6 1.1.5 1.2zm2.7-3.5c.2.3.4.6.6.6.5.1.6-.3.3-.5-.3-.1-.6-.1-.9-.1zm9.5 130.5c-.1-.2-.4-.3-.6-.5-.1.3-.3.7-.2.9.1.5.4.5.7.1.1-.2.1-.4.1-.5zm3.5-135.9l.3.2v-.3l-.3.1zm3.3 122.7l-.3-.3-.3.3c.1.1.2.3.3.3l.3-.3zm.8-114.2c.3.1.7.2 1.1.1.2 0 .4-.4.7-.7-.7-.1-1.2-.2-1.7-.1-.6.1-.7.5-.1.7zm2.7 110.5l-.3-.9c-.1.1-.3.2-.3.3 0 .3.2.6.3.9l.3-.3zm5.4 5.6v-.1c0 .1-.1.3-.4.1-.5-.3-.6-.2-.3.4.3.1.7 0 .7-.4zm.6-16.9c.7-.2.4-.9.2-1.4-.3-.6-.4-1.4-1.3-1.6 0 .5.1 1.1.1 1.6 0 .8-.2 1.7 1 1.4zm-.1 12c0-.4 0-.9-.7-.4.3.1.5.2.7.4zm.7.5c-.1-.1-.3-.2-.4-.3 0 .1 0 .2.1.2 0 .2.2.1.3.1zm1.9-111c.3.2.6.5.9.5.3 0 .6-.3.9-.4-.3-.2-.6-.5-.9-.5-.3-.1-.6.2-.9.4zm1.7 101.4l-.1-.5-.2.4.3.1zm4.2-9.2c-1-1.8-2.3-1.5-3.8-.8 1.2 1 2.3 1.3 3.8.8zm-3.1-94c1.4-.1 1.5-1.8 1.2-2-1.8-1.3 4-1.4.4-2.6-2.6-.9-.8 1.6-1.6 2.3-.8.5-1.2 1.5 0 2.3zm3.1 90.8c-.5-.1-.9-.2-1.4-.4.1.5.4.9 1 .8.1 0 .2-.2.4-.4zm-1.2-89.3l-.2.4h.4l-.2-.4zm3.7 80c-.5-.5-1-.6-1.6-.4.1.7.6 1 1.3.8.1 0 .3-.3.3-.4zm-.8 46.4h-.4l.2.4.2-.4zm.1-106.1c.1-.1.3-.1.4-.2-.1 0-.3-.1-.3 0s0 .2-.1.2zm4.9 97.1c-.2-.2-.4-.5-.7 0 .3.1.5.1.7 0zm1.9-116c.1-.5 0-1 0-1.5-.6.4-1.2.7-1.6 1.2-.6.7-1.1 1.6-.7 2.5.2.3 1 .6 1.5.5 1.8-.4.7-1.8.8-2.7zm-1.3 117c-.1-.3-.2-.5-.3-.8-.2.3-.5.7.3.8zm-.6-128.4c.1.2.8.4 1 .3 1-.9.1-1.5-.3-2.1-1.3.2-1.2 1-.7 1.8zm.8 123.6h-.4l.2.3.2-.3zm.3-87.7c.1 0 0-.2 0-.4-.2-.1-.4-.2-.5-.1-.6.1-.6.4 0 .6.2.1.4 0 .5-.1zm.6 49.5l-.4-.1.1.4.3-.3zm.2-65.2c-.5.1-1.3 0-.3.7.2.1.4-.3.3-.7zm.5-.8c-.1.2-.2.5-.4.7.5 0 .9 0 .4-.7zm-.3-9.8c.1 0 .2 0 .2-.1.1 0 0-.2 0-.4 0 .2-.1.4-.2.5zm2.7-1.3l.3-.3c-.1-.1-.2-.2-.3-.4-.1.1-.3.2-.3.3 0 .1.2.3.3.4zm1.5 25.1c-.2-.3-.4-.5-.6-.8-.3-.4-.7-.3-.8.1 0 .2.3.7.5.8.2.2.6 0 .9-.1zm-.5-20.7l.3.1-.1-.4-.2.3zm1.8 107.3l-.4.2.4.2v-.4zm-.3-96l-.4.1.4.2v-.3zm0-20.6l-.1-.4-.2.3.3.1zm3 9c.2-.2.4-.5.6-.7-.1-.7-.5-.9-1.1-.9-.1 0-.3.6-.2.8.1.4.4.6.7.8zm-.1 18.7l-.5-.2v.4l.5-.2zm1 91.5l-.1-.3-.2.3h.3zm.1-53.2c0-.1-.1-.2-.1-.3-.1 0-.3.1-.4.1 0 .1.1.2.1.4.2-.1.3-.1.4-.2zm3.2-36.7c-.1-.1-.2-.4-.2-.4-.4 0-.5.3-.3.7.1.2.1.3.2.5 0-.3.1-.5.3-.8zm.3-3.3l-.2.1.2-.1zm.2-1.7c0 .5-.1 1.1-.1 1.6.4-.5 1.3-.9.1-1.6zm1.7-12c0-.2-.3-.5-.5-.8-.4.4-.7.8-1 1.2.1.1.3.2.5.3.5.1 1-.1 1-.7zm.1 52.2l-.4.1.3.2.1-.3zm1.2 23.2l-.3-.1.1.3.2-.2zm1.6-76.3c-.3-.2-.6-.3-.9-.4-.1.1-.3.3-.3.4.1.4.4.6.8.4.2-.1.3-.3.4-.4zm-.5 19.7l-.3-.3c-.1.1-.3.2-.3.3 0 .1.2.2.3.3l.3-.3zm.2 86.8h-.4l.2.4.2-.4zm1.4-87.3c0 .1.2.3.3.4.1-.3.3-.6.4-.8-.1-.1-.2-.2-.3-.4-.1.2-.3.5-.4.8zm.8 45.7c0-.1-.2-.2-.3-.3-.1.1-.3.2-.3.3 0 .1.2.2.3.3.1-.1.3-.2.3-.3zm0-38.2c-.1-.1-.2-.2-.3-.4-.1.1-.3.2-.3.3 0 .1.2.2.3.4 0-.1.2-.2.3-.3zm1.1-20c-.1-.3-.1-.8-.3-1-.3-.3-.8-.1-.8.3 0 .3.1.7.4 1 .3.4.6.2.7-.3zm2.4 59.3l-.3-.2v.3l.3-.1zm1.1-56.4c0-.1-.2-.3-.3-.4-.1.3-.3.6-.3.9 0 .1.2.2.4.4-.1-.3.1-.6.2-.9zm1.9 54.2l-.9-.3c-.1.3-.3.6-.3.9 0 .5.4.6.7.3.2-.3.3-.6.5-.9zm.3-21.1h-.3l.1.4.2-.4zm2.5 9c0-.3-.2-.6-.3-.9-.1.1-.4.2-.4.3 0 .3.2.6.3 1 .1-.2.4-.3.4-.4zm.7-35.5c-.2-.3-.4-.6-.7-.9-.4-.5-.7-.4-.8.2 0 .3.2.8.4.9.3.1.8-.1 1.1-.2zm1.4 14l-.1-.3-.2.3h.3zm2.4 14.3c-.1-.6-.5-.8-1-.8-.2 0-.3.2-.4.2.3.4.6.7.9 1.1.1-.2.3-.4.5-.5zm2.4 29.7l-.1-.4-.2.4h.3zM280.7 303.4c.2 1.1-1.1.9-1.3 1.2-2.5 4.1-6.6 2.4-9.8 2.1-1.8-.2-3.2-.5-4.9.2-3.6 1.4-7.3-.6-10.9-.6-1.1 0-1.6-2-2.8.5-.7 1.4-3.2.4-4.7-.6-2.4 2.8-5.4.6-8 .8-13.9.8-27.8.8-41.7.5-1.1 0-2.3.2-3.3-.6.6-2.2 1.9-3.6 4.3-3.7 3-.1 4.6-2.7 6-4.5 4.9-6.3 4.1-14.7 7.3-21.7-2.1-4.7 2.6-9.2.2-13.9-.2-.4.3-1.2.1-1.7-.8-2.4 5.3-4.1.8-6.8 1.7-3.2.2-6.6 1-9.8.8-3.4.5-7 .2-10.1-1-13.7-1.2-27.6-4.9-41.1-2-7.4-4.7-14.6-8-21.5-.9-1.8-2.4-3.3-3.8-4.8-.8-.9-2.7-1-1.9-2.9.6-1.6 2.1-1.6 3.4-1.7 9.9-.7 19.8-.8 29.8-.3 6.7.3 13.4.5 20.1.3 7.5-.2 8.4 1 8.6 8.5.2 11.3 0 22.8 1.2 33.9 1.5 14 .6 27.9 1.8 41.7.7 8.8.3 17.6.6 26.4.2 6.3 1.8 12.4 3 18.5.8 4.1 6.1 4.6 6.7 8.8 3.8-3.5 5.5 2.9 8.8 1.9 1.2-.4 2-.2 2.1 1zm-73.2-170.7c-8.1-15.4-2.8-26.8 10.5-34.2 12.5-7.1 26.1-.9 31.7 9.8.8 1.6 3.5 3.3-.1 4.9-1 .4-.1 1.1.2 1.3 4 2.1 2.7 5.6 2 8.6-3 13-14.8 21.7-25.5 20.6-2.2-.2-9.8-3.3-11.7-4.5-2.8-1.8-6.7-2.2-7.1-6.5-.1 0-.1 0 0 0zm0 0c1-.1 1.4-.7 1.2-1.7 0-.1-.3-.3-.4-.3-1.2.3-1 1.2-.8 2zm4.9-21.2c0 .1.6.2.9.3.3-.1.7-.2 1-.3-.3-.1-.6-.4-.9-.4-.4-.2-1.1-.4-1 .4zm2.7 92.3c-.1 0-.4-.2-.4-.1-.3.2-.2.4.3.5 0 0 .1-.2.1-.4zm12.9 79.5v-.4c-.3-.3-.6-.2-.6.2 0 .1.1.3.3.3 0 .1.2 0 .3-.1zm5.6 7.4c-.3-.2-.5-.4-.8-.4-.2 0-.5.3-.7.4.1.1.3.2.4.2.4 0 .7-.1 1.1-.2zm4 2.3c-.3-.2-.6-.5-.9-.5-.3 0-.6.3-.8.5.3.2.6.5.9.5.2 0 .5-.3.8-.5zm1.1-14.7c.3.1.9-.1 1-.3.2-.6-.3-1.1-.8-1.2-.1 0-.4.4-.6.6 0 .4.1.8.4.9zm2-105.5c-.4-.2-.8-.5-1.3-.7-.2-.1-.5.3-.7.5.5.3.9.6 1.4.8.5.3.8.1.6-.6zm3.7 108.6c0-.4-.2-.5-.6-.2l.1.3c.2 0 .3 0 .5-.1zm.7-111c0-.4-.1-.5-.5-.2l.1.3c.2-.1.3-.1.4-.1zm1.1 135.6c0-.1-.1-.1-.1-.2-.1-.1-.2 0-.3 0 .1 0 .2.1.4.2zm0-14.2c0-.4-.2-.4-.5-.2l.1.3c.2 0 .3-.1.4-.1zm1.6-24.3c-.1-.1-.2-.4-.3-.3-.3 0-.6.2-.9.3.1.1.2.4.3.3.4 0 .7-.2.9-.3zm1.7-99.8l-.4.2.4.2v-.4zm24.3 135.5c0-.1-.2-.2-.3-.4-.1.1-.3.2-.3.3 0 .1.2.2.3.3.1 0 .3-.1.3-.2zM438.2 223.8c-5.8 6.6-14.4 8.6-23 8.6-1.8 0-3.7-.6-5.8-.5-5 .2-12.6-6.8-13.8-11.9-2.3-9.6-2.1-19 1.2-28.5.8-2.4-.8-6.7-3.8-9.2-3-2.5-7.7-3.3-10.7-1.3-2.4 1.5-4.7 3.3-6.8 5.3-1.5 1.4-2.1 3.4-5 2.4-1.6-.6-2 1-.6 3.2h.1c-.1-.4.2-.4.2-.1v.1h-.3c-.7.7-1.6 1-2.5 1.1-1.4.2-3.7-.6-1.4 2.3 1 1.2-1.6 3.2-2.8 4.6-4.4 5.4-8 11.1-10.9 17.4-4 8.6-2.6 17.7-2.7 26.5 0 9.5.6 19.1.8 28.6.2 6.5 2 12.7 3 19.1.7 4.4 6.4 4.9 6.9 9.3 3.9-4 5.7 3.4 9.5 1.7 1.3-.6 1.6 2.2 1 2.1-2.2-.2-1.9 2.4-4 2.7-4 .6-7.7-1.6-11.8-.3-3.8 1.2-7.8.3-11.5-1.3-.9-.4-1.4-.5-1.8.3-1.5 3.1-3.3 1.1-5.1.4-2.3 2.8-5.4.6-8 .8-13.9.8-27.8.8-41.7.5-1.1 0-2.3.2-3.3-.6.6-2.2 1.9-3.6 4.3-3.8 3.1-.3 4.5-2.9 6.2-5 5-6.2 3.8-14.5 7.1-21.2-2.1-4.7 2.5-9.2.2-13.9-.2-.4.3-1.2.1-1.7-1-2.4 5.4-4 .8-6.8 1.7-3.2.2-6.6 1-9.8.8-3.4.5-7 .2-10.1-1-13.7-1.2-27.6-4.9-41.1-2-7.4-4.7-14.6-8-21.5-.9-2-2.7-3.6-4.3-5.1-.8-.8-2-1.1-1.5-2.6.5-1.3 1.7-1.6 2.8-1.6 5.2-.4 10.4-.9 15.6-.9 12.2.1 24.4.5 36.6.8 5.9.2 7.3 1.5 6.9 7.3-.5 7.5.7 14.9.9 22.3.1 4.2.5 9.3 2.5 15 4.5-10.5 11.1-17.8 16.6-25.9 1.3-1.9 2.8-3.7 5-4.7l-.1-.1h.2l1-1v-.2l.1.1c.8-2.2 2.8-2.1 4.5-2.4 1.6-1.9 2.3-5.6 6.1-2.7.2.1.8 0 .9-.2 5.9-5.7 7.5-6.7 10.3-7.5 16-4.9 36.8 6 43.7 19.9 1.3 2.7 3.9 4.7 4 7.9h-.1c5.9 12 4.5 23.5-4.1 33.2zm-132.3-19.6c-.1-.1-.2-.3-.3-.3-.6 0-.6.2-.1.4.1.1.2 0 .4-.1zm12.8 79c0-.1-.3-.2-.4-.2-.4.1-.5.3-.2.7.1.1.3 0 .4 0 .1-.2.2-.4.2-.5zm5.4 7.6c-.1-.1-.3-.3-.4-.3-.3 0-.6 0-1 .1l.5.5c.4 0 .6-.1.9-.3zm4 2.5c-.3-.2-.6-.5-.9-.6-.3 0-.6.3-.9.5.3.2.5.6.8.6.4 0 .7-.3 1-.5zm2.1-15c.2-.6-.3-1.1-.8-1.2-.2 0-.4.4-.6.6.2.3.3.8.5.9.3 0 .9-.2.9-.3zm-.5 11.8c-.1-.3-.2-.4-.3-.1 0 0 .1.1.3.1zm1.8-116.8c-.4-.3-.8-.7-1.3-.9-.2-.1-.7.2-1 .3.4.3.9.7 1.3 1 .5.3.8.2 1-.4zm3.5 108.3c0-.4-.2-.5-.6-.2l.1.3c.2.1.3 0 .5-.1zm.7-111c0-.4-.1-.5-.5-.2l.1.3c.2 0 .3-.1.4-.1zm1.1 135.6c0-.1-.1-.1-.1-.2-.1-.1-.2 0-.3 0 .1 0 .2.1.4.2zm.1-14.2c0-.4-.2-.4-.5-.2l.1.3c.1 0 .2-.1.4-.1zm1.5-24.2c-.1-.1-.2-.3-.3-.3l-.9.3c.1.1.2.4.3.3.4-.1.7-.2.9-.3zm1.8-99.6l-.4-.2-.1.3.5-.1zm23.6 135.2c0 .1.2.2.3.3l.3-.3c-.1-.1-.2-.2-.3-.4-.1.2-.3.3-.3.4zm10.1-119.3c-.1 0-.3-.2-.4-.1-.3.2-.2.4.2.4.1 0 .2-.2.2-.3zm4.6-10.4c0-.1 0-.3-.1-.3s-.1 0-.2-.1c.1.1.2.2.3.4zm19.2-4c.4.3.7.3.9-.2.1-.5 0-.8-.5-.8-.3 0-.7.1-1.1.2.2.3.4.6.7.8zm-.2 12.2l-.3-.2v.3l.3-.1zm1.1-7.2c-.1-.1-.5 0-.5.1-.1.3-.2.8-.1 1.1.2.3.5.2.8-.3.4-.4.3-.7-.2-.9zm0 44.1l-.3.1.3.2v-.3zm4.3-4.6c-.1-.1-.3-.3-.4-.3-.1 0-.3.1-.5.2.1.1.3.3.4.3.1 0 .3-.1.5-.2zm1.5-39.7c0-.3-.3-.7-.5-1-.3-.3-.7-.2-1 .2.2.3.5.6.7.9.4.6.7.5.8-.1zm1.8 53.8c-.1-.1-.2-.4-.3-.4l-.9.3c.1.1.2.4.3.4l.9-.3zm.2-63.2c-.3-.2-.6-.5-.8-.5-.4 0-.5.4-.2.8.1.1.3.3.4.2.3-.1.4-.3.6-.5zm3.1 55.7c-.3 0-.6 0-.8.2-.3.4 0 .8.3.6.2-.2.3-.5.5-.8zm1.2-1c-.2-.1-.3-.2-.5-.2-.6.1-.7.5-.6.9.4-.2.8-.4 1.1-.7zm.3-48.2c-.1 0-.2-.2-.3-.1-.1 0-.2.1-.2.1h.5zm1.6 13.2c0-.6-.1-1.1-.8-1-.3 0-.5.3-.8.5.3.4.6.8.9 1.1.3-.2.5-.4.7-.6zm-.6 24.8c0-.3-.2-.4-.5-.2l.1.3c.1 0 .2 0 .4-.1zm.4 3.5l-.1-.3-.2.3h.3zm2-33c-.4.9.1 1.4.4 2.1 0-.7.4-1.5-.4-2.1zm.5 2.4s0 .1 0 0zm2.4 46.6c-.4-.1-.7-.3-1-.4-.1 0-.3.2-.4.4.2.2.5.5.7.6.2 0 .4-.4.7-.6zm-1.4-6.7c.4.1.7.3 1 .4.1 0 .2-.2.4-.4-.2-.2-.5-.5-.7-.5-.3 0-.5.3-.7.5zm0-46.5s.1-.3.1-.4c-.3.2-.4.3-.1.4zm.7 6.7c0-.1-.1-.1 0 0-.1 0-.1 0 0 0zm.5-10.2c-.1-.1-.2-.3-.3-.3-.1 0-.2.2-.3.3.1.1.2.3.3.3.1 0 .2-.2.3-.3zm3.5-1c-.1 0-.1 0 0 0-.1-.2-.2-.2-.3-.3 0 .1.2.2.3.3zm1.7 1c-.4-.1-.9-.3-1.3-.4.2.5.4 1.2 1.3.4zm1.7 3.2c-.2-.3-.3-.5-.5-.8 0 0-.3.1-.4.2.2.3.3.5.5.8.1 0 .2-.1.4-.2zm.5 40.2l-.2.3.2-.3c0 .1 0 .1 0 0zm2.8-34.3c-.2 0-.3-.1-.5-.1-.1 0-.1.2-.2.3.2 0 .3.1.5.2.1-.1.1-.2.2-.4zm2.5 39l-.2-.5-.2.5h.4zm1.1-37.5l-.1-.4-.2.4h.3zm3.9 41c-.2-.2-.5-.5-.7-.5-.5.1-1.1.3-1 1 0 .2.5.5.7.5.5-.1 1.1-.2 1-1zm1.2-4.8c-.1-.5.1-1.3-.7-.4-.2.1.3.5.7.4zm.6.6c.1-.3-.1-.4-.4-.5 0 .1 0 .3.1.4 0 .1.3.1.3.1zm3.1-3.3c-.2-.2-.4-.3-.6-.5l-.9.6c.2.1.3.3.5.2.3 0 .6-.1 1-.3zm3.3-26c-.5-.2-.9-.4-1.4-.4-.8-.1-1.5 0-1.5 1.1 0 .1 1 .2 1.5.1.5-.2.9-.5 1.4-.8z"/><path class="st0" d="M553.6 272.2c-2.9 2.7.2 7.2-3.7 8.7 2.2 3.9-1.6 6.2-2.6 9.3-.6 1.9-2.1 3.6-4.3 4.1 1 2.9-1.3 4.2-2.9 5.7-1.4 1.2-2.6 3.5-5.3 1.7-1.3-.9-1.9.3-2.2 1.6-.6 3.1-2.1 4.9-5.5 3.5-.6-.2-1-.4-1.5 0-4.9 3.3-10.5 2.4-15.8 2.7-3.4.2-6.9-.4-8.3-4.4-5.2 2.1-10-1-13.4-3.3-6.6-4.5-12.3-10-14.9-18.7-3.2-10.6-3.7-21-3.7-31.8 0-6.6-1.2-13.3-1.2-19.9 0-5.6-.5-11.1-1.6-16.5-.6-2.8 1.3-4.6 2.2-6.7.8-1.8 2.2-3.6-1.6-2.7-.9.2-1.5-.3-1.4-1.3.7-6.5-2-12.7-1.5-19.1 0-.5.4-.9.7-1.3-.7-5-1.8-9.9-1.9-14.9-.1-3.5-1.4-3.9-4.1-3.5-2.1.2-4.2 0-6.3.3-1.9.2-4.9.7-5.2-2.1-.3-2.9 2.6-3.4 4.9-3.7 3.6-.4 7.2-1.1 10.9.7 1-3.8.8-7.3.4-10.6-1.6-13.8-3.3-27.5-6.5-41.1-1.8-7.8-4.7-15.2-6.7-22.9-2-7.7-5-15.2-8.9-22.3-.3-.5-.3-1.1-.5-1.7h.7-.5c-1.2-.2-.9-1.2-.9-2-3.8-5.4-7.9-10.6-11.2-16.3-1.7-3-4.7-4.9-6-8h-.1c-5.2-1.7-9.5-5.2-15.2-6.2-9.5-1.6-16.7 1-22.4 8.6-3.5 4.8-6.7 9.8-8.1 15.6-1.4 5.7-4.1 10.7-8 15-5.2 5.8-11 10.6-19.3 11.3-2.6.2-4.7-1.5-7.1-1v-.1c-4.6 2.5-9.1 1-13.4-.7-1.9-.7-2-3.9-4.9-4.3-.9-.1.8-.6 1-1.1.7-1.3-.6-3.3-1.6-2.6-2.1 1.4-2.3-.3-2.8-1.3-1.5-2.9-1.5-6-1.2-9 1.5-14.2 7.9-25.7 19-34.6 2.6-2.1 4.7-4.9 7.5-6.8 6.5-6 15-7.5 23-8.8 10.2-1.7 21.1-1.7 31.5.3 8.4 1.6 17 3.5 24.4 8.4-.3 0-.6.1-.9.1.3 0 .6 0 .8-.1 4.7 1.6 9.4 3.8 13.1 7 4.5 3.8 9.8 6.5 14 10.6 4.4 4.3 8.6 8.6 12.9 12.9 4.5 4.5 8.7 9.5 11.3 15.1 3.8 8.2 11.1 14.5 12.6 23.9 10.3 13.4 12.5 29.6 15.6 45.4 1 4.8 1.1 9.8 2.6 14.5.4 1.2-.2 2.2-1 3.1 0 .2-.1.4 0 .6 3.1 9.2 3.1 9.1 12.6 9.1 9.5-.1 18.9.1 28.4 0 1.8 0 2.5-.1 2.9 2.1.5 2.8-1.1 3.1-2.7 3.1-4.6.1-9.2.1-13.8-.2-7.5-.4-15.1 1.5-22.7-.4-2.1 3.1 1.4 7.4-2.1 10 2.5 3.2 2.1 7.1 2.1 10.8.3 12.2.9 24.3 1.6 36.5.6 10.8.5 21.8 3.3 32.4.7 2.6-.3 5 .2 7.7 1.5 7.6 4.9 14 9.2 20.1-.8-.1-1.5 0-1.8.8-.1.2.2.9.3.9 1.1.1 1.6-.5 1.6-1.6 3 1 4.8 4.4 8.5 4.1 1.9-2.7 5-4.1 7.3-6.4 4-3.9 7.8-8 8.4-13.9.2-2.2 2.3-3.1 3.6-4.6 3.2 3.5 1.9 8.5.1 10.2zM322.2 62.3c0-.1-.1-.1-.2-.2.1.1.1.2.2.3v-.1zm7.8 10h-.3l.1.3.2-.3zm5.9-11.8c-.1-.1-.2-.3-.3-.4-.1.1-.3.2-.4.3-.1.4 0 .6.4.5.2 0 .2-.2.3-.4zm4.4-18.1l-.1-.3-.2.3h.3zm2.5 34.5s-.4.1-.5.2c-.5.8.2 1.3.6 1.8.2-.7.4-1.4-.1-2zm2.1-34.5l-.1-.3-.2.3h.3zm2.4 20.6h-.3l.1.3.2-.3zm4.7-35.6c.1.1.4.1.5.1.2-.1.3-.3.5-.5-.3-.1-.7-.3-.9-.2-.6.1-.6.4-.1.6zm1.2 15.6c.1-.6.1-1.1-.6-1.1-.2 0-.5.4-.8.6.2.3.3.7.6.9.4.3.7.1.8-.4zm3.3-6.7h-.4l.2.4.2-.4zm4.6 22.1c-.3-.2-.6-.3-1-.4-.1 0-.3.2-.4.4.3.1.6.3 1 .4.1 0 .3-.3.4-.4zm1.7-35.8s-.2-.3-.3-.3c-.6-.1-.9.2-.9.8.5.1.9-.1 1.2-.5zm1.9 9.3l-.2-.4-.2.4h.4zm3-7.1h.4l-.2-.4-.2.4zm.5 5.8l-.4-.2v.4l.4-.2zm4.4 4.4c-.2-.3-.5-.5-.8-.7-.3-.2-.6 0-.6.5 0 .6.4.9 1 1 .4-.1.6-.4.4-.8zm3.5-12.7l-.4.1.3.2.1-.3zm2.4-5.6l-.6.3h.3c.1 0 .2-.2.3-.3zm1.3 20.6c0-.2-.1-.3-.2-.5-.1 0-.3.1-.4.1-.1.2-.2.4-.1.5.3.5.6.4.7-.1zm3.2-9.2l-.4.1.3.2.1-.3zm4.6-2.4c-.2 0-.3-.1-.5-.1-.1 0-.1.2-.1.3.2.1.3.1.5.2 0-.1 0-.2.1-.4zm.3-4.4c-.1-.1-.2-.3-.3-.3-.1 0-.2.2-.3.3.1.1.2.3.3.3 0-.1.1-.3.3-.3zm3.3 7l-.1-.3-.2.3h.3zm1.1-5.8l-.1-.3-.2.3h.3zm6.3 1.6c-.1 0-.1 0 0 0-.1 0-.1 0 0 0-.1.1-.1.1 0 0 0 0-.1 0 0 0zm4.2-9.8l-.4-.2v.4l.4-.2zm9.2.9h-.4l.1.4.3-.4zm20 22.5c.1-.6-.2-1-.8-1.3-.2-.6-.6-.8-1.2-.6-.1 0-.4.3-.4.3.2.6.7.7 1.2.7l.6 1.5c.2-.2.5-.4.6-.6zm13.5 11.2c-.1-.1-.3-.4-.4-.3-.3 0-.6.2-.9.3.1.1.3.4.4.4.3-.2.6-.3.9-.4zm2.7-1s-.2-.1-.3-.1c-.1.1-.2.2-.2.4-.1.5.1.6.4.2.1-.2.1-.4.1-.5zm1 10.1h-.4l.1.4.3-.4zm2-6.6c.1-.4-.1-.5-.6-.2l.1.3c.2 0 .4-.1.5-.1zm2.6 14.7h-.4l.1.4.3-.4zm1.3-8.3c-.1-.2-.2-.3-.3-.4-.1.1-.3.2-.4.4-.1.4 0 .6.4.5.2-.1.2-.4.3-.5zm.2 103.3l-.1-.4-.2.3.3.1zm.9-74.2h-.4l.1.4.3-.4zm3 9.7c0 .3.2.6.3.9.1-.1.4-.2.4-.3l-.3-.9c-.2.1-.4.2-.4.3zm.9 65.5c0-.1-.2-.2-.3-.3-.1.1-.3.2-.3.3 0 .1.2.2.3.3.1-.1.3-.2.3-.3zm.4-51.3c-.3 0-.7.1-1.1.2.2.3.3.7.6.8.3.1.8 0 1-.2.2-.3 0-.8-.5-.8zm-.1-42.6l.1.4.2-.4h-.3zm2-4.8c-.1-.3-.1-.8-.3-.9-.4-.2-.8 0-.8.5 0 .3.2.7.3 1 .3-.2.5-.4.8-.6zm-.4 10.9l-.3-.2v.3l.3-.1zm5-8c-.1-.6-.5-.9-1.1-.8-1 .2-1.7.8-1.6 1.8 0 .4.9 1 1.2.9.7-.3 1.6-.7 1.5-1.9zm.1 102.8c-.1-.1-.2-.2-.3-.4-.1.1-.2.2-.4.3.1.1.2.3.3.3.2.1.3-.1.4-.2zm.5-82.1s.7-.3.7-.5c.1-.6-.3-1.1-.9-1.3-.3.2-.6.3-.8.5.4.5.7.9 1 1.3zm1.1 47.5c0-.1 0-.3-.1-.3-.1-.1-.3-.1-.4-.1-.4.2-.3.4.1.5.1 0 .2-.1.4-.1zm1.6-42l-.3-.9c-.1.1-.4.2-.3.3 0 .3.2.6.3.9 0-.1.1-.2.3-.3zm.3-20.4c-.1.1-.1 0 0 0-.1.1-.1.1 0 0-.1.1 0 0 0 0zm2.3 150.2l-.3-.2v.3l.3-.1zm.3-144.4c.1 0 .3-.1.4-.1v-.4c-.1-.1-.3-.2-.4-.1-.5.2-.5.4 0 .6zm.8 92c0-.3-.2-.6-.3-.9-.1.1-.4.3-.4.4l.3.9c.2-.1.4-.3.4-.4zm-.7-39.1l.3.2v-.3l-.3.1zm4.3-23.2c-1.2-2-2.4-1.5-3.7-1.1 1 1 2.1.9 3.7 1.1zm-3.2 25.6l.4.2v-.4l-.4.2zm.1-6.2c.2-.1.5-.3.7-.4-.1-.3-.2-.6-.4-.9-.1.1-.4.2-.4.3 0 .3.1.6.1 1zm.4 13.2l-.3-.2v.3l.3-.1zm1.2 131.7l-.4.2.4.2v-.4zm.2-125.1c-.1-.1-.2-.2-.3-.4-.2.2-.4.5-.5.7 0 0 .2.2.4.3.1-.2.3-.4.4-.6zm-.8-56.5c0 .1.2.2.3.4.1-.1.2-.2.4-.3-.1-.1-.2-.2-.3-.4-.2.1-.4.2-.4.3zm1.9 66c-.1-.1-.2-.3-.3-.3-.1 0-.2.2-.3.3.1.1.2.3.3.3.1 0 .2-.2.3-.3zm.8-52c-.1-.1-.1-.3-.2-.4-.1 0-.4 0-.5.1-.3.3-.2.5.3.5.1 0 .3-.2.4-.2zm.5-1.9c.3-.1.6-.3.9-.4-.1-.1-.3-.2-.4-.4-.2.1-.5.3-.8.4 0 .2.2.5.3.4zm1.4 149.8c-.1-.1-.2-.3-.3-.4-.1.1-.3.1-.3.3-.1.4.1.6.4.5.1-.1.2-.3.2-.4zm1.2 26.4c0-.1-.1-.3-.2-.5-.1 0-.3 0-.3.1-.1.1-.1.4-.1.5.2.5.5.4.6-.1zm-.5-140.8c0-.1-.2-.2-.3-.4-.1.1-.3.2-.3.3 0 .1.2.2.3.4.1-.1.3-.2.3-.3zm1.2 24.4l-.1-.4-.2.3.3.1zm1.7 126c-.1-.1-.2-.2-.3-.4-.1.1-.3.2-.3.3 0 .1.2.2.3.3 0 0 .2-.1.3-.2zm1.1-41.9c-.1 0-.3.1-.5.1 0 .1 0 .3.1.4.1.1.4.1.5.1.5-.2.4-.5-.1-.6zm1.8-104.6c-.2-.2-.4-.7-.6-.7-.9 0-1.3.6-1.3 1.5 0 .3.4.8.5.8.9-.2 1.3-.8 1.4-1.6zm0 61.2c-.3-.2-.6-.5-.8-.5-.6 0-.7.3-.2.7.1.1.3.2.5.3.3.1.5 0 .5-.5zm1.6 78.3h-.3l.1.4.2-.4zm.7-135.9c.1-.1 0-.4 0-.5-.3-.3-.6-.2-.6.3 0 .1.2.3.3.4 0 0 .2-.1.3-.2zm1.8 147.5c0-.1-.1-.4-.2-.5 0-.1-.3 0-.4 0 0 .2-.2.3-.1.5.2.5.5.6.7 0zm0-129.7c-.2 0-.3-.2-.5-.1-.6.1-.6.4-.1.6.1 0 .3 0 .5-.1.1-.1.1-.3.1-.4zm-.1-33.4h.4l-.2-.3-.2.3zm.6 9.1h-.3l.1.3.2-.3zm1.4-1.6c.8-1.5 1.2-3 .5-4.7.4 1.7-2.5 2.9-.5 4.7zm0 .3c.2 1.4 0 3 1 4.2.1-1.5 2.3-3.5-1-4.2zm2.6 159.9c-.1-.1-.3-.4-.3-.4-.3.1-.6.2-.9.4.1.1.3.4.4.3.2 0 .5-.2.8-.3zm-.3-2.6c-.1 0-.3.1-.5.2 0 .1.1.3.1.4.2.1.4.2.5.1.5-.4.4-.6-.1-.7zm.9-31.9c0-.1 0-.3-.1-.3-.1-.1-.4-.2-.5-.1-.4.2-.4.5.1.6.2 0 .4-.1.5-.2zm1.3-54.4l-.2-.4-.2.4h.4zm-.7-78.9c.1.1.2.3.3.3.1 0 .2-.2.4-.3l-.3-.3c-.1.1-.3.2-.4.3zm.6 37.5c-.1-.1-.1-.3-.2-.4 0 .3 0 .5-.1.8.1-.2.2-.3.3-.4zm.7-31.1c-.2-.2-.5-.4-.7-.6-.1.1-.3.4-.3.4.2.2.4.4.7.6.1-.1.2-.3.3-.4zm-.2 66l-.1-.2.1.2zm0 12.1l.4.2v-.4l-.4.2zm1.3 78.7c-.1-.1-.2-.3-.3-.3-.1 0-.2.2-.4.3.1.1.2.3.3.3.1-.1.3-.2.4-.3zm-.5-56.9l-.2.3h.3l-.1-.3zm1.9 51.2c.2.1.3.1.5.2 0-.1.1-.4.1-.4-.1-.1-.3-.1-.4-.1-.1-.1-.1.1-.2.3zm.9 7c-.1-.1-.1-.4-.3-.4-.1 0-.3.1-.4.2.1.2.3.4.5.7.1-.2.1-.4.2-.5zm-.2-106.5c-.1-.1-.3-.2-.4-.4-.1.3-.3.6-.4.9 0 .1.2.3.3.4.2-.3.3-.6.5-.9zm.9 116.5c-.1.2-.2.5-.3.7.3-.1.7-.1.3-.7zm3.1-61.1c-.3-.1-.5-.3-.8-.4-.1.1-.2.3-.3.4.3.1.5.3.8.3l.3-.3zm-.5 27.8l-.3-.2v.4l.3-.2zm1.3 29.5c-.2-.4-.5-.4-.6.1 0 .1 0 .3.1.5 0 0 .2-.1.4-.1.1-.1.2-.3.1-.5zm.2-149.8c.2.1.5.3.7.4 0-.5 0-.9-.7-.4zm1 135.5c.1 0 .3.1.4.1.1 0 .1-.2.1-.3-.1 0-.3-.1-.4-.1 0 0 0 .1-.1.3zm1.1 16.1c-.1-.1-.2-.4-.3-.4s-.3.2-.4.3c.1.1.2.3.3.4.1-.1.3-.2.4-.3zm-.7-55.5h.4l-.1-.4-.3.4zm1.1 22.9c-.1 0-.3-.1-.5-.1 0 0-.1.2-.1.3.1 0 .3.1.4.1.1 0 .2-.2.2-.3zm.6 23.6h.4c-.1 0-.1 0-.2-.1 0 0-.1 0-.2.1zm-.2-90.3c.3.2.5.4.8.5 0 0 .3-.3.3-.4-.1-.3-.3-.5-.5-.7-.2.3-.4.4-.6.6zm2.2 103.6c-.1-.8-.6-1.4-1.5-1.5l-.2-.2.3.2c0 .8 0 1.6 1 1.8.1 0 .4-.2.4-.3zm-1.4-40.4c0 .1.2.2.3.3l.3-.3-.3-.3c-.1.1-.3.2-.3.3zm.1-9.3l.1.4.2-.4h-.3zm-.2-63.4v.9c.2-.1.5-.2.7-.2-.1-.3-.3-.6-.4-.9-.1.1-.3.1-.3.2zm.1 12.8l.2-.3-.3-.1.1.4zm.5 6.9c.2 0 .5-.2.7-.3-.2-.3-.5-.5-.8-.9-.1.4-.3.6-.3.9 0 .1.3.3.4.3zm1.7 65.6c-1 1.7-2.3 3.3-1.4 5.5 1.1-1.7.6-3.7 1.4-5.5zm-.2-41.1c.1 0 .3 0 .4-.1.1 0 0-.2.1-.3-.1 0-.3-.2-.4-.1-.6.1-.6.3-.1.5zm2 65.7c-.1-.9-.2-1.8-.4-3.4-.8 1.5-1.5 2.3-.6 3.4.2.2.7.1 1 0zm.6-35c0 .2.3.5.5.8.3-.1.7-.2 1.1-.3-.1-.3-.1-.8-.3-.9-.6-.4-1.1-.3-1.3.4zm3.5 18.8c.1-1.1-.9-1.5-2-1.7-.3.2-1.1.5-1.1.7.1.9.9 1.1 1.6 1.4.6.2 1.5.2 1.5-.4zm-2-5.4c-.3.2-.5.4-.7.6.2.2.5.3.7.5.4-.1.5-.4.3-.8 0-.1-.3-.3-.3-.3zm1.6 15.2c.1-.7-.3-1.1-.9-1-.5 0-1.3.3-1.4.5-.1.7.3 1.4 1.1 1.5.7 0 1-.5 1.2-1zm3.1-7.3c1.3.9 1.6-.9 1.8-2v.1c-.3-.2-.7-.2-.8-.5-.2-.6.3-.8.8-.9v.3c0-.1 0-.1.1-.2-.7-.5-1.3-2.4-1.8-1.6-.8 1.4-1.8 3.7-.1 4.8zm1.8 11.6c1.5-3.1 1.4-3.1-2-5.2 1 1.9.2 4 2 5.2zm1 1.3c-.2-.3-.5-.5-.7-.7.1.5 0 1 .6 1.2.1-.2.2-.4.1-.5zm7.7-7.7c.2 0 .4-.6.3-.9-.5-2-2.1-1.5-4.4-1.6 1.5 1.8 2.4 2.8 4.1 2.5zm.5 3l-.2-.1c-.5 0-1.3-.3-1.5-.1-.3.5-.1 1.1.6 1.2.8.1.9-.4.7-1h.4zm2.7-10.5c-.2.8-.4 1.6 0 2.4 0 0 .4 0 .5-.1.4-.9-.4-1.5-.5-2.3zm.4 5.6l-.2-.4-.2.4h.4zm2.9-1.4c-.1-.1-.3-.4-.4-.3-.3.1-.6.2-.9.4.1.1.3.4.3.4.4-.1.7-.3 1-.5zm7.4-10.3c-.3.2-.9.4-1.1.8-.3.7.4 1 .9 1 .3 0 .7-.3.9-.5.3-.6.1-1-.7-1.3zm6.1-20.1l.3-.1-.1.1h-.2zm2.3-.4l-2.1.3.1-.1c.6-.9 1.3-1.2 2-.2zm.2 1.6l-.1-.1c0-.5 0-.9-.1-1.4l-.1-.1h.2c.1.5.1 1 .1 1.6zM745.3 299.4c-.1 1.1-.9 1.6-1.9 1.9-.7.2-1.5.4-2.3.3-14.6-1.2-29.1 2.3-43.7.9-8.1-.8-15.9 2-24 .7-1.7-.3-3.7.9-5.5 1.2-1.6.2-3.8.8-4.5-1.3-.6-1.9.9-3.5 2.6-3.9 8.4-2.1 9.6-10.1 11.7-16.2 2.1-6 1.3-13.1 2.3-19.5 1.1-7.3.1-14.6 1-21.7 1.2-10.5.1-20.8-1.1-31.2 0-.2-.1-.4-.1-.6 1.8-7.9-2.7-14.3-5.5-21.1-1.5-3.6-5.3-5-9-5.9-2.4-.6-5-.3-7.5-.3-1.6 0-3.6.4-3.8-2.1-2.1-.4-3.9.3-4.2 2.4-.4 2.5-2 2.8-3.8 3.2-5.3 3.4-9.2 8.3-14.1 12-3.7 2.8-4.5 6.1-4.3 10.2.4 8 .6 16.1.8 24.1 0 1.1-.6 2.2-1 3.3 1.4 1.3 1.5 3 1.3 4.7-.8 8.3.2 16.7-.1 25.1-.2 6.8 2.5 13.6 3.9 20.4.2 1 1.2 1.5 1.9 2 1.4 1.1 1.8 3 3 4.2 1.5 1.7-.1 2.9 0 4.3.1 3.7 2.4-1.7 3.4.6.7 1.7 2.7 2 4.3 2.7 1.1.5 2.3 1 1.9 2.4-.3 1-1.5 1.3-2.4 1.3-5.7-.4-11.3 1.3-17.1 1.1-5.3-.2-10.6.8-16 1.2-11.1.9-22.3 1.3-33.5 1.2-3.1 0-6.2 0-9.2-.1-1.5 0-2.7-.4-3.1-2-.3-1.4.1-2.7 1.4-3.5 7.8-4.4 9.8-11.4 9.7-19.8-.1-4.4-.9-9.3 2.8-13 .2-.2.2-.7.1-1-2.9-11.3.7-22.5.9-33.7.1-5.5.8-11 .3-16.7-.5-4.8-1.6-9.9.2-15 1-2.9-.5-6.6-.8-10-1.5-18.1-3.1-36.2-8.2-53.8-1.1-3.7-2.3-7.6-3.8-11-1-2.4-2.6-6.2-6.2-7.6-2.8-1.1-2.1-2.7-.3-4.3 1.7-1.5 3.7-2 5.8-2 4-.1 8.1-.4 12.1-.4 12.6.1 25.2.2 37.8.6 5.6.1 8.4 3.2 7.9 8.8-.5 6 0 12 .5 18 .4 5.4.1 10.8-.6 16.1-.1.8-.3 1.5.7 1.8.5 4.4 1.9 8.9-.6 13.1 3.9 6.1.1 13 2.6 19.6 4.6-1.4 4.4-7.6 8.5-9.6l-.1-.1h.1c.8.3 1.5.6 2.3 0v-.1h.1c1.1-9 8.4-12.7 14.8-16.9 9.8-6.5 20.8-8.9 32.4-8.6.9 0 1.7.3 2.4 1 10.1 1.7 18.6 5.9 23.8 15.1 4.4 7.7 8.5 15.5 9.6 24.5.3 2.4 1.4 4.9-1.1 7-.4.3-1.5 2.3 1.1 1.6 1.3-.4 1.4 1.1 1.2 2-.8 3.4 0 6.9 0 10.3 0 12.6.7 25.1.2 37.6-.2 5.2 1.2 10 .7 15.1-.2 2.8 1 5.6 2.4 8.1 2.4 4.2 3.8 8.9 6.6 12.8 3.3 2.1 5.8 5.8 10.5 5.4 1.2.4 2 1.8 1.8 3.1zm-165.9-24.1c-.1-.1-.2-.4-.3-.4-.3 0-.6.2-.8.2.1.1.2.4.3.4.2 0 .5-.1.8-.2zm3.9-35.1c-.4-.1-.7-.3-1.1-.2-.5.1-.6.4-.5.9.2.5.5.6.9.2.3-.2.5-.6.7-.9zm4.6 4.7c-.3-.1-.7-.2-1-.1-.2.1-.5.5-.5.7.1.4.5.5.8.2.4-.3.5-.5.7-.8zm3.8 32.4c0-.1 0-.3-.1-.5-.2-.3-.4-.2-.5.3 0 .1.1.3.2.4.2-.1.3-.1.4-.2zm1.1-16.6c-.1-.2-.2-.3-.3-.5-.1.1-.3.2-.4.3-.1.5.1.8.5.7.1-.1.2-.4.2-.5zm0 27.3l-.1-.4-.2.3.3.1zm1.2-16.4h-.4l.2.4.2-.4zm5 19.5c-.2 0-.3-.2-.4-.1-.5.1-.5.4 0 .6.1 0 .3 0 .5-.1-.1-.1-.1-.2-.1-.4zm1.7-57.6l-.1-.4-.2.3.3.1zm2.2 53.2c-.3 0-.6-.1-.9-.1.1.1.3.3.4.3.2 0 .4-.1.5-.2zm.1-29.2l-.4.1.3.2.1-.3zm0-11.2l-.1-.4-.2.4h.3zm3.4 43.5c-.1-.4-.8-1-1.2-1-.4 0-1.1.7-1.1 1.1 0 .6.7.6 1.3.6.4-.1 1.3.2 1-.7zm-1.5-34.3h.3l-.1-.3-.2.3zm.2 27.6l.3.2v-.4l-.3.2zm3.6-154.6c-.4-.9-1.3-.8-2-.9.3 1 1.1 1 2 .9zm-.4 155.3s-.1 0 0 0c-.6.4-1.6.7-.5 1.6.2-.6.3-1.1.5-1.6zm1-154.6l-.4-.4v.2c.1.1.3.2.4.2zm4.2 155.2l-.1-.3-.2.3h.3zm.1-158.7c.1 0 .2 0 .3-.1h-.5s.1.1.2.1zm1.1 160.9h-.4l.1.4.3-.4zm0-7h-.3l.1.4.2-.4zm7-17.4h-.3l.1.3.2-.3zm2.5 32.7c0-.1-.1-.3-.2-.4-.1.1-.4.2-.3.3 0 .6.2.7.5.1zm-.8-70.8h.3l-.1-.3-.2.3zm1.6 24.2l-.4-.1.1.4.3-.3zm-.2-60.2l-.4.1.3.2.1-.3zm0 3.7l-.1-.3-.2.3h.3zm1.7-33.1h-.3c.1-.4.4-.4.3 0zm.9 77.5c-.1.1-.1.2-.1.3 0 .1.1.2.1.3v-.6zm2.4 61.6h0zm1.8-.1zm7.5-115.9h-2.3c-.1-.6.1-1.2.7-1.2.7-.1 1.2.5 1.6 1.2zm13.3-10.1l-.4.1.4.2v-.3zm18.6-12.5l-.1-.3-.2.3h.3zm4.1 137.7c-.2-.3-.3-.8-.6-.8-.6-.2-1.2.1-1.3.7 0 .2.3.8.6.8.5.1 1.1-.1 1.3-.7zm3.7-7c-.3-.5 0-1.4-.9-1-.4.2-.6.9-.7 1.3-.1.6.4 1.1 1 .9.3-.1.4-.9.6-1.2zm2.3 5.1c.1-.3-.1-.5-.4-.5v.4c.2.6-.1-.1.4.1zm.8.3c.1-.2-.3-.4-.7-.2.1.4 0 1.1.7.2zm-.1-87.6c-.1-.1-.2-.3-.3-.4-.1.1-.3.2-.3.3 0 .1.2.3.3.4 0-.1.2-.2.3-.3zm1.1 17c0-.1 0-.3-.1-.5 0-.1-.2 0-.3 0-.1.2-.2.3-.1.5.1.5.3.6.5 0zm4.1-54.2l.1.4.2-.3-.3-.1zm.8 125h-.4l.2.4.2-.4zm-.1-135.8c1.1-.5.9-1.4 1-2.3-1.1.4-1.2 1.2-1 2.3l-.2.2.2-.2zm1.7 103.8c.5 0 .7-.4.5-.8-.2-.5-.4-.6-.8-.2l-.8.8c.4.1.8.2 1.1.2zm.6 18.6c.3 0 .7-.1 1-.2-.2-.3-.3-.6-.6-.8-.3-.3-.7-.2-.9.2-.1.4 0 .7.5.8zm1 17.7c0-.3-.4-.5-.6-.8-.3.2-.7.3-.8.6-.1.3.1.9.3.9.6.2 1.1 0 1.1-.7zm-1.2-59.7c.2 0 .3.1.5.1.1 0 .1-.2.2-.3-.2-.1-.3-.1-.5-.1 0 0-.1.2-.2.3zm.5-55.6l.4.2v-.4l-.4.2zm.3 41.6l.1.3.2-.3h-.3zm1.7 68.4c-.1-.1-.2-.4-.3-.4l-.9.3c.1.1.2.4.3.4.3 0 .6-.2.9-.3zm-.2-79.5c.1-.1 0-.3-.1-.4 0-.1-.2 0-.3-.1 0 .1-.2.3-.1.4.1.6.3.6.5.1zm1.2 41.5c-.2-.1-.3-.3-.5-.4-.1 0-.2.1-.4.1.4.1.6.2.9.3zm1.7 19.8c-.2-.2-.4-.3-.6-.5 0 .1 0 .3.1.4.1.1.3.1.5.1zm1.8-7.4l-.3.1.3.2v-.3zm1.6-54c.2 0 .6-.4.6-.7.1-.6-.3-1-1.2-.6-.2.2-.6.6-1 .9.6.2 1.1.4 1.6.4zm.8 26.8c-.1-.2-.2-.3-.3-.5-.1.1-.3.3-.3.4-.1.5.1.7.5.5.1.1.1-.2.1-.4zm2.4 46.9l-.3-.2v.3l.3-.1zm1.8-18.4c-.3-.1-.6-.4-.9-.4-.3 0-.7.2-1 .3.3.1.6.4.9.4.3 0 .6-.2 1-.3zm.3-16.3l-.1-.4-.2.3.3.1zm2.4 29.8l-.3.1.3.2v-.3zm.7-43.8c-.1 0-.3-.1-.4-.1 0 0-.1.2-.1.3.1 0 .3.1.4.1 0 0 0-.2.1-.3zm1.2-43.8c.1-.3.3-.6.4-.9-.1-.1-.2-.3-.3-.4-.1.3-.3.6-.4.9-.1.1.2.3.3.4zm.9 76.4v-.4l-.5.2.5.2zm2.9-14.2l-.4.1.3.2.1-.3zm-.1-71.2c-.1-.1-.1-.3-.2-.4-.1.1-.2.2-.2.3 0 .1.1.3.2.4 0-.1.1-.2.2-.3zm1.4 107.8h-.2l.1.4.1-.4zm.9-7.6c-.2 0-.3-.1-.5-.1-.1 0-.1.2-.2.3.2 0 .3.1.5.1.1.1.1-.1.2-.3zm-.7-57.4l.1.1c.1.1.1.2.2.2-.1 0-.1-.2-.3-.3.1 0 .1 0 0 0zm.7 13.4l-.4.1.3.2.1-.3zm.4-28.6c.1 0 .3-.1.4-.1-.2 0-.5-.1-.7-.1 0 .1.1.2.3.2zm.3 4.4l.4.2v-.4l-.4.2zm.5 17.6l-.1-.3-.2.3h.3zm1.3-52.8c-.2-.3-.4-.8-.5-.8-.8.2-1.1.9-1.2 1.6 0 .2.3.7.5.7 1 0 1.1-.8 1.2-1.5zM720 196c0-.5-.3-1.3-.6-1.4-.9-.2-1.3.5-1.3 1.4 0 .6.3 1 1 1.1.6 0 1-.5.9-1.1zm0 19.2c-.1-.3-.2-.7-.3-1-.2.3-.4.6-.4.9 0 .3.2.7.2 1 .2-.3.3-.6.5-.9zm13.2 76.2c-.4.2-1.3.2-.2.8.1.1.3-.4.2-.8zM433.1 546.3c-.6 9.6-4.8 17.5-11.1 24.4-.5.5-1.6 2.8-2.6.3-1.9 5.2-6.8 7.7-10.8 10.6-6.1 4.4-12.4 8.7-20.2 10.5-3.1.7-6.6-.3-9.3 2-.5-1.1-1.4-2.5-2.4-1.5-5.6 5.6-12.8 2.9-19.1 3.3-8.1.6-16-2-23.7-4.7-1.2-.4-3.9.8-3-2.5 0-.1-2.7-1.3-3.9-.3-.9.7-1.8 1.2-2.5.6-3.1-2.6-7.7-2.2-10.5-5.2-8.3-2.4-14.8-8-21.9-12.6-1.3-1.1-3.7-1.2-2.7-4 .6-1.6-.3-1.3-1.3-.6-.9.6-1.7-.1-2.6-.3-2.9-.9.3-5.5-3.6-5.6-2-.1-2-.1-3.8-4.4h-.1v-.1c-.8-.6-1.5-1.1-2.3 0 0 0 0 .1.1.1h-.2l.1-.1c-2.2-2.5-4.1-5.2-6.6-7.4-1.8-1.5-2.1-3.5-3-5.4h.4l-.2-.1c-1.4.4-2.7-.3-2.8-1.3-.8-4.6-5-7-6.8-11-.2-.5-.7-1.1-.7-1.6 0-6.7-4.8-11.5-7.2-17.2-2.5-6-5-12-7.9-17.9-4.2-8.4-5.7-17.8-7.1-26.9-2.3-14.3-4.2-28.7-6.1-43.1-1.1-7.8-.2-15.7-1.8-23.5-.9-4.6-.6-9.4-2.4-13.9-3.6-9.2-15.9-17.3-25.4-15.5-2.9.5-5.6 2.4-8.3 3.7-1.7.8-3 2.5-5.2 1.4-.5-.3-1.3-.5-1.2.2.5 3.6-3.8 3.6-4.4 6.2 0 0 .1 0 .1-.1.3.7.7 1.3 1 2 1.3 3.3-1.9 6.5.5 10.1 2 3 .7 7.1 1 10.7.3 3.8.2 7.7.2 11.5 0 3.6-.5 7.4-.3 10.8.4 6.8.2 13.6 1.1 20.3.5 3.7.1 7.5.3 11.3.5 8.8 3.7 16.3 9.7 22.7l.1-.1c0 .1 0 .2-.1.3v-.2c-1.9 2.7-3.9 4.4-7.8 3.4-2.4-.6-5.3.3-8 .5-14.2.7-28.5.3-42.7.1-4.5-.1-8.9-.1-12.7-3.3 3.9-3.5 7.9-7.1 11.9-10.8 4.2-4.5 3.4-10.5 4.8-15.9 1-3.6.8-7.2.9-10.8.1-2.3-.2-4.6.9-6.7-.6-.5-.9-1.1-.8-1.9 2.1-13-.9-25.9-1-38.8 0-4.2-1.3-8.8-2.2-13.1-.5-2.1-3.5-1.8-3.4-4.2-.3-.2-.5-.4-.7-.7-3.2-4.7-6.5-8.7-12.8-9.7-5.6-.9-10 .8-14.4 3.8-2 1.4-4.1 2.7-5.9-1 .8 2.8 1 4.7-1.6 6.1-6.1 3.4-7.5 8.6-7 15.5.9 11.6.2 23.3.7 35 .5 12.7.4 25.5 3.1 38.1 1.1 4.9 6.4 5.9 7.3 10.4 3.8-3.3 5.5 2.9 8.8 2 1.2-.3 1.9-.3 2.1 1 .2 1.1-1.1.9-1.3 1.2-2.5 4.2-6.5 2.2-9.8 2.1-1.4 0-2.7-1-4.4 0-1.9 1-4.2.6-6.3.4-3.2-.4-6.3-2.1-9.5.1-1 .7-2.1-.5-3.2-1-2.4 2.8-5.4.6-8 .8-14.9.8-29.7.9-45.2.4.8-1.9 1.1-3.6 3.4-4 4.1-.6 5.8-3.6 7.9-6.9 4.5-7.1 4.4-15.2 6-22.9.9-4.2 1-8.2 1-12.3 0-1.1.4-2.6 1.1-3.1 1.7-1.3 3.9-2-.2-2.8-.6-.1-.2-1.4 0-2.1 1.6-6.4.9-13 .8-19.4-.1-5.7-.5-11.6-1.1-17.4-1.3-15.3-4.6-30.1-11.3-44-1-2-2.6-3.6-4.1-5.3-.7-.8-2.2-.8-1.9-2.4.3-1.7 1.8-2 3.1-2 5.6-.3 11.2-.9 16.7-.8 11.1.1 22.1.6 33.2.8 8 .1 8.6.8 9.1 8.7.3 4-.4 8 .6 12 .8 3.6.2 7.5.2 10.6 3-2.6 6.1-5.3 9.2-8 .1 3.2 1.5 1.1 2.5.7-.8-.3-1.6-.6-2.4-.8 3.9-6.4 11-8.9 16.5-13.3 1.1-.9 2 .6 3.1.4 2.4-4 7.6-5.8 11.6-3.9.8.4 1.2.5 1.6-.9.6-1.6 1.4-2.3 2.9-2 6.1 1.4 12.2-1.3 18.4.6 3.6 1.1 6.6 3 9.8 4.6 2.7 1.3 1.2 3.6 1.2 6.5 2.4-3.4 4.2-2 5.5 0 2.8 4.3 6.1 8.4 7 14.4 2.9-2.7 5.9-3.9 8.4-7.2 4.6-5.8 11.4-10 19.2-11.4 3.6-3.7 7.7-5.5 12.9-3.8.5.2 1.2.6 1.4.1 2.3-5.1 6.6-1.2 9.8-2.3 3.6-1.2 7.2-.5 10.8-.2 4.7.5 9 1.9 13 4.5 1.6 1 3.6 1.7 2.9 4.3-.3 1-.1 2.2 1.4 1.4 2.8-1.5 4.1.8 5.1 2.3 7 10.3 10.9 21.1 11.4 34.1.8 23-1.5 46 .1 68.9.8 11 2.8 21.9 4.8 32.7 3 16.7 9.3 32 17.4 46.7.8 1.5 2.3 3.2.9 5.2 4.1.7 5.6 4.5 7.6 7.2 6.6 8.7 14.4 16 23.8 21.4 1.8 1 3.9 2.1 5.9 2.2 4.2.2 7.6 2.2 11.2 3.9 0 .1 0 .1.1.2v-.1c.1 0 .2.1.3.1 0 .1 0 0-.1.1 7.4.1 14.4-1.3 20.9-5 6.8-8 9.7-18 13.6-27.5.2.2.4.5.6.7.1-.1.4-.3.3-.3-.2-.3-.4-.5-.6-.7.3-2 1.1-3.5 3.4-3.6 2.6-1.8-1.1-3.8 0-5.7 3.9-6.3 7.2-13.1 14.7-16.1 5.1-4.2 10.6-4.9 16.6-2l-.4-.2.3.1c10 1.6 20.4 13.2 19.6 26.1zM46.5 381.8c-.1 0-.3-.1-.4-.1-.1 0-.1.2-.1.3.2.1.3.1.5.1-.1 0 0-.2 0-.3zm3.6 56.5c.1-.5-.1-.6-.5-.2-.1.1 0 .3.1.4.1-.1.3-.2.4-.2zm9.3 22.7c0-.1-.3-.2-.4-.2-.4.1-.5.3-.2.7.1.1.3 0 .4 0 .1-.3.2-.4.2-.5zm5.5 7.6c-.1-.1-.2-.3-.4-.3h-1c.1.2.3.4.4.6.4-.1.7-.2 1-.3zm4 2.4l-.9-.6-.9.6c.3.2.6.5.9.5.3 0 .6-.4.9-.5zm2.2-15.3l-.6-.9c-.4-.4-.7-.2-.9.3-.1.6 0 1.1.7 1.2.3 0 .5-.4.8-.6zm1-104.4c0-.6-.4-1-1-1.2-.3.1-1 .1-1 .3-.1.7.5.9 1.1 1 .3 0 .9-.1.9-.1zm3.7 108.1c0-.4-.2-.5-.6-.2l.1.3c.1 0 .3-.1.5-.1zm.4-111c.1-.1.3-.1.4-.2-.1-.1-.2-.2-.4-.2-.1 0-.3.1-.4.2.2.1.3.1.4.2zm1.3 135.5c0-.1-.1-.1-.1-.2-.1-.1-.2 0-.3 0 .1.1.3.1.4.2zm.2-14.4c-.1 0-.3-.1-.4-.1 0 0-.1.2-.1.3.1 0 .3.1.4.1 0 0 0-.2.1-.3zm1.5-24c-.1-.1-.3-.3-.4-.3l-.9.3c.1.1.3.3.4.3l.9-.3zm1.7-99.8l-.4.1.4.2v-.3zm16.7 24.5c-.1-.1-.2-.4-.3-.4-.3 0-.6.1-.9.1.1.2.2.4.4.6.2-.1.5-.2.8-.3zm7 110.9c0 .1.2.2.3.4.1-.1.3-.2.3-.3 0-.1-.2-.2-.3-.4-.1.1-.3.2-.3.3zm12.9-116.3c-2.3-1.8-4.6-3.7-7.5-.4 2.1.3 4 .4 4.3 2.7.9-1 1.6-2.3 3.2-2.3zm-4.2-10.7c.1.1.2.2.3.4.1-.1.3-.1.3-.2v-.4c-.3 0-.5.1-.6.2zm.9 13.2c-.5-.1-.9-.1-.5.7.1-.3.3-.5.5-.7zm4.3-15.9c-.2-.2-.5-.3-.7-.5-.1.5-.2 1.1.7.5zm1.3 4.2c0-.3-.3-.5-.5-.8-.4.4-.8.7-1.2 1.1l.6.6c.7.1 1.1-.2 1.1-.9zm.9 5.1h-.3l.1.4.2-.4zm2.3 3.5h-.4l.2.4.2-.4zm2.2-7.9c.1-.8-.6-.8-1.1-1.1-.3.2-.9.2-1 .5-.4 1 .6.7 1 .8.4.1 1.1 0 1.1-.2zm-1.1-6.8c.2-.3.3-.6.5-.9l.2-.2-.2.3c-.4.1-1.3 0-.5.8zm2.3 15.9c-.1-.1-.1-.3-.2-.3s-.3 0-.5.1c-.3.2-.2.4.3.5.1-.1.3-.2.4-.3zm.5-3c-.1.1-.2.1-.2.1.1.2.3.1.2-.1zm-.1-.1c.1-.1.1-.1 0 0 .1-.1.1-.1 0 0zm7.7 18.3c-.1-.2-.1-.3-.2-.5-.5.2-.9.4-1.4.6.5 0 1.1 0 1.6-.1zm-1.5-13.3c-.1.5.2.7.7.5.1 0 .2-.3.2-.4-.1-.3-.3-.6-.5-.9-.2.3-.3.5-.4.8zm.1-19.7c-.1.1.2.7.3.8.6.1 1-.2 1.1-.8l-.3-.9c-.3.3-.7.6-1.1.9zm1.7 23.5c0-.5-.4-.6-.8-.4-.2.1-.3.3-.4.4l.4.4c.4.2.8.1.8-.4zm1.7 5.9c.2-.3 0-.5-.6-.4-.3.1-.6.3-.9.4.3.1.7.2 1 .2.2 0 .4-.1.5-.2zm2.7-26.7l-.2-.3-.2.3h.4zm4.1 113.8c-.4-.6-.8-1.5-1.3-1.6-2-.4-1.8 1.8-2.5 3.2 1.2-.5 2.5-1.1 3.8-1.6zm-3.3-25.5c.1-.1.3-.2.4-.3-.1 0-.3 0-.3.1 0 0 0 .1-.1.2zm2.5 41.6c-.4-.8-.7-1.7-1.8-1.4-.2 0-.4.6-.3.9.4 1.3 1.3.7 2.1.5zm-1.4-28.2c.1.1.2.3.4.3.1 0 .3-.1.5-.2-.1-.1-.2-.3-.4-.3s-.4.2-.5.2zm1.2-97.1h.3l-.1-.3-.2.3zm.6 3.6l-.4-.2v.4l.4-.2zm2.3 91.4v-.3l-.3.1.3.2zm.1 6.7l-.3-.1.1.4.2-.3zm-.2-80.9h-.4l.2.4.2-.4zm2.9 97.8c-.8.3-1.3.9-1.6 1.6 0 0 .3.3.4.2 1-.2 1.2-1 1.2-1.8zm-.8-22.1c.1.3.2.6.4.9.1-.1.4-.3.4-.3-.1-.3-.3-.6-.4-.9-.2 0-.4.2-.4.3zm2.4 17.3c-1.9 1.3-1.2 3-1.4 4.4 1.3-1 2.6-2.2 1.4-4.4zm-1.2-39.6c0 .2.1.3.1.5.1 0 .2-.1.4-.1 0-.2-.1-.3-.1-.5-.1 0-.4.1-.4.1zm1 18.5c0 .2.3.5.5.8.3-.2.7-.3.9-.5.3-.4.2-.7-.2-.8-.5-.2-1.1-.2-1.2.5zm.2-15l.4-.1-.3-.2-.1.3zm1.8 30.2c-.1-.1-.2-.3-.3-.4-.1.3-.3.6-.4.9 0 .1.2.3.3.4.1-.3.3-.6.4-.9zm-.4-7.5l-.2.3h.4l-.2-.3zm2.5-33.5c-.1-.3-.2-.8-.4-.9-.5-.3-1-.1-1.2.5-.1.3.1.7.3.9.5.2 1 0 1.3-.5zm-1.4-36.8c-.1.4.1.7.5.5.3-.1.4-.4.6-.7-.2-.4-.5-.5-.8-.2-.1.2-.2.3-.3.4zm2.5 42.2c-.2-.4-.4-.3-.5.2 0 .3.1.6.2 1 .1-.1.3-.1.3-.2 0-.4.1-.7 0-1zm1.8 43.9c-.1 0-.1.1 0 0-.4.3-1.2.1-1.2.9 0 .1.2.3.4.4.2-.4.5-.8.8-1.3zm-1.4-69.9c.1.2.4.4.6.6.2-.3.4-.5.6-.8l-.9-.3c-.1.1-.3.4-.3.5zm.3 35.8l.3.2v-.3l-.3.1zm-.2-82.6c.3.3.5.2.5-.2 0-.1-.1-.3-.2-.4-.1.1-.2.1-.2.2-.1.1-.2.4-.1.4zm0-4.3l.2.4.2-.4h-.4zm1.2 94.5h-.2v-1.1c-.8.4-.3.8.1 1.3 0-.2.1-.2.1-.2zm1.8-2.3c-.3-.3-.9-.4-1.4-.6-.1.5-.3 1-.4 1.6.6.2 1 .6 1.2 1.2h-.1l.1.1c.6-.6 1.4-1.2.6-2.3zm-1.9-33.1c.1.1.2.3.3.3.1 0 .2-.2.3-.3-.1-.1-.2-.3-.3-.3-.1 0-.2.2-.3.3zm4.9 69.8c-1.8.7-2.6-.1-4 1.3 1.3-.3 2.2.3 4-1.3zm-3.7-14.8h-.1c.2.4.4 1 1 .9.1 0 .2-.2.4-.3-.5-.2-.9-.4-1.3-.6zm.6-16.5l.2-.4h-.4l.2.4zm.2-79.8c-.1.6.1 1.1.8 1.2.7.1 1-.5 1-1.1 0-.9-.6-.9-1.2-.8-.1 0-.5.4-.6.7zm1 105.8c-.1.1-.3.2-.3.3 0 .1.2.2.3.4.1-.1.3-.2.3-.3-.1-.2-.2-.3-.3-.4zm1.8-68c-.1-.1-.2-.4-.2-.4-.3.1-.6.2-.8.3 0 .1.1.4.1.4.3-.1.6-.3.9-.3zm1.7-45.7c-.3-1.4-.7-2.6-2.8-3.3.7 1.8.3 3.8 2.8 3.3zm0 18.4c-.2-.5-.4-1-.7-1.3-.7-.5 1.2-2.1-.7-1.7-.8.2-.6 1.2-.5 1.9.1 1.3 1.1 1.2 1.9 1.1zm.2 86c-.1-.3-.3-.6-.4-.9-.1.1-.4.3-.3.4.1.3.2.6.4.9.1-.1.2-.2.3-.4zm.1-6.2c-.1-.1-.2-.3-.3-.4-.1.3-.3.6-.4.9 0 .1.2.3.3.4.1-.3.2-.6.4-.9zm.9-97.4c0-.7-.6-.7-1-.8 0 .5.1 1 .7 1.1 0 .1.3-.2.3-.3zm-.6 18s-.2-.1-.3-.1c.1.3.2.4.3.1zm1.7 57h-.4l.2.4.2-.4zm1-76.7c-.1 0-.1 0-.1.1l.1-.1zm2.3 30.5c-.4-.1-.8-.3-1-.1-.3.1-.5.5-.6.8 0 .1.5.5.5.5.3-.4.7-.8 1.1-1.2zm-.8 68.8c0-.1-.1-.3-.1-.5-.1 0-.3 0-.4.1-.1.1-.1.4-.1.5.2.4.5.4.6-.1zm.8-47.9c0-.2 0-.4-.1-.4-.1-.1-.4-.1-.5-.1-.4.2-.4.5.1.7.2 0 .3-.1.5-.2zm0-40c0-.1-.1-.3-.1-.4-.1.1-.2.2-.2.3 0 .1.1.3.1.4 0-.1.1-.2.2-.3zm.6 36.1c.3.2.5.4.7.5.2.1.5 0 .7-.1-.1-.1-.2-.3-.4-.3-.3 0-.6 0-1-.1zm4-23.5c1.1-2.2 1.8-3.7-.7-4.5h-.1c-.4.2-.8.4-1.2-.1-.6.4-2.4.1-1.6 1.5.7 1.4 2.8 1.2 3.6 3.1zm-2.2 81.8c-.2-.1-.6.1-.9.1.2.5.3 1 .6 1.5.3.4.7.2.9-.2.2-.7-.2-1.1-.6-1.4zm-.6 8.9l-.3.1.3.2v-.3zm1 3.8l-.3-.3c-.1.1-.3.2-.3.3 0 .1.2.2.3.3 0-.1.1-.2.3-.3zm1.1-15.5c-.1-.3-.2-.7-.4-1-.1.1-.4.3-.4.4.1.3.2.7.3 1 .3-.1.4-.2.5-.4zm.3-90l.1.3.2-.3h-.3zm1.1 42.1l.3.9c.1-.1.3-.2.4-.3l-.3-.9c-.1.1-.4.2-.4.3zm.7 4.6c.1 0 .3-.1.5-.2 0-.1 0-.3-.1-.3-.1-.1-.4-.2-.5-.1-.4.2-.4.5.1.6zm.3 59.1c0-.3 0-.7-.1-1-.2.4-.2.7.1 1zm.8-1.4c-.1 0-.2-.1-.3-.1-.1 0-.1.1-.2.1h.5zm4.5-25.7c.1.1.3.4.4.4.3-.1.7-.2 1-.3-.1-.1-.3-.4-.4-.4-.3 0-.7.2-1 .3zm2.5 27.9c.2 0 .3.1.5.1.1 0 .1-.2.2-.3-.2-.1-.3-.1-.5-.1-.1-.1-.2.2-.2.3zm10 4v-.2c0 .2.1.4.1.6-.1-.1-.1-.2-.1-.4zm8.4-117.6c-1.2-1.4-2.8-1.9-4.4-.3.8 1.5 3 1.4 3.5 3.1.9-.8 1.8-1.8.9-2.8zm-1.1 3h-.2c-.1 0-.1.2-.1.3l.3-.3zm5.7-11.1c-.1-.1-.2-.2-.3-.4-.1.1-.2.2-.4.3.1.1.2.3.3.3.1.1.2-.1.4-.2zm5.3.1c0-.4-.1-.5-.5-.2l.1.3c.2 0 .3-.1.4-.1zm11.4-7.9l-.6-.6c-.2.2-.4.4-.5.7 0 .1.2.4.3.4.2-.2.5-.4.8-.5zm20.5 73.7c-.2-.2-.4-.3-.7-.4 0 0-.3.2-.3.3 0 .1.1.3.2.4.4.2.7.1.8-.3zm5.5 21.2c0-.3-.4-.5-.6-.7-.3.2-.8.4-.8.5 0 .3.2.7.4.8.7.3 1.1.1 1-.6zm2.1-74.6c-.1-.6-.6-.9-1.2-.9-.2.3-.6.6-.5.9.1.6.6 1 1.2.8.2-.1.5-.6.5-.8zm.4-11.1c.2 1.3.1 2.4 1.3 3 .2.1.9 0 1-.2.3-1.5-.5-2.3-2.3-2.8zm2.6 20.7c-.8-.6-.4-2.1-1.7-2.3-.1 0-.4.6-.4.9-.2 1.8 1 1.6 2.1 1.4zm-.2 86.3l-.3.1.3.2v-.3zm0-5.5l-.1-.3-.2.3h.3zm1.5 36.2c0-.2-.5-.4-.7-.6-.1.5-.2 1-.2 1.5 0 .2.5.4.8.7.1-.6.2-1.1.1-1.6zm-1.3-117l.1.3-.1-.3c.1.1.1 0 0 0zm2.3 127.1l-.1-.4-.2.3.3.1zm2.2-114.7l.4.2v-.4l-.4.2zm1.3 113.4c-.3-.4-.6-.3-.7.2 0 .1.1.3.2.4.1 0 .2-.1.4-.1.1-.1.2-.4.1-.5zm7-123.7c-1.5-2.1-3.3-1.1-5.2 0 1.8.2 2.2 3.7 4.7 1.9.6-.4 1-1.2.5-1.9zm-3.6 86.1c0-.3-.3-.5-.5-.8-.2.3-.4.5-.5.8 0 .1.1.4.3.4.4.3.8.1.7-.4zm1.2-3.9l-.3-.9c-.1.1-.4.2-.4.3 0 .3.1.6.2.9.2-.2.4-.2.5-.3zm2.1-47.5s-.2-.1-.3-.1c0 .1-.2.3-.1.4.1.2.3.1.4-.3zm5.4 126.4H271.4h-.3zm1.2 5.5c0-.1 0-.3-.1-.3-.1-.1-.4-.1-.4-.1-.4.3-.3.5.1.6.1 0 .3-.2.4-.2zm3.5 8.6h2.2c-.1.5-.2 1.2-.4 1.3-.9.1-1.3-.7-1.8-1.3zm2.4-5.2c-.2-.2-.5-.4-.8-.5 0 0-.3.2-.3.4 0 .4.2.6.7.5l.4-.4zm-.9-2.4l.1.3.2-.3h-.3zm15.2 22.1h-.3c0 .1 0 .1-.1.2.1 0 .3-.1.4-.2zm5.3.4c0-.2-.5-.3-.7-.4-.6.4-.7 1-.6 1.5.1.4.3 1.4 1 .5.4-.4.3-1.1.3-1.6zm9.7-7.7c-.1-.1-.2-.1-.2-.2 0 .1.1.1.2.2zm7.1 20c-.1 0-.3-.1-.3 0-.1 0-.1.1-.2.2.2-.1.3-.2.5-.2zm28.1 7.7c.1-.1 0-.3-.1-.5-.1-.1-.3 0-.4 0-.1.2-.2.4-.2.5.2.4.5.4.7 0zm19.5-4.6h-.3l.1.3.2-.3zm3.3-10.3c-.1-.2-.2-.3-.3-.5.1.3.2.6.2.8 0-.1.1-.2.1-.3zm8.1 6.8c-.1-.1-.3-.3-.4-.3l-.9.3c.1.1.2.4.3.4.4-.2.7-.3 1-.4zm5 10.8c.1 0 .3.1.4.2-.2 0-.5 0-.7.1.1-.1.2-.3.3-.3zm.5.2c.1 0 .1 0 0 0 0 0-.1 0 0 0zm3.4-28.2c-.7-.3-1.5-1.1-2.3 0-.1.1 0 .4.1.5.9.8 1.4-.3 2.2-.5zm-2.3-13.2c.2.6.8.9 1.2.7.6-.3 1-1 1.5-1.5-.4-.2-.9-.7-1.3-.6-.7 0-1.3.5-1.4 1.4zm2.8-7.2c-.2-.3-.4-.7-.5-1.1-.1.5-.4 1 .5 1.1zm2.2 19.2c-1.2-.6-1.5 1.1-2.5 1.2.4.8.8 1.9 1.9.8.4-.5.7-1.9.6-2zm-1.3-3.5l.3-.1-.2-.2-.1.3zm2.9-4.2c0-.1-.2-.3-.3-.4-.2.3-.3.6-.4.9 0 .1.2.2.4.3 0-.2.2-.5.3-.8zm.8-9.9h-.4l.1.4.3-.4zm0-9.3l-.3-.2v.3l.3-.1zm2.3 19.9l-.1-.4-.2.3.3.1zm3.7 24.4c-.3-.5-.5-.4-.6.2 0 .1.1.3.2.5 0 0 .2-.1.4-.1-.1-.3.1-.5 0-.6zm.9-40.8h-.4l.2.4.2-.4zm4.6 19.8l-.2-.4-.2.4h.4zm2.4 10.2h-.4l.1.4.3-.4zm1.2-13.8l-.1-.4-.2.3.3.1zm2.2-3.4l-.1-.3-.2.3h.3zm3-26.4c.1-.1.3-.2.4-.3l-.3-.3c-.2.1-.3.3-.5.4.1.1.3.2.4.2zm2.6 11.1c-.1-.4-.7-1.1-1.1-1.1-.4 0-.8.7-1.2 1 .1.9.7.7 1.2.7.4 0 1.2.1 1.1-.6zm-1.8-5.7c.1.1.2.3.4.3.1 0 .3-.1.5-.2-.1-.1-.2-.3-.4-.3s-.4.1-.5.2zm.9 30.3l-.1-.4-.2.3.3.1zm2.3-29.4c.1-.1 0-.3-.1-.5 0-.1-.2 0-.3 0-.1.2-.2.4-.2.5.2.6.4.6.6 0zm1.2-3.1c0-.1-.2-.2-.3-.4-.1.1-.3.2-.3.3 0 .1.2.2.3.4.1 0 .3-.1.3-.3zm0 38.1h-.4l.2.4.2-.4zm5.8-37.5c-.1-.1-.2-.2-.4-.3-.1.1-.3.2-.4.3-.2.4-.1.7.3.7.5 0 .7-.3.5-.7zm-.1 4.6c-.2-.4-.4-.2-.5.3l.4.2c0-.2.2-.4.1-.5zm.9 34.1c-.1.1-.1.3-.2.4.1 0 .2-.1.2-.1.1 0 0-.2 0-.3zm.2-9.4l-.3.1.3.2v-.3zm.1-8h-.3l.1.3.2-.3zm3.5-11.7h-.4l.2.4.2-.4zm1 10.8v-.3l-.3.1.3.2z"/><path class="st0" d="M435.5 374.7c-.5 4.1-1.1 8.1-.9 12.3.1 1.2-.1 2.9-1.4 3.6-3 1.4-2.6 1.8.3 2.3.8.1.3 1.3.2 2.1-1.2 7.1-.6 14.3-.4 21.4.1 5.5.3 11 .8 16.5 1.3 15.1 4.7 29.7 11.4 43.4.9 1.8 2.5 3.3 3.8 4.9.8.9 2.8.9 2.1 2.9-.6 1.9-2.4 1.8-3.8 1.9-5.2.3-10.4.8-15.6.8-11.4-.1-22.9-.6-34.3-.8-7.1-.1-8.3-1.2-8.3-8.3.1-7.9-1.6-15.7-.9-22.9-3 2.5-6.1 5.2-9.2 7.9 0-3.2-1.4-1.2-2.4-.8.7.4 1.4 1.1 2.4.9-3.9 6.4-11 8.9-16.5 13.3-1.1.9-2-.6-3.1-.4-2.3 4-7.7 5.8-11.6 3.9-.8-.4-1.2-.5-1.6.9-.5 1.6-1.4 2.2-2.9 2-2.9-.5-5.7-.3-8.7.1-3.2.5-6.5-.3-9.7-.8-3.8-.6-6.6-2.9-9.9-4.5-2.7-1.3-1.3-3.6-1.2-6.5-2.4 3.2-4.1 2.1-5.5 0-5.7-8.3-9.8-17.2-10.5-27.4-.2-.3-.4-.5-.5-.8-.9-4.4.5-8.8-1.1-13.5-1.6-4.7-1-10.3-.9-15.4.2-5-.6-10 .6-14.9.6-2.3-.7-4.4-.7-6.7-.1-7.5-.1-15.1-1.1-22.5-1.4-11.6-6.8-20.6-18.3-24.9-.5-.2-.9-.7-1.3-1.1 4.4-3.2 9.6-2.7 14.4-2.9 5.5-.1 11.1-.7 16.6-.7 11.6-.1 23.1.3 34.7.4 2.6 0 2.6 1.5 2.3 3.4-1.2 8.8-1.9 17.7-3.6 26.4-1.1 5.9.3 11.9-1.7 17.7.6.5.9 1.1.8 1.9-2 13 .9 25.8 1 38.8 0 4.2 1.3 8.8 2.2 13.1.5 2.2 3.5 1.8 3.4 4.2 1.2 1.5 2.3 2.9 3.5 4.4 5.1 6.4 13.1 8.1 20.4 4.3 1.5-.8 3.1-1.5 4.5-2.5 2.1-1.5 3.8-1.2 5.5 1.2-.9-2.6-.9-4.5 1.6-6 6.1-3.4 7.5-8.6 7-15.5-.8-11.6-.3-23.4-.7-35-.5-12.7-.4-25.5-3.1-38.1-1.1-4.9-6.5-5.9-7.3-10.4-3.8 3.5-5.5-2.9-8.8-1.9-1.2.4-1.9.2-2.1-1.1-.2-1.1 1.1-.9 1.3-1.2 2.5-4.2 6.6-2.4 9.8-2.1 1.8.2 3.2.5 4.9-.2 3.6-1.4 7.3.6 10.9.6 1.1 0 1.6 2 2.8-.5.7-1.4 3.2-.4 4.7.6 2.3-2.8 5.4-.6 8-.8 13.9-.8 27.8-.8 41.7-.6 1.1 0 2.2.2 3.5.3-.8 2.1-1.6 3.6-3.8 4-3.9.6-5.7 3.3-7.3 6.6-3.5 6.5-5.4 15.6-6.4 22.7zm-144.8-26.5c-.1-.1-.2-.3-.3-.4-.1.1-.3.2-.3.4 0 .5.2.7.5.5.1-.1.1-.3.1-.5zm2.3 3c0-.1-.4-.3-.6-.5-.1.3-.2.6-.2.9 0 .1.2.2.4.3.1-.2.4-.4.4-.7zm1.9-3.5c-.2 0-.3-.1-.5-.1-.1 0-.1.2-.2.3.2 0 .3.1.5.1.1.1.1-.2.2-.3zm2.4 27.9c-.1-.1-.3-.4-.4-.3l-.9.3c.1.1.3.4.4.4.3-.2.6-.3.9-.4zm4.7-25.7c.1 0 .2.1.3.1.1 0 .1-.1.2-.1h-.5zm.4 58c.1.1.2.3.3.3.5.1.7-.1.6-.4 0-.1-.3-.1-.4-.2-.2.1-.3.2-.5.3zm2.2 35.8c-.7.6-1.8 1.2-1.9 1.9-.2 1.5 1.2 1.9 2.5 2.2h.1c.4-.3.8-.4 1.2 0 .5-.2 1.4-.3 1.5-.6.5-2.6-3.2-1.5-3.4-3.5zm-1.2-32.4c-.1.1-.4.3-.3.4l.3.9c.1-.1.2-.2.3-.4l-.3-.9zm-.6-61.8c.2-.4.4-.7 0-1.1v1.1zm2.1 104.6h-.3l.1.3.2-.3zm.2-89.8c.1.3.2.7.4 1l.4-.4c-.1-.3-.3-.6-.4-1-.2.1-.4.3-.4.4zm1-3.7c.3.4.7.9 1.1 1 .4.1.6-.3.3-1.1-.2-.1-.5-.5-.9-.8-.2.3-.6.7-.5.9zm.2-11.8c0 .1.2.2.3.3.1-.1.3-.2.3-.3 0-.1-.2-.2-.3-.3-.1.1-.3.2-.3.3zm1.6 70.5c-.3-.1-.6-.1-1-.2.2.2.4.5.7.6.1.1.4.1.5.1.4-.2.3-.4-.2-.5zm1.5 36.4s-.2-.1-.3-.1c0 .1-.2.3-.1.4.3.3.4.2.4-.3zm0-39.3c.1 0 .3-.1.4-.2 0-.1 0-.3-.1-.4-.1-.1-.4-.2-.5-.1-.4.3-.3.6.2.7zm1.3 19.7c0-.1-.1-.3-.2-.4-.4.3-.8.5-1.2.8-.3.3-.2.5.1.6.9-.1 1.2-.5 1.3-1zm-.9-67.8c.2.4.5.4.6-.1 0-.1-.1-.3-.1-.5-.1 0-.3 0-.3.1-.2.1-.3.3-.2.5zm1.6 99c-.1 0-.1 0-.1.1 0-.1 0-.1.1-.1zm1.4-76.6l-.1-.4-.2.4h.3zm1.7 75.6c0-.5-.1-1-.7-1.1-.1 0-.4.2-.4.3.1.7.6.7 1.1.8zm-.5-18.7s.2.1.3.1c-.1-.3-.2-.4-.3-.1zm3.1 22c-.3-2-.3-3.6-2.5-3.2.2 1.4.7 2.6 2.5 3.2zm-2.5-21.7c.2.5.4 1 .7 1.3.7.5-1.2 2.1.7 1.7.8-.2.6-1.2.5-1.9-.1-1.2-1.1-1.1-1.9-1.1zm-.2-79.7c0 .1.2.3.3.4.1-.3.3-.6.4-.9-.1-.1-.2-.3-.3-.4-.2.3-.3.6-.4.9zm0-5.7c0 .1.2.3.3.4.1-.3.3-.6.4-.9-.1-.1-.2-.3-.3-.4-.1.3-.3.6-.4.9zm2 58.1v.4c.3 0 .6-.1.9-.1v-.4c-.3.1-.6.1-.9.1zm2.7 37.9c.1-.6-.2-1.1-.6-1.2-.9-.1-1.1.4-1.2 1-.1.5.1.7.6.8.5.2 1.1.1 1.2-.6zm-1.9-111.9c.9.6 1.7.6 2.6-.1-.9-.5-1.7-.5-2.6.1zm1 5.4c-.1.1-.3.2-.3.3 0 .1.2.2.3.3.1-.1.3-.2.3-.3 0 0-.2-.1-.3-.3zm1.7 10.2c.1 0 .1 0 0 0-.1-.4-.2-1-.9-.8-.1 0-.2.2-.4.3.5.1.9.3 1.3.5zm1 20.7c-.7-.1-1.8-1-1.9.6-.1.8.9 1.4 1.5 1.2.8-.2.5-1.1.4-1.8zm-1.6-4.2l-.2.3h.4l-.2-.3zm1.8 38.5l-.3-.3-.3.3c.1.1.2.3.3.3l.3-.3zm1.2 7.8c-.1-.5-.3-.6-.7-.4-.1.1-.3.2-.3.4-.1.4.1.7.5.6.1 0 .3-.4.5-.6zm-.1-70.6c0-.1-.2-.3-.4-.4l-.9 1.2h.1c.4-.3 1.2 0 1.2-.8zm0 117.8c.1-.1 0-.3 0-.4 0-.1-.2-.1-.4-.1 0 .1-.1.3-.1.4.1.5.3.6.5.1zm-.3-82.6v-.3l-.3.1.3.2zm.4 86.6l-.3-.2v.4l.3-.2zm.8-78.1h-.3c0 .3-.2.7-.1 1 .1.6.3.6.5.1.1-.4 0-.8-.1-1.1zm2.1 43.2c.1-.4-.1-.6-.6-.5-.2.2-.4.5-.6.7.3 0 .6.1.9.1.1 0 .3-.2.3-.3zm.3-36.5c-.1-.6-.6-.9-1.1-.7-.2.1-.5.5-.4.8.1.6.5.9 1.1.7.1 0 .2-.5.4-.8zm.5-41.7c0 .3.2.6.3.9.1-.1.3-.2.4-.3l-.3-.9c-.2.1-.5.2-.4.3zm.2 7.9l.4-.1-.4-.2v.3zm1.7 8.1c-.1-.3-.2-.6-.3-1-.3.1-.7.1-1 .4-.2.1-.2.7-.1.8.5.3 1 .2 1.4-.2zm1.2-25.9c-1.3 1.1-2.6 2.2-1.3 4.7 1.6-1.6 1.1-3.2 1.3-4.7zm-1.3 40.7h-.4l.1.4.3-.4zm1.1 3.2c0-.1-.1-.3-.2-.4-.1.1-.2.3-.2.4 0 .1.1.3.2.4 0-.2.2-.3.2-.4zm2-45.9s-.3-.3-.4-.2c-1 .3-1.1 1-1.2 1.8.7-.3 1.2-.8 1.6-1.6zm-.8 23.8c-.1-.3-.2-.6-.4-.9-.1.1-.4.3-.4.3.1.3.2.6.4.9.2-.1.3-.2.4-.3zm2.4 75.4l-.4.1.3.2.1-.3zm-.2-80.8l-.4.1.3.2.1-.3zm0 7.2l-.1-.3-.2.3h.3zm2.9-12.9c2.1.6 2-1.7 3.2-2.7-1.9-1.1-2.9 1.5-4.4.9 0 .9.6 1.6 1.2 1.8zm-.3 104.1l-.2-.4-.2.4h.4zm.1 3.6l-.1-.3-.2.3h.3zm-.1-125.4c.3.8.6 1.7 1.8 1.4.2 0 .4-.6.3-.9-.4-1.3-1.3-.7-2.1-.5zm.8 27.8c-.1 0-.1.3-.2.4.2 0 .4.2.5.2.3-.3.2-.6-.3-.6zm1.6 13.8c-.1.1-.3.2-.4.3.1 0 .3 0 .3-.1.1-.1.1-.1.1-.2zm1.1 88.2l-.4.1.3.2.1-.3zm3.9-27.3h-.3c-.4.3-.8.6-1.2.8.2 0 .4.2.4.1.2-.3.4-.6.7-.9h.4zm.3 6.6c0 .5.4.6.8.4.2-.1.2-.3.4-.4l-.4-.4c-.5-.2-.8-.1-.8.4zm1.2 22.7c-.3 0-.8.2-1 .4-.3.5-.3 1.1.5 1.1.3 0 .6-.4.8-.6.3-.4.2-.8-.3-.9zm.6-32.4c-.5 0-1.1-.3-1.5.4l.3.3c.4-.2.8-.4 1.2-.7zm-.1 13.7c0-.3-.3-.5-.5-.7-.4.1-.5.4-.3.8.1.2.2.3.3.5.3.1.5-.1.5-.6zm6.3 4.8l-.1.1c0-.1 0-.1.1-.1zm.8-3.3c-.1 0-.3.1-.4.1 0 .1 0 .3.1.4.1.1.3.1.4.1.4-.3.3-.5-.1-.6zm1.7 9.1c-.4.1-1 .1-1 .2-.1.8.6.9 1.1 1 .3.1.9-.2.9-.5.3-1-.6-.5-1-.7zm0 7.2c-.1.2-.1.4-.2.6.3-.1.8-.1.2-.6zm1.6-15.1h-.4l.2.4.2-.4zm2.3 3.5h-.3l.1.4.2-.4zm2.3 4.8c-.3-.1-.6-.2-.9-.4-.6.1-.9.5-.8 1.1.1.5.4.7.7.4.4-.3.7-.8 1-1.1zm.3 5.1c0-.4.1-1-.7-.4.2.1.4.3.7.4zm3.7-15.2c0-.3-.1-.6-.3-.9-.7 1-1.5 2-2.3 3 1.9 1.3 4.3 2.7 5.6.6 1.2-2-3-.5-3-2.7zm-.2-1.1c.5.1.9.1.5-.7-.1.3-.3.5-.5.7zm1 13.2c0-.2-.2-.3-.3-.5-.4.3-.4.6 0 .8 0 .1.3-.1.3-.3zm8.7-127l-.3-.3c-.1.1-.3.2-.3.3 0 .1.2.2.3.3l.3-.3zm8.2 111.1c-.2-.2-.4-.3-.6-.5-.2.2-.5.3-.7.5.1.1.3.3.4.3.4-.1.6-.2.9-.3zm15.8 24.2l-.4-.2-.1.3.5-.1zm2.5-99.7c-.1-.1-.2-.4-.3-.3-.3 0-.6.2-.9.3.1.1.2.3.3.3.4 0 .6-.2.9-.3zm1-24.1c-.3 0-.5-.1-.8-.1.1.1.2.2.4.3.1 0 .3-.1.4-.2zm-.5-14.3c0 .1.1.1.1.2.1.1.2 0 .3 0-.1-.1-.2-.2-.4-.2zm1.1 135.5s-.1.2-.1.3c.1.1.3.2.4.1.3-.2.2-.4-.3-.4zm1.3-111c-.2 0-.3-.1-.5-.1 0 0-.1.2-.1.4.2 0 .3.1.5.1 0 0 0-.3.1-.4zm5.1 108.9c-.4-.3-.9-.7-1.3-.9-.5-.3-.9-.1-.8.3.2.5.7.8 1 1.1.4-.2.8-.4 1.1-.5zm.4-104.7c.1-.6 0-1.1-.7-1.1-.2 0-.5.4-.8.5l.6.9c.5.4.8.3.9-.3zm2.5-15.7c-.3-.2-.6-.6-.8-.6-.3 0-.6.3-.9.5l.9.6c.2-.2.5-.4.8-.5zm3.2 2l-.9.3c.3.1.5.3.8.4.1 0 .4 0 .5-.1.2-.3.1-.5-.4-.6zm5.2 7.7c0-.1-.3-.2-.4-.2-.4.1-.5.3-.2.7.1.1.3 0 .4 0 .2-.2.3-.4.2-.5zm12.4 79.1s-.1.2-.1.3c.2 0 .3.1.4.1.1 0 .1-.2.1-.3-.1-.1-.3-.1-.4-.1zM728.9 482.5c-3.4 2.5-7 3.7-11.2 3-2.1-.3-4.2-.2-6.3-.1-17.6 1.3-35.2.9-52.8.1-3.6-.2-7.2.6-10.9-.1-1.5-.3-2.6-.8-3-2.2-.4-1.6.6-2.7 1.9-3.1 2.7-.8 4.6-2.7 6.7-4.3 6.2-4.7 8.9-11.1 9.9-18.7.9-7.1.6-14.3 1.3-21.4 1.4-12.6-.8-25-1.3-37.4-.2-4.5-.1-9.9-2.8-13.6-3.3-4.5-6.6-9.3-11.5-12.5-4.2-2.7-8.9-2.4-13.4-2.4-3.1 0-6 2.3-8.8 3.8-1.8 1-3.5 2.6-5.6.8-.2 3.3-3.8 4.1-5 6.7h.1c.3.7.7 1.3 1 2 1.3 3.3-1.9 6.5.5 10.1 2 3 .8 7.1.9 10.7.1 3.8.7 7.6.3 11.5-.4 3.6.4 7.2-.6 10.9-.6 2.2.6 4.4.7 6.7.2 8.1.9 16.2 1 24.2.2 9.1 3.6 16.7 9.5 23.4l.1-.1V480.6c-1.9 2.7-4 4.3-7.8 3.3-2.5-.6-5.3.3-8 .5-14.2.7-28.5.3-42.7.1-4.5-.1-9 .4-12.2-3.6 3.5-3.1 7.5-6.8 11.6-10.4 4.2-4.5 3.4-10.6 4.8-15.9 1-3.6.8-7.2.9-10.8.1-2.3-.2-4.6.9-6.7-.6-.5-.9-1.1-.8-1.9 2-13-.9-25.8-1-38.8 0-4.2-1.3-8.8-2.2-13.1-.5-2.2-3.5-1.8-3.4-4.2-1.2-1.5-2.3-2.9-3.5-4.4-5.1-6.4-13.1-8.1-20.4-4.3-1.5.8-3.1 1.5-4.5 2.5-2.1 1.5-3.8 1.3-5.5-1.2.8 2.6.9 4.5-1.6 6-6.1 3.4-7.5 8.6-7 15.5.8 11.6.2 23.4.7 35 .5 12.7.4 25.5 3.1 38.1 1.1 4.9 6.5 5.9 7.3 10.4 3.8-3.6 5.5 2.9 8.8 1.9 1.2-.4 1.9-.2 2.1 1.1.2 1.1-1.2.9-1.3 1.2-1.2 2.2-3 2.3-5.2 2.4-4.3.2-8.6-1.4-13 .1-1 .3-2.3-.1-3.4-.3-1.8-.3-5.4-.2-7.7.4-1.4.3-2.6-.4-3.8-1-2.3 2.8-5.4.6-8 .8-13.9.8-27.8.8-41.7.5-1.1 0-2.2-.2-3.5-.3.8-2.4 1.9-3.9 4.4-4.1 3.2-.2 5-2.8 6.1-5 1.6-3.2 3.9-6.1 4.4-10.1.9-8.3 4.1-16.3 3.1-24.9-.2-1.8-.2-4.3 1.7-5.2 2.9-1.6 2.5-1.9-.4-2.4-.8-.1-.3-1.3-.2-2.1 1.2-7.1.6-14.3.4-21.4-.1-5.5-.3-11-.8-16.5-1.2-15.1-4.8-29.7-11.4-43.4-.9-1.8-2.5-3.3-3.8-4.9-.8-.9-2.8-.9-2.1-2.9.6-1.9 2.4-1.8 3.8-1.9 5.2-.3 10.4-.8 15.6-.8 11.2.1 22.5.6 33.7.8 7.8.1 8.4.9 8.9 8.8.3 4-.3 8 .6 12 .8 3.6.2 7.4.2 10.3 3-2.5 6.1-5.2 9.2-7.8 0 3.2 1.4 1.2 2.4.8-.7-.4-1.4-1-2.4-.9 3.9-6.4 11-8.9 16.5-13.3 1.1-.9 2.1.6 3.1.4 2.3-4 7.9-6 11.5-3.9 1.1.7 1.3.2 1.5-.3 1.4-4 4.4-3.3 6.6-1.6 2.1 1.6 1.5-.7 2.2-.9 5.1-1.8 19.6 1.8 23.3 5.9.7.7 1.2 1.4.8 2.5-.7 2.2-1.3 4.2 1.9 1.3 1.2-1.1 2.4 1 3 1.9 3 4.2 6 8.4 7.3 14.1 3-2.2 5.7-3.5 8.3-6.8 4.6-5.8 11.4-10 19.2-11.3 3.5-3.8 7.7-5.4 12.8-3.8.5.2 1.1.7 1.4.2 1.2-2.5 3.3-2.9 5.7-2.8 9.7.2 19.6-1.2 28.3 4.9 1.1.8 2.8 1.3 2.6 2.8-.3 2.5-.2 3.4 2.8 2.3 1.6-.6 2.9 1.6 3.9 3 6.4 8.9 11 18.7 11.3 29.6.1 5.8 2.2 11.2 1.8 17.1-.5 5.9.8 12 .1 17.8-.9 8.4.2 16.8.4 25.1.3 10.1 1.3 20.6 6.7 29.8.1.3-.1.7-.2 1.1l.1-.1c1.7 2.6 5.1 2.5 7 4.8 1.6.2 2.9-.5 4 .8zM484 380.2c-.1-.1-.2-.3-.4-.3-.6 0-.6.2-.1.4.2.1.4-.1.5-.1zm12.8 79c0-.1-.3-.2-.4-.2-.4.1-.5.3-.2.7.1.1.3 0 .4 0 .1-.2.2-.4.2-.5zm5.4 7.5c-.3-.1-.7-.2-1-.2-.6.1-.6.4 0 .6.3.1.7 0 1 0 0-.1-.1-.3 0-.4zm4.1 2.5c-.3-.2-.6-.5-.9-.5-.3 0-.6.3-.9.5.3.2.6.4.8.6.4-.2.7-.4 1-.6zm2.2-15.3c-.3-.3-.5-.6-.7-.8-.4-.3-.7-.1-.8.4-.1.6.1 1.1.9 1 .1 0 .3-.4.6-.6zm1-104.8c-.4-.2-.8-.6-1.3-.8-.2-.1-.6.3-.8.5.5.3.9.6 1.4.9.5.3.8.1.7-.6zm3.6 108.5s-.1-.2-.1-.4c-.2 0-.5.1-.5.2 0 .4.2.5.6.2zm.5-111c.1 0 .3-.1.4-.2-.1-.1-.2-.3-.3-.3-.1 0-.3.1-.4.1.1.3.2.4.3.4zm1.5 121.3c-.1-.1-.2-.2-.4-.3-.1 0-.3.1-.4.1l.3.3c.3 0 .4 0 .5-.1zm-.2 14.2c0-.1-.1-.1-.1-.2-.1-.1-.2 0-.3 0 .1.1.2.2.4.2zm1.7-38.4c-.1-.1-.2-.4-.3-.3-.3 0-.6.2-.9.3.1.1.2.4.3.3.3 0 .6-.2.9-.3zm1.8-99.6l-.4-.1v.3l.4-.2zm16.4 24.1c-.3-.1-.7-.3-.9-.2-.5.1-.5.4 0 .7.1.1.4.1.5.1.1-.2.3-.4.4-.6zm7.1 111.1c0 .1.2.2.3.4l.3-.3c-.1-.1-.2-.2-.3-.4-.1.1-.3.2-.3.3zm12.1-117c-1.9-1.3-4.3-2.7-5.6-.6-1.2 2 3 .6 3 2.8 0 .3.1.6.3.9.7-1 1.5-2 2.3-3.1zm-3.4-10.2c.1.2.1.3.2.5.1 0 .4-.1.4-.1 0-.2 0-.4-.1-.5-.1 0-.3.1-.5.1zm1 13.4c-.5-.1-.9-.1-.5.7.1-.2.3-.5.5-.7zm4.2-15.8c-.2-.1-.5-.3-.7-.4 0 .3-.1.9.7.4zm1.3 4.2c0-.3-.3-.5-.5-.8-.4.4-.8.7-1.2 1l.6.6c.8.1 1.1-.2 1.1-.8zm1 5.2l-.1-.4-.2.3.3.1zm2.3 3.3h-.4l.2.4.2-.4zm2.1-8.5c-.4-.1-1-.2-1.5-.2-.2 0-.4.5-.5.8.6.1 1.1.2 1.7.3.5 0 .6-.3.3-.9zm-.9-6.3c.1-.2.1-.4.2-.6-.3 0-.8 0-.2.6zm1.8 15.7c-.1 0-.3.1-.4.2 0 .1 0 .3.1.3.1.1.4.1.4.1.4-.3.4-.5-.1-.6zm.8-2.8l-.1.1.1-.1zm7.6 18.1l-.3-.3c-.4.2-.8.4-1.2.7.5 0 1.1.3 1.5-.4zm-1-32.1c.6.2 1-.1 1.2-.6-.1-.3-.2-.6-.2-.9-.4.2-.9.4-1.2.7-.4.3-.3.7.2.8zm-.1 18.1c-.1.2-.2.3-.2.5 0 .3 0 .8.2.9.4.2.6-.1.6-.5l-.6-.9zm1.4 4.7c0-.1-.2-.3-.3-.4-.3.2-.6.3-.9.5.1.1.2.3.4.4.5.2.8 0 .8-.5zm1.7 5.8c-.2 0-.4-.2-.4-.1-.2.3-.4.6-.7.9l-.4.1h.3l1.2-.9zm2.8-26.7h-.4l.1.4.3-.4zm4 113.8c-.3-.5-.6-1.2-1-1.3-2.7-1-1.9 1.8-2.9 3 1.4-.6 2.6-1.1 3.9-1.7zm-3.2-25.4c.1-.1.3-.2.4-.3-.1 0-.3 0-.3.1-.1.1-.1.2-.1.2zm2.4 41.7c-.3-.8-.6-1.7-1.8-1.4-.2 0-.4.6-.3.9.4 1.2 1.3.7 2.1.5zm-1.4-28.2c.1.1.2.3.4.3.1 0 .3-.1.5-.2-.1-.1-.2-.3-.4-.3-.1-.1-.3.1-.5.2zm1.3-97.1h.3l-.1-.3-.2.3zm0 3.5l.3.2v-.4l-.3.2zm3 98.3l-.1-.3-.2.3h.3zm-.6-81.1l.2.4.2-.4h-.4zm.7 74l-.3-.2v.3l.3-.1zm2.6 23.9c-.8.3-1.3.9-1.6 1.6 0 0 .3.3.4.2 1-.2 1.1-1 1.2-1.8zm-.8-22.2l.3.9c.1-.1.4-.3.4-.3-.1-.3-.2-.6-.4-.9-.1.1-.3.2-.3.3zm2.3 17.1c-1.6 1.6-1.1 3.2-1.3 4.7 1.3-1.1 2.6-2.2 1.3-4.7zm-1.1-39c.2.3.4.2.5-.3 0 0-.2-.1-.3-.2-.1.2-.3.4-.2.5zm1 18c0 .3.3.6.4.9.3-.2.8-.2.9-.5.5-.7-.1-.9-.7-.9-.1 0-.6.3-.6.5zm.1-15h.4l-.1-.4-.3.4zm1.9 30.8c-.1-.3-.2-.6-.4-.9-.1.1-.4.3-.3.4.1.3.2.6.4.9 0-.1.1-.3.3-.4zm-.5-7.9v.4l.4-.1-.4-.3zm2.5-33.5c.1-.5-.1-1-.7-1.1-.3 0-.7.2-.8.5-.2.6.1 1 .7 1.1.2-.2.7-.3.8-.5zm-1.3-36.7c0 .4.2.5.6.4.2-.2.3-.5.5-.7-.3 0-.6-.1-.9 0-.1-.1-.2.2-.2.3zm2.5 42.8c0-.3-.1-.6-.1-1-.1.1-.3.2-.3.2 0 .3-.1.7 0 1 .1.4.3.3.4-.2zm1.7 43.2c-.4.3-1.2 0-1.2.8 0 .1.2.3.4.4.3-.4.5-.8.8-1.2zm-1.1-69.5c.3-.1.6-.1.9-.2.3-.4.2-.7-.3-.7h-.5c-.1.3-.1.6-.1.9zm.3 35.1l-.2.3h.3l-.1-.3zm-.5-82.5c.1.5.3.5.4.1 0-.1 0-.3-.1-.4 0 0-.1 0-.2-.1 0 .1-.1.2-.1.4zm.1-4h.4l-.1-.4-.3.4zm1.3 93.2c.7.1 1.8 1 1.9-.6.1-.8-.9-1.4-1.5-1.2-.8.2-.5 1.1-.4 1.8zm-.2-34.2c.1.1.2.3.3.3.1 0 .2-.2.3-.3-.1-.1-.2-.3-.3-.3-.1 0-.2.2-.3.3zm4 70.4c-1-.3-1.8-.6-3.3.7 1.5-.4 2.3.2 3.3-.7zm-2.9-15.5c.2.5.3 1 1 .9.1 0 .2-.2.4-.3-.5-.2-.9-.4-1.4-.6 0 .1 0 0 0 0zm.8-16.6l-.1-.4-.2.3.3.1zm.1-79.3c.1.3.3.8.6.9.6.2 1.1-.2 1.2-.8.1-.7-.3-1-.9-1.1-.7 0-1 .3-.9 1zm.9 105.4c-.1.1-.3.2-.3.3 0 .1.2.2.3.3l.3-.3c-.1 0-.2-.2-.3-.3zm3.6-113.7c-.2-1.4-.7-2.6-3.3-3.4 1.3 2 .9 4 3.3 3.4zm-1.7 45.4c-.1-.1-.3-.1-.4-.2-.2.2-.5.4-.7.6l.4.2c.2-.2.5-.4.7-.6zm1.7-26.9c-.2-.5-.4-1-.7-1.3-.7-.5 1.2-2.1-.7-1.7-.8.2-.6 1.2-.5 1.9.1 1.2 1 1.1 1.9 1.1zm.2 86l-.3-.9c-.1.1-.4.3-.4.4l.3.9.4-.4zm0-5.7l-.3-.9c-.1.1-.4.3-.4.4 0 .3.2.6.3.9l.4-.4zm1-97.9c0-.7-.6-.7-1-.8 0 .5.1 1 .7 1.1 0 0 .3-.2.3-.3zm-.7 17.9s-.2-.1-.3-.1c.2.3.3.4.3.1zm1.7 57h-.4l.2.4.2-.4zm1.1-76.7c0 .1 0 .1 0 0 0 .1 0 .1 0 0zm.6 31.1c-.1.2.2.5.4.8.4-.4.7-.8 1.1-1.2-.3-.1-.6-.3-.8-.3-.3.1-.5.4-.7.7zm.9 68.1c-.1-.1-.2-.3-.3-.4-.1.1-.3.2-.3.4-.1.5.1.7.4.5.1-.2.1-.4.2-.5zm.7-47.8c0-.1 0-.4-.1-.4-.1-.1-.3-.1-.5-.1-.4.2-.4.5.1.7.2 0 .4-.1.5-.2zm0-39.8c0-.1-.1-.3-.1-.4-.1.2-.1.3-.2.5.1-.1.2-.1.3-.1zm1.1 36.4c.3.1.6.2 1 .2 0-.1 0-.4-.1-.4-.3-.1-.7-.3-1-.3-.5.1-.5.4.1.5zm3.6-23.8c.8-2.4 1.9-4-.8-4.7h-.1c-.4.3-.8.5-1.2 0-.6.4-2.3.1-1.6 1.5.7 1.4 2.9 1.1 3.7 3.2zm-1.6 82.6c-.1-.6-.5-1.1-1.1-1.1-.5 0-.7.4-.4.8.3.4.7.8 1 1.1.1-.3.3-.6.5-.8zm-.3 11.7l-.3-.3c-.1.1-.3.2-.3.3 0 .1.2.2.3.3l.3-.3zm1.2-16c0-.1-.2-.3-.4-.4-.1.3-.3.7-.4 1 0 .1.2.3.4.4.2-.4.3-.7.4-1zm.3-89.5l.1.3.2-.3h-.3zm1.1 42.1l.3.9c.1-.1.4-.2.4-.3 0-.3-.2-.6-.3-.9-.1.1-.4.2-.4.3zm.7 4.6c.1 0 .3-.1.5-.2 0-.1 0-.3-.1-.3-.1-.1-.4-.2-.5-.1-.4.2-.4.5.1.6zm.2 58.1c-.2.4-.4.7 0 1.1v-1.1zm.8-.4c-.1 0-.2-.1-.3-.1-.1 0-.1.1-.2.1h.5zm4.6-25.6c.1.1.3.4.4.3.3-.1.6-.2 1-.4l-.4-.4c-.4.2-.7.3-1 .5zm2.5 27.8c.2 0 .3.1.5.1.1 0 .1-.2.2-.3-.2 0-.3-.1-.5-.1-.1 0-.2.2-.2.3zm9.9 4.2v-.2c.1.2.1.4.2.6-.1-.2-.2-.3-.2-.4zm8.4-117.8c-1.2-1.3-2.8-1.8-4.4-.3.8 1.5 3 1.4 3.5 3.1 1-.7 1.8-1.8.9-2.8zm-1 3h-.2c-.1 0-.1.2-.1.3l.3-.3zm5.6-11.1c-.1-.1-.2-.2-.3-.4-.1.1-.2.2-.4.3.1.1.2.3.3.3.2.1.3-.1.4-.2zm4.9 128.2l-.1-.4-.2.4h.3zm.5-128.1c0-.1-.1-.2-.1-.3-.1 0-.3.1-.4.1 0 .1.1.3.1.3.2 0 .3 0 .4-.1zm11.3-7.9l-.6-.6c-.2.2-.4.4-.5.7 0 .1.2.4.3.4.3-.2.6-.4.8-.5zm6.1 117.4c.8-.1 1-.7 1-1.4-.7-.1-1.3.1-1.5.8-.1.1.3.6.5.6zm1.3 13.9c-.2 0-.3-.1-.5-.1-.1 0-.1.2-.2.4.2.1.3.1.5.1.1 0 .2-.2.2-.4zm1.4-16.2c-1-.7-1.7-.6-1.6.8.6.2 1.4.6 1.9.5.5-.2.2-1-.3-1.3zm5.6 11.8l-.4-.2v.3l.4-.1zm.4-23.3h-.3l.1.3.2-.3zm2.5 18.8c.2-.5-.3-1-1-1.1-.9.3-1 1.1-.9 1.8 0 .5 0 1.3.7 1 .5-.2 1-1 1.2-1.7zm.4-23c-.3 0-.6-.1-.9-.1-.1 0-.2.3-.2.5 0 .5.2.7.6.5.2-.3.4-.6.5-.9zm.7 15.6c-.2-.5-.5-.4-.6.2 0 .1.1.3.2.5.1 0 .4 0 .4-.1.1-.2.1-.4 0-.6zm2-41.1c0-.2 0-.4-.1-.5-.1-.1-.4-.2-.5-.1-.4.3-.4.6.1.7.2.1.4-.1.5-.1zm5.6 20.8c-.2-.3-.6-.4-1-.5-.4.2-.6.6-.3 1 .2.3.6.5.9.5.6-.1.8-.6.4-1zm1.5-75.2c-.2-.1-.7.1-.9.3-.4.6-.1 1.1.5 1.3.3.1.6-.2 1-.2.3-.7 0-1.2-.6-1.4zm1.2-9.4c.1.7.4 1.4.9 2 .3.4 1 .5 1.5-.1.1-1.1-.6-1.8-1.3-2.4-.6-.5-1.2-.1-1.1.5zm2.5 19.8c-.8-.6-.4-2.1-1.7-2.4-.1 0-.4.6-.4.9-.2 1.9.9 1.7 2.1 1.5zm-.2 86.6l-.1-.3-.2.3h.3zm0-5.9h-.3l.1.3.2-.3zm.3-80.3v-.2s0-.1-.1-.1l.1.3zm4.8 11.8l-.4.2.4.2v-.4zm7.8-10.2c-1.5-2-3.3-1-6.1 0 2.4.8 3.2 3.1 5.3 2.3.7-.3 1.5-1.2.8-2.3zm-3.5 86.2c0-.3-.3-.5-.5-.8-.4.1-.6.3-.5.7.1.2.2.4.3.4.4.4.7.2.7-.3zm1.2-3.9l-.3-.9c-.1.1-.4.2-.4.3 0 .3.1.6.2.8.2 0 .4-.1.5-.2zm11.5 11.1c0-.2-.2-.3-.2-.5-.2.1-.4.1-.5.2-.4.3-.3.7.1.8.4.2.7-.1.6-.5z"/><g><path class="st0" d="M85.1 84.5c-1 .9.1 2.4-1.3 2.9.7 1.3-.6 2.1-.8 3.1-.2.8-1.3.9-1.4 1.6-.1.9-.7 1.3-1.2 1.8-.4.4-.8 1.1-1.6.5-.3-.2-.6-.1-.7.3-.2 1.2-.7 2-2.1 1.3-.1 0-.3 0-.3.1-1.6 1.1-3.5.8-5.3.9-1.1.1-2.3-.1-2.8-1.5-2 .4-3.6-.5-5.1-1.5-2.9-2-4.4-4.9-5.1-8.4-.5-2.4-.6-4.8-.6-7.2 0-2.5-.4-5.1-.3-7.6.1-1.9-.1-3.7-.5-5.5-.2-1 .4-1.5.7-2.3.3-.6.7-1.2-.5-.9-.3.1-.5-.1-.5-.4.2-2.1-.6-4.1-.5-6.2 0-.3.1-.5.3-.6-.2-1.7-.5-3.4-.6-5.2-.1-.8-.2-1.1-1-1-.8.1-1.7 0-2.5.1-.6.1-1.6.2-1.7-.7-.1-1 .9-1.1 1.6-1.2.5-.1 1-.1 1.5-.1 1.6-.1 1.8-.4 1.7-2.1-.2-3.9-1.3-7.7-2.2-11.5-.3-1.4-.3-1.5 1.2-1.5 4 0 8-.1 12 0 1 0 1.9.2 2.9.3.7.1 1.6-.1 1.7.8.1 1 .7 2.2-.3 3-.7.6-.8.8.2 1.3.9.5.8 2.9 0 3.7.9 1.5.9 3.2.6 4.9-.2 1.1.2 1.2 1.1 1.3 2.6.1 5.1.3 7.7.1 1.4-.1 2.9.3 4.3.1.7-.1.4.4.5.7.3.6 0 .9-.5 1-.8.1-1.7.1-2.5.1-3.4-.2-6.7.3-10.2-.1-.7 1 .5 2.4-.7 3.3.9 1.1.7 2.4.7 3.6.1 4.1.3 8.2.5 12.2.2 3.6.2 7.3 1.1 10.9.2.9-.1 1.7.1 2.6.5 2.5 1.7 4.7 3.1 6.7-.3 0-.5 0-.6.2 0 .1 0 .3.1.3.4.1.5-.2.5-.5 1 .4 1.6 1.5 2.8 1.4.6-.9 1.7-1.4 2.5-2.1 1.3-1.3 2.6-2.7 2.8-4.7.1-.7.8-1.1 1.2-1.5 1.1.9.6 2.6 0 3.2zm-33-37.3v-.1l-.1.1h.1zm1.7.4l-.1-.1-.1.1.1.1c0-.1 0-.1.1-.1zm.7-7.9v-.2h-.1v.2h.1zm1.6 10.2l-.1-.1-.1.1.1.1.1-.1zm.5-11.6s0-.1-.1-.1h-.2v.1h.3zM58 67.7zm.4-17.7l-.1-.1c0 .1-.1.2-.1.3l.1.1c.1-.1.1-.2.1-.3zm-.2-13v.1-.1zm.3-5l.1.1.1-.1-.1-.1c0 .1-.1.1-.1.1zm.1 3.8c.1 0 .2-.1.2-.1 0-.1-.1-.2-.1-.3l-.1.1c-.1 0 0 .2 0 .3zm.1 2h-.1v.1l.1-.1zm0 2.4h-.1.1zm.4 44.1H59l.1.1v-.1zm.1-41.8l-.1-.1-.1.1.1.1s0-.1.1-.1zm.3 3.2l-.1-.1-.1.1h.2zm.9 32h-.1l.1.1v-.1zm.5 8.9l-.1-.1-.1.1c0 .1.1.1.2.2-.1-.1-.1-.2 0-.2zm-.2-47.2l-.1-.1-.1.1.1.1s.1 0 .1-.1zm.4 8.2v-.1l-.1.1h.1zm.5 42.2l-.1-.1-.1.1.1.1c.1 0 .1-.1.1-.1zm.5-14c-.1 0-.1-.1-.2 0-.2.1-.2.1 0 .2h.2v-.2zm.1-34.5c.3-.1.4-.3.5-.5-.1-.1-.1-.2-.2-.2-.3 0-.4.2-.4.5-.1 0 0 .2.1.2zm-.2-6.1v.3c.1.1.2.1.2-.1 0-.1-.1-.2-.1-.3 0 0-.1 0-.1.1zm.3 26.1h.3c-.1-.1-.1-.2-.2-.3h-.2c0 .1 0 .2.1.3zm.5 22.8c0-.1-.1-.1-.1-.1 0 .1.1.1.1.1zm.4 3.4v-.1l-.2.1h.2zm.2-45.7l-.1-.1-.1.1c0 .2.1.2.2.2v-.2zm.6 49.5c0-.1-.1-.1-.1-.2l-.1.1c0 .2 0 .2.2.2v-.1zm-.4-54.6l.1.1c.1 0 .2-.1.3-.1l-.1-.1c-.1 0-.2 0-.3.1zm.4 11.2c-.1 0-.1-.1-.2 0-.2 0-.2.1 0 .2h.2v-.2zm.2-8.2zm.4-.5c.2-.4.3-.8.2-1.3 0 .4-.9.8-.2 1.3zm.1.1c.1.5 0 1 .3 1.4 0-.5.7-1.2-.3-1.4zm.8 53.6l-.1-.1c-.1 0-.2.1-.3.1l.1.1c.1 0 .2-.1.3-.1zm.1-.7s0-.1-.1-.1h-.2c-.1.1-.1.2.1.2.1-.1.1-.1.2-.1zm.1-11c-.1 0-.1-.1-.1 0-.2 0-.2.1 0 .2h.2c-.1-.1-.1-.1-.1-.2zm.4-18.2l-.1.1.1.1V63zM66 36.8l.1-.1-.1-.1-.1.1c.1 0 .1.1.1.1zm.1 12.5v-.1H66s0 .1.1.1zm.4-16.4l-.4.8c-.1.3-.3.8.4.6.4-.3 0-.7 0-1.4zm-.4 6c.1 0 .2 0 .2-.2l-.1-.1c-.1 0-.2 0-.2.2l.1.1zm.2 26.1l.1.1V65h-.1zm.4 26.3l-.1-.1-.1.1.1.1s.1 0 .1-.1zm-.2-19h.1-.1zm.9 17.1v-.1h-.1l.1.1zm.1 2.4v-.1h-.1s-.1.1 0 .2c-.1.1 0 .1.1-.1zm-.1-35.7l-.1-.1c0 .1-.1.2-.1.3l.1.1c0-.1.1-.2.1-.3zm.3 39c0 .1-.1.2-.1.2.1 0 .3 0 .1-.2zm-.3-61.7c0 .1.1.2.1.1 0 0 0-.1-.1-.1zm1 41.2l.1.1c.1 0 .2-.1.3-.1l-.1-.1c-.1.1-.2.1-.3.1zm.2 9.3h-.1v.1l.1-.1zM69 94v-.2c-.1-.1-.2-.1-.2.1 0 0 0 .1.1.1h.1zm0-51.9c0-.1-.1-.1-.3-.2 0 .2-.1.4 0 .5 0 .2.2.2.2 0 0-.1.1-.2.1-.3zm.7-1.4c0-.7-.3-1.2-1-1.5 0 .9-.1 1.7 1 1.5zm.1 3.8c.1 0 .2-.1.2-.1-.1-.3-.3-.5-.6-.7-.1-.2-.1-.4-.4-.1.1.1.2.1.3.2 0 .4.1.7.5.7zM69.5 89c0 .1 0 .1.1.1V89s-.1-.1-.1 0zm.3 5.5l-.1-.1-.1.1.1.1.1-.1zm-.1-18.6v-.1h-.1l.1.1zm.3 7.7l-.1-.1h-.1l.1.1h.1zm.1 7.8h0c.1 0 .1 0 0 0zm0-30.1l.1.1c.1 0 .1-.1.2-.2-.1-.1-.2-.1-.2-.2-.1 0-.2.1-.1.3zm.7 34.6c0-.3-.2-.5-.5-.5l-.1-.1.1.1c0 .3 0 .5.3.6.1 0 .2-.1.2-.1zm-.5-37.7l.1.1c.1-.1.2-.1.2-.2s-.1-.1-.2-.2c-.1.2-.1.2-.1.3zm.1 24.2l.1.1.1-.1-.1-.1c-.1 0-.1 0-.1.1zm0-20.2h-.1.1zm0 17.2l.1-.1-.1-.1v.2zm.2-14.8s.1 0 .2-.1c-.1-.1-.1-.2-.2-.2-.1-.1-.2 0-.2.1s.1.2.2.2zm.5 22c-.4.6-.9 1.1-.6 2.1.6-.7.2-1.6.6-2.1zm0-13.8s.1 0 .1-.1c0 0 0-.1-.1-.1H71c-.1.1-.1.2.1.2zm.5 21.2c-.3 0-.3.1-.4.3-.1.2-.1.5.2.6.2 0 .3-.2.1-.3-.1-.2.4-.4.1-.6zm.5-10.7c.1 0 .2-.1.3-.2-.1-.1-.1-.2-.2-.3-.1 0-.3 0-.3.1-.1.3 0 .4.2.4zm1 6c-.2-.5-.6-.6-1.1-.2.3.3.5.6 1 .5 0-.1.1-.3.1-.3zm-.7-1.7c-.1.1-.1.2-.2.2.1 0 .2.1.3.1l.1-.1c-.1-.1-.2-.1-.2-.2zm.5 5.1c0-.2-.1-.4-.3-.4-.2 0-.4.1-.5.2 0 .2.1.5.4.5.2 0 .4-.1.4-.3zm1.1-2.4c.4.3.5-.3.6-.7-.1-.1-.2-.1-.3-.2-.1-.2.1-.3.3-.3v0c-.2-.2-.5-.8-.6-.5-.3.5-.6 1.3 0 1.7zm.6 3.8c.5-1 .5-1.1-.6-1.7.3.6-.1 1.3.6 1.7zm.3.5l-.2-.2c0 .2 0 .4.2.4v-.2zm2.6-2.6c.1 0 .1-.2.1-.3-.2-.6-.7-.5-1.4-.5.4.6.7.9 1.3.8zm.2 1c-.3 0-.5-.1-.6-.1-.1.1 0 .4.2.4.3.1.3-.1.3-.3h.1zm.8-3.5c-.1.3-.1.5 0 .8h.1c.3-.3 0-.6-.1-.8zm.2 1.7l-.1.1.1.1v-.2zm.9-.3l-.1-.1c-.1 0-.2.1-.3.1l.1.1c.1 0 .2 0 .3-.1zm2.8-3.2c0-.1-.2-.2-.2-.2-.2.1-.4.2-.4.3-.1.2.1.2.3.2.2 0 .3-.1.3-.3zm2.6-7.1c-.2 0-.5.1-.7.1h-.1.1c.2-.4.4-.5.7-.1zm0 .5v-.5h.1c-.1.1-.1.3-.1.5zM149 93.2c0 .4-.3.6-.6.6-.2.1-.5.1-.8.1-4.9-.4-9.8.8-14.6.3-2.7-.3-5.3.7-8 .2-.6-.1-1.2.3-1.9.4-.5.1-1.3.3-1.5-.4-.2-.6.3-1.2.9-1.3 2.8-.7 3.2-3.4 3.9-5.4.7-2 .4-4.4.8-6.6.4-2.5 0-4.9.3-7.3.4-3.5 0-7-.4-10.4v-.2c.6-2.7-.9-4.8-1.8-7.1-.5-1.2-1.8-1.7-3-2-.8-.2-1.7-.1-2.5-.1-.5 0-1.2.1-1.3-.7-.7-.1-1.3.1-1.4.8-.1.8-.7.9-1.3 1.1-1.8 1.1-3.1 2.8-4.7 4-1.2.9-1.5 2-1.4 3.4l.3 8.1c0 .4-.2.7-.3 1.1.5.4.5 1 .4 1.6-.3 2.8.1 5.6 0 8.4-.1 2.3.8 4.6 1.3 6.8.1.4.4.5.6.7.5.4.6 1 1 1.4.5.6 0 1 0 1.4 0 1.3.8-.6 1.1.2.2.6.9.7 1.4.9.4.2.8.3.7.8-.1.3-.5.4-.8.4-1.9-.1-3.8.4-5.7.4-1.8-.1-3.6.3-5.4.4-3.7.3-7.5.4-11.2.4H90c-.5 0-.9-.1-1-.7-.1-.5 0-.9.5-1.2 2.6-1.5 3.3-3.8 3.3-6.6 0-1.5-.3-3.1 1-4.4.1-.1.1-.2 0-.3-1-3.8.2-7.5.3-11.3 0-1.8.3-3.7.1-5.6-.2-1.6-.5-3.3.1-5 .3-1-.2-2.2-.3-3.3-.5-6.1-1.1-12.1-2.8-18-.4-1.2-.8-2.6-1.3-3.7-.3-.8-.9-2.1-2.1-2.5-.9-.4-.7-.9-.1-1.4.6-.5 1.2-.7 2-.7 1.4 0 2.7-.1 4.1-.1 4.2 0 8.4.1 12.7.2 1.9 0 2.8 1.1 2.7 2.9-.2 2 0 4 .2 6 .1 1.8 0 3.6-.2 5.4 0 .3-.1.5.2.6.2 1.5.6 3-.2 4.4 1.3 2 0 4.4.9 6.6 1.6-.5 1.5-2.5 2.9-3.2.3.1.5.2.8 0 .4-3 2.8-4.2 5-5.7 3.3-2.2 7-3 10.9-2.9.3 0 .6.1.8.3 3.4.6 6.2 2 8 5.1 1.5 2.6 2.8 5.2 3.2 8.2.1.8.5 1.6-.4 2.3-.1.1-.5.8.4.5.4-.1.5.4.4.7-.3 1.2 0 2.3 0 3.4 0 4.2.2 8.4.1 12.6-.1 1.7.4 3.4.2 5.1-.1.9.3 1.9.8 2.7.8 1.4 1.3 3 2.2 4.3 1.1.7 1.9 1.9 3.5 1.8-.1.2.2.7.1 1.1zm-55.6-8.1l-.1-.1c-.1 0-.2 0-.3.1l.1.1c.1 0 .2 0 .3-.1zm1.4-11.7c-.1 0-.2-.1-.4-.1s-.2.1-.2.3c.1.2.2.2.3.1l.3-.3zm1.5 1.5c-.1 0-.2-.1-.3-.1-.1 0-.2.2-.2.2 0 .1.2.2.3.1.1 0 .1-.1.2-.2zm1.3 10.9v-.2c-.1-.1-.1-.1-.2.1 0 0 0 .1.1.1h.1zm.3-5.6c0-.1-.1-.1-.1-.2l-.1.1c0 .2 0 .3.2.2v-.1zm0 9.2v-.1l-.1.1h.1zm.4-5.5h-.1l.1.1v-.1zm1.7 6.5s-.1-.1-.1 0c-.2 0-.2.1 0 .2h.1v-.2zm.6-19.3V71l-.1.1h.1zm.7 17.9h-.3l.1.1c.1-.1.2-.1.2-.1zm.1-9.8h-.1l.1.1v-.1zm0-3.8v-.1l-.1.1h.1zm1.1 14.6c-.1-.1-.3-.3-.4-.3-.1 0-.4.2-.4.4s.2.2.4.2c.2-.1.5 0 .4-.3zm-.5-11.5h.1-.1zm0 9.2l.1.1v-.1h-.1zm1.2-51.7c-.1-.3-.4-.3-.7-.3.2.3.5.3.7.3zm-.1 52c-.2.2-.5.2-.2.5.1-.2.2-.4.2-.5zm.4-51.8l-.1-.1v.1h.1zm1.4 52v-.1l-.1.1h.1zm0-53.2s.1 0 0 0zm.4 53.9h-.1v.1l.1-.1zm0-2.3h-.1v.1l.1-.1zm2.3-5.8h-.1.1zm.8 10.9s0-.1-.1-.1l-.1.1c.1.2.2.2.2 0zm-.2-23.7h.1v-.1l-.1.1zm.5 8.1h-.1v.1l.1-.1zm0-20.2h-.1l.1.1v-.1zm0 1.2V57v.1zm.5-11c0-.2 0-.2 0 0zm.3 25.9c0 .1 0 .1 0 0-.1.1 0 .1 0 .2V72zm.9 20.7zm.5-.1c0 .1 0 .1 0 0 0 .1 0 .1 0 0zm2.5-38.8h-.8c0-.2 0-.4.2-.4.4 0 .5.2.6.4zm4.5-3.4h-.1l.1.1v-.1zm6.2-4.2v-.1l-.1.1h.1zm1.4 46.2c-.1-.1-.1-.3-.2-.3-.2-.1-.4 0-.4.2 0 .1.1.3.2.3.2.1.3 0 .4-.2zm1.2-2.4c-.1-.2 0-.5-.3-.3-.1.1-.2.3-.2.4 0 .2.1.4.3.3.2 0 .2-.3.2-.4zm.8 1.7c0-.1 0-.2-.1-.2v.1c.1.3 0 .1.1.1zm.3.1c0-.1-.1-.1-.2-.1 0 .2 0 .5.2.1zm0-29.3l-.1-.1-.1.1.1.1s0-.1.1-.1zm.3 5.7V68h-.1c0 .1-.1.1 0 .2 0 .2.1.2.1 0zm1.4-18.2v.1l.1-.1h-.1zm.3 41.9h-.1l.1.1v-.1zm-.1-45.5c.4-.2.3-.5.3-.8-.3.2-.3.4-.3.8zm.6 34.8c.2 0 .2-.1.2-.3-.1-.2-.1-.2-.3-.1l-.3.3c.2 0 .3.1.4.1zm.2 6.2c.1 0 .2 0 .3-.1-.1-.1-.1-.2-.2-.3-.1-.1-.2-.1-.3.1 0 .2.1.3.2.3zm.3 6c0-.1-.1-.2-.2-.3-.1.1-.2.1-.3.2 0 .1 0 .3.1.3.3.1.4 0 .4-.2zm-.3-20.1h.2s0-.1.1-.1h-.2c-.1 0-.1.1-.1.1zm.1-18.6l.1.1v-.1h-.1zm.1 13.9v.1l.1-.1h-.1zm.6 23l-.1-.1c-.1 0-.2.1-.3.1l.1.1c.1 0 .2-.1.3-.1zm-.1-26.7v-.1h-.1v.1c0 .2 0 .2.1 0zm.4 13.9c-.1 0-.1-.1-.2-.1h-.1c.1.1.2.1.3.1zm.6 6.7l-.2-.2v.1c0 .1.1.1.2.1zm.6-2.5h-.1l.1.1V83zm.5-18.1c.1 0 .2-.1.2-.2 0-.2-.1-.3-.4-.2l-.3.3c.2 0 .4.1.5.1zm.3 9c0-.1-.1-.1-.1-.2l-.1.1c0 .2 0 .2.2.2v-.1zm.8 15.7l-.1-.1v.1h.1zm.6-6.2c-.1 0-.2-.1-.3-.1-.1 0-.2.1-.3.1.1 0 .2.1.3.1.1 0 .2 0 .3-.1zm.1-5.4v-.1l-.1.1h.1zm.8 10h-.1l.1.1V88zm.2-14.7h-.1v.1l.1-.1c0 .1 0 0 0 0zm.4-14.7c0-.1.1-.2.1-.3l-.1-.1c0 .1-.1.2-.1.3l.1.1zm.3 25.6v-.1l-.1.1h.1zm1-4.8h-.1l.1.1v-.1zm0-23.8s0-.1-.1-.1l-.1.1s0 .1.1.1c0-.1 0-.1.1-.1zm.4 36.1v.1-.1zm.3-2.5h-.2s0 .1-.1.1h.2c.1 0 .1-.1.1-.1zm-.2-19.3s.1.1 0 0l.1.1-.1-.1zm.2 4.5h-.1l.1.1v-.1zm.2-9.6h.1-.2.1zm.1 1.5l.1.1v-.1h-.1zm.2 5.9v-.1l-.1.1h.1zm.4-17.7c-.1-.1-.1-.3-.2-.3-.3.1-.4.3-.4.5 0 .1.1.2.2.2.3.1.4-.1.4-.4zm1.2 4.1c0-.2-.1-.4-.2-.5-.3-.1-.4.2-.5.5 0 .2.1.3.3.4.3-.1.4-.2.4-.4zm0 6.4c0-.1-.1-.2-.1-.3-.1.1-.1.2-.2.3 0 .1.1.2.1.3 0-.1.1-.2.2-.3zm4.4 25.5c-.1.1-.4.1-.1.3.1 0 .1-.1.1-.3zM194.9 76.7c-.4 2-1.1 3.8-2.3 5.4-.2-.1-.6-.5-.7 0-.1.4.4.3.7.4-.3.6-1.3.9-.9 1.8 0 .1 0 .3-.1.3-1.1.5-1.3 1.7-2.1 2.5-.1.4-.2.8-.6.8-.3 0-.7 0-.8.3-.9 2.8-3.4 4.1-5.6 5-2.2.9-4.3 2.5-7 2.1-.7-.1-1.4 1.1-2.1 0-3.5 1-6.7.1-9.7-1.5-5.5-2.8-9.4-7.3-11.9-12.9-.1-.2-.1-.5-.1-.7-.5-.4-.8-.8-1-1.3-1.1-3-1.6-6-1.4-9.2-.6-2 0-4.1.3-6.1.5-3.4 2-6.5 3.9-9.4 1.1-1.7 2.3-3.5 3.8-4.5 2.7-1.8 4.9-4.7 8.6-4.6 1.5-1.2 3.4-1.2 5.2-1.6.7-.2 1.5-.8 2.2.1.1.1.4.1.5 0 1.6-1.6 3.5-.2 5.2-.7.3-.1.6.1.8.3 3.4.6 6.3 2.2 8.9 4.3 1.4 1.2 2.7 2.6 3.2 4.5.1.3.2.7.4.9.9.9 1.4 1.9.9 3.2-.1.3.1.6.4.8v-.1.1c.7 1.1.7 2.1.2 3.3-.1.3-.1.5 0 .7 1.2 2 .4 4.2.7 6.2.1.6-.3 1.2-.8 1.2-1.5-.1-3 .7-4.4-.2-.3-.2-.4-.1-.7-.1-5 .6-10 .9-15 .8-1.9 0-3.8.7-5.7-.4-.8-.5-1.5.5-1.3 1.5.7 2.9 2 5.6 3.9 7.8 1.1 1.3 2.1 2.6 3.2 3.8 1.3 1.5 2.8 2.3 4.7 2.7 3.9.8 7.4.5 10.6-2.4 1.3-1.2 2.1-2.9 3.7-3.8.2-.1.6-1.4.9-2.1.2-.4.6-.8 1.1-.7.5.4.3 1 .2 1.5zm-43.2-12.8c-.1-.1-.2 0-.2.2 0 .1.1.3.2.3s.3 0 .3-.1c.1-.2-.1-.3-.3-.4zm2.3-2.1c-.1 0-.1.1-.1.1l.1-.1zm.4 1.9c0-.1-.1-.2-.1-.3-.1 0-.2.1-.1.1 0 .1.1.2.1.3 0 0 .1 0 .1-.1zm-.2-2l.1-.1s-.1 0-.1.1zm2.3 5.5c-.2-.3-.3-.5-.4-.7 0 0-.1.1-.2.1.2.1.4.3.6.4v.2zm.9-4.1s0 .1-.1.1l.1-.1c0 .1 0 0 0 0zm.7-7.7c-.1-.1-.2-.1-.3-.2 0 .1-.1.2-.1.3 0 .1.2.2.3.2.1 0 .2-.1.1-.3zm.6-4.5c0-.1 0-.3-.2-.3-.1 0-.2.1-.3.2 0 .1.1.2.2.3.1-.1.2-.2.3-.2zm.8 12.6v-.2h-.1s-.1.1 0 .2c-.1.2 0 .2.1 0zm-.3-9.1c0 .2.1.3.3.3-.1-.1-.1-.3-.2-.4l-.1.1zm.6 22.6v-.1h-.2c-.2.1-.1.2 0 .2 0 0 .1 0 .2-.1zm.5 8.2l-.1-.1v.1h.1zm.5-23.7c0-.2-.2-.5-.3-.4-.2.1-.2.4-.3.6-.1.2.1.4.2.4.4 0 .4-.4.4-.6zm-.1 3.6c0-.1-.1-.1-.1-.2l-.1.1c0 .2.1.2.2.2-.1 0-.1 0 0-.1zm-.3-5.5zm.7 25.9l-.1-.1-.1.1.1.1.1-.1zm.2-26.7c-.1-.1-.2-.1-.3-.1l-.1.1c.1.1.2.1.3.1 0 0 0-.1.1-.1zm.4.8v-.1l-.1.1h.1zm.4 2.3v-.1h-.1c-.1.1-.1.1 0 .2 0 0 0-.1.1-.1zm0-7.7s-.1 0-.1-.1c0 .1.1.1.1.2v-.1zm.1.2c-.1 0 0 0 0 0zm.7 28.3c-.4-.3-.5 0-.6.3.2 0 .5.2.7.1.2-.1.1-.3-.1-.4zm.8-18.4c.6-.6.5-1.3-.2-2-.6.7-.7 1.4-.1 2h.3zm.1 23.1v-.1l-.1.1v.1l.1-.1zm-.3-33.2v.2l.1-.1-.1-.1zm.4 6c-.1 0-.2.1-.3.1l.1.1c.1 0 .2-.1.3-.1l-.1-.1zm.6 23c-.1-.1-.2-.1-.3-.1-.2 0-.2.1-.1.3.1.1.2.2.3.1.1 0 .2-.2.1-.3zm-.1-31.8h-.1v.1l.1-.1zm.8 14.2c.2.9.5 1.1 1.4 1.2 1.4.2 2.8-.2 4.2-.2 2.2 0 4.5-.1 6.7.1 1.3.1 2-.5 2.1-1.8v-3.3c.2-2.9-.3-5.7-1-8.5-.7-2.7-3.3-4.1-6.1-3.6-4.4.9-6.3 4.4-7.3 8.1-.6 2.5-.6 5.3 0 8zm-.3 19.6s0 .1 0 0c0 .1 0 .1 0 0zm.2.2c-.1 0-.1 0 0 0zm.3-1.6c-.2 0-.3.1-.3.3l.1.1c.3-.1.4-.2.2-.4zm.4 0c0-.1-.1-.3-.1-.4-.1.1-.2.3-.3.4h.4zm-.4-32.4l.1.1v-.1h-.1zm.4 31.9s-.1 0 0 0zm.8.7c-.1-.3-.5-.2-.7-.2 0 .3 0 .6.4.6.1 0 .3-.3.3-.4zm0 7.3s0-.1-.1-.2h-.1l-.1.1c.1.2.2.2.3.1zm.1-14.7h.1-.1zm.2 3.1h-.1.1zm.4 8l-.1-.1-.1.1c0 .1 0 .2.2.2v-.2zm-.1-36.6h.1-.1zm.9 40.3l-.1-.1-.1.1.1.1.1-.1zm-.1-42c.1.1.2.1.3 0 0-.2 0-.4-.2-.5-.1 0-.3 0-.3.1-.1.2.1.3.2.4zm-.1 35.8h.1-.1zm.6-4.6c0-.1-.1-.1-.1-.1l-.1.1c0 .2.1.2.2.2-.1-.1-.1-.2 0-.2zm-.1 3.2v-.2l-.1.1.1.1zm.2 1.3l.1.1.1-.1-.1-.1s0 .1-.1.1zm.3 5.1l-.1-.1-.1.1s0 .1.1.1l.1-.1zm.6-3l-.2-.2c-.1.1-.2.1-.3.2 0 .1 0 .2.1.3.1-.1.3-.2.4-.3zm-.1-38.9l.1.1c.1 0 .1 0 .2-.1l-.1-.1c-.1 0-.1 0-.2.1zm1.1 39.6c0-.1-.1-.2-.3-.2l-.1.1c.1.1.2.1.3.2 0 0 0-.1.1-.1zm1.8 6.9h-.1v.1l.1-.1zm1.3-26.9c0-.1 0-.3-.1-.3-.1-.1-.3 0-.3.2 0 .1.1.2.1.3.1-.1.2-.1.3-.2zm.9 21.9l-.1-.1v.1h.1zm.9 1.5l-.1-.1-.1.1h.2zm1.9-4.3h-.1v.1l.1-.1zm1.8-42.9s.1.1.2 0c.4-.1.3-.4.3-.7-.2.2-.5.3-.5.7zm.6 43.8v-.1l-.1.1v.1s.1 0 .1-.1zm3.5-33.1l.1.1.1-.1-.1-.1s0 .1-.1.1zm.1-4.2h.1l-.1-.1v.1zm.1 7l-.1-.1-.1.1h.2zm.5 30.6c-.1-.1-.1-.1-.2-.1 0 0-.1 0-.1.1-.1.1-.1.1.1.2 0-.1.1-.2.2-.2zm.2-31.9c.1.2.2.2.2 0 0 0 0-.1-.1-.2h-.1c0 .1-.1.2 0 .2zm1.1.5l.1.1.1-.1-.1-.1s-.1 0-.1.1zm.4-1.6zm.8 8.2h.1-.1zm.7-14.1c.1 0 .2.1.3.1l.1-.1c-.1-.1-.2-.1-.3-.1 0 0 0 .1-.1.1zm2.3 37.9c.1-.1 0-.2 0 0 0-.1 0-.1 0 0zm3.2-5.1v0zm.5-19.2v.1l.1-.1h-.1z"/></g></svg>